<?xml version="1.0" encoding="UTF-8" standalone="no"?>
<!-- Created with Inkscape (http://www.inkscape.org/) -->

<svg
   width="120"
   height="120"
   viewBox="0 0 31.749999 31.749999"
   version="1.1"
   id="svg7932"
   inkscape:version="1.2.2 (b0a8486541, 2022-12-01)"
   sodipodi:docname="main-drawing.svg"
   xml:space="preserve"
   inkscape:export-filename="black/cog-s5.svg"
   inkscape:export-xdpi="96"
   inkscape:export-ydpi="96"
   xmlns:inkscape="http://www.inkscape.org/namespaces/inkscape"
   xmlns:sodipodi="http://sodipodi.sourceforge.net/DTD/sodipodi-0.dtd"
   xmlns="http://www.w3.org/2000/svg"
   xmlns:svg="http://www.w3.org/2000/svg"><sodipodi:namedview
     id="namedview7934"
     pagecolor="#ffffff"
     bordercolor="#000000"
     borderopacity="0.25"
     inkscape:showpageshadow="2"
     inkscape:pageopacity="0.0"
     inkscape:pagecheckerboard="0"
     inkscape:deskcolor="#d1d1d1"
     inkscape:document-units="mm"
     showgrid="false"
     inkscape:zoom="1.4088798"
     inkscape:cx="100.78929"
     inkscape:cy="42.587025"
     inkscape:window-width="1920"
     inkscape:window-height="1016"
     inkscape:window-x="0"
     inkscape:window-y="0"
     inkscape:window-maximized="1"
     inkscape:current-layer="layer1" /><defs
     id="defs7929"><linearGradient
       id="linearGradient121619"
       inkscape:swatch="solid"><stop
         style="stop-color:#886e0f;stop-opacity:1;"
         offset="0"
         id="stop121617" /></linearGradient></defs><g
     inkscape:label="Layer 1"
     inkscape:groupmode="layer"
     id="layer1"><path
       style="fill:#aa4400;stroke-width:0.0490444"
       d="m 14.707759,31.355562 c -0.491781,-0.176975 -0.731999,-0.655247 -1.080927,-2.152119 -0.06922,-0.296719 -0.136263,-0.574351 -0.14911,-0.616961 -0.01552,-0.05126 -0.130425,-0.09719 -0.339887,-0.135791 -0.174089,-0.03207 -0.347832,-0.07033 -0.386089,-0.08501 -0.04594,-0.01765 -0.21689,0.161411 -0.504135,0.528149 -0.554967,0.708579 -1.116868,1.298133 -1.35115,1.417653 -0.113316,0.05779 -0.284436,0.09356 -0.447722,0.09356 -0.215609,0 -0.301607,-0.027 -0.4665436,-0.146477 C 9.6356198,30.00751 9.562309,29.799108 9.5592544,29.05632 c -0.00123,-0.350667 0.016135,-0.924559 0.038922,-1.275314 L 9.6398076,27.143268 9.4265757,27.035075 C 9.3093179,26.975572 9.1572523,26.890561 9.0887082,26.846172 8.9655136,26.766395 8.955389,26.771186 8.2078459,27.263061 7.2784916,27.874576 6.9084277,28.061245 6.5698458,28.089322 6.0798387,28.129955 5.6743755,27.791487 5.6235802,27.299424 5.5886,26.960548 5.7175589,26.495166 6.1251037,25.489336 L 6.4418475,24.707594 6.1895092,24.417472 C 6.0507213,24.257904 5.918757,24.127349 5.8962416,24.127349 c -0.02254,0 -0.3498397,0.0873 -0.7273926,0.194003 -1.5826478,0.447282 -2.002916,0.455167 -2.3884503,0.04481 C 2.301982,23.856938 2.5111246,23.298441 3.6962536,21.920349 4.1842407,21.35291 4.1752123,21.386622 3.9632122,20.923538 L 3.8357805,20.645193 3.6064134,20.644748 C 3.075711,20.643728 1.7865896,20.54147 1.5258757,20.47971 0.9811566,20.350665 0.70412272,20.039555 0.70412272,19.556874 c 0,-0.500109 0.24673407,-0.756389 1.47132678,-1.528257 C 2.5396138,17.79909 2.8783312,17.581799 2.928178,17.545749 3.009593,17.486839 3.014643,17.441399 2.9772,17.097076 L 2.935569,16.713952 2.297992,16.480581 C 0.69600662,15.894211 0.32381163,15.647668 0.23860265,15.116443 0.16605555,14.664307 0.44773293,14.265043 0.99402866,14.045574 1.171726,13.974184 1.7253995,13.812174 2.2244226,13.685538 l 0.9073316,-0.230246 0.053579,-0.218259 C 3.3254381,12.666514 3.3763196,12.76513 2.6441851,12.188198 1.8376682,11.552636 1.4044424,11.125165 1.2786366,10.840747 1.0907902,10.416096 1.2613929,9.936385 1.6901229,9.6837499 c 0.1488509,-0.087709 0.2546415,-0.098093 1.0002139,-0.098093 0.4585618,0 1.0544581,0.016628 1.3242003,0.036951 L 4.5049753,9.6595593 4.6927479,9.3373923 4.8805205,9.0152252 4.3810663,8.2571005 C 3.809336,7.3892622 3.5598059,6.9121658 3.519283,6.6093722 3.4618858,6.1801631 3.7899736,5.732157 4.2350483,5.6321565 c 0.30354,-0.068199 0.7648855,0.051091 1.7993776,0.4652499 1.0338885,0.413925 0.9520546,0.412527 1.3242124,0.022614 L 7.5148424,5.9563596 7.3202955,5.2697375 C 7.1108696,4.5305712 6.9326798,3.7180202 6.9326798,3.5021218 c 0,-0.4435584 0.3480412,-0.8705874 0.7598722,-0.9323461 0.137778,-0.020668 0.3070258,-0.011824 0.4199727,0.022072 0.271134,0.081231 0.8088694,0.4561094 1.5401664,1.0737106 l 0.6356059,0.5367956 0.32076,-0.136646 c 0.31178,-0.132824 0.321683,-0.1425889 0.353904,-0.3491092 0.01823,-0.1168514 0.03473,-0.4142734 0.03683,-0.6609287 0.0086,-0.9923865 0.141682,-1.7538873 0.355493,-2.0257481 0.141042,-0.1793293 0.467048,-0.34584524 0.67709,-0.34584524 0.527093,0 0.90323,0.39817894 1.856898,1.96568924 l 0.256009,0.4207892 0.280507,-0.0227 c 0.433817,-0.035091 0.465804,-0.058346 0.59645,-0.4334031 0.259901,-0.7460836 0.645571,-1.65176345 0.806591,-1.89416563 0.273672,-0.41195672 0.688397,-0.58418282 1.076764,-0.44715746 0.495218,0.17472274 0.703449,0.59202258 1.082246,2.16891099 0.09299,0.3869323 0.180431,0.7149524 0.194411,0.7289334 0.02205,0.021998 0.585291,0.1549959 0.67672,0.1597761 0.01811,9.459e-4 0.267205,-0.2955513 0.553514,-0.6588854 0.627415,-0.7961805 1.062907,-1.2468458 1.324754,-1.3708866 0.28488,-0.134955 0.637713,-0.1114935 0.881971,0.058666 0.423742,0.2951867 0.504492,0.6809871 0.422289,2.017423 -0.03079,0.5014778 -0.06602,0.9669531 -0.07809,1.0343886 -0.01934,0.1077737 0.01724,0.1448183 0.302049,0.3060786 l 0.324024,0.1834666 0.731703,-0.4882211 c 1.265239,-0.8442142 1.745602,-1.0175328 2.190763,-0.7904295 0.513631,0.2620353 0.605651,0.8048342 0.287589,1.6964283 -0.0962,0.2697447 -0.28435,0.7538532 -0.418051,1.075796 l -0.243088,0.5853493 0.243815,0.2769809 0.243802,0.2769809 0.670685,-0.1911709 c 1.673498,-0.4770187 2.151632,-0.4968035 2.520193,-0.104288 0.199831,0.2128193 0.283143,0.4934275 0.230365,0.7759351 -0.06639,0.3551027 -0.298157,0.703112 -1.095757,1.6449952 -0.262623,0.3101284 -0.487297,0.5869826 -0.499282,0.6152326 -0.01232,0.02825 0.04311,0.194619 0.122555,0.369712 l 0.144355,0.318348 1.046403,0.05816 c 1.122792,0.06241 1.515704,0.130272 1.772329,0.306118 0.336734,0.230735 0.47301,0.710143 0.310561,1.09261 -0.135869,0.319897 -0.715408,0.772244 -1.934742,1.510125 -0.335576,0.20307 -0.356995,0.226241 -0.331056,0.358121 0.01527,0.07755 0.02808,0.221006 0.02845,0.318788 3.7e-4,0.09779 0.01835,0.205449 0.03978,0.239259 0.02143,0.03381 0.390794,0.193742 0.820743,0.355406 1.391033,0.523047 1.761121,0.765249 1.887715,1.235423 0.07193,0.26717 -0.03399,0.644167 -0.235082,0.836857 -0.260196,0.249279 -1.021251,0.517201 -2.274826,0.800826 l -0.373981,0.08462 -0.05937,0.274482 c -0.03264,0.150965 -0.06996,0.320478 -0.08302,0.376698 -0.01921,0.08339 0.101246,0.202185 0.654045,0.644921 0.752962,0.603022 1.09301,0.923557 1.28481,1.211073 0.107281,0.160865 0.127407,0.2434 0.121938,0.500769 -0.0062,0.265386 -0.02771,0.334847 -0.158901,0.500454 -0.266146,0.336038 -0.406239,0.375592 -1.330347,0.375592 -0.445074,0 -1.028506,-0.01109 -1.296499,-0.02452 l -0.487273,-0.02452 -0.187107,0.3241 -0.187108,0.324102 0.472764,0.705833 c 0.834809,1.246376 0.999832,1.718595 0.762914,2.183007 -0.155132,0.304083 -0.417681,0.460083 -0.77432,0.460083 -0.400265,0 -0.694666,-0.08433 -1.675395,-0.479969 l -0.839908,-0.33882 -0.295435,0.274522 -0.295424,0.274522 0.220376,0.760189 c 0.429346,1.481035 0.446306,1.966987 0.0808,2.314888 -0.527525,0.502137 -1.02847,0.356212 -2.217491,-0.645941 C 21.9562,27.95717 21.677996,27.723261 21.567267,27.630621 l -0.201346,-0.168438 -0.37493,0.17323 -0.374929,0.17323 -4.9e-5,0.525743 c -5e-5,0.67473 -0.08006,1.534042 -0.17319,1.858946 -0.124192,0.433484 -0.493677,0.751189 -0.873632,0.751189 -0.494084,0 -0.870787,-0.37945 -1.670012,-1.682164 -0.420121,-0.684782 -0.364177,-0.647968 -0.899547,-0.592012 l -0.295781,0.03092 -0.255479,0.692492 c -0.484279,1.312647 -0.789027,1.828106 -1.144618,1.935983 -0.299784,0.09095 -0.402729,0.09541 -0.596094,0.02583 z m 2.637106,-7.470715 c 1.250507,-0.248605 2.432767,-0.782386 3.467468,-1.565544 0.690048,-0.522294 1.579138,-1.536294 2.054586,-2.343245 1.16031,-1.96933 1.424276,-4.508949 0.695282,-6.689308 C 22.744648,10.84152 20.885348,8.956042 18.465453,8.1182486 16.407812,7.4058754 14.04875,7.5644062 12.101569,8.545907 10.944042,9.1293705 9.7507344,10.181355 9.0327398,11.251296 7.5965041,13.391543 7.2419963,15.971071 8.0416527,18.4627 c 0.1830921,0.570494 0.7060595,1.596791 1.0865931,2.132403 0.4259833,0.599588 1.3311472,1.505337 1.9242352,1.92549 0.790184,0.559781 1.841785,1.036792 2.844586,1.290319 0.954481,0.241316 2.445059,0.27328 3.447798,0.07394 z"
       id="path142138" /></g></svg>
