<?xml version="1.0" encoding="UTF-8" standalone="no"?>
<!-- Created with Inkscape (http://www.inkscape.org/) -->

<svg
   width="100"
   height="100"
   viewBox="0 0 26.458331 26.458334"
   version="1.1"
   id="svg7932"
   inkscape:version="1.2.2 (b0a8486541, 2022-12-01)"
   sodipodi:docname="main-drawing.svg"
   xml:space="preserve"
   inkscape:export-filename="black/lightbulb.svg"
   inkscape:export-xdpi="96"
   inkscape:export-ydpi="96"
   xmlns:inkscape="http://www.inkscape.org/namespaces/inkscape"
   xmlns:sodipodi="http://sodipodi.sourceforge.net/DTD/sodipodi-0.dtd"
   xmlns="http://www.w3.org/2000/svg"
   xmlns:svg="http://www.w3.org/2000/svg"><sodipodi:namedview
     id="namedview7934"
     pagecolor="#ffffff"
     bordercolor="#000000"
     borderopacity="0.25"
     inkscape:showpageshadow="2"
     inkscape:pageopacity="0.0"
     inkscape:pagecheckerboard="0"
     inkscape:deskcolor="#d1d1d1"
     inkscape:document-units="mm"
     showgrid="false"
     inkscape:zoom="1.4088798"
     inkscape:cx="247.00475"
     inkscape:cy="342.82555"
     inkscape:window-width="1920"
     inkscape:window-height="1016"
     inkscape:window-x="0"
     inkscape:window-y="0"
     inkscape:window-maximized="1"
     inkscape:current-layer="layer1" /><defs
     id="defs7929" /><g
     inkscape:label="Layer 1"
     inkscape:groupmode="layer"
     id="layer1"><path
       style="fill:#d45500;stroke-width:0.0603102"
       d="m 10.820014,26.242006 c -0.160987,-0.06565 -0.307075,-0.240709 -0.351384,-0.421105 -0.04811,-0.195784 0.109009,-0.511971 0.296719,-0.597172 0.104111,-0.04727 0.836387,-0.06855 2.358311,-0.06855 h 2.207325 l 0.176628,0.175957 c 0.286225,0.285138 0.228078,0.695321 -0.124294,0.876847 -0.148067,0.07628 -0.519812,0.09031 -2.309467,0.0871 -1.17314,-0.0021 -2.187367,-0.026 -2.253838,-0.05309 z M 9.6417288,24.39033 C 9.2597197,24.251218 9.1448293,23.736849 9.435073,23.465154 l 0.1559005,-0.145933 3.3930745,-0.01652 c 2.474406,-0.01206 3.438976,0.0024 3.562647,0.05344 0.446976,0.184438 0.473564,0.765088 0.04514,0.985795 -0.151512,0.07806 -0.64928,0.09025 -3.517975,0.08617 -1.83782,-0.0026 -3.3822765,-0.01961 -3.4321233,-0.03776 z M 9.4789328,22.421632 9.3093944,22.276489 9.2791725,21.025747 9.2489507,19.775005 8.7353338,19.414118 C 6.8909257,18.11816 5.7794724,16.127525 5.6726059,13.928678 5.5494233,11.394388 6.7587915,9.0304387 8.9040305,7.6122092 12.674971,5.1192206 17.809536,6.4337054 19.82174,10.407224 c 1.3918,2.748394 0.80103,6.183306 -1.423578,8.277225 -0.246403,0.231921 -0.624741,0.543875 -0.840759,0.693234 -0.579348,0.400563 -0.604043,0.472677 -0.604158,1.764071 l -1.22e-4,1.073107 -0.176627,0.175955 -0.176627,0.175958 H 13.124146 9.6484236 L 9.478885,22.421632 Z m 6.3261622,-1.7401 c 0,-1.197909 0.188647,-1.599558 1.028229,-2.189123 1.233335,-0.866067 2.011823,-1.982063 2.398059,-3.437719 0.203364,-0.766442 0.229034,-2.008154 0.05689,-2.751298 C 18.714362,9.8258855 16.696722,7.9603174 14.143423,7.5462967 13.089114,7.37534 12.124878,7.4541939 11.091954,7.7958423 8.9790302,8.4947026 7.4469586,10.159912 6.944799,12.303392 c -0.1630733,0.696079 -0.1499804,1.920604 0.028212,2.641062 0.3304312,1.335739 1.1307056,2.576381 2.155281,3.341247 0.1826791,0.136376 0.4843521,0.361648 0.6703982,0.500606 0.1860357,0.138959 0.4035668,0.348408 0.4833978,0.465443 0.138551,0.203109 0.145151,0.257338 0.145151,1.192047 v 0.979257 h 2.688912 2.688926 z m -2.858702,-1.831848 c -0.01415,-0.02483 -0.04409,-0.22122 -0.06636,-0.43642 -0.0832,-0.802286 -0.05499,-0.755918 -0.509086,-0.83693 -0.221535,-0.03951 -0.565939,-0.138647 -0.765345,-0.220277 l -0.362547,-0.14842 -0.211485,0.229393 c -0.116327,0.126166 -0.311467,0.343256 -0.433664,0.482423 -0.122197,0.139165 -0.244758,0.253028 -0.27236,0.253028 -0.09275,0 -1.0750533,-0.813523 -1.0913025,-0.903862 -0.00862,-0.04915 0.1613773,-0.298433 0.3782953,-0.553958 L 10.006906,16.25007 9.7945588,15.955617 C 9.6777656,15.793666 9.516337,15.512781 9.4358284,15.331429 l -0.1463843,-0.329734 -0.6244719,0.07565 c -0.3434472,0.04161 -0.6470612,0.05397 -0.6746816,0.02746 -0.061113,-0.05859 -0.2233255,-1.252344 -0.184066,-1.354247 0.016259,-0.04229 0.2977705,-0.10818 0.6746054,-0.15791 l 0.6466504,-0.08534 0.045236,-0.316189 c 0.024868,-0.173906 0.099779,-0.470935 0.1665066,-0.660068 0.066755,-0.189133 0.121327,-0.36039 0.121327,-0.380571 0,-0.02018 -0.2175299,-0.191843 -0.483405,-0.381472 -0.2835109,-0.202209 -0.4834051,-0.387692 -0.4834051,-0.448562 0,-0.133306 0.7601255,-1.093806 0.8656147,-1.093806 0.043899,0 0.3031457,0.162993 0.5761462,0.362206 l 0.4963652,0.362203 0.22434,-0.175973 c 0.228069,-0.178903 0.688825,-0.430395 1.000808,-0.546271 l 0.172218,-0.06397 -0.0485,-0.4356178 c -0.08693,-0.7818463 -0.07863,-0.8405283 0.12698,-0.8965666 0.09969,-0.027173 0.430543,-0.067093 0.735221,-0.088692 l 0.553937,-0.039292 0.03759,0.2643687 c 0.02066,0.1454019 0.057,0.4264694 0.08063,0.6245929 l 0.04303,0.3602273 0.496095,0.1024705 c 0.272857,0.05636 0.622933,0.158367 0.777963,0.226684 0.155032,0.06832 0.287758,0.124211 0.294959,0.124211 0.0076,0 0.196663,-0.216704 0.421029,-0.4815673 0.224358,-0.2648612 0.435107,-0.4815663 0.468323,-0.4815663 0.134161,0 1.076231,0.8049026 1.076231,0.9195296 0,0.06465 -0.129821,0.270213 -0.288485,0.456801 -0.491373,0.577824 -0.469986,0.510025 -0.257755,0.817321 0.103807,0.150308 0.249204,0.402202 0.323094,0.559762 0.07395,0.157561 0.153043,0.315673 0.17589,0.35136 0.02955,0.04612 0.212718,0.04282 0.633537,-0.01143 0.457689,-0.05899 0.608634,-0.06006 0.665291,-0.0046 0.08282,0.08095 0.234898,1.184843 0.182125,1.321868 -0.022,0.05717 -0.160557,0.103681 -0.386572,0.129795 -0.193724,0.0224 -0.478306,0.05595 -0.632381,0.07457 l -0.280154,0.03387 -0.03978,0.298818 c -0.0219,0.16435 -0.103587,0.473902 -0.181559,0.687893 l -0.141765,0.389075 0.461703,0.338408 c 0.440579,0.322921 0.549349,0.422905 0.551415,0.506854 0.0018,0.0896 -0.805094,1.076028 -0.88063,1.076028 -0.046,0 -0.302256,-0.159595 -0.569567,-0.354653 l -0.486001,-0.354642 -0.380823,0.2544 c -0.209457,0.139921 -0.533405,0.317403 -0.71989,0.394404 -0.305375,0.126088 -0.336448,0.155492 -0.312712,0.295887 0.0858,0.507387 0.136374,1.064196 0.09983,1.099302 -0.108615,0.104324 -1.429183,0.215825 -1.481152,0.125059 z m 0.887219,-0.347723 0.234038,-0.03674 -0.04341,-0.462398 C 13.95615,17.277781 13.95691,17.258 14.05274,17.2071 c 0.04983,-0.02647 0.294575,-0.141006 0.543828,-0.25454 0.249255,-0.113533 0.582582,-0.305363 0.74073,-0.426287 0.158148,-0.120925 0.330651,-0.219862 0.383338,-0.219862 0.05268,0 0.300908,0.149218 0.551596,0.331596 0.50256,0.365626 0.487249,0.366584 0.787029,-0.04926 l 0.190927,-0.264869 -0.480863,-0.342969 c -0.298666,-0.213026 -0.480859,-0.384486 -0.480859,-0.452547 0,-0.06026 0.05738,-0.238789 0.127494,-0.396715 0.0701,-0.157924 0.173366,-0.520287 0.229428,-0.805246 l 0.10192,-0.518109 0.623908,-0.08463 0.623908,-0.08463 -0.04064,-0.394934 c -0.02226,-0.217213 -0.04878,-0.403071 -0.05873,-0.413016 -0.0099,-0.0099 -0.205767,0.009 -0.435059,0.04195 -0.635968,0.09158 -0.867691,0.08064 -0.909705,-0.04292 -0.116516,-0.34265 -0.359505,-0.804795 -0.567327,-1.079023 -0.131465,-0.17345 -0.239019,-0.348019 -0.239019,-0.387932 0,-0.03992 0.168141,-0.275065 0.37364,-0.52256 l 0.373638,-0.449999 -0.267893,-0.230674 C 16.0767,10.033053 15.923143,9.9284403 15.882803,9.9274533 c -0.04035,-9.528e-4 -0.230671,0.1871707 -0.42297,0.4181297 -0.263647,0.316652 -0.387538,0.420282 -0.50372,0.421371 -0.08474,7.96e-4 -0.179914,-0.02264 -0.211494,-0.05209 -0.108071,-0.100803 -0.782283,-0.310631 -1.235122,-0.384395 L 13.05687,10.256749 12.98265,9.661729 C 12.94182,9.334468 12.90079,9.0603432 12.89142,9.052563 c -0.02563,-0.021285 -0.776489,0.07462 -0.804768,0.1027945 -0.01348,0.013434 0.0055,0.2706282 0.04315,0.5715407 0.0372,0.3009118 0.05318,0.5846998 0.03549,0.6306398 -0.01769,0.04594 -0.180835,0.13021 -0.362528,0.187267 -0.33728,0.105916 -0.976727,0.483354 -1.126094,0.664691 -0.139088,0.168861 -0.3204,0.115521 -0.8107198,-0.238513 -0.2583681,-0.186556 -0.476644,-0.328769 -0.4850506,-0.316028 -0.0086,0.01274 -0.1163062,0.149619 -0.2397753,0.304175 -0.1234695,0.154557 -0.2244924,0.295347 -0.2244924,0.312865 0,0.01752 0.2195191,0.188423 0.4878234,0.379784 0.5452355,0.388883 0.5286614,0.328555 0.2737273,0.996877 -0.085119,0.222998 -0.1756501,0.5744 -0.2013002,0.780895 l -0.046678,0.375448 -0.2417073,0.03962 c -0.1329279,0.02179 -0.4260504,0.05863 -0.651365,0.08188 l -0.4096676,0.04225 0.02917,0.190653 c 0.1034714,0.676126 0.095542,0.655064 0.2350126,0.621123 0.072685,-0.01768 0.3668407,-0.05075 0.653651,-0.07347 l 0.5214885,-0.04131 0.07584,0.233429 c 0.1129586,0.347671 0.2613696,0.620012 0.5370654,0.985545 0.136142,0.18049 0.247522,0.347888 0.247522,0.371994 0,0.0241 -0.17586,0.253709 -0.390796,0.51023 -0.2149385,0.25652 -0.384878,0.469082 -0.3776572,0.47236 0.00764,0.0032 0.1524091,0.119394 0.3226371,0.258036 l 0.3094841,0.252078 0.382936,-0.455604 c 0.433549,-0.515815 0.397513,-0.508005 1.104222,-0.239325 0.227832,0.08662 0.612835,0.18691 0.855565,0.222874 0.499596,0.07403 0.463922,0.01971 0.548457,0.834929 0.02226,0.2152 0.05165,0.410701 0.06523,0.434448 0.01359,0.02374 0.09835,0.03165 0.188446,0.01757 0.0901,-0.01408 0.269146,-0.04214 0.397864,-0.06233 z m -1.181976,-2.618474 c -0.369365,-0.06206 -0.972853,-0.385204 -1.199394,-0.642239 -0.09859,-0.111865 -0.253966,-0.344604 -0.345275,-0.517198 -0.148975,-0.281618 -0.166006,-0.375549 -0.166057,-0.915764 -3.7e-5,-0.570762 0.01062,-0.621564 0.205892,-0.980301 0.233713,-0.429376 0.47958,-0.667512 0.917374,-0.888515 1.110965,-0.560831 2.453941,-0.119207 2.998811,0.986126 0.146003,0.296174 0.168067,0.412049 0.168067,0.88269 0,0.470642 -0.02208,0.586518 -0.168067,0.882691 -0.314048,0.637081 -0.874939,1.058342 -1.582681,1.18868 -0.392463,0.07229 -0.420514,0.0724 -0.82867,0.0038 z m 1.257521,-0.497405 c 1.312036,-0.667487 1.312036,-2.475955 0,-3.159342 -0.263991,-0.1375 -0.385222,-0.161459 -0.823199,-0.162688 -0.416629,-0.0011 -0.567173,0.02484 -0.797299,0.137762 -0.364918,0.179062 -0.724585,0.539113 -0.899069,0.900026 -0.167998,0.347498 -0.187135,1.009874 -0.03863,1.338502 0.213264,0.472067 0.636023,0.873406 1.110389,1.05412 0.363914,0.138634 1.065557,0.0861 1.447861,-0.10838 z M 5.6466115,7.5926749 C 5.5596759,7.534957 4.7914882,6.8103724 3.9395977,5.9824919 2.6709911,4.7496335 2.3907128,4.4478739 2.3907128,4.3148912 c 0,-0.369305 0.2284518,-0.5893991 0.6117805,-0.5893991 0.1562064,0 0.3755724,0.184682 1.4926781,1.2566574 1.8646067,1.789278 2.0048607,1.9423201 2.0025271,2.185083 -0.00383,0.4397194 -0.4749984,0.6750529 -0.851087,0.4254424 z M 20.004639,7.6257069 C 19.815064,7.5174024 19.736727,7.3839643 19.734643,7.1658463 19.732758,6.925124 19.918593,6.722595 21.797739,4.922325 22.956381,3.8123157 23.063019,3.72549 23.267693,3.72549 c 0.295448,0 0.573936,0.2668964 0.573936,0.5500313 0,0.179623 -0.141861,0.3359988 -1.519619,1.6750638 -0.835796,0.81232 -1.602435,1.5378945 -1.703638,1.6123867 -0.20069,0.1477046 -0.424894,0.1706222 -0.613733,0.062739 z M 12.569597,5.2030229 12.421281,5.0552697 V 2.8001152 c 0,-1.2403357 0.01691,-2.29900489 0.03759,-2.35259927 0.02066,-0.0535925 0.119118,-0.13947193 0.21883,-0.19083687 0.240255,-0.12377052 0.548429,-0.0635583 0.70782,0.13830004 0.119205,0.15097645 0.123468,0.2320159 0.123468,2.3493562 0,2.2386126 -0.01108,2.3568762 -0.236465,2.529282 -0.170265,0.1302255 -0.538404,0.093246 -0.702875,-0.0706 z"
       id="path27086" /></g></svg>
