<?xml version="1.0" encoding="UTF-8" standalone="no"?>
<!-- Created with Inkscape (http://www.inkscape.org/) -->

<svg
   width="120"
   height="120"
   viewBox="0 0 31.749999 31.749999"
   version="1.1"
   id="svg7932"
   inkscape:version="1.2.2 (b0a8486541, 2022-12-01)"
   sodipodi:docname="main-drawing.svg"
   xml:space="preserve"
   inkscape:export-filename="black/main-cog.svg"
   inkscape:export-xdpi="96"
   inkscape:export-ydpi="96"
   xmlns:inkscape="http://www.inkscape.org/namespaces/inkscape"
   xmlns:sodipodi="http://sodipodi.sourceforge.net/DTD/sodipodi-0.dtd"
   xmlns="http://www.w3.org/2000/svg"
   xmlns:svg="http://www.w3.org/2000/svg"><sodipodi:namedview
     id="namedview7934"
     pagecolor="#ffffff"
     bordercolor="#000000"
     borderopacity="0.25"
     inkscape:showpageshadow="2"
     inkscape:pageopacity="0.0"
     inkscape:pagecheckerboard="0"
     inkscape:deskcolor="#d1d1d1"
     inkscape:document-units="mm"
     showgrid="false"
     inkscape:zoom="1.4088798"
     inkscape:cx="100.78929"
     inkscape:cy="42.587025"
     inkscape:window-width="1920"
     inkscape:window-height="1016"
     inkscape:window-x="0"
     inkscape:window-y="0"
     inkscape:window-maximized="1"
     inkscape:current-layer="layer1" /><defs
     id="defs7929"><linearGradient
       id="linearGradient121619"
       inkscape:swatch="solid"><stop
         style="stop-color:#886e0f;stop-opacity:1;"
         offset="0"
         id="stop121617" /></linearGradient></defs><g
     inkscape:label="Layer 1"
     inkscape:groupmode="layer"
     id="layer1"><path
       style="fill:#aa4400;stroke-width:0.0506394"
       d="m 15.088173,30.503654 c -0.326178,-0.544342 -0.60782,-0.98971 -0.625875,-0.98971 -0.01805,0 -0.320832,0.313332 -0.672843,0.696293 -0.35201,0.38296 -0.706244,0.759507 -0.787186,0.836773 L 12.8551,31.18749 11.871677,30.925133 c -0.540883,-0.144295 -0.995437,-0.280396 -1.010116,-0.302444 -0.01468,-0.02205 -0.138525,-0.532025 -0.275206,-1.133281 -0.207394,-0.912301 -0.261633,-1.088213 -0.327784,-1.063096 -0.0436,0.01656 -0.5064929,0.267661 -1.0286549,0.558017 l -0.9493846,0.527918 -0.8755894,-0.572872 -0.8755903,-0.572874 0.09724,-1.124475 c 0.053478,-0.61846 0.083832,-1.137882 0.067445,-1.154271 -0.016387,-0.01639 -0.533097,0.06698 -1.1482426,0.185262 -0.6151456,0.118283 -1.1248744,0.20655 -1.1327284,0.19615 -0.00784,-0.0104 -0.3026753,-0.375512 -0.6551544,-0.811359 L 3.1170388,24.865362 3.5662369,23.809469 c 0.2470596,-0.580741 0.4346232,-1.069726 0.416806,-1.086633 -0.017823,-0.0169 -0.5314413,-0.09059 -1.1413922,-0.163732 -0.6099518,-0.07314 -1.1181308,-0.142121 -1.1292895,-0.153278 -0.035788,-0.03579 -0.72411842,-1.849382 -0.72411842,-1.90788 0,-0.03099 0.33042272,-0.436183 0.73427162,-0.900432 0.4038499,-0.464249 0.7342726,-0.8582 0.7342726,-0.875446 0,-0.01725 -0.4607348,-0.246264 -1.0238538,-0.508926 C 0.23207428,17.653009 0.35793828,17.8436 0.30740858,16.508799 L 0.27351108,15.613411 1.2625527,15.031057 C 1.8065248,14.710762 2.2510205,14.437312 2.2503184,14.423384 2.2495529,14.409445 1.8762117,14.05625 1.4205271,13.638472 0.89193498,13.153853 0.59116668,12.842217 0.58967548,12.777602 c -0.00321,-0.14052 0.47572542,-1.8961 0.53093102,-1.946046 0.024684,-0.02233 0.5234144,-0.148728 1.1083008,-0.280891 C 2.8137928,10.418504 3.3067363,10.295804 3.3243343,10.278 3.3419209,10.260196 3.1083287,9.8012684 2.8052111,9.2581605 2.4910889,8.6953325 2.2664006,8.2380253 2.2827209,8.1947316 2.2984742,8.1529527 2.5516745,7.7486029 2.8453995,7.2961738 l 0.5340449,-0.8225979 0.1843232,0.024532 c 0.3950585,0.05258 2.0934631,0.1841607 2.1138517,0.1637712 0.011869,-0.01186 -0.077708,-0.527822 -0.1990578,-1.1465709 L 5.2579291,4.3903113 6.0221925,3.7707374 C 6.4425404,3.4299716 6.8122963,3.1354764 6.8438747,3.1163031 6.8754567,3.0971291 7.3767837,3.2831077 7.9579439,3.529587 l 1.0566512,0.4481435 0.03265,-0.1576144 c 0.01796,-0.086686 0.08385,-0.590582 0.146429,-1.1197648 0.06258,-0.5291818 0.139036,-0.9888591 0.169908,-1.0215045 0.03087,-0.03265 0.473285,-0.2181952 0.9831439,-0.4123323 l 0.92702,-0.35297815 0.867359,0.75493995 c 0.477048,0.4152174 0.884944,0.7373571 0.906433,0.7158666 0.02149,-0.021489 0.246605,-0.4828367 0.500254,-1.0252156 0.253649,-0.54237785 0.472999,-0.99799633 0.487441,-1.01248617 0.01445,-0.014487 0.481844,-0.049131 1.03867,-0.0769805 0.879919,-0.0440091 1.020887,-0.0407016 1.077199,0.0253168 0.03564,0.0417789 0.313096,0.49252112 0.616578,1.00165167 l 0.551786,0.9256919 0.556562,-0.5965355 c 0.306111,-0.3280951 0.670715,-0.71396435 0.810233,-0.85748865 l 0.253668,-0.26095303 0.980192,0.26420483 c 0.579044,0.1560788 0.995242,0.29396135 1.016967,0.33691295 0.02022,0.039993 0.146835,0.556005 0.281354,1.1467041 0.134517,0.5906992 0.257972,1.0667479 0.274339,1.0578865 0.01637,-0.00888 0.469951,-0.2604381 1.007961,-0.5590602 0.545211,-0.3026176 1.01106,-0.5303395 1.052434,-0.5144624 0.04083,0.015668 0.437528,0.2624878 0.881555,0.5484912 0.943259,0.6075629 0.851643,0.3687013 0.714148,1.8619499 -0.05001,0.5431085 -0.08716,0.9929322 -0.08255,0.9996087 0.0089,0.012843 2.071184,-0.3796558 2.20779,-0.4201807 0.05554,-0.016481 0.27976,0.2246194 0.734271,0.7895349 0.359875,0.447291 0.649652,0.8318864 0.643951,0.8546573 -0.0057,0.022775 -0.206423,0.5027235 -0.446045,1.0665607 -0.239621,0.5638363 -0.428652,1.0318618 -0.420067,1.040056 0.0086,0.00822 0.528013,0.079787 1.154287,0.1590867 l 1.138678,0.1441877 0.13177,0.3291564 c 0.07247,0.181036 0.241502,0.6184796 0.375617,0.9720966 l 0.243846,0.642941 -0.765077,0.88331 -0.765077,0.883308 1.055002,0.491663 1.055002,0.491662 0.03026,0.438101 c 0.01665,0.240957 0.04484,0.71255 0.06266,1.047984 l 0.0324,0.609882 -1.001324,0.600008 -1.001322,0.600008 0.324467,0.310417 c 0.178458,0.170729 0.561885,0.53094 0.852064,0.80047 l 0.527599,0.490053 -0.269605,1.015348 c -0.148281,0.558442 -0.283156,1.015651 -0.299719,1.016025 -0.06789,0.0015 -2.197685,0.504229 -2.216663,0.523207 -0.01131,0.01131 0.232085,0.476019 0.540898,1.032664 l 0.561479,1.012086 -0.565862,0.867859 c -0.441808,0.677599 -0.589407,0.867528 -0.673262,0.866348 -0.05907,-7.66e-4 -0.574549,-0.0445 -1.14551,-0.09703 -0.57096,-0.05253 -1.046574,-0.08706 -1.056923,-0.07674 -0.01036,0.01034 0.07511,0.504569 0.189899,1.098309 0.114792,0.593738 0.208712,1.10605 0.208712,1.138472 0,0.06654 -1.535271,1.331337 -1.616036,1.331337 -0.02865,0 -0.510995,-0.195024 -1.071866,-0.433383 -0.56087,-0.238361 -1.033305,-0.419842 -1.049859,-0.403291 -0.01656,0.01656 -0.09093,0.531494 -0.165279,1.144312 -0.07435,0.612818 -0.143794,1.121547 -0.154312,1.130508 -0.01053,0.009 -0.448106,0.181347 -0.972416,0.383077 -0.949324,0.365259 -0.953751,0.36638 -1.063429,0.269315 -0.645474,-0.571231 -1.664042,-1.438429 -1.673206,-1.424547 -0.0064,0.0097 -0.228316,0.484789 -0.493135,1.05575 l -0.481488,1.038109 -0.402256,0.03174 c -0.221243,0.01745 -0.691106,0.04695 -1.044141,0.06554 l -0.641883,0.03379 z m 1.823896,-2.912224 c 0.184967,-0.402866 0.344301,-0.74048 0.354071,-0.750252 0.0098,-0.0098 0.37898,-0.09531 0.820459,-0.19008 0.441479,-0.09477 0.852725,-0.184553 0.91388,-0.199513 0.08758,-0.02142 0.241506,0.0868 0.72505,0.509795 0.337622,0.295345 0.627337,0.523515 0.643809,0.507042 0.01648,-0.01648 0.07254,-0.377133 0.124589,-0.801469 0.05205,-0.424335 0.111087,-0.787126 0.131191,-0.806202 0.07279,-0.06907 1.557051,-0.918146 1.606377,-0.918937 0.02785,-3.83e-4 0.379794,0.138747 0.782097,0.309317 0.402301,0.170569 0.73846,0.30312 0.747021,0.294559 0.0086,-0.0086 -0.05283,-0.3533 -0.136442,-0.766087 -0.0836,-0.412788 -0.15201,-0.77813 -0.15201,-0.811875 0,-0.03375 0.278228,-0.372006 0.618282,-0.751692 0.417691,-0.466369 0.651807,-0.689788 0.721614,-0.688643 0.05683,9.45e-4 0.433752,0.03242 0.837602,0.06999 0.403849,0.03756 0.737176,0.06528 0.740722,0.06161 0.0036,-0.0037 -0.172641,-0.325719 -0.391533,-0.715642 -0.218889,-0.389924 -0.397784,-0.73174 -0.397541,-0.759593 1.92e-4,-0.02785 0.167364,-0.425168 0.371382,-0.882927 l 0.370939,-0.832289 0.627825,-0.144169 c 0.345304,-0.07929 0.712368,-0.166849 0.815697,-0.194568 l 0.18787,-0.0504 -0.390429,-0.368842 c -0.214735,-0.20286 -0.48969,-0.459587 -0.611008,-0.570506 l -0.220581,-0.201669 0.08386,-0.833334 c 0.04613,-0.458332 0.09426,-0.883486 0.10698,-0.944787 0.01654,-0.07969 0.227765,-0.234202 0.741269,-0.542214 l 0.718143,-0.430761 -0.326028,-0.148417 c -0.179319,-0.08163 -0.523434,-0.240159 -0.764704,-0.352285 l -0.438674,-0.203866 -0.08103,-0.371486 c -0.04457,-0.204321 -0.134799,-0.61866 -0.200517,-0.920759 l -0.119485,-0.549268 0.553662,-0.640757 0.553665,-0.640759 -0.800665,-0.10128 c -0.440367,-0.0557 -0.827485,-0.118684 -0.860263,-0.139959 -0.07139,-0.04633 -0.927873,-1.5303387 -0.927873,-1.6077086 0,-0.029692 0.136452,-0.3761951 0.30323,-0.7700071 0.166777,-0.393813 0.294179,-0.7250739 0.283119,-0.7361343 -0.01107,-0.011066 -0.37857,0.049055 -0.816686,0.1335979 L 23.964437,8.2919154 23.262545,7.6566241 c -0.386041,-0.3494098 -0.7016,-0.6504275 -0.701244,-0.668927 3.83e-4,-0.018503 0.03317,-0.3863124 0.07293,-0.8173616 0.03976,-0.4310502 0.06698,-0.7890227 0.06051,-0.7954941 -0.0064,-0.00643 -0.33749,0.1687041 -0.735597,0.3892788 L 21.23531,6.1651653 20.416778,5.8046186 C 19.966585,5.6063178 19.573605,5.4192143 19.543487,5.3888351 19.51337,5.358453 19.414144,5.0031766 19.322982,4.5993267 19.231827,4.1954768 19.140011,3.8465886 19.118955,3.824019 19.097895,3.801452 19.017249,3.858417 18.939729,3.9506181 18.862209,4.0428131 18.613466,4.315167 18.386972,4.5558402 L 17.97516,4.9934288 17.115602,4.8988551 C 16.642843,4.8468418 16.221397,4.8037418 16.179055,4.8030821 16.134564,4.8023932 15.923177,4.5020568 15.678256,4.091556 15.44516,3.7008747 15.240532,3.3947748 15.223528,3.4113313 15.206538,3.4278883 15.04241,3.7646279 14.858829,4.1596401 l -0.333782,0.7182037 -0.856244,0.1869985 c -0.470934,0.1028492 -0.890426,0.187849 -0.932204,0.1888895 -0.04178,0.00104 -0.349413,-0.2354776 -0.683634,-0.5255955 -0.334221,-0.290119 -0.621757,-0.5118457 -0.638969,-0.4927272 -0.01721,0.019118 -0.0701,0.3765779 -0.117534,0.7943535 -0.04743,0.4177756 -0.113108,0.7860392 -0.145944,0.8183652 -0.03284,0.032329 -0.403152,0.2554805 -0.822922,0.4959005 L 9.5643781,6.7811558 8.8200091,6.4677764 C 8.4106083,6.295417 8.065176,6.164862 8.0523834,6.1776536 8.0395974,6.1904396 8.0963925,6.5501982 8.1786065,6.9771045 8.2608223,7.4040107 8.3128139,7.7785597 8.2941453,7.809435 8.2754813,7.8403085 7.9920389,8.1627184 7.664283,8.525897 L 7.0683637,9.1862216 6.4210178,9.1242951 C 6.0649769,9.090237 5.6903127,9.0608472 5.5884283,9.0589855 L 5.4031884,9.0555855 5.8059242,9.7838444 6.208659,10.512101 5.8301486,11.366327 5.45164,12.220551 5.1315804,12.305301 c -0.1760317,0.04661 -0.5460758,0.135762 -0.8223192,0.198109 l -0.5022594,0.113357 0.6168759,0.5868 0.6168749,0.586803 -0.09873,0.898464 c -0.0543,0.494159 -0.1108335,0.918053 -0.1256286,0.941991 -0.014799,0.02394 -0.295394,0.204708 -0.623559,0.401715 -0.3281632,0.197006 -0.6371502,0.388522 -0.6866365,0.42559 -0.080042,0.05995 -0.00671,0.105678 0.6637493,0.413941 l 0.7537294,0.346544 0.1844593,0.872319 c 0.1014543,0.479775 0.1835369,0.904777 0.1824095,0.944449 -0.00113,0.03967 -0.2394258,0.344659 -0.5295485,0.67775 -0.2901217,0.333091 -0.5223106,0.610807 -0.5159715,0.617144 0.00633,0.0063 0.2959052,0.04737 0.6434855,0.09119 0.3475793,0.04382 0.715173,0.09245 0.816874,0.108078 0.178294,0.02739 0.2013929,0.05702 0.6456533,0.828197 0.2534081,0.439883 0.4607404,0.81581 0.4607404,0.835391 0,0.01958 -0.1373874,0.356788 -0.305308,0.749345 -0.1679207,0.392557 -0.298951,0.729652 -0.2911783,0.749099 0.00775,0.01945 0.3331622,-0.02851 0.7230855,-0.106577 0.3899233,-0.07807 0.7545875,-0.143258 0.810361,-0.144877 0.060774,-0.0017 0.3752898,0.242574 0.7849128,0.609767 0.3759259,0.336989 0.6868209,0.616139 0.6908789,0.620333 0.0041,0.0042 -0.02545,0.369311 -0.06557,0.811369 -0.04012,0.442058 -0.0622,0.814487 -0.04906,0.827619 0.01313,0.01313 0.333264,-0.149159 0.711404,-0.360646 0.3781379,-0.211489 0.7121929,-0.384525 0.7423399,-0.384525 0.03015,0 0.428149,0.164859 0.884443,0.366354 l 0.829628,0.366355 0.158082,0.684415 c 0.08695,0.376428 0.173697,0.749471 0.192781,0.828983 l 0.0347,0.14457 0.222225,-0.245849 c 0.122224,-0.135216 0.382765,-0.413549 0.57898,-0.618518 l 0.356753,-0.372671 0.930031,0.09185 0.930031,0.09184 0.433987,0.725012 c 0.238692,0.398756 0.43995,0.718824 0.447238,0.711262 0.0073,-0.0076 0.164592,-0.343366 0.349559,-0.746234 z M 14.762173,25.558005 C 10.516791,25.131508 7.0760617,22.013184 6.1652859,17.766672 6.0385147,17.175596 6.0292149,17.046745 6.0281546,15.86661 c -0.00132,-1.459617 0.065168,-1.914492 0.4511004,-3.086766 1.0138461,-3.0795352 3.526099,-5.4741171 6.643332,-6.3321642 0.942207,-0.2593513 1.59023,-0.3470171 2.576416,-0.3485442 1.615799,-0.00246 2.951754,0.3053638 4.363674,1.0055915 2.659291,1.3188499 4.562582,3.7401309 5.200326,6.6156219 0.548519,2.473185 0.111415,5.103098 -1.199634,7.217833 -1.988837,3.208012 -5.583265,4.993332 -9.301196,4.619823 z m 1.63059,-1.361266 c 2.116463,-0.175386 4.052878,-1.105712 5.459546,-2.622973 2.947386,-3.179099 3.02986,-7.979882 0.193261,-11.249504 C 20.880633,8.9814938 19.262925,8.0395733 17.41131,7.6259378 16.979804,7.5295421 16.760948,7.5147782 15.749642,7.5138417 14.726277,7.5129042 14.521952,7.5266087 14.065931,7.6268185 11.289236,8.237017 9.0242631,10.112081 7.9908312,12.656102 c -0.4663009,1.147907 -0.6543446,2.244961 -0.606684,3.539409 0.044406,1.206037 0.2953099,2.218885 0.8236204,3.324774 0.6349855,1.329188 1.8573084,2.678836 3.1362404,3.462929 1.075862,0.659595 2.395828,1.097899 3.641458,1.209175 0.657309,0.05871 0.747833,0.059 1.407297,0.0043 z M 14.888772,23.152645 C 13.832626,22.991131 13.071423,22.755051 12.283863,22.344759 10.339237,21.331675 8.9467461,19.485961 8.4733834,17.294054 8.3148211,16.559834 8.3143949,15.130867 8.4726179,14.410294 8.9074111,12.428995 9.9954191,10.811311 11.622619,9.7267663 c 1.124616,-0.7495676 2.36836,-1.1515029 3.74732,-1.2110036 2.058753,-0.088831 3.998492,0.6538069 5.444197,2.0843423 0.770537,0.762454 1.304166,1.560157 1.687522,2.522616 0.338978,0.851053 0.466363,1.480429 0.498985,2.465371 0.0234,0.70646 0.01118,0.932011 -0.07912,1.459887 -0.514173,3.006089 -2.749072,5.336636 -5.742517,5.988283 -0.456183,0.09931 -1.916526,0.17352 -2.290146,0.116383 z m 2.008522,-0.700292 c 1.34379,-0.23757 2.606335,-0.920213 3.603398,-1.948308 1.282844,-1.322775 1.932791,-2.98163 1.886413,-4.814674 -0.04442,-1.755355 -0.671984,-3.255306 -1.887304,-4.510836 C 18.70177,9.3210169 16.100474,8.6637239 13.632574,9.4433333 11.618092,10.079707 9.9785591,11.705514 9.2978841,13.741731 c -0.435085,1.301541 -0.436827,2.894258 -0.0045,4.184438 0.8389339,2.504051 2.9984819,4.272349 5.6129449,4.596033 0.498944,0.06178 1.431621,0.02905 1.991042,-0.06985 z m -1.412307,-0.78351 c -0.08986,-0.02276 -0.228146,-0.110708 -0.307309,-0.195451 -0.10846,-0.116109 -0.205473,-0.162104 -0.393657,-0.186645 -0.421815,-0.05501 -0.48563,-0.07792 -0.636009,-0.228292 -0.21213,-0.212127 -0.19815,-0.423857 0.04447,-0.673518 0.184644,-0.190006 0.187096,-0.197355 0.08862,-0.265664 -0.201648,-0.139876 -0.271945,-0.240618 -0.305184,-0.437362 -0.0361,-0.213656 0.04745,-0.497847 0.146749,-0.499192 0.03144,-3.83e-4 0.08921,-0.02107 0.128386,-0.04587 0.05801,-0.03672 0.04156,-0.08989 -0.08862,-0.286424 -0.197904,-0.298782 -0.198837,-0.396674 -0.0079,-0.831638 0.08356,-0.190373 0.151696,-0.387887 0.151423,-0.438922 -9.45e-4,-0.176635 -0.255621,-0.639187 -0.863067,-1.567515 -0.953642,-1.457398 -1.040133,-1.696432 -0.996394,-2.753671 0.04009,-0.968992 0.299827,-1.579891 0.947942,-2.229543 0.662455,-0.664024 1.428075,-0.94762 2.405879,-0.891167 0.577743,0.03336 0.905345,0.11155 1.355535,0.323546 1.109091,0.522279 1.707935,1.626987 1.722177,3.176958 0.0061,0.672879 -0.05332,0.843708 -0.641902,1.842906 -0.419448,0.71207 -0.882231,1.64707 -1.016991,2.054712 -0.07829,0.236796 -0.07795,0.25539 0.0056,0.316496 0.04883,0.0357 0.128712,0.06492 0.177514,0.06492 0.136069,0 0.24639,0.200766 0.24639,0.448385 0,0.189591 -0.02675,0.248519 -0.177237,0.390448 -0.09748,0.09194 -0.177239,0.185777 -0.177239,0.208536 2e-6,0.02276 0.07976,0.105018 0.177241,0.182798 0.214961,0.171519 0.225021,0.299364 0.05063,0.643495 -0.166294,0.328164 -0.160321,0.405809 0.05064,0.658312 0.193138,0.231175 0.206588,0.285291 0.118792,0.477982 -0.08451,0.185479 -0.260074,0.281641 -0.615859,0.337323 -0.172241,0.02696 -0.370134,0.09366 -0.439764,0.148231 -0.06963,0.05457 -0.185015,0.131942 -0.256414,0.171933 -0.161934,0.0907 -0.676826,0.138997 -0.894432,0.08389 z m 1.078386,-0.870549 c 0.03013,-0.04875 -0.05613,-0.144704 -0.130097,-0.144704 -0.01393,0 -0.05672,0.01989 -0.09511,0.0442 -0.08954,0.05671 -0.02883,0.156805 0.09511,0.156805 0.05242,0 0.11096,-0.02534 0.130097,-0.0563 z m -0.250335,-0.557815 c 0.278334,-0.0866 0.327813,-0.116404 0.246836,-0.148655 -0.126727,-0.05047 -1.435263,-0.05344 -1.562073,-0.0035 -0.08466,0.03331 -0.08591,0.04313 -0.01314,0.103521 0.272527,0.226177 0.706764,0.242087 1.328377,0.04867 z m -0.07215,-1.1633 c 0.299804,-0.0622 0.514936,-0.176922 0.469534,-0.250386 -0.04101,-0.06636 -0.970266,-0.06117 -1.3001,0.0073 -0.299805,0.0622 -0.514936,0.176923 -0.469534,0.250386 0.04101,0.06636 0.970266,0.06117 1.3001,-0.0073 z m -1.285795,-0.640618 c -0.02055,-0.10674 -0.110429,-0.100009 -0.133331,0.01 -0.0096,0.04588 0.01835,0.07863 0.06701,0.07863 0.05216,0 0.07699,-0.03319 0.06632,-0.08862 z m 0.576118,-0.67477 c 0.07818,-0.09223 0.07895,-0.122495 0.0092,-0.357624 -0.04196,-0.141277 -0.212822,-0.579204 -0.379705,-0.973172 -0.405884,-0.958183 -0.551257,-1.469737 -0.546943,-1.924656 0.004,-0.414299 0.0071,-0.409302 0.273953,0.433238 0.103155,0.325682 0.340427,0.905489 0.527271,1.288459 l 0.339717,0.696306 0.26766,-0.604825 c 0.453626,-1.025061 0.714392,-1.896133 0.567627,-1.896133 -0.02526,0 -0.142604,0.115471 -0.260765,0.256602 -0.157711,0.18837 -0.226087,0.238867 -0.257139,0.189899 -0.02326,-0.03668 -0.04265,-0.298796 -0.04307,-0.582463 -0.0011,-0.787446 0.09935,-0.937933 0.398784,-0.596902 0.436503,0.497149 0.501516,1.022478 0.222306,1.796292 -0.467844,1.2966 -0.57748,1.635517 -0.600799,1.857244 -0.03183,0.302681 0.05654,0.49149 0.240089,0.512949 0.166718,0.01949 0.307757,-0.149843 0.426495,-0.512057 0.124781,-0.380645 0.490802,-1.094786 0.87449,-1.706217 0.703406,-1.120914 0.792714,-1.419042 0.75905,-2.533838 -0.01922,-0.636352 -0.03033,-0.699552 -0.166764,-0.948757 -0.191953,-0.3506 -0.930873,-1.056121 -1.323589,-1.26376 -1.016032,-0.537208 -2.194229,-0.375791 -3.051722,0.418095 -0.717836,0.664589 -1.101161,1.622806 -0.96711,2.417537 0.07163,0.424702 0.420682,1.151866 0.820053,1.708397 0.571837,0.796866 0.94649,1.467695 1.087304,1.946858 0.08085,0.275137 0.182953,0.419894 0.343808,0.487463 0.141306,0.05936 0.33866,0.01049 0.439879,-0.108935 z m -0.0854,-2.690538 c -0.219123,-0.07657 -0.372597,-0.234083 -0.430229,-0.44155 -0.111192,-0.400266 -0.02579,-0.846836 0.206335,-1.078962 0.118252,-0.118252 0.182583,-0.143326 0.335042,-0.130591 0.239513,0.02002 0.257192,0.07896 0.262909,0.876637 0.0062,0.865876 -0.01093,0.90136 -0.374057,0.774466 z"
       id="path136875" /></g></svg>
