<?xml version="1.0" encoding="UTF-8" standalone="no"?>
<!-- Created with Inkscape (http://www.inkscape.org/) -->

<svg
   width="275"
   height="470"
   viewBox="0 0 72.760416 124.35416"
   version="1.1"
   id="svg3698"
   xml:space="preserve"
   xmlns:inkscape="http://www.inkscape.org/namespaces/inkscape"
   xmlns:sodipodi="http://sodipodi.sourceforge.net/DTD/sodipodi-0.dtd"
   xmlns="http://www.w3.org/2000/svg"
   xmlns:svg="http://www.w3.org/2000/svg"><sodipodi:namedview
     id="namedview3700"
     pagecolor="#ffffff"
     bordercolor="#000000"
     borderopacity="0.25"
     inkscape:showpageshadow="2"
     inkscape:pageopacity="0.0"
     inkscape:pagecheckerboard="0"
     inkscape:deskcolor="#d1d1d1"
     inkscape:document-units="mm"
     showgrid="false" /><defs
     id="defs3695" /><g
     id="g3718"
     transform="matrix(0.35277776,0,0,-0.35277778,-15.328952,207.8802)"><path
       style="fill:#ffffff;stroke-width:0.807344"
       d="m 152.85819,238.57816 c -0.25208,0.4001 -0.21152,1.38964 0.0901,2.19898 0.52286,1.40287 0.47302,1.40673 -1.06816,0.083 -1.94581,-1.67118 -4.2062,-0.34991 -2.61632,1.52934 0.69522,0.82175 0.50855,1.05854 -0.83452,1.05854 -1.18666,0 -1.73009,0.50233 -1.73009,1.59925 0,0.87959 0.45851,1.61019 1.01892,1.62357 0.56548,0.0136 0.3841,0.38702 -0.40757,0.83936 -2.01954,1.15389 -1.78776,3.13446 0.36682,3.13446 1.39478,0 1.57591,0.21324 0.81513,0.95956 -1.69884,1.66651 -1.17083,3.26114 0.94824,2.86375 1.51123,-0.28338 1.84727,-0.0643 1.55926,1.01599 -0.54573,2.04713 1.45489,2.86673 2.75151,1.12724 1.0449,-1.40177 1.09905,-1.3881 1.09905,0.27764 0,1.21901 0.49602,1.75209 1.63027,1.75209 1.13425,0 1.63027,-0.53308 1.63027,-1.75209 0,-1.66574 0.0542,-1.67941 1.09905,-0.27764 1.30643,1.75265 3.29548,0.91332 2.74341,-1.15766 -0.27503,-1.03169 0.009,-1.30932 1.05969,-1.03952 1.87162,0.48013 2.84692,-1.11845 1.58932,-2.60494 -0.80988,-0.95728 -0.67735,-1.16442 0.74495,-1.16442 2.0462,0 2.31052,-2.00076 0.40269,-3.04812 -0.90751,-0.49822 -1.03643,-0.9051 -0.40756,-1.28636 1.64269,-0.99594 1.08044,-3.08989 -0.70657,-2.63148 -1.37661,0.35315 -1.55083,0.12183 -1.13435,-1.50598 0.54941,-2.14737 -1.02316,-2.65281 -2.87381,-0.92368 -0.87279,0.81548 -0.96751,0.66752 -0.51438,-0.80358 0.66247,-2.15077 -1.68351,-3.50665 -2.9619,-1.71182 -0.61212,0.85941 -0.89,0.8862 -1.20836,0.11652 -0.48049,-1.16165 -2.41705,-1.33243 -3.0851,-0.27207 z m 7.49455,5.86533 c 1.43609,1.12707 1.26783,5.84282 -0.26201,7.34355 -2.92352,2.86791 -8.5007,0.56353 -8.5007,-3.5123 0,-4.73367 4.88913,-6.87132 8.76271,-3.83125 z m -29.41282,18.72874 c -0.29889,0.29318 -0.54344,1.3548 -0.54344,2.35914 0,2.76615 -2.46497,3.75526 -4.5603,1.82989 -2.36163,-2.17004 -4.58682,-1.29418 -3.5445,1.39517 0.42272,1.0907 0.76859,2.29525 0.76859,2.67678 0,1.17421 -3.11045,1.73616 -4.77443,0.86255 -2.57845,-1.35368 -3.78078,0.81885 -1.81199,3.27414 2.05625,2.56437 1.01235,4.34157 -2.3471,3.9959 -2.05576,-0.21154 -2.47839,0.0309 -2.47839,1.42164 0,0.98971 0.7945,2.03178 1.93908,2.54336 2.41932,1.08135 1.96226,3.69738 -0.82779,4.73797 -2.64768,0.98748 -2.41962,2.86028 0.41605,3.41662 3.15953,0.61989 3.96896,2.88375 1.64574,4.60282 -2.45467,1.81632 -1.56902,4.17103 1.30286,3.46395 1.18159,-0.29092 2.57612,-0.0937 3.25697,0.4606 1.03443,0.84217 1.03853,1.25793 0.0312,3.16885 -1.50948,2.86347 -0.0948,4.71247 2.10878,2.7562 1.90322,-1.68961 4.33132,-1.11963 4.65296,1.0923 0.29559,2.03276 -2.07981,3.42882 -3.09431,1.81855 -0.46847,-0.74358 -0.78086,-0.76358 -1.213,-0.0776 -0.43983,0.69811 -0.86067,0.69695 -1.72252,-0.005 -0.89047,-0.72496 -1.25284,-0.64135 -1.6529,0.3814 -0.42353,1.08272 -0.73247,1.13301 -1.78127,0.28995 -1.09372,-0.87915 -1.20413,-0.7735 -0.79995,0.76535 0.40311,1.53481 0.25891,1.67504 -1.02776,0.99954 -2.08985,-1.09717 -2.32384,-1.00136 -1.85448,0.75932 0.33814,1.26845 0.089,1.46224 -1.39151,1.08245 -1.62477,-0.4168 -1.71165,-0.2944 -0.87692,1.23561 0.77257,1.41611 0.72024,1.62062 -0.31505,1.23089 -0.86994,-0.3274 -1.24161,0.037 -1.24161,1.2175 0,0.92664 -0.41172,1.6848 -0.91494,1.6848 -0.66674,0 -0.672,0.28717 -0.0193,1.05854 0.6326,0.74774 0.64106,1.30821 0.0288,1.90883 -0.59946,0.58805 -0.60446,1.00929 -0.0162,1.36594 0.46782,0.28362 0.64394,1.0439 0.3914,1.68951 -0.25253,0.6456 -0.0532,1.17383 0.44318,1.17383 0.4963,0 0.90234,0.71966 0.90234,1.59926 0,0.87958 0.36682,1.59925 0.81514,1.59925 0.44832,0 0.81513,0.57824 0.81513,1.28498 0,0.8137 0.44846,1.11618 1.22271,0.82473 0.76802,-0.28911 1.22271,0.008 1.22271,0.79963 0,0.78133 0.45624,1.08815 1.20115,0.80774 0.66063,-0.24868 1.52689,0.11886 1.92503,0.81676 0.5208,0.91293 0.89024,1.00489 1.31684,0.32778 0.43302,-0.68732 0.88353,-0.70456 1.67049,-0.0638 0.78198,0.63663 1.2292,0.63663 1.63028,0 0.39664,-0.62957 0.87745,-0.6129 1.70285,0.059 0.91468,0.74469 1.15012,0.65326 1.15012,-0.44653 0,-0.91587 0.42337,-1.22353 1.25356,-0.91103 0.69984,0.26344 1.44975,-0.0296 1.69773,-0.66358 0.25571,-0.65369 0.99439,-0.92834 1.74094,-0.64733 0.96298,0.36251 1.16201,0.1437 0.77325,-0.85012 -0.34301,-0.87688 -0.11079,-1.33825 0.67362,-1.33825 0.65842,0 1.19714,-0.71967 1.19714,-1.59925 0,-0.8796 0.38845,-1.59926 0.86323,-1.59926 0.47479,0 0.62661,-0.3756 0.33739,-0.83465 -0.2892,-0.45908 -0.10965,-1.32661 0.39905,-1.92789 0.60489,-0.71498 0.6415,-1.26504 0.10575,-1.58984 -0.45051,-0.27314 -0.62673,-0.98843 -0.39158,-1.58956 0.23515,-0.60111 0.0517,-1.32079 -0.40757,-1.59925 -0.45931,-0.27846 -0.62847,-1.03452 -0.37592,-1.68014 0.25255,-0.6456 0.0532,-1.17383 -0.44316,-1.17383 -0.4963,0 -0.90236,-0.53975 -0.90236,-1.19944 0,-0.65969 -0.55022,-1.19944 -1.22271,-1.19944 -1.43092,0 -1.55794,-1.08991 -0.37888,-3.25108 0.46516,-0.85263 1.69968,-1.54668 2.75108,-1.54668 1.46709,0 2.02016,0.55365 2.39636,2.39888 0.62511,3.0661 2.62726,3.10617 3.24729,0.0651 0.62642,-3.07252 2.92724,-3.51955 5.0952,-0.98994 2.03846,2.37848 3.82987,1.70493 3.09586,-1.16398 -0.77469,-3.02783 1.66418,-4.49802 4.66192,-2.81029 2.74864,1.5475 3.75944,0.79054 2.51685,-1.88475 -1.44136,-3.10321 -0.40891,-4.66058 2.75573,-4.15682 3.24751,0.51698 4.22625,-1.05924 1.92582,-3.10148 -2.06489,-1.83316 -2.00729,-4.05181 0.11936,-4.59736 1.24421,-0.31918 1.56921,-0.13144 1.2227,0.70636 -0.25957,0.62761 -0.6757,1.63253 -0.92473,2.23316 -0.28585,0.68944 0.80901,1.82304 2.96966,3.07476 l 3.42243,1.9827 -3.7848,0.9349 c -3.73065,0.9215 -4.34407,1.75024 -3.29001,4.44478 0.35172,0.89911 1.57642,1.26484 4.23559,1.26484 h 3.7408 l -2.60532,2.63686 c -2.9841,3.02025 -3.0972,3.50083 -1.28591,5.46421 1.26582,1.37211 1.44785,1.36589 4.48325,-0.15318 1.74011,-0.87086 3.16386,-1.44139 3.16386,-1.26785 0,0.17355 -0.51813,1.75614 -1.15142,3.51688 -1.12277,3.12176 -1.10003,3.22833 0.915,4.28623 1.92921,1.01283 2.21256,0.91312 4.26753,-1.50157 1.21062,-1.42254 2.42739,-2.58643 2.70391,-2.58643 0.27654,0 0.61664,1.34938 0.75577,2.99861 0.22872,2.71093 0.49763,3.02194 2.803,3.24191 2.46086,0.23481 2.57001,0.1125 3.12205,-3.4988 l 0.57206,-3.74213 2.10273,2.8991 c 2.26907,3.12842 3.20107,3.45505 5.38615,1.88769 1.29496,-0.92889 1.31063,-1.28762 0.19195,-4.39794 -0.66991,-1.86262 -1.03627,-3.38658 -0.81413,-3.38658 0.22213,0 1.82123,0.70933 3.55355,1.57627 l 3.14967,1.57628 1.39283,-2.08529 c 1.36955,-2.0504 1.35041,-2.11784 -1.1443,-4.03311 -1.39543,-1.07129 -2.53714,-2.28158 -2.53714,-2.68949 0,-0.40793 1.65065,-0.74167 3.66811,-0.74167 3.52165,0 3.66811,-0.0946 3.66811,-2.36807 0,-2.10741 -0.38131,-2.47012 -3.46432,-3.29536 -3.07049,-0.82188 -3.29117,-1.02992 -1.9412,-1.82997 4.3954,-2.60492 4.98163,-3.42244 3.98811,-5.5615 -0.864,-1.86021 -1.19715,-1.97878 -3.63342,-1.29338 -4.56311,1.28379 -4.94415,0.97777 -2.7416,-2.20191 1.90567,-2.75107 1.95556,-3.05666 0.71819,-4.39795 -1.63237,-1.7694 -2.99323,-1.83111 -4.37459,-0.19833 -0.57844,0.6837 -1.65358,1.5591 -2.38923,1.94531 -1.15404,0.60587 -1.33097,0.18848 -1.28974,-3.04226 0.0445,-3.48237 -0.10542,-3.76183 -2.14158,-3.99255 -1.88593,-0.21368 -2.39798,0.22121 -3.69454,3.13796 l -1.50519,3.38602 -1.13645,-3.37798 c -1.04087,-3.09386 -1.34718,-3.3578 -3.64169,-3.13796 -2.46516,0.2362 -2.50072,0.30234 -2.22416,4.13677 l 0.28105,3.89674 -2.8034,-2.09757 c -3.28622,-2.45884 -3.68069,-2.51548 -5.60713,-0.80523 -1.39177,1.23556 -1.36866,1.41797 0.52558,4.15258 1.0897,1.57314 1.86618,2.97316 1.72549,3.11116 -0.14066,0.138 -1.37076,0.0321 -2.73353,-0.2352 -1.93579,-0.37979 -2.38873,-0.8201 -2.07076,-2.01296 0.30819,-1.15606 -0.21042,-1.73796 -2.13567,-2.39634 -3.15953,-1.08046 -3.4006,-3.56243 -0.47308,-4.87092 2.92967,-1.30944 2.25978,-3.44079 -1.0782,-3.43047 -3.20233,0.01 -4.27797,-2.16896 -2.18873,-4.43362 2.09793,-2.27408 1.02655,-4.17136 -1.76715,-3.1294 -3.41169,1.27244 -4.64178,0.42159 -4.02829,-2.78637 0.64957,-3.39654 -0.65142,-4.36633 -3.05301,-2.27578 -2.48072,2.15943 -4.47542,1.48401 -4.7826,-1.6194 -0.31695,-3.20235 -2.46593,-3.76729 -3.75696,-0.98768 -1.205,2.59437 -3.7074,2.61027 -4.9053,0.0312 -0.92873,-1.99956 -1.84411,-2.46787 -2.86544,-1.46597 z m 2.4454,8.79589 c -0.29888,0.29319 -0.78796,0.29319 -1.08685,0 -0.29887,-0.29319 -0.0544,-0.53308 0.54344,-0.53308 0.59775,0 0.8423,0.23989 0.54341,0.53308 z m 7.33623,0 c -0.29888,0.29319 -0.78796,0.29319 -1.08685,0 -0.29888,-0.29319 -0.0544,-0.53308 0.54342,-0.53308 0.59777,0 0.8423,0.23989 0.54343,0.53308 z m -10.32507,0.66636 c 0,0.2199 -0.1834,0.39982 -0.40757,0.39982 -0.22415,0 -0.40756,-0.17992 -0.40756,-0.39982 0,-0.2199 0.18341,-0.39981 0.40756,-0.39981 0.22417,0 0.40757,0.17991 0.40757,0.39981 z m 12.77047,0.13327 c -0.29888,0.29319 -0.78796,0.29319 -1.08685,0 -0.29887,-0.29319 -0.0543,-0.53308 0.54344,-0.53308 0.59775,0 0.8423,0.23989 0.54341,0.53308 z m -14.40074,0.66636 c 0,0.21989 -0.1834,0.39981 -0.40757,0.39981 -0.22416,0 -0.40756,-0.17992 -0.40756,-0.39981 0,-0.2199 0.1834,-0.39981 0.40756,-0.39981 0.22417,0 0.40757,0.17991 0.40757,0.39981 z m 11.76642,0.38001 c 2.93513,1.0947 2.65168,3.40443 -0.88967,7.24969 l -2.98055,3.23636 -2.79229,-2.63434 c -1.53578,-1.44888 -3.17784,-3.32989 -3.64905,-4.18001 -1.82081,-3.28498 4.91635,-5.68391 10.31156,-3.6717 z m 4.94388,0.0199 c 0.27708,0.43978 0.32037,0.79962 0.0962,0.79962 -0.22416,0 -0.63426,-0.35984 -0.91135,-0.79962 -0.27708,-0.4398 -0.32038,-0.79963 -0.0961,-0.79963 0.22416,0 0.63427,0.35983 0.91135,0.79963 z m -19.1557,1.06005 c 0,0.14323 -1.00873,1.13278 -2.24162,2.19898 l -2.24164,1.93854 1.97615,-2.19898 c 1.84701,-2.05526 2.50711,-2.56567 2.50711,-1.93854 z m 22.41624,1.33883 c 0.27708,0.43979 0.32038,0.79962 0.0962,0.79962 -0.22416,0 -0.63426,-0.35983 -0.91135,-0.79962 -0.27708,-0.4398 -0.32038,-0.79963 -0.0962,-0.79963 0.22415,0 0.63427,0.35983 0.91134,0.79963 z m -20.39579,3.17966 c 0.80188,0.86921 1.73419,1.41291 2.07181,1.20824 0.33761,-0.20469 1.11391,0.25359 1.72511,1.01838 1.00564,1.25836 0.97567,1.28622 -0.31519,0.29311 -1.74164,-1.3399 -1.80205,-0.73498 -0.22526,2.25616 0.98615,1.87073 1.01004,2.4344 0.13341,3.1481 -1.74462,1.42036 -7.78954,3.26437 -9.09279,2.77378 -3.08755,-1.16227 0.28923,-12.17831 3.75991,-12.26593 0.26677,-0.006 1.14111,0.69894 1.943,1.56816 z m 20.74265,0.91279 c 2.2761,3.67153 2.89858,7.85966 1.38837,9.34114 -1.10343,1.08244 -1.60949,1.06948 -4.74573,-0.12141 -5.99203,-2.27531 -6.09746,-2.40874 -4.49967,-5.69559 1.73558,-3.5703 1.78036,-4.39396 0.12898,-2.37193 -1.21433,1.48687 -1.22977,1.47554 -0.36667,-0.26938 0.49554,-1.00187 1.20784,-1.63553 1.58288,-1.40816 0.37503,0.22737 1.13516,-0.12238 1.68918,-0.77723 1.56163,-1.84585 3.13418,-1.42113 4.82266,1.30256 z m 1.69099,-1.29376 c 0,0.21989 -0.18341,0.39981 -0.40757,0.39981 -0.22417,0 -0.40757,-0.17992 -0.40757,-0.39981 0,-0.21989 0.1834,-0.39981 0.40757,-0.39981 0.22416,0 0.40757,0.17992 0.40757,0.39981 z m -28.52977,0.79963 c 0,0.21989 -0.18341,0.39981 -0.40758,0.39981 -0.22416,0 -0.40756,-0.17992 -0.40756,-0.39981 0,-0.2199 0.1834,-0.39982 0.40756,-0.39982 0.22417,0 0.40758,0.17992 0.40758,0.39982 z m -0.81514,1.59925 c 0,0.21989 -0.1834,0.39981 -0.40757,0.39981 -0.22416,0 -0.40757,-0.17992 -0.40757,-0.39981 0,-0.21989 0.18341,-0.39981 0.40757,-0.39981 0.22417,0 0.40757,0.17992 0.40757,0.39981 z m 30.97518,0.79964 c 0,0.21989 -0.18341,0.39981 -0.40757,0.39981 -0.22417,0 -0.40757,-0.17992 -0.40757,-0.39981 0,-0.2199 0.1834,-0.39983 0.40757,-0.39983 0.22416,0 0.40757,0.17993 0.40757,0.39983 z m -32.06202,1.73252 c -0.29889,0.29321 -0.54343,0.0533 -0.54343,-0.53308 0,-0.58639 0.24454,-0.82628 0.54343,-0.53308 0.29888,0.29319 0.29888,0.77296 0,1.06616 z m 32.61884,2.01573 c -0.26022,0.63789 -0.45337,0.44841 -0.49247,-0.48311 -0.0353,-0.84293 0.15727,-1.31522 0.42812,-1.04951 0.27086,0.26571 0.29982,0.95539 0.0643,1.53262 z m -13.97772,0.73886 c 0.72775,2.24933 -1.31313,4.25137 -3.60607,3.53745 -1.66744,-0.51915 -2.41122,-3.48277 -1.17773,-4.69278 1.23347,-1.21001 4.25457,-0.48038 4.7838,1.15533 z m -19.18455,1.11028 c 0,0.2199 -0.1834,0.39981 -0.40757,0.39981 -0.22416,0 -0.40757,-0.17991 -0.40757,-0.39981 0,-0.2199 0.18341,-0.39982 0.40757,-0.39982 0.22417,0 0.40757,0.17992 0.40757,0.39982 z m 11.4119,1.59925 c 0,0.2199 -0.1834,0.39981 -0.40757,0.39981 -0.22416,0 -0.40757,-0.17991 -0.40757,-0.39981 0,-0.21989 0.18341,-0.39981 0.40757,-0.39981 0.22417,0 0.40757,0.17992 0.40757,0.39981 z m 21.75037,1.34937 c -0.26022,0.63789 -0.45337,0.44842 -0.49247,-0.4831 -0.0353,-0.84294 0.15727,-1.31523 0.42812,-1.04952 0.27086,0.26571 0.29982,0.9554 0.0643,1.53262 z m -23.65234,-0.41646 c -0.29889,0.29319 -0.78797,0.29319 -1.08687,0 -0.29887,-0.2932 -0.0543,-0.5331 0.54343,-0.5331 0.59777,0 0.84231,0.2399 0.54344,0.5331 z m 15.53852,-0.05 c -0.27086,0.26571 -0.97392,0.29412 -1.56234,0.0632 -0.65026,-0.25525 -0.45711,-0.44474 0.49249,-0.48311 0.85927,-0.0347 1.34072,0.15428 1.06985,0.41999 z m 39.61532,0.6076 c 1.4636,0.59989 3.65268,2.24675 4.86464,3.65967 1.7746,2.06888 2.20297,3.37423 2.20051,6.70566 -0.004,5.50043 -2.19521,8.96322 -6.98756,11.04279 -5.90653,2.56303 -11.78554,0.56408 -15.03824,-5.11321 -5.4939,-9.58908 4.57219,-20.55291 14.96065,-16.29491 z m -49.53383,3.35509 c 1.18768,7.76931 -1.46992,9.55157 -7.67141,5.14471 -3.8066,-2.70504 -4.62444,-5.89766 -1.74074,-6.79551 0.90317,-0.28119 1.49219,-0.75523 1.30893,-1.05342 -0.18326,-0.29817 1.44359,-0.60596 3.61521,-0.68394 l 3.94839,-0.14182 z m 11.4699,-2.00668 c 3.01321,1.12384 3.24986,2.9537 0.71734,5.54679 -2.60573,2.66804 -6.3755,4.39163 -8.14684,3.72484 -1.29297,-0.48672 -1.77377,-7.01018 -0.71594,-9.71433 0.54395,-1.39057 3.68825,-1.21967 8.14544,0.4427 z m -26.05641,0.49284 c -0.29889,0.2932 -0.54343,0.0533 -0.54343,-0.53309 0,-0.58639 0.24454,-0.82627 0.54343,-0.53308 0.29888,0.2932 0.29888,0.77298 0,1.06617 z m 16.32119,4.06477 c -0.20503,0.76964 -0.37279,0.13994 -0.37279,-1.39934 0,-1.53929 0.16776,-2.16898 0.37279,-1.39935 0.20502,0.76963 0.20502,2.02906 0,2.79869 z m 15.74083,-3.39842 c 0,0.21991 -0.18341,0.39982 -0.40757,0.39982 -0.22417,0 -0.40757,-0.17991 -0.40757,-0.39982 0,-0.21989 0.1834,-0.39981 0.40757,-0.39981 0.22416,0 0.40757,0.17992 0.40757,0.39981 z m -30.97518,0.79964 c 0,0.21989 -0.1834,0.39981 -0.40757,0.39981 -0.22416,0 -0.40757,-0.17992 -0.40757,-0.39981 0,-0.2199 0.18341,-0.39982 0.40757,-0.39982 0.22417,0 0.40757,0.17992 0.40757,0.39982 z m 30.16004,0.79963 c 0,0.21989 -0.18341,0.39981 -0.40756,0.39981 -0.22417,0 -0.40757,-0.17992 -0.40757,-0.39981 0,-0.21991 0.1834,-0.39982 0.40757,-0.39982 0.22415,0 0.40756,0.17991 0.40756,0.39982 z m -29.3449,0.79962 c 0,0.2199 -0.18341,0.39982 -0.40758,0.39982 -0.22416,0 -0.40756,-0.17992 -0.40756,-0.39982 0,-0.2199 0.1834,-0.39981 0.40756,-0.39981 0.22417,0 0.40758,0.17991 0.40758,0.39981 z m 28.52977,0.79963 c 0,0.21989 -0.18341,0.39981 -0.40757,0.39981 -0.22417,0 -0.40757,-0.17992 -0.40757,-0.39981 0,-0.2199 0.1834,-0.39981 0.40757,-0.39981 0.22416,0 0.40757,0.17991 0.40757,0.39981 z m -26.08436,2.39888 c 1.05295,1.09948 1.73105,1.99907 1.50688,1.99907 -0.22416,0 -1.26906,-0.89959 -2.32202,-1.99907 -1.05295,-1.09949 -1.73104,-1.99907 -1.50688,-1.99907 0.22415,0 1.26906,0.89958 2.32202,1.99907 z m 24.45408,-0.0471 c 0,0.19394 -0.42349,0.60938 -0.94109,0.92318 -0.58305,0.3535 -0.71981,0.21935 -0.35945,-0.35262 0.58074,-0.92178 1.30054,-1.23756 1.30054,-0.57056 z m -4.43526,3.27113 c -0.87026,0.64571 -1.97069,1.16126 -2.44541,1.14568 -0.47472,-0.0156 0.054,-0.54258 1.17472,-1.17111 2.64042,-1.48069 3.28324,-1.46783 1.27069,0.0255 z m -15.94315,-0.0255 c 0,0.21989 -0.1834,0.39981 -0.40757,0.39981 -0.22416,0 -0.40756,-0.17992 -0.40756,-0.39981 0,-0.2199 0.1834,-0.39981 0.40756,-0.39981 0.22417,0 0.40757,0.17991 0.40757,0.39981 z m 1.63027,0.79963 c 0,0.21989 -0.1834,0.39981 -0.40757,0.39981 -0.22415,0 -0.40756,-0.17992 -0.40756,-0.39981 0,-0.21991 0.18341,-0.39982 0.40756,-0.39982 0.22417,0 0.40757,0.17991 0.40757,0.39982 z m 2.98884,0.93289 c -0.29888,0.2932 -0.78796,0.2932 -1.08685,0 -0.29887,-0.29319 -0.0544,-0.53308 0.54344,-0.53308 0.59775,0 0.8423,0.23989 0.54341,0.53308 z m 7.38717,-0.05 c -0.27086,0.26571 -0.97392,0.29411 -1.56234,0.0631 -0.65026,-0.25525 -0.45711,-0.44472 0.49248,-0.48309 0.85929,-0.0347 1.34072,0.15427 1.06986,0.41998 z m -20.15764,7.91297 c 0,0.21991 -0.1834,0.39981 -0.40757,0.39981 -0.22416,0 -0.40756,-0.1799 -0.40756,-0.39981 0,-0.21989 0.1834,-0.39981 0.40756,-0.39981 0.22417,0 0.40757,0.17992 0.40757,0.39981 z m -5.70594,0.79963 c 0,0.2199 -0.18341,0.39981 -0.40757,0.39981 -0.22417,0 -0.40757,-0.17991 -0.40757,-0.39981 0,-0.2199 0.1834,-0.39982 0.40757,-0.39982 0.22416,0 0.40757,0.17992 0.40757,0.39982 z m 10.42005,1.64778 c 4.86764,3.34458 5.30312,9.86376 0.90159,13.49694 -4.35925,3.59827 -9.78773,2.40066 -13.40181,-2.95666 -1.1783,-1.74667 -1.74253,-2.93335 -1.25381,-2.63706 0.548,0.33225 0.88856,-0.20424 0.88856,-1.3997 0,-2.29107 2.77442,-6.00355 5.20719,-6.9678 2.7087,-1.07361 5.68241,-0.89332 7.65828,0.46428 z m 98.1744,-27.99014 c -3.35768,2.30708 -1.48641,8.35075 2.5856,8.35075 2.9299,0 4.56926,-1.57172 4.56926,-4.38075 0,-2.63489 -2.21798,-5.21478 -4.48325,-5.21478 -0.47298,0 -1.67521,0.56015 -2.67161,1.24478 z m 3.89431,1.55391 c 0,0.6597 0.58079,1.19944 1.29064,1.19944 0.70985,0 1.12251,0.44979 0.91702,0.99954 -0.20548,0.54974 -0.78627,0.90957 -1.29063,0.79963 -0.50436,-0.10994 -0.91703,0.33984 -0.91703,0.99953 0,1.59415 -0.49533,1.51317 -2.4454,-0.39982 -1.95008,-1.91297 -2.03264,-2.39888 -0.40757,-2.39888 0.67249,0 1.2227,-0.53974 1.2227,-1.19944 0,-0.65969 0.36681,-1.19944 0.81514,-1.19944 0.44832,0 0.81513,0.53975 0.81513,1.19944 z m -89.63628,28.33416 c -2.00437,3.67397 -0.0601,7.24922 3.9422,7.24922 2.90486,0 4.18049,-1.34197 4.18049,-4.39796 0,-3.17255 -1.28661,-4.39795 -4.6176,-4.39795 -1.79687,0 -2.93535,0.50239 -3.50509,1.54669 z m 5.33763,1.65182 c 0.63514,0 1.15479,0.35984 1.15479,0.79963 0,0.4398 -0.55022,0.79962 -1.2227,0.79962 -0.67249,0 -1.26526,0.62972 -1.31727,1.39936 -0.0901,1.3327 -0.11231,1.3327 -0.46734,0 -0.20502,-0.76964 -0.96029,-1.39936 -1.67834,-1.39936 -1.1026,0 -1.06163,-0.23059 0.26355,-1.48338 0.86302,-0.81589 1.69139,-1.17571 1.84082,-0.79963 0.14946,0.37607 0.79137,0.68376 1.42649,0.68376 z m 17.14805,2.03658 c -0.26613,0.68032 -1.13069,1.13012 -1.92126,0.99954 -1.01998,-0.16848 -1.36004,0.20228 -1.17102,1.27669 0.14651,0.83276 -0.22031,1.82914 -0.81514,2.21417 -0.88133,0.57049 -0.84972,0.88225 0.17087,1.68439 0.6888,0.5414 1.1136,1.6488 0.94399,2.46091 -0.24632,1.17937 0.0347,1.3697 1.39682,0.94565 0.93786,-0.29201 1.7052,-0.30888 1.7052,-0.0376 0,0.69679 -2.42259,5.21175 -2.79647,5.21175 -0.17005,0 -1.28989,-1.64162 -2.48854,-3.64805 -1.90376,-3.1867 -2.45474,-3.59466 -4.35691,-3.22586 -1.19766,0.23221 -3.51873,0.64814 -5.15793,0.92429 -2.6575,0.44771 -3.03751,0.81884 -3.50779,3.42577 -1.09211,6.05399 -1.04597,6.01964 -4.49096,3.34307 -1.71204,-1.33017 -3.4467,-2.41847 -3.85482,-2.41847 -0.40812,0 -2.48989,1.08737 -4.62616,2.41638 l -3.88413,2.41637 0.55123,4.32795 0.55123,4.32795 -3.95913,-1.18022 -3.95914,-1.18023 -2.64225,3.0319 c -3.69815,4.2435 -3.85896,5.29665 -1.42968,9.36302 l 2.137,3.57712 -4.33092,0.24345 -4.33091,0.24345 -1.56198,4.72005 -1.56198,4.72007 3.45406,2.88931 3.45408,2.88931 -3.72614,1.77585 c -3.56289,1.69805 -3.72566,1.92522 -3.71502,5.18467 0.019,5.85071 0.60172,6.8127 4.99248,8.24333 l 4.01775,1.30909 -2.86808,3.11423 c -3.11869,3.38634 -3.09322,3.87521 0.51515,9.88806 1.30193,2.16948 1.73432,2.33697 5.52339,2.13968 2.26099,-0.11771 4.11089,-0.0514 4.11089,0.14742 0,0.19879 -0.55021,1.65324 -1.2227,3.2321 -1.79018,4.20302 -1.59614,4.82809 2.52804,8.14324 l 3.75075,3.01498 3.60727,-1.71921 c 1.98402,-0.94556 3.78089,-1.71921 3.99306,-1.71921 0.21217,0 0.38577,1.92914 0.38577,4.28698 v 4.28696 l 4.62537,1.73637 4.6254,1.73635 3.10344,-2.97276 c 1.70689,-1.63504 3.23437,-2.81625 3.3944,-2.62492 0.16003,0.19132 0.85957,1.78719 1.55455,3.54636 l 1.26358,3.19851 h 5.47977 5.47975 l 1.2636,-3.19851 c 0.69497,-1.75917 1.39453,-3.35504 1.55455,-3.54636 0.16002,-0.19133 1.69519,0.99725 3.41147,2.64127 l 3.12053,2.98913 4.60717,-1.84164 4.60717,-1.84166 8.1e-4,-4.19803 c 6.3e-4,-2.30893 0.17472,-4.19805 0.3869,-4.19805 0.21216,0 2.00904,0.77365 3.99304,1.71921 l 3.60729,1.71921 3.75074,-3.01498 c 4.14996,-3.33587 4.28754,-3.76562 2.52804,-7.89657 -0.67249,-1.57886 -1.2227,-3.08882 -1.2227,-3.35544 0,-0.26663 1.89674,-0.38603 4.21499,-0.26532 l 4.215,0.21945 2.39614,-4.63385 2.39613,-4.63386 -3.04628,-3.06032 -3.04629,-3.06033 3.56759,-0.99319 c 4.67815,-1.30236 5.60544,-2.57466 5.60544,-7.69102 v -4.25551 l -3.72614,-1.77586 -3.72615,-1.77585 3.45407,-2.88931 3.45407,-2.88931 -1.56198,-4.72007 c -1.5333,-4.63336 -1.62187,-4.72471 -4.82253,-4.9734 -4.50764,-0.35023 -4.99604,-1.14283 -2.82633,-4.58672 1.8274,-2.90053 1.8353,-3.0097 0.40601,-5.61322 -0.80169,-1.46035 -2.26175,-3.39624 -3.24456,-4.30198 -1.68346,-1.55143 -2.01074,-1.58073 -5.65163,-0.50583 l -3.86467,1.14098 0.54725,-4.29681 0.54726,-4.2968 -3.9168,-2.43671 c -2.15424,-1.34017 -4.23627,-2.4367 -4.62675,-2.4367 -0.39046,0 -1.95344,0.93042 -3.47329,2.06762 -1.51985,1.13719 -3.1037,1.86128 -3.51967,1.60908 -0.41597,-0.25218 -1.00012,-2.05358 -1.29814,-4.00306 -0.51685,-3.38099 -0.69045,-3.56916 -3.76218,-4.07827 -3.42745,-0.56804 -4.23936,-2.15135 -1.79383,-3.49814 1.35856,-0.74817 1.35856,-0.81126 0,-1.32473 -0.78458,-0.29652 -1.42649,-1.26227 -1.42649,-2.1461 0,-1.19541 -0.40404,-1.50331 -1.57764,-1.20226 -0.91211,0.234 -1.76096,-0.0639 -2.01225,-0.70635 -0.57753,-1.47639 -1.82405,-1.4117 -2.42551,0.12587 z m 4.25877,4.31564 c 0.36293,2.52237 -1.91748,4.31003 -4.06192,3.1842 -1.49209,-0.78335 -2.07578,-3.92463 -0.93682,-5.04191 0.31945,-0.31339 1.51159,-0.46331 2.64919,-0.33317 1.48675,0.17007 2.14742,0.78614 2.34955,2.19088 z m 10.16188,20.66841 c 8.86564,4.30952 14.2608,9.59176 18.62867,18.23881 2.93762,5.81555 3.37101,7.40801 3.73897,13.73887 0.74477,12.81376 -2.52491,21.36803 -11.55236,30.22373 -8.44028,8.27968 -16.20518,11.4919 -27.77945,11.4919 -11.07104,0 -20.43818,-3.74581 -28.05699,-11.21965 -7.61389,-7.46904 -11.41847,-16.61924 -11.45718,-27.55509 -0.052,-14.70279 8.40306,-28.32807 21.50537,-34.6556 7.17187,-3.46352 10.31565,-4.06471 19.84174,-3.79438 7.91974,0.22474 8.70633,0.40832 15.13123,3.53141 z m -22.66213,20.30975 c -3.28066,1.2229 -8.06751,6.0877 -9.24186,9.39237 -1.38132,3.88702 -1.24309,8.04706 0.26738,8.04706 0.67248,0 1.21708,-0.62972 1.21021,-1.39935 -0.0109,-1.19588 -0.12736,-1.22496 -0.80265,-0.1999 -0.47479,0.72069 -0.79516,0.81931 -0.80266,0.24709 -0.006,-0.52379 0.31054,-1.14817 0.70533,-1.38753 0.98064,-0.59454 1.67343,-4.45695 0.79942,-4.45695 -0.38614,0 -0.70209,-0.38108 -0.70209,-0.84683 0,-0.46575 0.37364,-0.62028 0.83031,-0.34342 0.45667,0.27688 1.30646,-0.60745 1.88841,-1.9652 0.58195,-1.35771 1.26693,-2.26372 1.52217,-2.01333 0.25524,0.25037 1.1478,-0.38372 1.98349,-1.4091 0.83567,-1.02538 2.11681,-1.74602 2.84695,-1.60143 0.73016,0.14459 1.92229,-0.32051 2.6492,-1.03359 0.81845,-0.80288 1.32164,-0.93574 1.32164,-0.349 0,0.59794 0.9022,0.8176 2.44542,0.59543 1.34497,-0.19365 2.4454,-0.11233 2.4454,0.1807 0,0.29304 0.91703,0.94265 2.03784,1.44363 1.23966,0.55408 2.03784,0.60434 2.03784,0.12835 0,-0.43038 0.32605,-0.78249 0.72457,-0.78249 0.3985,0 0.67362,0.60865 0.61135,1.35257 -0.0623,0.74393 0.70993,1.76557 1.716,2.27036 1.00608,0.50477 1.58686,1.15553 1.29065,1.44611 -0.29623,0.2906 -0.145,0.52835 0.33607,0.52835 0.48108,0 0.69429,0.67675 0.47379,1.5039 -0.2205,0.82715 0.13026,1.99067 0.77949,2.58558 0.67916,0.62237 0.93211,1.59661 0.59569,2.29434 -3.34814,6.94383 -3.51688,14.38406 -0.17802,7.84905 2.63516,-5.15767 1.86832,-13.34863 -1.63469,-17.46074 -3.79447,-4.45424 -12.59112,-6.69065 -18.15665,-4.61603 z m 6.64895,0.38071 c -0.29888,0.2932 -0.78796,0.2932 -1.08685,0 -0.29888,-0.2932 -0.0544,-0.53308 0.54342,-0.53308 0.59777,0 0.8423,0.23988 0.54343,0.53308 z m -5.43424,0.66636 c 0,0.2199 -0.18341,0.39981 -0.40756,0.39981 -0.22416,0 -0.40757,-0.17991 -0.40757,-0.39981 0,-0.2199 0.18341,-0.39981 0.40757,-0.39981 0.22415,0 0.40756,0.17991 0.40756,0.39981 z m 10.59677,0 c 0,0.2199 -0.18341,0.39981 -0.40757,0.39981 -0.22416,0 -0.40757,-0.17991 -0.40757,-0.39981 0,-0.2199 0.18341,-0.39981 0.40757,-0.39981 0.22416,0 0.40757,0.17991 0.40757,0.39981 z m -14.94416,2.53216 c -0.29888,0.29319 -0.78796,0.29319 -1.08685,0 -0.29888,-0.29321 -0.0544,-0.53309 0.54342,-0.53309 0.59777,0 0.8423,0.23988 0.54343,0.53309 z m 19.56326,0.79962 c -0.29888,0.2932 -0.78796,0.2932 -1.08684,0 -0.29889,-0.2932 -0.0544,-0.53309 0.54342,-0.53309 0.59777,0 0.8423,0.23989 0.54342,0.53309 z m -23.63894,3.99814 c -0.29888,0.29319 -0.54342,0.0533 -0.54342,-0.53309 0,-0.58639 0.24454,-0.82628 0.54342,-0.53308 0.29888,0.29319 0.29888,0.77297 0,1.06617 z m 27.1712,1.46597 c 0,0.21991 -0.18341,0.39983 -0.40757,0.39983 -0.22416,0 -0.40757,-0.17992 -0.40757,-0.39983 0,-0.21989 0.18341,-0.39981 0.40757,-0.39981 0.22416,0 0.40757,0.17992 0.40757,0.39981 z m -28.80148,3.33179 c -0.29888,0.2932 -0.54341,0.0533 -0.54341,-0.53308 0,-0.5864 0.24453,-0.82629 0.54341,-0.53309 0.29889,0.29319 0.29889,0.77298 0,1.06617 z m 29.34491,2.39888 c -0.29889,0.2932 -0.54343,0.0533 -0.54343,-0.53308 0,-0.5864 0.24454,-0.82629 0.54343,-0.53309 0.29888,0.29319 0.29888,0.77298 0,1.06617 z m 0.2717,3.06524 c 0,0.21989 -0.1834,0.39981 -0.40756,0.39981 -0.22416,0 -0.40757,-0.17992 -0.40757,-0.39981 0,-0.2199 0.18341,-0.39981 0.40757,-0.39981 0.22416,0 0.40756,0.17991 0.40756,0.39981 z m -1.90197,4.1314 c -0.2989,0.2932 -0.54343,0.0533 -0.54343,-0.53308 0,-0.58639 0.24453,-0.82628 0.54343,-0.53308 0.29888,0.2932 0.29888,0.77297 0,1.06616 z m -18.77284,-13.61784 c -1.64409,1.61281 -2.14899,2.90231 -2.14899,5.48836 0,2.58603 0.5049,3.87555 2.14899,5.48835 1.64409,1.61279 2.9586,2.1081 5.5948,2.1081 7.13135,0 10.5089,-7.8762 5.55345,-12.95018 -3.02383,-3.09615 -8.06719,-3.15705 -11.14825,-0.13463 z m 10.52265,0.65424 c 4.39582,4.31218 1.29496,11.63095 -4.92785,11.63095 -3.97508,0 -6.92865,-2.89739 -6.92865,-6.79683 0,-6.10443 7.46071,-9.14629 11.8565,-4.83412 z m -9.4111,0.43617 c -1.00922,0.99001 -1.63027,2.66542 -1.63027,4.39795 0,1.73252 0.62105,3.40792 1.63027,4.39795 1.00922,0.99001 2.71712,1.59925 4.48325,1.59925 1.76613,0 3.47402,-0.60924 4.48325,-1.59925 1.00922,-0.99003 1.63027,-2.66543 1.63027,-4.39795 0,-1.73253 -0.62105,-3.40794 -1.63027,-4.39795 -1.00923,-0.99002 -2.71712,-1.59926 -4.48325,-1.59926 -1.76613,0 -3.47403,0.60924 -4.48325,1.59926 z m 7.20984,3.95333 c 0.36295,2.52237 -1.91746,4.31003 -4.0619,3.1842 -1.49209,-0.78336 -2.07577,-3.92463 -0.93682,-5.0419 0.31946,-0.3134 1.5116,-0.46332 2.64919,-0.33318 1.48674,0.17007 2.14741,0.78614 2.34953,2.19088 z m -18.62174,4.48245 c 0,1.33814 3.00363,5.85703 5.16678,7.7733 3.02269,2.67772 8.80791,4.63559 9.3122,3.1515 0.18112,-0.53304 0.65405,-0.96916 1.05095,-0.96916 0.39688,0 0.52075,0.5135 0.27525,1.1411 -0.32594,0.83323 0.0109,1.0238 1.24828,0.70637 0.93206,-0.23911 1.6657,-1.02248 1.63031,-1.74082 -0.0385,-0.78299 -0.22509,-0.91732 -0.4657,-0.3354 -0.31351,0.75825 -0.74543,0.75991 -1.97348,0.007 -1.2397,-0.75947 -1.93494,-0.74089 -3.28772,0.0879 -0.94356,0.57806 -1.47021,0.66156 -1.17034,0.18559 0.62336,-0.98943 -2.69777,-2.43878 -4.25578,-1.85724 -0.65472,0.24438 -0.85381,-0.0618 -0.54812,-0.84337 0.50407,-1.28858 -2.2581,-3.319 -3.22491,-2.3706 -0.29279,0.28722 -0.4663,-0.17524 -0.3856,-1.02766 0.30707,-3.24318 -0.13556,-4.3482 -1.74185,-4.3482 -0.89664,0 -1.63027,0.19778 -1.63027,0.43952 z m 3.26054,2.759 c 0,0.4398 -0.16176,0.79962 -0.35946,0.79962 -0.1977,0 -0.58616,-0.35982 -0.86324,-0.79962 -0.27708,-0.4398 -0.11532,-0.79963 0.35946,-0.79963 0.47478,0 0.86324,0.35983 0.86324,0.79963 z m 2.85298,3.99813 c 0.27708,0.4398 0.32036,0.79963 0.0962,0.79963 -0.22416,0 -0.63426,-0.35983 -0.91134,-0.79963 -0.27708,-0.4398 -0.32038,-0.79962 -0.0962,-0.79962 0.22417,0 0.63427,0.35982 0.91136,0.79962 z m 4.48325,2.7987 c 0,0.2199 -0.18341,0.39981 -0.40757,0.39981 -0.22417,0 -0.40757,-0.17991 -0.40757,-0.39981 0,-0.2199 0.1834,-0.39982 0.40757,-0.39982 0.22416,0 0.40757,0.17992 0.40757,0.39982 z m 12.43082,-2.25942 c -1.62761,1.11377 -2.56732,3.45886 -1.38602,3.45886 1.44263,0 5.25792,-2.62593 5.25792,-3.61886 0,-1.50418 -1.53245,-1.44086 -3.8719,0.16 z m 3.05676,-0.13946 c 0,0.21989 -0.1834,0.39981 -0.40756,0.39981 -0.22417,0 -0.40758,-0.17992 -0.40758,-0.39981 0,-0.2199 0.18341,-0.39982 0.40758,-0.39982 0.22416,0 0.40756,0.17992 0.40756,0.39982 z m -3.53225,2.53215 c -0.29889,0.2932 -0.54343,0.0533 -0.54343,-0.53309 0,-0.58639 0.24454,-0.82627 0.54343,-0.53308 0.29888,0.2932 0.29888,0.77297 0,1.06617 z M 91.298643,330.55488 c -1.863564,3.41585 0.135856,7.24922 3.781057,7.24922 3.433027,0 5.77929,-5.46648 3.363458,-7.83635 -1.592863,-1.56256 -6.177264,-1.18581 -7.144515,0.58713 z m 5.386158,1.25201 c 1.086836,1.06618 1.065002,1.35414 -0.196514,2.59165 -1.020452,1.00105 -1.513956,1.11338 -1.756422,0.39982 -0.185471,-0.54583 -0.921038,-0.9924 -1.634608,-0.9924 -1.093098,0 -1.050308,-0.24435 0.271701,-1.55173 1.936697,-1.91524 1.833632,-1.90133 3.315843,-0.44734 z m -36.199812,21.72414 c -4.938257,1.71437 -11.797789,8.14418 -14.128556,13.24347 -2.844758,6.22383 -2.70185,15.42612 0.328924,21.17948 4.905206,9.31162 12.385697,13.80466 22.983497,13.80466 7.768875,0 13.117819,-2.05764 18.129742,-6.97421 5.271207,-5.1709 7.141434,-9.84082 7.128043,-17.79859 -0.0098,-5.81029 -0.328598,-7.38965 -2.19653,-10.88102 -2.771353,-5.17994 -9.320053,-10.98834 -14.244691,-12.6344 -4.712746,-1.57525 -13.372304,-1.54608 -18.000429,0.0605 z m 19.938529,2.5253 c 8.364017,4.22066 12.841059,11.52246 12.867415,20.98604 0.02195,7.88655 -2.939804,14.03507 -8.883574,18.44191 -12.388469,9.18507 -30.210655,4.88878 -36.63523,-8.83145 -2.405096,-5.13626 -2.325746,-14.24212 0.168277,-19.3138 2.410389,-4.9016 7.903753,-10.03514 12.814632,-11.97525 5.377419,-2.12442 14.739364,-1.79478 19.66848,0.69255 z m 157.952452,17.75922 c -1.46272,1.58555 -1.45549,1.67251 0.28124,3.3762 l 1.78264,1.74872 1.78264,-1.74872 c 1.73672,-1.70369 1.74398,-1.79065 0.28124,-3.3762 -0.82578,-0.89512 -1.75452,-1.62749 -2.06388,-1.62749 -0.30935,0 -1.2381,0.73237 -2.06388,1.62749 z m -4.61924,5.19888 c -0.77759,1.67418 -0.70066,2.26557 0.44034,3.38487 1.0666,1.0463 1.70506,1.15703 2.79374,0.48448 1.99632,-1.23326 2.25542,-3.60712 0.5289,-4.84556 -2.07526,-1.48862 -2.69253,-1.32848 -3.76298,0.97621 z m 9.12712,-0.42675 c -0.69945,1.28204 -0.68849,1.98064 0.0447,2.84721 2.16763,2.56215 6.89569,0.0555 5.12462,-2.71693 -1.29948,-2.03419 -4.09218,-2.10458 -5.16928,-0.13028 z m -18.50465,0.71393 c -0.79292,1.24551 -0.68783,1.7624 0.5887,2.89568 2.64191,2.34539 6.30024,-0.56449 4.05144,-3.22257 -1.38542,-1.63756 -3.48362,-1.48975 -4.64014,0.32689 z m 5.03028,4.10946 c -1.46274,1.58556 -1.4555,1.67252 0.28124,3.37621 l 1.78264,1.74872 1.78264,-1.74872 c 1.73672,-1.70369 1.74397,-1.79065 0.28123,-3.37621 -0.82577,-0.89512 -1.75451,-1.62747 -2.06387,-1.62747 -0.30935,0 -1.23811,0.73235 -2.06388,1.62747 z m 9.43772,-0.47252 c -2.20142,2.6021 1.44175,5.73279 3.88367,3.33733 1.03811,-1.01836 1.14442,-1.64318 0.46078,-2.70813 -1.19023,-1.85407 -3.077,-2.12731 -4.34445,-0.6292 z m -16.17732,2.20348 c -1.47727,1.44917 -1.17719,3.33158 0.71598,4.49139 1.30796,0.8013 1.95831,0.82283 2.85299,0.0945 2.05581,-1.67372 0.873,-5.54539 -1.69415,-5.54539 -0.49316,0 -1.33683,0.43179 -1.87482,0.95955 z m 11.78279,2.102 c -1.77986,1.92933 -1.70197,2.73456 0.38849,4.01522 1.51739,0.92961 1.94977,0.85624 3.41292,-0.57905 1.63059,-1.59959 1.63523,-1.68703 0.17396,-3.27099 -1.84278,-1.9975 -2.26865,-2.0152 -3.97537,-0.16518 z m -6.97401,2.85108 -1.73657,1.81331 1.69065,1.5009 c 1.29303,1.14791 2.0149,1.30154 3.06942,0.65321 1.96526,-1.20826 2.10857,-3.71885 0.27578,-4.8318 -1.30654,-0.79338 -1.84739,-0.6517 -3.29928,0.86438 z m 11.49394,1.44394 c -1.38421,1.35787 -1.21687,2.5788 0.57103,4.16603 1.47235,1.3071 1.63375,1.28628 3.25407,-0.41983 1.59017,-1.67438 1.61455,-1.89309 0.36232,-3.25046 -1.5612,-1.6923 -2.8162,-1.84086 -4.18742,-0.49574 z m -18.52962,1.46754 c -1.46236,1.58516 -1.45579,1.67223 0.25247,3.34798 1.70825,1.67576 1.79701,1.68221 3.41291,0.24766 1.99524,-1.77131 2.04832,-2.32813 0.37812,-3.96655 -1.6702,-1.63843 -2.23783,-1.58636 -4.0435,0.37091 z m 11.08528,1.4704 c -0.62845,1.15192 -0.45355,1.82179 0.7561,2.89567 2.65741,2.35916 6.33155,-0.53329 4.0712,-3.20503 -1.39225,-1.64564 -3.84653,-1.48836 -4.8273,0.30936 z m -6.16843,2.49952 c -1.42373,1.54329 -1.42373,1.65522 0,3.19851 1.8826,2.04066 3.00758,2.02082 4.34285,-0.0767 0.90813,-1.42648 0.85785,-1.90243 -0.33783,-3.19851 -1.76168,-1.90959 -2.18005,-1.9016 -4.00502,0.0767 z m -7.18136,3.03065 c -1.29778,1.40675 -1.26832,1.58903 0.52371,3.24052 l 1.89885,1.74992 1.52999,-1.65848 c 1.17283,-1.27129 1.32732,-1.97421 0.66177,-3.01099 -1.23643,-1.9261 -3.01913,-2.05011 -4.61432,-0.32097 z m -130.641033,1.33436 c -0.468899,1.83269 -0.62648,1.88677 -2.322224,0.79681 -2.005908,-1.28931 -2.911752,-0.86359 -2.911752,1.36847 0,1.69075 -0.332445,1.77566 -2.49899,0.63822 -1.403805,-0.73699 -1.57669,-0.55141 -1.57669,1.69247 0,2.27232 -0.205121,2.48178 -2.08514,2.12922 -1.542259,-0.28921 -1.966716,-0.10533 -1.630271,0.70642 0.250181,0.60358 0.677519,1.63717 0.949643,2.29686 0.364486,0.88357 -0.06488,1.19944 -1.630271,1.19944 -2.47685,0 -2.547919,0.22279 -0.871555,2.73257 1.200001,1.79658 1.156527,1.90061 -1.018919,2.4382 l -2.272414,0.56153 1.945153,1.54831 c 1.814678,1.44446 1.855684,1.64529 0.611352,2.99412 -1.745227,1.89176 -1.683365,2.5193 0.248366,2.5193 2.126853,0 2.752334,1.19272 1.261831,2.40619 -1.812112,1.47532 -1.47157,2.39158 0.888889,2.39158 1.918493,0 2.054926,0.21293 1.558116,2.43188 -0.515556,2.30265 -0.432369,2.40427 1.565496,1.91238 1.881888,-0.46333 2.109996,-0.28476 2.109996,1.65181 0,1.61268 0.314566,2.04643 1.222703,1.68593 0.672488,-0.26694 1.727665,-0.68673 2.344843,-0.93286 0.729329,-0.29086 1.314509,0.30439 1.671691,1.70047 l 0.549564,2.14795 1.892235,-1.74383 c 1.669959,-1.53899 1.952365,-1.59017 2.403983,-0.43564 0.711548,1.81896 0.662597,1.97706 -0.612058,1.97706 -0.618091,0 -1.57963,1.0795 -2.136738,2.39888 -1.420891,3.36508 -4.667164,3.34816 -5.967425,-0.0311 -1.376047,-3.57618 -4.134815,-2.99062 -4.469782,0.94873 -0.330814,3.8904 -2.889917,4.67764 -5.927027,1.82325 -1.83423,-1.72386 -2.269784,-1.84016 -3.121449,-0.8335 -0.609548,0.72049 -0.790638,2.2112 -0.471377,3.8806 0.722199,3.77643 -1.007193,5.17807 -4.31721,3.49895 -1.794158,-0.91014 -2.613999,-0.9818 -3.319092,-0.29012 -1.337431,1.31197 -1.169404,2.25141 0.763717,4.26997 1.415305,1.47786 1.542357,2.06441 0.758446,3.50127 -0.770205,1.41179 -1.395088,1.62834 -3.4322,1.18942 -1.7032,-0.36696 -2.71211,-0.1936 -3.191388,0.5484 -1.222889,1.89326 -0.793757,2.86243 1.719622,3.8837 3.608661,1.46632 3.373532,4.37326 -0.453976,5.61242 -2.280697,0.73837 -2.845988,1.30614 -2.649192,2.66079 0.187666,1.29171 0.963251,1.82206 3.103168,2.12194 3.626963,0.50829 4.177409,2.87441 1.288121,5.53712 -1.555388,1.4334 -1.857662,2.21484 -1.272003,3.28832 0.625003,1.14561 1.305804,1.28917 3.651993,0.7701 3.779046,-0.83611 5.179146,1.15818 3.306757,4.71009 -1.095412,2.078 -1.092358,2.43446 0.0287,3.34717 1.029234,0.83794 1.671289,0.78008 3.573099,-0.32198 3.322114,-1.92507 4.910912,-1.02875 4.910912,2.77051 0,4.08448 2.017233,5.03991 4.261106,2.01819 0.921724,-1.24126 2.364275,-2.12883 3.459959,-2.12883 1.502198,0 1.986486,0.56136 2.414345,2.79869 0.439054,2.29582 0.894748,2.7987 2.536127,2.7987 1.429042,0 2.000909,-0.43838 2.000909,-1.53386 0,-4.4646 3.264266,-5.48785 6.156347,-1.92985 2.462417,3.02941 4.818518,2.09322 4.106198,-1.63157 -0.759261,-3.97018 1.091011,-5.21354 4.823809,-3.24153 2.20157,1.16305 3.03285,1.27735 3.80212,0.52271 0.76927,-0.75463 0.69456,-1.56229 -0.34175,-3.69409 -1.24079,-2.55247 -1.23339,-2.81078 0.11507,-4.00788 0.79274,-0.70379 1.59496,-1.14952 1.78275,-0.99052 0.18779,0.15899 1.32521,0.52031 2.52759,0.80294 1.76579,0.41508 2.2921,0.18658 2.73691,-1.18822 0.40907,-1.26435 0.005,-2.13877 -1.57181,-3.4 -3.02357,-2.41869 -2.18284,-5.29621 1.54742,-5.29621 1.68336,0 2.8536,-0.46759 3.16547,-1.26484 0.7388,-1.88864 0.71174,-1.92634 -2.25468,-3.1422 -3.93419,-1.61254 -4.29172,-3.94309 -0.91866,-5.98811 3.784,-2.29414 3.1377,-4.5431 -1.18927,-4.1383 -2.65428,0.2483 -3.22219,0.0225 -3.70632,-1.47386 -0.38726,-1.19694 -0.0465,-2.46396 1.05598,-3.92682 1.16865,-1.5506 1.4117,-2.53835 0.86182,-3.50225 -0.68025,-1.19241 -1.06386,-1.22042 -3.43041,-0.25042 -2.20897,0.90541 -2.9156,0.91203 -4.13309,0.0387 -1.26604,-0.90813 -1.33946,-1.41671 -0.53238,-3.68784 0.79913,-2.24873 0.7303,-2.78214 -0.47008,-3.64318 -1.190006,-0.85359 -1.745375,-0.69005 -3.611058,1.06339 -1.853489,1.74197 -2.47772,1.92879 -3.917967,1.17266 -2.06437,-1.08378 -2.230049,-3.94021 -0.426946,-7.3607 l 1.28624,-2.44001 1.974303,1.81948 c 1.969043,1.81462 1.974303,1.81496 1.974303,0.12801 0,-2.06904 1.448714,-3.0834 2.679465,-1.87609 1.46647,1.43859 2.21135,1.03356 2.21135,-1.2024 0,-1.82228 0.27361,-2.04097 2.12028,-1.69468 1.96234,0.36798 2.0853,0.22603 1.65065,-1.90585 -0.43394,-2.12841 -0.28392,-2.30345 1.9742,-2.30345 2.41539,0 2.42839,-0.0232 1.11668,-1.98692 -1.29019,-1.93162 -1.26262,-2.01099 0.99067,-2.85138 l 2.31779,-0.86445 -1.93049,-1.42847 -1.93048,-1.42847 1.93994,-1.34008 c 1.94275,-1.34203 1.6293,-2.09311 -1.32058,-3.16426 -0.44833,-0.16279 -0.17322,-1.0066 0.61135,-1.87512 1.93423,-2.14121 1.79954,-2.65265 -0.69856,-2.65265 -1.56542,0 -1.99476,-0.31588 -1.63027,-1.19944 0.27213,-0.6597 0.73325,-1.77964 1.02472,-2.48879 0.44534,-1.08349 0.12123,-1.20127 -2.03008,-0.73776 -2.52938,0.54498 -2.55369,0.52053 -2.03096,-2.04337 0.55814,-2.73765 0.73701,-2.68281 -3.39756,-1.04154 -0.90071,0.35754 -1.22271,-0.0636 -1.22271,-1.59926 0,-2.36461 -0.932502,-2.67344 -2.495183,-0.82635 -0.943928,1.11572 -1.198445,1.00755 -2.246569,-0.95482 l -1.182056,-2.21309 -1.485601,1.79973 -1.485613,1.79974 -1.046949,-1.64455 c -1.378362,-2.16511 -2.143661,-2.07585 -2.757046,0.32159 z m 10.104822,5.3331 1.88904,0.69847 -1.740772,2.39817 c -1.556159,2.14385 -2.195237,2.39817 -6.026409,2.39817 -3.523446,0 -4.627956,-0.35742 -6.210254,-2.00965 -2.245211,-2.34445 -1.617806,-3.41266 2.583807,-4.39917 2.783749,-0.65362 6.136979,-0.33114 9.504588,0.91401 z m -13.504764,4.765 c 1.280122,2.20636 1.301032,2.63428 0.203784,4.17101 -0.672477,0.94182 -1.222682,2.63955 -1.222682,3.77273 0,1.60765 -0.594768,2.2713 -2.707067,3.02058 -3.784035,1.3423 -3.81402,1.32511 -3.81402,-2.18619 0,-3.8427 1.177425,-7.06056 3.456936,-9.44767 2.198987,-2.30279 2.375284,-2.27389 4.083049,0.66954 z m 19.957455,1.19178 c 1.17032,2.01606 1.82544,4.49305 1.83406,6.93458 0.008,2.08902 -0.11526,3.79823 -0.27253,3.79823 -0.15726,0 -1.3494,-0.36865 -2.64919,-0.8192 -1.88406,-0.6531 -2.63654,-1.66427 -3.711023,-4.98683 -1.195531,-3.69688 -1.213149,-4.42299 -0.155962,-6.42843 1.491965,-2.83026 2.642365,-2.48159 4.954645,1.50165 z m -9.969013,5.13866 c 3.001797,3.25384 -1.972368,7.74035 -5.138357,4.63459 -1.441448,-1.41401 -1.189168,-4.4378 0.448326,-5.37342 2.094887,-1.19694 3.041815,-1.04776 4.690031,0.73883 z m -3.914642,0.5022 c -0.314381,0.3084 -0.571606,1.24545 -0.571606,2.08232 0,1.12057 0.483365,1.45425 1.834056,1.26608 1.198989,-0.16704 1.834056,-0.80549 1.834056,-1.84383 0,-1.58613 -2.01519,-2.5653 -3.096506,-1.50457 z m -1.059698,9.88971 c 0.97701,0 1.303228,0.80063 1.303228,3.19852 0,2.51812 -0.303437,3.1957 -1.426488,3.18535 -2.482463,-0.0229 -7.826853,-3.50424 -9.818861,-6.39604 l -1.919503,-2.78653 3.116818,-0.87144 c 2.912546,-0.81432 3.258545,-0.72262 5.279191,1.39935 1.189304,1.24894 2.748833,2.27079 3.465615,2.27079 z m 15.758233,-2.87873 c 0.73868,0.72463 -2.42801,4.98134 -4.983766,6.69926 -1.430586,0.9616 -3.831378,1.98973 -5.335119,2.28476 l -2.734075,0.53642 0.5898,-3.12095 c 0.324391,-1.71652 0.971294,-3.25571 1.437563,-3.42043 0.466279,-0.16473 1.976096,-1.28846 3.355143,-2.4972 2.101486,-1.84194 2.894794,-2.0887 4.900774,-1.52434 1.31636,0.37035 2.56273,0.83946 2.76968,1.04248 z m -23.642266,25.75141 c -0.270875,0.2657 -0.973925,0.29411 -1.562344,0.0632 -0.650261,-0.25525 -0.457117,-0.44474 0.492473,-0.48311 0.859283,-0.0347 1.340735,0.15428 1.069871,0.41999 z m 7.760773,0.0465 c -0.560406,0.22183 -1.477434,0.22183 -2.037845,0 -0.5604,-0.22183 -0.101838,-0.40332 1.01892,-0.40332 1.120817,0 1.579336,0.18149 1.018925,0.40332 z m -11.072268,0.80314 c -0.298883,0.2932 -0.787965,0.2932 -1.086848,0 -0.298883,-0.29318 -0.05434,-0.53308 0.543424,-0.53308 0.597766,0 0.842307,0.2399 0.543424,0.53309 z m 17.692911,1.96423 c 2.113854,1.37351 3.642538,2.69432 3.397073,2.93512 -0.245464,0.24079 -1.270177,-0.2995 -2.27713,-1.20064 -1.006965,-0.90115 -2.931283,-2.20755 -4.276258,-2.90312 -1.344974,-0.69554 -2.049784,-1.27905 -1.566235,-1.29666 0.483539,-0.0176 2.608685,1.09177 4.72255,2.4653 z m -19.866607,-1.29787 c 0,0.2199 -0.183406,0.39981 -0.407568,0.39981 -0.224162,0 -0.407568,-0.17991 -0.407568,-0.39981 0,-0.21989 0.183406,-0.39981 0.407568,-0.39981 0.224162,0 0.407568,0.17992 0.407568,0.39981 z m 14.876236,1.32043 c 2.131439,1.09808 1.735186,3.33248 -1.222703,6.89449 -4.699449,5.65928 -5.336679,5.75583 -9.342453,1.41549 -4.805259,-5.2066 -4.604431,-8.48425 0.579736,-9.4615 2.5199,-0.47503 8.070721,0.16511 9.98542,1.15152 z m -16.954833,-0.3147 c -0.425903,0.33325 -1.891789,1.50272 -3.257522,2.59879 -2.356112,1.89092 -2.346298,1.85992 0.191818,-0.60591 1.471222,-1.42934 2.937109,-2.5988 3.257511,-2.5988 0.320414,0 0.234108,0.27267 -0.191807,0.60592 z m 28.636424,7.51537 c 1.90891,3.62119 1.00127,3.45453 -1.03363,-0.18979 -0.96809,-1.73376 -1.418883,-2.94536 -1.00177,-2.69248 0.41712,0.25288 1.33304,1.54991 2.0354,2.88227 z M 74.733152,460.347 c 0.924212,0.98953 2.463188,3.32909 3.419952,5.19899 l 1.739565,3.39986 -2.666506,1.61016 c -4.411786,2.66407 -8.496031,3.61176 -10.064015,2.33522 -2.908785,-2.36816 0.82232,-14.34339 4.468945,-14.34339 0.781932,0 2.177858,0.80962 3.102059,1.79916 z m 24.549976,0.20918 c 2.299092,2.8672 3.782292,9.38818 2.619942,11.51872 -0.49986,0.91622 -1.49198,1.66585 -2.204712,1.66585 -1.887964,0 -10.873805,-4.0878 -10.873805,-4.94667 0,-0.40157 0.599505,-1.88171 1.332247,-3.28922 3.755332,-7.21351 6.232976,-8.557 9.126328,-4.94868 z m -31.652114,-0.8561 c 0,0.19394 -0.423491,0.60938 -0.94108,0.92319 -0.583072,0.3535 -0.719819,0.21935 -0.359464,-0.35263 0.580735,-0.92177 1.300544,-1.23756 1.300544,-0.57056 z m 10.596767,2.04627 c 0.957709,1.31938 1.557877,2.39888 1.333714,2.39888 -0.224162,0 -1.191141,-1.0795 -2.14885,-2.39888 -0.957698,-1.31938 -1.557877,-2.39888 -1.333715,-2.39888 0.224163,0 1.191153,1.0795 2.148851,2.39888 z m 12.227044,0.79963 c -0.957698,1.31938 -1.921357,2.39888 -2.141454,2.39888 -0.51796,0 0.429093,-1.62205 1.984209,-3.39842 1.958978,-2.2377 2.056599,-1.61712 0.157245,0.99954 z m -24.725795,0.53308 c -0.298883,0.29319 -0.543424,0.0533 -0.543424,-0.53308 0,-0.5864 0.244541,-0.82629 0.543424,-0.53309 0.298883,0.2932 0.298883,0.77297 0,1.06617 z m -0.815136,2.39888 c -0.298883,0.29319 -0.543424,0.0533 -0.543424,-0.53308 0,-0.58639 0.244541,-0.82629 0.543424,-0.53308 0.298883,0.29319 0.298883,0.77296 0,1.06616 z m 15.759295,-0.13327 c 0,0.21989 -0.183406,0.39981 -0.407568,0.39981 -0.224163,0 -0.407568,-0.17992 -0.407568,-0.39981 0,-0.21989 0.183405,-0.39981 0.407568,-0.39981 0.224162,0 0.407568,0.17992 0.407568,0.39981 z m 23.380651,1.34937 c -0.26022,0.63788 -0.45337,0.44842 -0.49248,-0.48311 -0.0353,-0.84293 0.15726,-1.31522 0.42812,-1.04951 0.27087,0.26572 0.29983,0.95539 0.0643,1.53262 z m -39.913586,5.23656 c -0.187351,1.21548 -0.345661,0.41081 -0.35178,-1.78817 -0.0054,-2.19898 0.147181,-3.19346 0.340662,-2.20997 0.193481,0.98349 0.19849,2.78266 0.01108,3.99814 z m 22.806307,-3.26032 c 1.563975,2.3415 0.917485,4.07547 -1.765812,4.73613 -2.673048,0.65812 -4.612909,-0.90174 -4.267551,-3.43158 0.48282,-3.53675 4.030097,-4.30375 6.033363,-1.30455 z m 17.909009,2.40505 c -0.29889,0.2932 -0.54343,0.0533 -0.54343,-0.53308 0,-0.58639 0.24454,-0.82628 0.54343,-0.53309 0.29887,0.2932 0.29887,0.77297 0,1.06617 z m -26.899501,1.59925 c -0.298883,0.29321 -0.787965,0.29321 -1.086848,0 -0.298883,-0.29319 -0.05434,-0.53308 0.543424,-0.53308 0.597766,0 0.842307,0.23989 0.543424,0.53308 z m 17.389572,1.20108 c 0.849773,0.51504 0.601146,0.57799 -0.815136,0.20636 -1.120812,-0.29409 -2.588056,-0.86821 -3.260544,-1.2758 -0.849773,-0.51504 -0.601146,-0.57799 0.815136,-0.20636 1.120812,0.2941 2.588057,0.8682 3.260544,1.2758 z m -19.83498,-0.40144 c -0.298883,0.29319 -0.787965,0.29319 -1.086848,0 -0.298883,-0.29321 -0.05434,-0.53309 0.543424,-0.53309 0.597767,0 0.842307,0.23988 0.543424,0.53309 z m -2.445408,0.79962 c -0.298883,0.2932 -0.787964,0.2932 -1.086847,0 -0.298883,-0.2932 -0.05435,-0.53309 0.543423,-0.53309 0.597767,0 0.842307,0.23989 0.543424,0.53309 z m 8.716162,0.86627 c 2.125418,7.38101 1.100727,12.19431 -2.596024,12.19431 -3.797956,0 -10.739242,-5.63931 -10.739242,-8.72491 0,-1.42119 3.790144,-3.35752 7.896473,-4.03419 2.157653,-0.35556 4.173398,-0.68879 4.479422,-0.74052 0.306034,-0.0517 0.737751,0.53565 0.959371,1.30531 z m 14.175578,0.72384 c 4.340297,1.51292 4.588977,3.71549 0.815136,7.21952 -5.196883,4.82534 -9.969944,5.78299 -10.890493,2.18503 -0.546544,-2.13618 0.06293,-9.39138 0.900572,-10.72097 0.566509,-0.8992 4.394165,-0.34999 9.174785,1.31642 z m 8.096847,-0.37402 c -0.26022,0.6379 -0.45337,0.44842 -0.49248,-0.4831 -0.0353,-0.84294 0.15726,-1.31522 0.42812,-1.04952 0.27087,0.26573 0.29983,0.9554 0.0643,1.53262 z m -39.139946,1.1828 c -0.298883,0.29319 -0.543424,0.0533 -0.543424,-0.5331 0,-0.58639 0.244541,-0.82627 0.543424,-0.53308 0.298883,0.2932 0.298883,0.77297 0,1.06618 z m 19.596357,4.45524 c -0.194981,0.99468 -0.361909,0.36917 -0.370953,-1.39001 -0.0087,-1.75918 0.150475,-2.573 0.354498,-1.80849 0.204023,0.76451 0.211425,2.20385 0.01652,3.1985 z M 103.497,477.58605 c 0,0.35574 -0.55618,1.34529 -1.23594,2.19898 -1.14608,1.43932 -1.16622,1.39229 -0.27673,-0.64679 0.95975,-2.20017 1.51267,-2.76754 1.51267,-1.55219 z m -36.386032,2.95153 1.431944,2.39889 -1.678659,-1.88775 c -0.923255,-1.03827 -1.678647,-2.26769 -1.678647,-2.73206 0,-0.98332 0.04064,-0.93634 1.925362,2.22092 z m 31.851507,3.66714 c -1.316771,1.35724 -3.127752,2.84814 -4.024402,3.31313 -0.89665,0.46499 0.02043,-0.63071 2.03784,-2.4349 4.357217,-3.89659 5.333797,-4.32832 1.986562,-0.87823 z m -22.848537,4.62026 c -0.361943,0.42865 -5.688127,-2.9128 -6.870389,-4.31022 -0.558868,-0.6606 0.813636,-0.0266 3.050031,1.40901 2.236396,1.43554 3.95555,2.74109 3.820358,2.90121 z m 16.786295,-0.29112 c 0,0.2199 -0.183406,0.39981 -0.407568,0.39981 -0.224162,0 -0.407568,-0.17991 -0.407568,-0.39981 0,-0.2199 0.183406,-0.39981 0.407568,-0.39981 0.224162,0 0.407568,0.17991 0.407568,0.39981 z m -14.129028,0.9329 c -0.298883,0.29319 -0.787965,0.29319 -1.086848,0 -0.298883,-0.2932 -0.05435,-0.53309 0.543424,-0.53309 0.597766,0 0.842307,0.23989 0.543424,0.53309 z m 12.227044,0 c -0.298883,0.29319 -0.787964,0.29319 -1.086847,0 -0.298883,-0.2932 -0.05434,-0.53309 0.543423,-0.53309 0.597767,0 0.842307,0.23989 0.543424,0.53309 z m -3.993161,0.8379 c -1.224855,0.18246 -3.425723,0.18612 -4.890815,0.008 -1.465082,-0.17796 -0.462921,-0.32724 2.227027,-0.33173 2.689949,-0.005 3.888655,0.14111 2.663788,0.32358 z M 116.0501,425.28335 c -5.62037,5.51343 -2.10719,14.01277 5.80987,14.05565 4.02766,0.0219 6.70554,-1.71459 8.2552,-5.35287 2.35529,-5.52976 -1.8032,-11.42152 -8.06148,-11.42152 -2.5889,0 -3.78367,0.54106 -6.00359,2.71874 z m 11.02996,0.27987 c 5.27581,4.8034 2.22742,12.99394 -4.83615,12.99394 -6.09998,0 -9.77132,-5.79996 -6.99959,-11.05791 2.49982,-4.74215 7.80118,-5.60932 11.83574,-1.93603 z m 86.72212,9.14672 c -2.26723,1.07525 -3.76845,4.60599 -3.08846,7.26375 1.31555,5.14187 7.9763,6.70459 11.4912,2.69601 5.14558,-5.86827 -1.19161,-13.37973 -8.40274,-9.95976 z m 4.629,3.04759 c 0,1.06617 0.54342,1.59926 1.63027,1.59926 0.89665,0 1.63028,0.35983 1.63028,0.79962 0,0.4398 -0.73363,0.79963 -1.63028,0.79963 -1.08685,0 -1.63027,0.53308 -1.63027,1.59925 0,0.87959 -0.32403,1.59926 -0.72007,1.59926 -0.39602,0 -0.91191,-0.71967 -1.14639,-1.59926 -0.23448,-0.87958 -1.01089,-1.59925 -1.72533,-1.59925 -1.85096,0 -1.60978,-1.33302 0.33125,-1.83094 0.89664,-0.23003 1.63027,-0.99166 1.63027,-1.69253 0,-0.70085 0.3668,-1.27429 0.81513,-1.27429 0.44833,0 0.81514,0.71966 0.81514,1.59925 z m -79.88333,0.70637 c 0,4.06012 -2.58476,5.02137 -5.68979,2.11601 -1.57168,-1.47058 -2.38784,-1.73727 -3.47564,-1.13564 -1.28402,0.71017 -1.31038,1.04751 -0.27227,3.48478 1.02441,2.40511 1.00167,2.8296 -0.20915,3.90452 -0.84111,0.74672 -1.82398,0.95988 -2.5807,0.55968 -4.6623,-2.46571 -6.92837,-0.84143 -4.22862,3.03099 2.24811,3.22459 1.46622,4.92508 -2.26452,4.92508 -2.0872,0 -3.27666,0.41694 -3.60833,1.26485 -0.70836,1.81081 -0.73251,1.77199 1.95062,3.13311 3.47675,1.76369 3.37179,4.7056 -0.20379,5.71156 -3.75523,1.05649 -3.68389,3.73426 0.11413,4.28378 4.0667,0.5884 4.90119,3.37524 1.68364,5.62274 -1.94087,1.35574 -2.25273,1.96568 -1.60864,3.14629 0.65523,1.20101 1.31075,1.35128 3.64331,0.83523 4.01203,-0.88764 5.26463,0.68544 3.47586,4.36517 -1.13846,2.34193 -1.15644,2.82403 -0.13638,3.65449 0.92594,0.75384 1.61586,0.67335 3.25415,-0.37966 3.20193,-2.05808 5.129,-0.9996 5.4242,2.97934 0.30791,4.15006 2.14062,4.77743 4.15994,1.42403 1.17706,-1.95469 1.75928,-2.27 3.21571,-1.74147 1.04404,0.37885 2.05312,1.68525 2.44364,3.16364 0.94953,3.59467 3.62321,3.47018 4.32536,-0.20138 0.72268,-3.77898 3.68299,-4.35841 5.64245,-1.10441 1.98718,3.30004 4.0849,2.6565 4.15622,-1.27501 0.0725,-3.99228 1.89104,-5.11201 5.19407,-3.19798 1.93479,1.12115 2.61977,1.19384 3.61497,0.38362 1.08588,-0.88406 1.04813,-1.28956 -0.32645,-3.50687 -1.40405,-2.26485 -1.43304,-2.63867 -0.29985,-3.86702 0.98952,-1.0726 1.79263,-1.20837 3.80256,-0.64291 1.81747,0.51134 2.73177,0.43321 3.18864,-0.27243 1.00129,-1.54649 0.80804,-2.13868 -1.31385,-4.02628 -2.7189,-2.4187 -1.64728,-5.35913 1.95309,-5.35913 2.07139,0 2.47167,-0.31345 2.47167,-1.93553 0,-1.50042 -0.54972,-2.05398 -2.4454,-2.46242 -3.32934,-0.71733 -3.38629,-3.76232 -0.10597,-5.66321 3.41672,-1.97992 2.56725,-4.33214 -1.56449,-4.33214 -4.05636,0 -5.10364,-2.37995 -2.32433,-5.28208 1.69448,-1.76938 1.74806,-2.06231 0.58583,-3.20243 -1.15366,-1.13169 -1.5166,-1.13447 -3.69704,-0.0284 -2.17939,1.10555 -2.54357,1.10316 -3.69287,-0.0243 -1.00296,-0.98389 -1.09916,-1.74571 -0.45082,-3.57015 0.60475,-1.70176 0.55076,-2.6426 -0.20269,-3.5332 -0.9021,-1.06628 -1.28605,-0.97029 -3.1586,0.78959 -3.03712,2.85439 -5.59622,2.06715 -5.92703,-1.82325 -0.33497,-3.93935 -3.09375,-4.52491 -4.46978,-0.94873 -1.29507,3.36575 -4.42826,3.3828 -5.71792,0.0311 -0.61942,-1.60982 -1.48257,-2.39888 -2.62412,-2.39888 -1.43265,3e-5 -1.70107,0.49003 -1.70107,3.10528 z m 16.78987,7.92539 c 7.50979,3.75832 12.36031,12.42761 11.50449,20.56195 -0.54467,5.17698 -2.74837,9.48482 -6.82798,13.3474 -4.1599,3.93863 -8.11409,5.43653 -14.35149,5.43653 -11.95509,0 -20.93641,-8.74712 -20.93641,-20.3905 0,-9.48004 6.0109,-17.45394 15.44652,-20.49095 3.3677,-1.08395 11.5953,-0.25085 15.16487,1.53557 z m 10.0539,46.72036 c -1.99092,4.00417 -1.56118,3.86185 -7.79101,2.58027 -1.89828,-0.3905 -2.09272,-0.23199 -1.71656,1.39936 1.59616,6.92233 1.66203,6.52636 -1.40487,8.44401 -1.58904,0.99358 -2.88915,2.10839 -2.88915,2.47735 0,0.36896 1.46407,1.31846 3.25348,2.11003 l 3.25349,1.43921 -0.51316,4.28315 -0.51316,4.28314 3.47567,-1.20296 c 1.91163,-0.66164 3.74764,-1.20296 4.08002,-1.20296 0.33238,0 1.62053,1.50638 2.86257,3.3475 l 2.25824,3.34752 1.94138,-3.74733 c 1.06775,-2.06102 2.20947,-3.73164 2.53712,-3.7125 0.32765,0.0191 2.15467,0.33067 4.06006,0.69227 3.90192,0.74046 3.91304,0.7216 2.26833,-3.85131 l -1.19599,-3.3253 3.20288,-2.17272 c 1.7616,-1.19501 3.21683,-2.37089 3.23384,-2.61311 0.0171,-0.24221 -1.57712,-1.20677 -3.54251,-2.14345 l -3.57345,-1.70309 0.72112,-3.78648 c 0.39661,-2.08256 0.59463,-3.91054 0.44005,-4.06219 -0.15458,-0.15163 -1.89722,0.2844 -3.87254,0.96894 -3.94094,1.36576 -3.94126,1.3656 -7.3676,-3.66985 l -1.33071,-1.95566 z m 7.27373,6.55902 c 6.59341,3.34472 4.73529,13.93093 -2.68488,15.29646 -6.05052,1.1135 -11.32891,-4.77647 -9.40509,-10.4948 1.76092,-5.23409 7.07612,-7.34509 12.08997,-4.80166 z m -59.38671,-3.53835 c 0,0.43979 -0.92855,0.79962 -2.06342,0.79962 -2.36597,0 -3.62268,2.178 -1.92726,3.34009 0.87607,0.60049 0.90339,0.87307 0.11877,1.18536 -1.26633,0.50406 -1.3552,3.47082 -0.10401,3.47082 0.62313,0 0.58393,0.39128 -0.12285,1.22671 -0.84155,0.99471 -0.83477,1.5989 0.0358,3.19474 0.99227,1.81879 0.76979,2.4004 -2.9339,7.66986 -3.56496,5.07211 -4.00757,6.16994 -4.00757,9.94048 0,6.90564 5.48006,12.35219 12.42819,12.35219 7.59742,0 12.46649,-4.35271 13.08757,-11.69963 0.31362,-3.70985 0.041,-4.73618 -2.1459,-8.07936 -1.37782,-2.10631 -3.07799,-5.17461 -3.77816,-6.81844 -1.12933,-2.65145 -1.13378,-2.98878 -0.0394,-2.98878 1.48236,0 1.66146,-2.89496 0.21472,-3.47082 -0.76633,-0.30502 -0.71582,-0.61283 0.20378,-1.24167 0.98925,-0.67647 1.03513,-1.13309 0.24029,-2.39157 -0.79086,-1.25218 -0.74917,-1.74535 0.21384,-2.52937 1.47031,-1.19702 0.1432,-3.16061 -2.13609,-3.16061 -0.8153,0 -1.70906,-0.35983 -1.98615,-0.79962 -0.27708,-0.4398 -1.58257,-0.79963 -2.90108,-0.79963 -1.31851,0 -2.3973,0.35983 -2.3973,0.79963 z m 5.43424,2.93196 c -0.29889,0.2932 -0.78798,0.2932 -1.08686,0 -0.29887,-0.2932 -0.0543,-0.53308 0.54343,-0.53308 0.59776,0 0.84231,0.23988 0.54343,0.53308 z m -0.54343,1.8658 c 1.57332,0.49427 1.01588,0.65559 -2.44541,0.70768 -3.17257,0.0478 -4.12579,-0.15914 -3.26055,-0.70768 1.41456,-0.89677 2.85152,-0.89677 5.70596,0 z m 0.81513,4.79776 c 0.90093,0.57115 0.36465,0.77514 -2.03784,0.77514 -1.7933,0 -3.81076,-0.34881 -4.48325,-0.77514 -0.90092,-0.57114 -0.36464,-0.77513 2.03785,-0.77513 1.79329,0 3.81075,0.3488 4.48324,0.77513 z m -6.52109,1.99907 c 0,0.2199 -0.1834,0.39981 -0.40757,0.39981 -0.22416,0 -0.40756,-0.17991 -0.40756,-0.39981 0,-0.2199 0.1834,-0.39982 0.40756,-0.39982 0.22417,0 0.40757,0.17992 0.40757,0.39982 z m 2.43745,2.9986 c -0.004,0.54974 -0.9214,2.92438 -2.03784,5.27697 -1.11643,2.3526 -1.99232,5.23127 -1.94644,6.39703 0.0819,2.08178 0.0941,2.0768 0.67982,-0.27931 0.32802,-1.31938 1.34291,-3.81661 2.25534,-5.54938 l 1.65895,-3.15051 1.73691,3.85187 c 2.08692,4.62805 2.37395,7.17933 0.54012,4.80095 -1.12152,-1.45459 -1.1984,-1.36363 -1.2227,1.44642 -0.0287,3.3144 0.47554,3.69838 2.09992,1.59926 1.52173,-1.96651 1.38913,-4.273 -0.47767,-8.30877 -0.8868,-1.91715 -1.62043,-4.29536 -1.63027,-5.2849 -0.0255,-2.5563 2.14041,-2.24631 2.79353,0.39981 0.2985,1.20943 1.89386,4.17806 3.54522,6.59693 2.50143,3.664 3.00375,5.09631 3.00995,8.58266 0.006,3.75454 -0.29874,4.4851 -2.97125,7.10677 -5.77024,5.66045 -14.44986,4.154 -18.0951,-3.14063 -2.02378,-4.04984 -1.31988,-7.22344 2.79925,-12.62066 1.81591,-2.37935 3.5068,-5.31564 3.75757,-6.52507 0.30228,-1.458 0.9709,-2.19897 1.98427,-2.19897 0.84062,0 1.52479,0.44978 1.52042,0.99953 z m -1.01095,9.94683 c -2.14193,0.54909 -1.97529,5.51851 0.20378,6.0775 1.44813,0.37149 1.63027,0.0245 1.63027,-3.10525 0,-1.9379 -0.0917,-3.48172 -0.20378,-3.4307 -0.11208,0.051 -0.8457,0.25732 -1.63027,0.45845 z m 93.17204,-12.72042 c -0.0578,2.46975 -2.16842,3.09713 -4.27677,1.27132 -1.70256,-1.47441 -1.72126,-1.47041 -1.27649,0.27342 0.56609,2.21948 -1.4195,4.14617 -2.83842,2.75423 -1.54912,-1.51963 -2.31229,-1.05615 -1.76744,1.07342 0.52055,2.03457 0.0307,2.35538 -3.11912,2.04263 -1.16134,-0.11533 -1.32625,0.29954 -0.91702,2.30679 0.46242,2.26807 0.33024,2.4474 -1.80378,2.4474 -1.79104,0 -2.08539,0.21324 -1.32459,0.95956 1.69652,1.66424 1.11081,3.63068 -1.26347,4.24194 -2.23496,0.57538 -2.23618,0.57956 -0.40756,1.40831 1.00872,0.45718 1.83405,1.44092 1.83405,2.18609 0,0.74517 -0.82533,1.71652 -1.83405,2.15856 l -1.83406,0.80368 1.83406,0.57184 c 2.19261,0.68363 2.42976,3.24274 0.40756,4.39814 -1.22948,0.70249 -1.12895,0.8184 0.72793,0.83936 2.74311,0.0309 3.63757,2.16204 1.76115,4.19601 -1.37635,1.49192 -1.34421,1.53323 0.99927,1.2837 2.25915,-0.24053 2.41345,-0.0847 2.30305,2.32425 -0.10586,2.3096 0.0464,2.49555 1.44333,1.76219 2.0676,-1.0855 3.15825,-0.31751 3.15825,2.22388 0,2.05507 0.0171,2.06069 1.7039,0.56315 1.67203,-1.48437 1.72538,-1.48382 2.85298,0.0289 0.63199,0.84786 1.14908,2.09261 1.14908,2.7661 0,0.86295 0.37468,0.69976 1.26892,-0.55265 1.62695,-2.2786 3.29284,-2.2693 3.93956,0.022 l 0.5078,1.79916 1.56272,-1.97849 c 1.53138,-1.93881 1.59631,-1.94865 3.23838,-0.49088 1.63433,1.45092 1.6897,1.45041 2.24456,-0.0206 0.86884,-2.30342 2.13189,-2.75895 3.72594,-1.3438 1.34812,1.19683 1.44511,1.14361 1.44511,-0.7929 0,-2.54139 1.09065,-3.30938 3.15824,-2.22388 1.39689,0.73336 1.54918,0.54741 1.44334,-1.76219 -0.10922,-2.38315 0.0602,-2.56343 2.19949,-2.34017 2.24678,0.23447 2.27872,0.18712 1.04213,-1.54476 -1.50836,-2.11253 -0.49685,-3.88063 2.24202,-3.91903 1.56963,-0.022 1.59884,-0.10171 0.30776,-0.83937 -1.9917,-1.13798 -1.77906,-3.52096 0.40757,-4.56736 l 1.83405,-0.87771 -1.83405,-0.5372 c -2.31292,-0.67746 -2.34942,-2.30477 -0.0867,-3.85958 l 1.74748,-1.20068 -2.15504,-0.5306 c -2.28598,-0.56283 -2.9626,-2.97174 -1.14435,-4.07411 0.68361,-0.41444 0.35387,-0.77144 -1.01892,-1.10304 -1.61223,-0.38946 -1.99605,-0.94534 -1.86634,-2.70323 0.12691,-1.72014 -0.12301,-2.1052 -1.12225,-1.72905 -1.787,0.6727 -3.43991,-0.88686 -2.93748,-2.7716 0.45973,-1.72458 -0.56127,-2.07467 -1.98302,-0.67997 -1.31585,1.29081 -2.67946,0.14045 -2.67946,-2.26044 0,-2.01203 -0.0491,-2.03217 -1.5999,-0.65546 -1.98585,1.76297 -4.09194,1.07903 -4.1488,-1.34729 l -0.0427,-1.82427 -1.27938,1.79917 c -0.70369,0.98953 -1.74015,1.79916 -2.30327,1.79916 -0.56311,0 -1.59957,-0.80963 -2.30322,-1.79916 l -1.27937,-1.79917 -0.0427,1.82427 z m 0.50067,3.9064 c -0.29888,0.29319 -0.78797,0.29319 -1.08685,0 -0.29888,-0.2932 -0.0543,-0.53308 0.54343,-0.53308 0.59776,0 0.8423,0.23988 0.54342,0.53308 z m 7.33622,0 c -0.29889,0.29319 -0.78796,0.29319 -1.08685,0 -0.29888,-0.2932 -0.0544,-0.53308 0.54343,-0.53308 0.59776,0 0.84231,0.23988 0.54342,0.53308 z m -10.32505,0.66636 c 0,0.21989 -0.18341,0.39981 -0.40757,0.39981 -0.22417,0 -0.40757,-0.17992 -0.40757,-0.39981 0,-0.21991 0.1834,-0.39981 0.40757,-0.39981 0.22416,0 0.40757,0.1799 0.40757,0.39981 z m 13.04217,0 c 0,0.21989 -0.18341,0.39981 -0.40757,0.39981 -0.22416,0 -0.40756,-0.17992 -0.40756,-0.39981 0,-0.21991 0.1834,-0.39981 0.40756,-0.39981 0.22416,0 0.40757,0.1799 0.40757,0.39981 z m -0.1776,1.64167 c 9.51702,3.89985 13.70609,15.40199 8.89385,24.42035 -2.2103,4.14218 -7.92992,8.25757 -12.48407,8.98254 -13.81489,2.1992 -24.85965,-11.30202 -19.51438,-23.85455 3.76786,-8.84817 14.24596,-13.17841 23.1046,-9.54834 z m 5.47599,1.15702 c 0.27708,0.43979 0.32037,0.79963 0.0962,0.79963 -0.22416,0 -0.63427,-0.35984 -0.91134,-0.79963 -0.27708,-0.4398 -0.32038,-0.79962 -0.0962,-0.79962 0.22416,0 0.63427,0.35982 0.91135,0.79962 z m -24.04652,0.26043 c 0,0.14323 -1.00872,1.13277 -2.24162,2.19898 l -2.24163,1.93854 1.97614,-2.19898 c 1.84702,-2.05527 2.50711,-2.56567 2.50711,-1.93854 z m 27.30706,2.93808 c 0.27708,0.4398 0.32037,0.79963 0.0962,0.79963 -0.22417,0 -0.63427,-0.35983 -0.91135,-0.79963 -0.27708,-0.4398 -0.32037,-0.79963 -0.0962,-0.79963 0.22416,0 0.63427,0.35983 0.91135,0.79963 z m -32.19788,2.79869 c 0,0.2199 -0.18339,0.39982 -0.40756,0.39982 -0.22416,0 -0.40757,-0.17992 -0.40757,-0.39982 0,-0.21989 0.18341,-0.39981 0.40757,-0.39981 0.22417,0 0.40756,0.17992 0.40756,0.39981 z m -1.63027,4.79777 c 0,0.21989 -0.18339,0.39981 -0.40756,0.39981 -0.22416,0 -0.40757,-0.17992 -0.40757,-0.39981 0,-0.2199 0.18341,-0.39982 0.40757,-0.39982 0.22417,0 0.40756,0.17992 0.40756,0.39982 z m 0,8.79589 c 0,0.21991 -0.18339,0.39982 -0.40756,0.39982 -0.22416,0 -0.40757,-0.17991 -0.40757,-0.39982 0,-0.21989 0.18341,-0.39981 0.40757,-0.39981 0.22417,0 0.40756,0.17992 0.40756,0.39981 z m 37.49626,0 c 0,0.21991 -0.1834,0.39982 -0.40757,0.39982 -0.22416,0 -0.40757,-0.17991 -0.40757,-0.39982 0,-0.21989 0.18341,-0.39981 0.40757,-0.39981 0.22417,0 0.40757,0.17992 0.40757,0.39981 z m -36.68112,2.39889 c 0,0.2199 -0.1834,0.39982 -0.40757,0.39982 -0.22416,0 -0.40757,-0.17992 -0.40757,-0.39982 0,-0.2199 0.18341,-0.39981 0.40757,-0.39981 0.22417,0 0.40757,0.17991 0.40757,0.39981 z m 1.63028,3.19851 c 0,0.21989 -0.18341,0.39981 -0.40758,0.39981 -0.22416,0 -0.40757,-0.17992 -0.40757,-0.39981 0,-0.2199 0.18341,-0.39981 0.40757,-0.39981 0.22417,0 0.40758,0.17991 0.40758,0.39981 z m 17.93299,8.7959 c 0,0.21989 -0.18341,0.39981 -0.40758,0.39981 -0.22416,0 -0.40756,-0.17992 -0.40756,-0.39981 0,-0.2199 0.1834,-0.39982 0.40756,-0.39982 0.22417,0 0.40758,0.17992 0.40758,0.39982 z m -62.81717,-21.52884 c -0.7653,0.90459 -1.82949,1.12013 -3.76852,0.7633 -2.35574,-0.43353 -2.82589,-0.23067 -3.6682,1.58281 -0.7823,1.6843 -1.44133,2.03355 -3.46373,1.83549 -2.08537,-0.2042 -2.54209,0.0635 -2.76712,1.62236 -0.17962,1.24416 -1.19925,2.24797 -3.05676,3.00932 -2.24067,0.91839 -2.78725,1.58557 -2.78725,3.40222 0,1.62987 -0.56375,2.51177 -2.02236,3.16372 -1.65639,0.74034 -1.93966,1.30954 -1.56539,3.14533 0.33295,1.63308 0.005,2.64256 -1.20793,3.71946 -1.52264,1.35176 -1.56486,1.66788 -0.49391,3.69943 1.02252,1.93971 1.01868,2.34536 -0.0302,3.19933 -1.57759,1.28439 -1.52171,3.10754 0.1508,4.92048 1.09894,1.1912 1.17898,1.83815 0.42762,3.45584 -0.81616,1.7572 -0.67971,2.14755 1.16522,3.3334 1.60966,1.03462 2.01292,1.85587 1.75565,3.57538 -0.27544,1.84101 0.0484,2.36299 1.84735,2.9782 1.52802,0.52253 2.33283,1.48902 2.68717,3.22699 0.42751,2.09691 0.87525,2.48105 2.89186,2.48105 1.89608,0 2.55407,0.4728 3.20423,2.30238 0.68654,1.93192 1.16511,2.23732 2.97435,1.89804 1.50596,-0.2824 2.73494,0.12906 4.07547,1.36446 1.58032,1.4564 2.21934,1.61126 3.61817,0.87688 1.33338,-0.70003 2.13909,-0.60897 3.74502,0.42326 1.88481,1.21148 2.20425,1.21356 4.05134,0.0263 1.63312,-1.04971 2.39435,-1.11491 4.10251,-0.35143 1.84183,0.82323 2.25525,0.71622 3.39386,-0.87845 0.99304,-1.39077 1.87298,-1.73287 3.75887,-1.46134 2.09981,0.30231 2.58913,0.025 3.3237,-1.88413 0.64486,-1.67591 1.48523,-2.29862 3.34318,-2.47722 2.03644,-0.19577 2.55588,-0.66266 2.89464,-2.60182 0.29509,-1.68916 0.99361,-2.5013 2.44897,-2.84731 1.6941,-0.40277 1.99578,-0.89308 1.79595,-2.91889 -0.18437,-1.86907 0.23671,-2.74134 1.81219,-3.75399 1.7786,-1.14323 1.94346,-1.60016 1.23593,-3.4257 -0.6269,-1.61752 -0.52721,-2.42003 0.42943,-3.45702 1.49993,-1.62584 1.56382,-2.74589 0.27239,-4.77447 -0.73307,-1.15151 -0.74621,-2.01853 -0.0531,-3.5107 0.77523,-1.66909 0.66264,-2.21035 -0.71408,-3.43254 -1.24154,-1.10221 -1.51801,-2.05975 -1.15013,-3.98344 0.42468,-2.22067 0.23105,-2.59478 -1.57298,-3.03895 -1.68834,-0.41569 -2.05726,-0.98774 -2.05726,-3.19003 0,-2.33663 -0.31329,-2.74497 -2.42367,-3.15902 -1.70905,-0.3353 -2.57631,-1.0721 -2.94135,-2.49883 -0.42022,-1.64244 -1.01348,-2.02333 -3.15144,-2.02333 -2.03918,0 -2.84978,-0.46511 -3.59068,-2.06025 -0.82382,-1.77368 -1.30315,-1.98565 -3.44614,-1.52392 -1.80394,0.38868 -2.92385,0.15046 -4.06805,-0.86533 -1.31048,-1.16339 -1.93257,-1.24353 -3.65994,-0.47145 -1.43402,0.64095 -2.55688,0.68039 -3.61122,0.12687 -2.0965,-1.10067 -2.89065,-1.01283 -4.13438,0.45723 z m 17.38955,5.81936 c 8.60872,4.14938 14.37599,12.47824 15.07216,21.76662 0.72312,9.64768 -3.12056,17.84348 -11.01138,23.47932 -18.208,13.00467 -44.18455,-1.2094 -42.38569,-23.19298 0.83832,-10.245 7.85816,-19.57433 17.39289,-23.1151 4.98098,-1.84971 16.05682,-1.28768 20.93202,1.06214 z m -12.9026,2.09039 c -0.87025,0.64569 -2.40761,1.18544 -3.41633,1.19944 -2.0152,0.0279 -2.6332,2.72482 -0.81513,3.55712 0.81513,0.37315 0.81513,0.55973 0,0.93289 -1.24252,0.56881 -1.36464,3.53169 -0.14556,3.53169 0.48033,0 0.27953,0.58251 -0.44624,1.29447 -1.21601,1.19289 -1.21549,1.40732 0.006,2.73218 1.54494,1.67466 1.11459,2.77595 -3.54368,9.06867 -3.84701,5.19683 -4.46952,10.78796 -1.64984,14.81811 3.24131,4.63244 5.91396,6.07072 11.28096,6.07072 3.56433,0 5.35341,-0.42314 7.07266,-1.67278 6.44378,-4.68368 7.82204,-11.7018 3.54269,-18.03952 -1.33476,-1.97677 -2.97552,-4.88235 -3.64614,-6.45683 -1.07206,-2.51696 -1.07429,-2.9173 -0.0186,-3.3147 1.46528,-0.55158 1.5801,-2.59413 0.18181,-3.23425 -0.81514,-0.37316 -0.81514,-0.55974 0,-0.93289 1.2665,-0.5798 1.35341,-3.53169 0.10401,-3.53169 -0.63563,0 -0.6078,-0.36307 0.0912,-1.18926 1.32011,-1.56036 0.47083,-3.6085 -1.49626,-3.6085 -0.85582,0 -2.01269,-0.53975 -2.5708,-1.19945 -1.27795,-1.51054 -2.52027,-1.5175 -4.53124,-0.0254 z m 5.34638,5.223 c 0.90092,0.57115 0.36464,0.77514 -2.03784,0.77514 -1.7933,0 -3.81076,-0.34881 -4.48325,-0.77514 -0.90093,-0.57115 -0.36464,-0.77514 2.03784,-0.77514 1.7933,0 3.81077,0.34881 4.48325,0.77514 z m -0.44832,4.72249 c -0.43481,0.40672 -2.20418,0.44705 -4.03493,0.0919 l -3.26054,-0.63239 4.03493,-0.0921 c 2.43411,-0.0554 3.72768,0.19542 3.26054,0.63239 z m -0.58759,2.15765 c -0.27085,0.26569 -0.97392,0.2941 -1.56234,0.0631 -0.65026,-0.25526 -0.45711,-0.44473 0.49248,-0.4831 0.85929,-0.0347 1.34072,0.15427 1.06986,0.41998 z m -3.473,3.71493 c -0.2987,0.98952 -1.43803,3.69538 -2.53184,6.01299 -1.4792,3.1342 -1.77817,4.56832 -1.1669,5.59738 0.74919,1.26124 0.82361,1.24216 0.84172,-0.21569 0.0109,-0.87959 0.83736,-3.42223 1.83652,-5.65032 l 1.81666,-4.05107 1.85637,3.93055 c 2.18791,4.63255 2.55653,7.38439 0.65959,4.92414 -1.11824,-1.45032 -1.19847,-1.34551 -1.2227,1.59719 l -0.0259,3.14939 1.63028,-1.7166 c 2.04743,-2.15586 2.0512,-3.89734 0.0179,-8.29307 -0.88681,-1.91716 -1.62042,-4.29537 -1.63027,-5.28489 -0.0255,-2.5563 2.1404,-2.24633 2.79353,0.39981 0.2985,1.20943 1.85901,4.16161 3.4678,6.56038 3.81356,5.68619 4.33716,9.82575 1.72408,13.6302 -5.16038,7.5131 -15.41639,7.06635 -19.66168,-0.85647 -2.15255,-4.0172 -1.37471,-7.96494 2.55559,-12.97029 1.7987,-2.29066 3.52196,-5.15439 3.82951,-6.36382 0.37225,-1.46386 1.093,-2.19898 2.15603,-2.19898 1.27346,0 1.48685,0.36434 1.05373,1.79917 z m -0.58569,9.14718 c -2.16545,0.55514 -1.98764,5.46403 0.20378,5.62596 1.37507,0.10161 1.63027,-0.37246 1.63027,-3.02834 0,-1.73185 -0.0917,-3.10707 -0.20378,-3.05606 -0.11209,0.051 -0.84571,0.25732 -1.63027,0.45844 z"
       id="path8894" /></g></svg>
