<?xml version="1.0" encoding="UTF-8" standalone="no"?>
<!-- Created with Inkscape (http://www.inkscape.org/) -->

<svg
   version="1.1"
   id="svg382"
   width="200"
   height="200"
   viewBox="0 0 200 200"
   sodipodi:docname="parler.svg"
   inkscape:export-filename="../../../../../../../home/artillery/webdev-apps/resume_scifi/jefmcd_resume/scifi_cv/static/scifi_cv/img/social-media/white/fb.svg"
   inkscape:export-xdpi="28.799999"
   inkscape:export-ydpi="28.799999"
   xml:space="preserve"
   xmlns:inkscape="http://www.inkscape.org/namespaces/inkscape"
   xmlns:sodipodi="http://sodipodi.sourceforge.net/DTD/sodipodi-0.dtd"
   xmlns="http://www.w3.org/2000/svg"
   xmlns:svg="http://www.w3.org/2000/svg"><defs
     id="defs386" /><sodipodi:namedview
     id="namedview384"
     pagecolor="#ffffff"
     bordercolor="#000000"
     borderopacity="0.25"
     inkscape:showpageshadow="2"
     inkscape:pageopacity="0.0"
     inkscape:pagecheckerboard="0"
     inkscape:deskcolor="#d1d1d1"
     showgrid="false"
     showguides="true"><sodipodi:guide
       position="168.73488,155.25682"
       orientation="0,-1"
       id="guide1662"
       inkscape:locked="false" /><sodipodi:guide
       position="157.35949,39.986252"
       orientation="0,-1"
       id="guide1664"
       inkscape:locked="false" /></sodipodi:namedview><g
     inkscape:groupmode="layer"
     inkscape:label="Image"
     id="g388"><rect
       style="fill:none;stroke:#ffffff;stroke-width:10;stroke-dasharray:none;stroke-opacity:1"
       id="rect470"
       width="191.74123"
       height="189.19156"
       x="4.4892926"
       y="5.9489489"
       rx="29.131887"
       ry="24.946558" /><path
       style="fill:#ffffff;stroke-width:0.0855375"
       d="m 60.66111,159.86263 c -8.14862,-0.42001 -15.20514,-6.2615 -17.2344,-14.26692 -0.55151,-2.17567 -0.50857,-0.31788 -0.5389,-23.31441 -0.0199,-15.05001 -5.4e-4,-21.14035 0.069,-21.83635 0.68255,-6.82826 5.18087,-12.74681 11.61003,-15.2756 1.53675,-0.60445 3.18231,-0.99338 4.93955,-1.16748 0.66212,-0.0656 8.41766,-0.0855 26.17445,-0.0673 l 25.23352,0.026 0.68431,0.19438 c 1.98236,0.56308 3.38216,1.37849 4.64045,2.70315 0.74846,0.78792 1.22092,1.4796 1.69663,2.48384 0.58108,1.22668 0.80983,2.1827 0.86644,3.62114 0.0549,1.39676 -0.0392,2.15713 -0.41054,3.314877 -0.49566,1.545396 -1.12994,2.560344 -2.38202,3.811683 -1.30667,1.3059 -2.43902,1.95549 -4.36557,2.50435 l -0.64416,0.18351 -20.4862,0.0473 -20.4862,0.0473 -0.78185,0.18391 c -1.797,0.42272 -3.18487,1.16397 -4.47793,2.39163 -1.45855,1.38475 -2.29682,2.85864 -2.79346,4.91153 -0.14419,0.59607 -0.15525,1.99497 -0.1983,25.09495 l -0.0456,24.46369 z m 20.18682,-24.17627 c 0,-5.73278 0.0258,-6.09931 0.53047,-7.54575 1.07669,-3.08578 3.78236,-5.41553 6.99776,-6.02547 0.61,-0.11572 2.01306,-0.13359 10.6793,-0.13604 10.52236,-0.003 12.3791,-0.0467 14.38222,-0.33848 8.57549,-1.24931 16.06449,-6.25821 20.49324,-13.70661 3.32158,-5.58633 4.60608,-12.117082 3.66372,-18.62738 -0.41199,-2.84625 -1.24733,-5.49838 -2.59988,-8.25436 -0.88865,-1.81073 -1.66079,-3.07438 -2.81843,-4.6125 C 127.51689,70.24888 120.65715,66.26178 112.95615,65.26838 110.33887,64.93076 107.80341,64.9044 74.64647,64.87 l -31.81991,-0.033 0.057,-1.1304 c 0.29492,-5.84563 3.41926,-11.28325 8.41117,-14.63883 1.83992,-1.23681 4.3798,-2.30498 6.52916,-2.7459 2.09864,-0.43051 1.13053,-0.41161 22.93847,-0.44796 17.40773,-0.029 21.32163,-0.0132 25.44738,0.10297 2.68159,0.0755 5.49149,0.17577 6.24423,0.22286 9.28145,0.58056 18.21548,3.92643 25.71667,9.63111 1.65778,1.26075 3.11104,2.54446 4.82182,4.25928 2.40524,2.41093 3.97941,4.32243 5.81602,7.06233 4.64103,6.92355 7.28016,14.55643 7.91081,22.87956 0.12227,1.6137 0.12338,5.35694 0.002,6.930227 -0.7058,9.151833 -3.92482,17.687313 -9.42682,24.995833 -3.4456,4.57695 -7.86659,8.63214 -12.72913,11.67592 -5.56118,3.48112 -11.83197,5.79557 -18.25534,6.73778 -3.25223,0.47705 -2.5062,0.45838 -19.61634,0.49074 l -15.8458,0.03 v -5.20612 z"
       id="path1660" /></g></svg>
