<?xml version="1.0" encoding="UTF-8" standalone="no"?>
<!-- Created with Inkscape (http://www.inkscape.org/) -->

<svg
   width="120"
   height="120"
   viewBox="0 0 31.749999 31.749999"
   version="1.1"
   id="svg7932"
   inkscape:version="1.2.2 (b0a8486541, 2022-12-01)"
   sodipodi:docname="main-drawing.svg"
   xml:space="preserve"
   inkscape:export-filename="white/cog-s4.svg"
   inkscape:export-xdpi="96"
   inkscape:export-ydpi="96"
   xmlns:inkscape="http://www.inkscape.org/namespaces/inkscape"
   xmlns:sodipodi="http://sodipodi.sourceforge.net/DTD/sodipodi-0.dtd"
   xmlns="http://www.w3.org/2000/svg"
   xmlns:svg="http://www.w3.org/2000/svg"><sodipodi:namedview
     id="namedview7934"
     pagecolor="#ffffff"
     bordercolor="#000000"
     borderopacity="0.25"
     inkscape:showpageshadow="2"
     inkscape:pageopacity="0.0"
     inkscape:pagecheckerboard="0"
     inkscape:deskcolor="#d1d1d1"
     inkscape:document-units="mm"
     showgrid="false"
     inkscape:zoom="1.9924569"
     inkscape:cx="4.5170361"
     inkscape:cy="-9.0340723"
     inkscape:window-width="1920"
     inkscape:window-height="1016"
     inkscape:window-x="0"
     inkscape:window-y="0"
     inkscape:window-maximized="1"
     inkscape:current-layer="layer1" /><defs
     id="defs7929"><linearGradient
       id="linearGradient121619"
       inkscape:swatch="solid"><stop
         style="stop-color:#886e0f;stop-opacity:1;"
         offset="0"
         id="stop121617" /></linearGradient></defs><g
     inkscape:label="Layer 1"
     inkscape:groupmode="layer"
     id="layer1"><path
       style="fill:#ffffff;stroke-width:0.0490444"
       d="m 14.710371,31.397424 c -0.491781,-0.17698 -0.731999,-0.65525 -1.080927,-2.15212 -0.06922,-0.29672 -0.136263,-0.57435 -0.14911,-0.61696 -0.01552,-0.0513 -0.130425,-0.0972 -0.339887,-0.13579 -0.174089,-0.0321 -0.347832,-0.0703 -0.386089,-0.085 -0.04594,-0.0177 -0.21689,0.16141 -0.504135,0.52815 -0.554967,0.70857 -1.116868,1.29813 -1.35115,1.41765 -0.113316,0.0578 -0.284436,0.0936 -0.447722,0.0936 -0.215609,0 -0.301607,-0.027 -0.4665438,-0.14648 -0.3465752,-0.25105 -0.4198862,-0.45946 -0.4229412,-1.20224 -0.0012,-0.35067 0.01613,-0.92456 0.03892,-1.27532 l 0.04163,-0.63774 -0.213232,-0.10819 c -0.117257,-0.0595 -0.269323,-0.14451 -0.337867,-0.1889 -0.123195,-0.0798 -0.133319,-0.075 -0.880862,0.41689 -0.929355,0.61151 -1.299418,0.79818 -1.638,0.82626 -0.490007,0.0406 -0.895471,-0.29784 -0.946266,-0.7899 -0.03498,-0.33888 0.09398,-0.80426 0.501524,-1.81009 l 0.316743,-0.78174 -0.252338,-0.29012 c -0.138788,-0.15957 -0.270752,-0.29013 -0.293268,-0.29013 -0.02254,0 -0.349839,0.0873 -0.727392,0.19401 -1.582648,0.44728 -2.002916,0.45516 -2.38845,0.0448 -0.478417,-0.50923 -0.269275,-1.06772 0.915854,-2.44582 0.487988,-0.56743 0.478959,-0.53372 0.266959,-0.99681 l -0.127432,-0.27834 -0.229367,-4.5e-4 c -0.530702,-0.001 -1.819824,-0.10327 -2.080537,-0.16503 -0.54472004,-0.12905 -0.82175307,-0.44016 -0.82175307,-0.92284 0,-0.50011 0.24673403,-0.75639 1.47132607,-1.52826 0.364165,-0.22952 0.702882,-0.44682 0.752729,-0.48287 0.08141,-0.0589 0.08647,-0.10435 0.04902,-0.44867 L 2.938177,16.755854 2.3006,16.522484 c -1.60198607,-0.58637 -1.97418007,-0.83292 -2.05938907,-1.36414 -0.07255,-0.45214 0.20913,-0.8514 0.75542603,-1.07087 0.17769704,-0.0714 0.73137004,-0.2334 1.23039304,-0.36004 l 0.907332,-0.23024 0.05358,-0.21826 c 0.140105,-0.57052 0.190986,-0.4719 -0.541148,-1.04884 -0.806517,-0.63556 -1.239743,-1.06303 -1.365549,-1.34745 -0.187846,-0.42465 -0.01724,-0.9043599 0.411487,-1.1569899 0.148851,-0.0877 0.254641,-0.0981 1.000214,-0.0981 0.458561,0 1.054458,0.0166 1.3242,0.037 l 0.490438,0.037 0.187773,-0.32217 0.187772,-0.32217 -0.499454,-0.7581203 c -0.57173,-0.86784 -0.82126,-1.344938 -0.861783,-1.647732 -0.0574,-0.429209 0.27069,-0.877215 0.715765,-0.977216 0.30354,-0.0682 0.764886,0.05109 1.799378,0.46525 1.033888,0.413925 0.952054,0.412527 1.324212,0.02261 L 7.517451,5.9983448 7.322904,5.3117228 C 7.113478,4.5725568 6.935289,3.7600058 6.935289,3.5441078 c 0,-0.443559 0.348041,-0.870588 0.759872,-0.932347 0.137778,-0.02067 0.307026,-0.01182 0.419972,0.02207 0.271134,0.08123 0.80887,0.45611 1.540167,1.073711 l 0.635606,0.536796 0.32076,-0.136646 c 0.31178,-0.132824 0.321683,-0.142589 0.353904,-0.34911 0.01823,-0.116851 0.03473,-0.414273 0.03683,-0.660928 0.0086,-0.992387 0.141682,-1.753888 0.355493,-2.025748 0.141042,-0.17932999 0.467048,-0.34584599 0.67709,-0.34584599 0.527093,0 0.90323,0.39817899 1.856898,1.96568999 l 0.256009,0.420789 0.280507,-0.0227 c 0.433817,-0.03509 0.465804,-0.05835 0.59645,-0.433403 0.259901,-0.746084 0.645571,-1.651764 0.806591,-1.89416599 0.273672,-0.411957 0.688397,-0.584183 1.076764,-0.447157 0.495218,0.174722 0.703449,0.592022 1.082246,2.16891099 0.09299,0.386932 0.180431,0.714952 0.194411,0.728933 0.02205,0.022 0.585291,0.154996 0.67672,0.159776 0.01811,9.46e-4 0.267205,-0.295551 0.553514,-0.658885 0.627415,-0.796181 1.062907,-1.246846 1.324754,-1.370887 0.28488,-0.134955 0.637713,-0.111493 0.881971,0.05867 0.423742,0.295187 0.504492,0.680987 0.422289,2.017423 -0.03079,0.501478 -0.06602,0.966953 -0.07809,1.034389 -0.01934,0.107773 0.01724,0.144818 0.302049,0.306078 l 0.324024,0.183467 0.731703,-0.488221 c 1.265239,-0.844214 1.745602,-1.017533 2.190763,-0.79043 0.513631,0.262036 0.605651,0.804835 0.287589,1.696429 -0.0962,0.269744 -0.28435,0.753853 -0.418051,1.075796 l -0.243088,0.585349 0.243815,0.276981 0.243802,0.276982 0.670685,-0.19117 c 1.673498,-0.477021 2.151632,-0.496806 2.520193,-0.10429 0.199831,0.21282 0.283143,0.49343 0.230365,0.77594 -0.06639,0.3551 -0.298157,0.70311 -1.095757,1.6449903 -0.262623,0.3101299 -0.487297,0.5869799 -0.499282,0.6152299 -0.01232,0.0282 0.04311,0.19462 0.122555,0.36972 l 0.144355,0.31834 1.046403,0.0582 c 1.122792,0.0624 1.515704,0.13028 1.772329,0.30612 0.336734,0.23074 0.47301,0.71014 0.310561,1.09261 -0.135869,0.3199 -0.715408,0.77225 -1.934742,1.51013 -0.335576,0.20307 -0.356995,0.22624 -0.331056,0.35812 0.01527,0.0776 0.02808,0.221 0.02845,0.31879 3.7e-4,0.0978 0.01835,0.20544 0.03978,0.23925 0.02143,0.0338 0.390794,0.19375 0.820743,0.35541 1.391033,0.52305 1.761121,0.76525 1.887715,1.23542 0.07193,0.26717 -0.03399,0.64417 -0.235082,0.83686 -0.260196,0.24928 -1.021251,0.5172 -2.274826,0.80083 l -0.373981,0.0846 -0.05937,0.27448 c -0.03264,0.15096 -0.06996,0.32048 -0.08302,0.3767 -0.01921,0.0834 0.101246,0.20218 0.654045,0.64492 0.752962,0.60302 1.09301,0.92355 1.28481,1.21107 0.107281,0.16087 0.127407,0.2434 0.121938,0.50077 -0.0062,0.26539 -0.02771,0.33485 -0.158901,0.50045 -0.266146,0.33604 -0.406239,0.3756 -1.330347,0.3756 -0.445074,0 -1.028506,-0.0111 -1.296499,-0.0245 l -0.487273,-0.0245 -0.187107,0.3241 -0.187108,0.3241 0.472764,0.70583 c 0.834809,1.24638 0.999832,1.7186 0.762914,2.18301 -0.155132,0.30408 -0.417681,0.46008 -0.77432,0.46008 -0.400265,0 -0.694666,-0.0843 -1.675395,-0.47997 l -0.839908,-0.33882 -0.295435,0.27452 -0.295424,0.27453 0.220376,0.76018 c 0.429346,1.48104 0.446306,1.96699 0.0808,2.31489 -0.527525,0.50214 -1.02847,0.35621 -2.217491,-0.64594 -0.229271,-0.19326 -0.507475,-0.42716 -0.618204,-0.5198 l -0.201346,-0.16844 -0.37493,0.17323 -0.374929,0.17323 -4.9e-5,0.52574 c -5e-5,0.67473 -0.08006,1.53404 -0.17319,1.85895 -0.124192,0.43348 -0.493677,0.75119 -0.873632,0.75119 -0.494084,0 -0.870787,-0.37945 -1.670012,-1.68217 -0.420121,-0.68478 -0.364177,-0.64797 -0.899547,-0.59201 l -0.295781,0.0309 -0.255479,0.69249 c -0.484279,1.31265 -0.789027,1.82811 -1.144618,1.93598 -0.299784,0.0909 -0.402729,0.0954 -0.596094,0.0258 z m 2.637106,-7.47072 c 1.250507,-0.2486 2.432767,-0.78238 3.467468,-1.56554 0.690048,-0.5223 1.579138,-1.5363 2.054586,-2.34325 1.16031,-1.96933 1.424276,-4.50895 0.695282,-6.6893 -0.817553,-2.44523 -2.676853,-4.3307099 -5.096748,-5.1685102 -2.057641,-0.71237 -4.416703,-0.55384 -6.363884,0.42766 -1.157527,0.5834703 -2.350835,1.6354502 -3.068829,2.7053902 -1.436236,2.14025 -1.790744,4.71978 -0.991087,7.21141 0.183092,0.57049 0.706059,1.59679 1.086593,2.1324 0.425983,0.59959 1.331147,1.50534 1.924235,1.92549 0.790184,0.55978 1.841785,1.03679 2.844586,1.29032 0.954481,0.24131 2.445059,0.27328 3.447798,0.0739 z"
       id="path142138" /></g></svg>
