<?xml version="1.0" encoding="UTF-8" standalone="no"?>
<!-- Created with Inkscape (http://www.inkscape.org/) -->

<svg
   width="80"
   height="80"
   viewBox="0 0 21.166666 21.166666"
   version="1.1"
   id="svg7932"
   inkscape:version="1.2.2 (b0a8486541, 2022-12-01)"
   sodipodi:docname="main-drawing.svg"
   xml:space="preserve"
   inkscape:export-filename="yellow/cog-m4.svg"
   inkscape:export-xdpi="96"
   inkscape:export-ydpi="96"
   xmlns:inkscape="http://www.inkscape.org/namespaces/inkscape"
   xmlns:sodipodi="http://sodipodi.sourceforge.net/DTD/sodipodi-0.dtd"
   xmlns="http://www.w3.org/2000/svg"
   xmlns:svg="http://www.w3.org/2000/svg"><sodipodi:namedview
     id="namedview7934"
     pagecolor="#ffffff"
     bordercolor="#000000"
     borderopacity="0.25"
     inkscape:showpageshadow="2"
     inkscape:pageopacity="0.0"
     inkscape:pagecheckerboard="0"
     inkscape:deskcolor="#d1d1d1"
     inkscape:document-units="mm"
     showgrid="false"
     inkscape:zoom="2.8177596"
     inkscape:cx="95.465914"
     inkscape:cy="59.976727"
     inkscape:window-width="1920"
     inkscape:window-height="1016"
     inkscape:window-x="0"
     inkscape:window-y="0"
     inkscape:window-maximized="1"
     inkscape:current-layer="layer1" /><defs
     id="defs7929"><linearGradient
       id="linearGradient121619"
       inkscape:swatch="solid"><stop
         style="stop-color:#886e0f;stop-opacity:1;"
         offset="0"
         id="stop121617" /></linearGradient></defs><g
     inkscape:label="Layer 1"
     inkscape:groupmode="layer"
     id="layer1"><path
       style="fill:#886e0f;fill-opacity:1;fill-rule:nonzero;stroke:none;stroke-width:1.489;stroke-linecap:round;stroke-linejoin:bevel;stroke-dasharray:4.46701, 1.489;stroke-dashoffset:0.8934;stroke-opacity:1;paint-order:stroke fill markers"
       d="M 16.149411,-3.6685555 15.404992,10.955339"
       id="path107639" /><path
       style="fill:#ffffff;stroke-width:0.066932"
       d="M 7.8201815,20.913179 C 7.490913,20.746837 7.2563279,20.444003 7.1495401,20.047422 7.0548419,19.695753 6.9532038,18.780211 6.9525832,18.27331 c -2.789e-4,-0.227907 -0.026207,-0.430261 -0.057625,-0.449675 -0.031418,-0.01942 -0.3250794,0.133778 -0.6525884,0.340431 -0.9204242,0.58077 -1.4016917,0.787669 -1.834013,0.78845 -0.8050435,0.0015 -1.304499,-0.68969 -1.1369288,-1.573283 0.058137,-0.306536 0.1540266,-0.548701 0.6889436,-1.739839 l 0.1666116,-0.371008 -1.2480071,0.0029 c -1.0931776,0.0026 -1.2796145,-0.01282 -1.50278,-0.12367 C 0.82099964,14.871819 0.58693871,14.222171 0.82149618,13.607992 0.94708561,13.279142 1.4704668,12.749108 2.282859,12.128052 2.5677715,11.910244 2.7786081,11.712404 2.7513838,11.688409 2.7241625,11.664419 2.3555103,11.488806 1.9321651,11.298165 1.0437267,10.898086 0.72201081,10.690728 0.43267278,10.331691 0.24690185,10.101169 0.22539573,10.027711 0.22539573,9.6236934 c 0,-0.383651 0.0262164,-0.48516 0.17601441,-0.6815574 C 0.689427,8.5645272 1.1402545,8.3685978 2.2037083,8.1588607 2.730856,8.0548946 3.1713654,7.9416734 3.1826195,7.9072571 3.1938705,7.8728438 3.0337544,7.633845 2.8268005,7.3761568 2.6198476,7.1184676 2.3116803,6.700215 2.141984,6.4467061 1.8588873,6.0237872 1.8315261,5.9465199 1.8101638,5.5096561 1.7900261,5.0979176 1.8079963,5.0026851 1.9431886,4.8054238 2.2169032,4.4059754 2.4190385,4.3023333 2.9795827,4.2740271 3.4299994,4.2512826 3.581888,4.2796625 4.3809622,4.5358478 4.8738788,4.6938796 5.2978347,4.8025171 5.3230876,4.7772644 5.3483385,4.7520126 5.3034228,4.3776691 5.22328,3.9453915 4.911362,2.263033 5.1157347,1.5453809 5.9735637,1.3107791 6.5481274,1.1536456 7.0196118,1.404897 7.988127,2.3843328 8.3186734,2.718606 8.6218083,2.9921021 8.6617585,2.9921021 c 0.03995,0 0.1861354,-0.3673482 0.3248558,-0.8163294 0.3115919,-1.0084948 0.4891826,-1.36552079 0.834349,-1.67735763 0.4620517,-0.41743544 1.0288427,-0.41743544 1.4908937,0 0.342904,0.30979362 0.518366,0.66037103 0.829678,1.65771933 0.137772,0.4413759 0.264386,0.8270436 0.281366,0.8570396 0.01697,0.029996 0.36807,-0.2749574 0.7802,-0.6776742 0.972969,-0.9507452 1.402563,-1.1726265 1.972982,-1.0190287 0.369239,0.099426 0.646194,0.3497185 0.782814,0.7074527 0.137948,0.3612116 0.109615,1.1324461 -0.0767,2.0877621 -0.06625,0.3396765 -0.09947,0.6385665 -0.07384,0.6642003 0.02564,0.025634 0.415365,-0.071566 0.86607,-0.2160003 0.690948,-0.2214236 0.909501,-0.2626075 1.393595,-0.2626075 0.525772,0 0.594842,0.015796 0.819989,0.1875235 0.332418,0.2535476 0.446511,0.5007193 0.446511,0.9673233 0,0.5082758 -0.172175,0.8522744 -0.868391,1.7350095 -0.295451,0.3746029 -0.537183,0.7082044 -0.537183,0.741335 0,0.033132 0.308724,0.1122054 0.686054,0.1757208 1.394118,0.2346688 1.935208,0.4816822 2.18487,0.9974173 0.363216,0.7503053 0.003,1.4188502 -1.050238,1.9488492 -0.246718,0.124159 -0.644354,0.307319 -0.883636,0.407024 -0.239283,0.09971 -0.460301,0.205235 -0.491152,0.234512 -0.03085,0.02928 0.181853,0.234363 0.472674,0.455746 0.80531,0.61303 1.26605,1.059785 1.419175,1.376098 0.278751,0.575823 0.109065,1.223133 -0.410557,1.566172 l -0.278924,0.184139 -1.284758,-3.29e-4 c -1.258257,-3.29e-4 -1.283697,0.0025 -1.233409,0.133864 0.02825,0.07379 0.18686,0.435367 0.352487,0.803495 0.361561,0.803617 0.449615,1.101923 0.450108,1.524855 4.81e-4,0.417874 -0.124533,0.703803 -0.421891,0.964887 -0.515376,0.452506 -1.131729,0.340243 -2.413701,-0.439633 -0.436995,-0.265842 -0.804548,-0.473336 -0.816787,-0.461098 -0.01224,0.01224 -0.05345,0.457882 -0.09157,0.990321 -0.07704,1.075887 -0.121923,1.283638 -0.367999,1.703535 -0.19145,0.326713 -0.607156,0.569738 -0.974516,0.569738 -0.316815,0 -0.764186,-0.234257 -1.020537,-0.534382 -0.119739,-0.140187 -0.428544,-0.604287 -0.686232,-1.031332 -0.25769,-0.427047 -0.489358,-0.776551 -0.514821,-0.77668 -0.02546,-1.33e-4 -0.217843,0.293434 -0.427513,0.652357 -0.3651404,0.625068 -0.7463821,1.156084 -0.9637113,1.342315 -0.1870369,0.160275 -0.6349915,0.344764 -0.8407238,0.346252 -0.1118409,8.09e-4 -0.337494,-0.0663 -0.5014514,-0.149128 z m 0.9498888,-1.113976 c 0.122889,-0.144211 0.4342711,-0.616801 0.6919593,-1.0502 0.5196293,-0.873948 0.8771944,-1.299562 1.0917854,-1.299562 0.23366,0 0.562762,0.398927 1.166888,1.414462 0.686977,1.154806 0.921774,1.405481 1.184675,1.26478 0.188593,-0.100932 0.256482,-0.425819 0.336078,-1.608328 0.08626,-1.281505 0.163615,-1.644387 0.380882,-1.786746 0.24085,-0.157811 0.496069,-0.05711 1.72516,0.680679 0.837477,0.502716 1.115067,0.637542 1.312615,0.637542 0.480883,0 0.453104,-0.28581 -0.167335,-1.721647 -0.617831,-1.429802 -0.64639,-1.556451 -0.405333,-1.797508 l 0.179969,-0.17997 1.449888,0.04449 c 1.557086,0.04778 1.763347,0.01663 1.805066,-0.272669 0.02909,-0.201747 -0.29655,-0.546958 -1.163432,-1.233344 -0.407778,-0.322872 -0.85386,-0.711506 -0.991296,-0.86363 -0.468507,-0.518582 -0.28073,-0.737617 1.200009,-1.399779 1.298636,-0.580727 1.607842,-0.8225313 1.443788,-1.1290671 C 19.90888,9.3070779 19.512526,9.1771792 18.43145,8.9808921 17.304487,8.7762722 17.037794,8.7005737 16.859872,8.5348133 16.586233,8.2798798 16.714753,7.9974274 17.661183,6.7737628 c 0.64334,-0.8317922 0.80265,-1.091405 0.802969,-1.3085234 6.07e-4,-0.4271596 -0.271873,-0.427957 -1.648383,-0.00483 -1.347912,0.4143415 -1.584554,0.4556192 -1.800574,0.3140776 -0.14847,-0.097282 -0.165128,-0.1536305 -0.165128,-0.5585777 0,-0.2477098 0.06076,-0.766576 0.135026,-1.153036 0.07427,-0.3864603 0.153917,-0.9202207 0.177002,-1.1861349 0.04805,-0.5533988 -0.01522,-0.6878321 -0.323699,-0.6878321 -0.161517,0 -0.364548,0.1638354 -1.151921,0.9295412 -0.914477,0.8893131 -1.245352,1.1453548 -1.480099,1.1453548 -0.251155,0 -0.437124,-0.3586111 -0.842834,-1.6252732 -0.390269,-1.2184475 -0.575606,-1.5874692 -0.797285,-1.5874692 -0.209937,0 -0.412838,0.4065042 -0.800362,1.6034901 C 9.3527454,3.9306889 9.1751152,4.2638048 8.9077779,4.2638048 8.6934122,4.2638048 8.1763689,3.871382 7.6863862,3.3368001 6.4223754,1.9577373 5.8692182,1.8232122 5.9724573,2.9199817 5.9952451,3.1621132 6.0754726,3.6764752 6.1507317,4.0630083 6.3245787,4.9558995 6.3483695,5.5431347 6.2171052,5.7012997 6.0648028,5.8848126 5.3964886,5.8001654 4.3751888,5.4680063 3.787842,5.2769827 3.3745617,5.1821525 3.1034786,5.1762026 L 2.7018859,5.1673826 2.6812259,5.38065 C 2.6531969,5.6700365 2.7578159,5.8508387 3.5110447,6.814712 4.2631371,7.7771347 4.4598301,8.1476313 4.3484513,8.3920822 4.2427128,8.624152 3.9408192,8.7277398 2.6090172,8.9889314 1.4031091,9.2254327 1.1140381,9.3406873 1.0751529,9.6004918 c -0.031369,0.2096169 0.3824156,0.5047242 1.2540109,0.8943402 1.6833343,0.752474 1.8879227,0.962151 1.4642919,1.500709 -0.077634,0.0987 -0.5679875,0.518694 -1.0896732,0.933326 -0.9365206,0.744344 -1.1768671,1.027335 -1.0821522,1.274158 0.080728,0.210383 0.3756384,0.249482 1.4483788,0.192029 1.8357136,-0.09831 2.0748966,-0.04631 2.0748966,0.45123 0,0.259027 -0.070226,0.448053 -0.7667997,2.063883 -0.173508,0.402488 -0.2378756,0.641165 -0.2236669,0.829374 0.039576,0.524228 0.3236114,0.454371 1.8116843,-0.445573 0.4502403,-0.272293 0.9300792,-0.534936 1.066308,-0.58365 0.5672052,-0.202832 0.7533427,0.164041 0.8233033,1.622711 0.051881,1.081618 0.1375854,1.563223 0.3086393,1.734277 0.160253,0.160253 0.2893656,0.103101 0.6056944,-0.268114 z m 0.8479691,-3.2837 C 7.3834897,16.105097 5.6141083,14.532592 5.0075982,12.418061 4.8248814,11.781042 4.7610812,10.57885 4.8755615,9.9301012 5.1999976,8.0915473 6.3628107,6.5688079 8.0564552,5.7646269 9.0025096,5.3154185 9.3699993,5.2377091 10.532944,5.2409502 c 0.955627,0.00266 1.035314,0.013422 1.654508,0.2233857 1.906209,0.6463796 3.289349,2.1187452 3.807997,4.0536476 0.199886,0.7457105 0.199416,1.9868335 -0.0011,2.7442175 -0.431484,1.630279 -1.488299,2.935537 -2.983278,3.68461 -0.437516,0.219221 -0.928696,0.409669 -1.206475,0.467792 -0.584533,0.122308 -1.771767,0.177093 -2.186616,0.1009 z m 2.0176576,-0.742429 c 1.480885,-0.354994 2.650989,-1.286026 3.318851,-2.640755 0.429093,-0.870395 0.532309,-1.316482 0.526556,-2.275692 C 15.475488,9.913863 15.36629,9.4329157 14.978536,8.642336 14.324604,7.3090533 13.150081,6.3777622 11.64247,5.9971323 10.840144,5.7945677 9.6921837,5.8369346 8.9265727,6.0973659 7.2583752,6.6648234 6.0046568,8.0215167 5.580031,9.7187799 5.4159405,10.374664 5.4270586,11.435981 5.6050947,12.111535 c 0.3775013,1.432406 1.2972418,2.585872 2.5711284,3.224506 1.1490073,0.576029 2.2823649,0.719206 3.4594719,0.437033 z M 9.3577611,14.422228 C 8.1156189,13.987558 7.1675399,12.987244 6.8573115,11.784016 6.2652169,9.4875544 8.0927158,7.2149432 10.535615,7.2098142 c 1.2294,-0.00256 2.508662,0.6983464 3.177857,1.7411965 1.035431,1.6135793 0.605227,3.7947353 -0.970188,4.9189283 -0.683591,0.4878 -1.195941,0.650452 -2.143408,0.680453 -0.7058644,0.02235 -0.8563698,0.0068 -1.2421149,-0.128164 z M 11.25379,14.071425 c 1.502513,-0.318389 2.590706,-1.654668 2.590706,-3.181332 0,-1.2411428 -0.73638,-2.3651199 -1.919703,-2.9301518 L 11.403062,7.7108164 H 10.496007 9.5889511 L 9.080744,7.9619865 C 7.8396059,8.5753901 7.2053542,9.5755591 7.2026793,10.923558 c -0.00187,0.961485 0.3616317,1.753823 1.103878,2.405918 0.8235644,0.723535 1.8338737,0.977875 2.9472327,0.741949 z M 9.1661853,12.334551 8.8079821,11.971843 9.2354041,11.495081 c 0.2350816,-0.262219 0.4351538,-0.498689 0.4446049,-0.52549 0.00946,-0.0268 -0.1938231,-0.258119 -0.4517191,-0.514038 L 8.7593877,9.9902428 9.1423373,9.6032553 l 0.3829506,-0.386988 0.4870961,0.4838438 0.487094,0.4838439 0.497181,-0.4938624 0.497179,-0.4938625 0.389671,0.3755655 0.389671,0.3755655 -0.500316,0.5048319 -0.500315,0.504832 0.498333,0.501682 0.498334,0.501683 -0.360759,0.365296 -0.360759,0.365298 -0.532964,-0.48046 -0.532964,-0.480459 -0.442938,0.484099 C 9.7952168,12.480418 9.5798054,12.698038 9.5601416,12.697762 9.5404768,12.697484 9.3631974,12.534041 9.1661853,12.334551 Z"
       id="path131963" /></g></svg>
