<?xml version="1.0" encoding="UTF-8" standalone="no"?>
<!-- Created with Inkscape (http://www.inkscape.org/) -->

<svg
   width="500"
   height="500"
   viewBox="0 0 132.29166 132.29167"
   version="1.1"
   id="svg5"
   xml:space="preserve"
   inkscape:export-filename="school.svg"
   inkscape:export-xdpi="96"
   inkscape:export-ydpi="96"
   xmlns:inkscape="http://www.inkscape.org/namespaces/inkscape"
   xmlns:sodipodi="http://sodipodi.sourceforge.net/DTD/sodipodi-0.dtd"
   xmlns="http://www.w3.org/2000/svg"
   xmlns:svg="http://www.w3.org/2000/svg"><sodipodi:namedview
     id="namedview7"
     pagecolor="#ffffff"
     bordercolor="#000000"
     borderopacity="0.25"
     inkscape:showpageshadow="2"
     inkscape:pageopacity="0.0"
     inkscape:pagecheckerboard="0"
     inkscape:deskcolor="#d1d1d1"
     inkscape:document-units="mm"
     showgrid="false" /><defs
     id="defs2" /><g
     inkscape:label="Layer 1"
     inkscape:groupmode="layer"
     id="layer1"><path
       style="fill:#ffffff;stroke-width:0.264583"
       d="m 1.3802076,112.8369 v -2.91042 h 2.77813 2.77812 v -2.77812 -2.77813 h 2.77813 2.7781204 v -2.77812 -2.778128 h 2.91042 2.91042 v -25.39105 -25.39105 l -2.84427,-0.0751 -2.84428,-0.0751 v -4.208487 -4.208489 l 26.71895,-12.6587 c 14.69542,-6.962285 26.79398,-12.6587 26.88569,-12.6587 0.0917,0 12.17834,5.69029 26.85918,12.64509 l 26.692442,12.64509 v 4.222099 4.222097 l -2.84428,0.0751 -2.84427,0.0751 v 25.39105 25.39105 h 2.91042 2.91042 v 2.778128 2.77812 h 2.77812 2.77813 v 2.77813 2.77812 h 2.77812 2.77813 v 2.91042 2.91042 H 66.203128 1.3802076 Z M 35.246878,73.413981 V 48.01398 h -2.91042 -2.91041 v 25.400001 25.400001 h 2.91041 2.91042 z m 16.93333,0 V 48.01398 h -2.91041 -2.91042 v 25.400001 25.400001 h 2.91042 2.91041 z m 16.93334,0 V 48.01398 h -2.91042 -2.91041 v 25.400001 25.400001 h 2.91041 2.91042 z m 16.93333,0 V 48.01398 h -2.91041 -2.91042 v 25.400001 25.400001 h 2.91042 2.91041 z m 16.933332,0 V 48.01398 h -2.91041 -2.910422 v 25.400001 25.400001 h 2.910422 2.91041 z"
       id="path302" /></g></svg>
