<?xml version="1.0" encoding="UTF-8" standalone="no"?>
<!-- Created with Inkscape (http://www.inkscape.org/) -->

<svg
   width="40"
   height="40"
   viewBox="0 0 10.583333 10.583333"
   version="1.1"
   id="svg7932"
   inkscape:version="1.2.2 (b0a8486541, 2022-12-01)"
   sodipodi:docname="main-drawing.svg"
   xml:space="preserve"
   inkscape:export-filename="orange/cog-vs3.svg"
   inkscape:export-xdpi="96"
   inkscape:export-ydpi="96"
   xmlns:inkscape="http://www.inkscape.org/namespaces/inkscape"
   xmlns:sodipodi="http://sodipodi.sourceforge.net/DTD/sodipodi-0.dtd"
   xmlns="http://www.w3.org/2000/svg"
   xmlns:svg="http://www.w3.org/2000/svg"><sodipodi:namedview
     id="namedview7934"
     pagecolor="#ffffff"
     bordercolor="#000000"
     borderopacity="0.25"
     inkscape:showpageshadow="2"
     inkscape:pageopacity="0.0"
     inkscape:pagecheckerboard="0"
     inkscape:deskcolor="#d1d1d1"
     inkscape:document-units="mm"
     showgrid="false"
     inkscape:zoom="2.8177596"
     inkscape:cx="20.583729"
     inkscape:cy="58.557159"
     inkscape:window-width="1920"
     inkscape:window-height="1016"
     inkscape:window-x="0"
     inkscape:window-y="0"
     inkscape:window-maximized="1"
     inkscape:current-layer="layer1" /><defs
     id="defs7929"><linearGradient
       id="linearGradient121619"
       inkscape:swatch="solid"><stop
         style="stop-color:#886e0f;stop-opacity:1;"
         offset="0"
         id="stop121617" /></linearGradient></defs><g
     inkscape:label="Layer 1"
     inkscape:groupmode="layer"
     id="layer1"><path
       style="fill:#ffcc00;stroke-width:0.0138387"
       d="M 5.1053048,10.496137 C 4.4172855,10.465371 3.7178235,10.285771 3.0917766,9.9791209 2.8863992,9.8785238 2.6281784,9.7315055 2.6281784,9.7151711 c 0,-0.010169 0.7145623,-1.1733918 0.7326572,-1.1926747 0.00565,-0.00604 0.059543,0.018315 0.119719,0.05412 0.380069,0.2261487 0.8506995,0.3912317 1.322297,0.463821 0.2867881,0.044142 0.7777368,0.044249 1.061581,2.093e-4 C 6.1212702,9.0008157 6.388714,8.9318031 6.6145907,8.8470728 l 0.1802575,-0.067618 0.018069,0.043065 c 0.00992,0.023686 0.1346598,0.3164265 0.2771558,0.6505354 0.1993663,0.4674448 0.2548713,0.6100978 0.2407959,0.6188688 -0.04575,0.02851 -0.3971464,0.153782 -0.5721133,0.203965 -0.3923484,0.112534 -0.733519,0.171246 -1.1345002,0.195237 -0.2234831,0.01337 -0.3123716,0.01422 -0.5189512,0.005 z M 8.4602313,8.9029594 C 8.316142,8.7379297 8.1063975,8.5022085 7.9941309,8.3791334 7.8818643,8.2560595 7.79001,8.153001 7.79001,8.1501157 c 0,-0.0029 0.070059,-0.076621 0.1556843,-0.1638554 C 8.2635883,7.6623955 8.4783987,7.3559333 8.6750926,6.945654 8.892369,6.4924451 9.0040164,6.0462242 9.0381458,5.4946431 l 0.015933,-0.2572602 0.5754843,-0.00905 C 9.946078,5.2233629 10.26354,5.2151339 10.335036,5.2100599 l 0.129996,-0.00923 -0.0085,0.3032104 C 10.424804,6.6444747 10.011964,7.7379404 9.2746869,8.6343524 9.1449155,8.7921746 8.8536444,9.0989338 8.7727949,9.162969 L 8.7222329,9.203015 Z M 1.2487613,8.453786 C 0.75268131,7.7921599 0.41152874,7.00599 0.27622436,6.2126148 0.16148806,5.5398395 0.18211783,4.7768382 0.3323448,4.1369546 0.3518629,4.0537696 0.3672169,4.015148 0.3807632,4.015148 c 0.018359,0 1.3508642,0.3304803 1.3569261,0.3365403 0.00145,0.00149 -0.012095,0.071179 -0.030237,0.1548427 -0.060473,0.27899 -0.080386,0.4768592 -0.080777,0.8025341 -2.1e-4,0.167448 0.0075,0.3667255 0.017092,0.4428378 0.085956,0.6822066 0.3369267,1.3104873 0.7343665,1.8384048 L 2.4874773,7.7355457 1.9490117,8.1729749 C 1.6528568,8.4135616 1.4027292,8.6132816 1.393173,8.6167973 1.3831423,8.6204909 1.3222055,8.5517035 1.2487866,8.453786 Z m 3.960333,0.1289548 C 5.0906102,8.563469 5.0190308,8.5397095 4.9115621,8.4839825 4.7237402,8.386589 4.595305,8.2581583 4.497447,8.0698829 4.3943926,7.8716098 4.3954608,7.8810748 4.3893338,7.1124244 L 4.3838669,6.4248202 3.6478783,6.4194443 C 2.8250507,6.4134388 2.8420121,6.4152639 2.6420339,6.3113224 2.4538389,6.2135053 2.3254944,6.085189 2.2278318,5.897208 2.1514179,5.7501293 2.1256248,5.6418634 2.1256248,5.4682084 c 0,-0.1737184 0.025819,-0.2819995 0.1022613,-0.428999 C 2.3258022,4.8509369 2.4541286,4.7226046 2.6420339,4.6250395 2.8421208,4.5211496 2.8251122,4.5229765 3.6479651,4.5169705 l 0.7360793,-0.00538 0.00528,-0.7775555 C 4.3952335,2.8647148 4.3929464,2.8880235 4.4974061,2.6866294 4.5949708,2.4987233 4.7233045,2.3703976 4.9115755,2.2724827 5.0585763,2.1960314 5.166856,2.1702206 5.3405737,2.1702206 c 0.1737212,0 0.2820009,0.025811 0.4290016,0.1022621 0.1882711,0.097915 0.3166048,0.2262406 0.4141695,0.4141467 0.1045681,0.2013911 0.1021637,0.1780985 0.1080734,1.0472952 l 0.00528,0.7774411 0.6322859,0.00562 c 0.698616,0.00622 0.7001803,0.00639 0.8952301,0.1005371 0.2579059,0.1244844 0.4537017,0.3772413 0.511115,0.6598139 C 8.4217878,5.7008691 8.2097294,6.1329988 7.8246161,6.3188816 7.6295699,6.4130248 7.627991,6.4132022 6.9294812,6.4194161 l -0.632199,0.00562 -0.00547,0.6874899 c -0.00612,0.7685251 -0.00507,0.7590764 -0.108114,0.9573461 -0.097818,0.1881965 -0.2261339,0.31654 -0.4141152,0.4142028 -0.057084,0.029657 -0.1411562,0.063546 -0.1868226,0.075309 -0.1044014,0.02689 -0.2831778,0.038061 -0.3736451,0.023346 z M 8.8368386,4.0595271 C 8.8335766,4.0541421 8.8043929,3.9814111 8.7718607,3.8978911 8.3806385,2.8938994 7.4960955,2.0570543 6.4822521,1.7317447 6.4289741,1.7146494 6.3804217,1.6961591 6.3743563,1.6906548 6.3682725,1.6851513 6.4492453,1.3776727 6.5542587,1.0073698 6.7057533,0.47314823 6.7498373,0.33408831 6.7677004,0.33407455 6.8039884,0.33404703 7.1319414,0.45010461 7.3194955,0.52934631 8.4308277,0.99888763 9.3610945,1.8730183 9.9050679,2.9588973 10.04864,3.2454961 10.192859,3.5978637 10.17354,3.6148537 10.152866,3.6330388 8.8424442,4.0689689 8.8368386,4.0595271 Z M 1.6317925,2.8996063 C 1.3159264,2.6981709 1.0483558,2.5279234 1.0371917,2.5212779 1.0105766,2.5054391 1.0194477,2.4893216 1.1721558,2.2759411 1.7645983,1.4480584 2.6029281,0.80223389 3.5403253,0.45157942 4.0053829,0.27761306 4.500257,0.17068034 5.0106007,0.1338815 l 0.1197951,-0.008638 0.00796,0.11478623 c 0.00438,0.0631318 0.014846,0.37069936 0.023247,0.68348264 0.0084,0.31278303 0.016295,0.58036633 0.017563,0.59462973 0.00217,0.023251 -0.014919,0.027579 -0.1637848,0.041825 C 4.3073369,1.6277271 3.6818731,1.8687613 3.1218327,2.2896821 2.8279108,2.5105924 2.5033757,2.8477917 2.2902817,3.1536898 2.2465385,3.2164836 2.209711,3.2674074 2.20844,3.2668556 2.2069912,3.2663124 1.9476952,3.1010415 1.6318255,2.8996065 Z"
       id="path125463" /></g></svg>
