<?xml version="1.0" encoding="UTF-8" standalone="no"?>
<!-- Created with Inkscape (http://www.inkscape.org/) -->

<svg
   width="500"
   height="500"
   viewBox="0 0 132.29166 132.29167"
   version="1.1"
   id="svg5"
   xml:space="preserve"
   inkscape:export-filename="school-white.svg"
   inkscape:export-xdpi="96"
   inkscape:export-ydpi="96"
   xmlns:inkscape="http://www.inkscape.org/namespaces/inkscape"
   xmlns:sodipodi="http://sodipodi.sourceforge.net/DTD/sodipodi-0.dtd"
   xmlns="http://www.w3.org/2000/svg"
   xmlns:svg="http://www.w3.org/2000/svg"><sodipodi:namedview
     id="namedview7"
     pagecolor="#ffffff"
     bordercolor="#000000"
     borderopacity="0.25"
     inkscape:showpageshadow="2"
     inkscape:pageopacity="0.0"
     inkscape:pagecheckerboard="0"
     inkscape:deskcolor="#d1d1d1"
     inkscape:document-units="mm"
     showgrid="false" /><defs
     id="defs2" /><g
     inkscape:label="Layer 1"
     inkscape:groupmode="layer"
     id="layer1"><path
       style="fill:#ffffff;stroke-width:0.0644776"
       d="m 20.019631,107.18687 c -3.204791,-0.24127 -5.538709,-1.15659 -6.25742,-2.45405 L 13.57186,104.38919 13.55483,93.56994 C 13.53596,81.584401 13.52027,82.08751 13.953901,80.791542 14.07637,80.425547 14.29071,79.898366 14.430206,79.62003 l 0.253631,-0.506064 -0.165026,-0.25791 c -0.240265,-0.375515 -0.572918,-1.192112 -0.719524,-1.766308 -0.567546,-2.222876 -0.151222,-4.529139 1.176738,-6.518555 0.406577,-0.609091 1.544306,-1.741911 2.158233,-2.148929 l 0.467469,-0.309913 v -7.084059 -7.08406 L 16.747393,53.674608 C 16.277514,53.526315 13.107632,52.527324 9.7032185,51.454625 6.2987962,50.381929 3.3718942,49.437328 3.1989812,49.355512 c -0.172907,-0.08181 -0.479627,-0.301738 -0.681583,-0.488718 -1.186732,-1.098701 -1.189114,-3.011323 -0.0049,-4.107493 0.451912,-0.418385 0.806172,-0.594915 1.807063,-0.900469 0.407821,-0.1245 1.582926,-0.488563 2.611347,-0.809029 9.0084668,-2.807132 57.6356678,-17.915397 58.0531878,-18.036881 0.5899,-0.171639 1.333269,-0.207713 1.782041,-0.08648 0.14185,0.03832 13.633793,4.262327 29.982093,9.386681 16.3483,5.124353 30.18842,9.461797 30.75582,9.638764 0.56741,0.176966 1.16221,0.397452 1.32179,0.489963 1.62008,0.93919 1.95857,3.052881 0.70804,4.421169 -0.17291,0.189193 -0.48725,0.436119 -0.69852,0.548729 -0.21129,0.112608 -1.26461,0.478365 -2.34072,0.812793 -25.58764,7.951931 -57.706951,17.938267 -58.664631,18.23964 -1.20486,0.37916 -1.285554,0.39569 -1.934328,0.396268 l -0.677014,5.85e-4 -19.407762,-6.083332 C 35.136578,59.431892 26.236253,56.642467 26.032339,56.579 l -0.370743,-0.115391 v 5.82606 5.826062 l 0.40298,0.270963 c 1.877319,1.262294 3.082315,3.047036 3.508648,5.196717 0.148889,0.750749 0.147532,2.245829 -0.0028,2.913744 -0.156212,0.69474 -0.450831,1.538551 -0.738141,2.114078 l -0.250967,0.502738 0.125232,0.193433 c 0.452393,0.698724 0.833194,1.86786 0.952411,2.924051 0.04863,0.431135 0.06439,3.919063 0.05131,11.357745 l -0.01894,10.73551 -0.17977,0.36608 c -0.655028,1.33387 -3.014793,2.25273 -6.429188,2.50343 -0.990918,0.0727 -2.031828,0.0703 -3.062687,-0.007 z M 68.184408,50.605909 c 4.78638,-0.653798 7.266563,-3.285081 5.200198,-5.517005 -1.950507,-2.106777 -6.845273,-2.943891 -11.03718,-1.887603 -1.911005,0.481541 -3.497013,1.467887 -4.017415,2.498451 -0.276094,0.546766 -0.33924,0.998126 -0.211845,1.514357 0.602236,2.440434 5.341202,4.037218 10.066242,3.3918 z m -6.834627,48.458945 c -4.572629,-0.185523 -9.273408,-0.736905 -12.927765,-1.516387 -5.740559,-1.224469 -9.832444,-2.99424 -12.260197,-5.302635 -1.119988,-1.06492 -1.816435,-2.14703 -2.22702,-3.460224 l -0.181438,-0.580297 -0.01739,-10.654928 c -0.0096,-5.860211 7.07e-4,-10.654927 0.0234,-10.654927 0.02241,0 2.714146,0.829557 5.981595,1.843458 3.26745,1.013903 6.34703,1.969262 6.843506,2.123024 12.059753,3.734937 17.674102,5.477765 17.975603,5.580064 0.490054,0.16627 1.5555,0.231361 2.144026,0.130983 0.246802,-0.0421 2.233149,-0.629067 4.414104,-1.30438 4.421285,-1.369009 11.117291,-3.445161 20.641466,-6.400051 3.497823,-1.085204 6.378061,-1.973098 6.400523,-1.973098 0.02248,0 0.03308,4.780208 0.02361,10.622688 l -0.01725,10.622685 -0.142649,0.500512 c -0.745697,2.616528 -2.908531,4.712018 -6.62925,6.422842 -4.923501,2.263865 -12.163724,3.639548 -21.082435,4.005774 -1.761341,0.07233 -7.129346,0.06927 -8.96239,-0.0049 z"
       id="path402" /></g></svg>
