<?xml version="1.0" encoding="UTF-8" standalone="no"?>
<!-- Created with Inkscape (http://www.inkscape.org/) -->

<svg
   width="200"
   height="240"
   viewBox="0 0 52.916666 63.500003"
   version="1.1"
   id="svg5"
   inkscape:export-filename="ribbon-white.svg"
   inkscape:export-xdpi="96"
   inkscape:export-ydpi="96"
   xml:space="preserve"
   xmlns:inkscape="http://www.inkscape.org/namespaces/inkscape"
   xmlns:sodipodi="http://sodipodi.sourceforge.net/DTD/sodipodi-0.dtd"
   xmlns="http://www.w3.org/2000/svg"
   xmlns:svg="http://www.w3.org/2000/svg"><sodipodi:namedview
     id="namedview7"
     pagecolor="#ffffff"
     bordercolor="#000000"
     borderopacity="0.25"
     inkscape:showpageshadow="2"
     inkscape:pageopacity="0.0"
     inkscape:pagecheckerboard="0"
     inkscape:deskcolor="#d1d1d1"
     inkscape:document-units="mm"
     showgrid="false" /><defs
     id="defs2" /><g
     inkscape:label="Layer 1"
     inkscape:groupmode="layer"
     id="layer1"><path
       style="fill:#000000;stroke-width:0.0617548"
       d="m 21.33048,62.43418 c 0.06144,-0.431224 1.571353,-16.753194 1.554485,-16.803802 -0.0097,-0.02926 -1.919581,3.199993 -4.244071,7.176082 -2.32449,3.97609 -4.242708,7.229258 -4.262708,7.229258 -0.02,0 -0.995739,-1.939399 -2.168317,-4.30978 L 10.077914,51.416163 5.2965931,50.780747 c -2.6297253,-0.349482 -4.78441906,-0.640208 -4.78821046,-0.64606 -0.003727,-0.0059 3.12097146,-3.606744 6.94390486,-8.001986 3.8229425,-4.395242 6.9587305,-7.966222 6.9684245,-7.935507 0.0097,0.0307 -0.09015,0.695012 -0.221871,1.476211 -0.131727,0.781201 -0.234265,1.426223 -0.227866,1.433386 0.0064,0.0071 0.96905,-0.05315 2.139228,-0.134028 1.170177,-0.08088 2.138938,-0.135698 2.152803,-0.121836 0.01386,0.01386 0.118782,0.975632 0.233148,2.137259 0.114365,1.161622 0.217373,2.12148 0.228906,2.133017 0.01153,0.01153 0.101251,-0.01016 0.199362,-0.0482 0.09811,-0.03805 1.013526,-0.355074 2.03425,-0.704514 l 1.855858,-0.635343 0.759475,2.026918 0.759473,2.026918 1.738388,-1.158231 c 0.956114,-0.637025 1.768715,-1.176224 1.805782,-1.198213 0.03983,-0.02363 0.57008,0.665105 1.296853,1.684502 0.676202,0.948461 1.258845,1.718538 1.294761,1.711281 0.03591,-0.0072 0.658196,-0.694038 1.382839,-1.526185 0.724646,-0.832147 1.34933,-1.547752 1.388187,-1.590232 0.06334,-0.06924 1.187933,0.810436 3.266606,2.555212 l 0.174465,0.146439 0.853438,9.093496 c 0.46939,5.001417 0.844996,9.102537 0.834684,9.11359 -0.01028,0.01107 -1.930155,-1.000385 -4.266316,-2.247648 l -4.247562,-2.267745 -0.281616,0.155519 c -0.676675,0.373701 -8.073038,4.304945 -8.167809,4.341281 -0.08907,0.03414 -0.100596,0.0089 -0.07569,-0.165871 z m 8.151316,-21.970675 -1.101842,-1.539779 -1.570761,1.051537 c -0.863921,0.578343 -1.582134,1.040162 -1.596031,1.026267 -0.01388,-0.0139 -0.315276,-0.796965 -0.66973,-1.740151 -0.354458,-0.943186 -0.656571,-1.726991 -0.67137,-1.741784 -0.01479,-0.01479 -0.832429,0.248723 -1.816963,0.585604 l -1.79006,0.612512 -0.169209,-1.800049 c -0.09306,-0.990024 -0.183503,-1.851036 -0.200968,-1.913352 -0.02225,-0.07935 -0.07165,-0.103995 -0.164884,-0.08222 -0.221162,0.05165 -3.556189,0.251316 -3.592425,0.215082 -0.01851,-0.01851 0.103476,-0.850289 0.271104,-1.848385 0.167624,-0.998092 0.286589,-1.832094 0.264365,-1.85334 -0.02223,-0.02126 -0.865703,-0.199461 -1.874402,-0.396033 -1.592534,-0.310351 -1.827215,-0.370313 -1.782511,-0.455414 0.165502,-0.315073 1.485964,-3.27244 1.485964,-3.328034 0,-0.03689 -0.750323,-0.434448 -1.667382,-0.883489 -0.917063,-0.449041 -1.667385,-0.832742 -1.667385,-0.852671 0,-0.01991 0.52735,-0.675334 1.171883,-1.45646 0.644538,-0.781125 1.172542,-1.438005 1.173345,-1.459743 6.98e-4,-0.02172 -0.636907,-0.597142 -1.417133,-1.27869 l -1.418587,-1.239174 1.52666,-1.092453 c 0.839662,-0.600853 1.535913,-1.099962 1.547217,-1.10914 0.01129,-0.0091 -0.451652,-0.720699 -1.028793,-1.581171 -0.577143,-0.860467 -1.031028,-1.581792 -1.008634,-1.60295 0.02242,-0.02117 0.81137,-0.326845 1.753282,-0.679306 0.941911,-0.352459 1.713076,-0.667919 1.713697,-0.701021 6.98e-4,-0.03313 -0.264179,-0.83538 -0.58845,-1.782836 -0.32427,-0.947456 -0.574893,-1.7373375 -0.55694,-1.7552882 0.01795,-0.017957 0.859901,-0.1143608 1.870997,-0.2142314 1.011095,-0.099873 1.845659,-0.1887474 1.854585,-0.1974969 0.0089,-0.0087 -0.04221,-0.856011 -0.113614,-1.8828042 -0.07141,-1.0267943 -0.120404,-1.8756833 -0.108863,-1.8864228 0.01153,-0.010729 0.826882,0.1159929 1.811874,0.2816341 0.98499,0.1656435 1.822574,0.3016199 1.861297,0.302179 0.0433,4.664e-4 0.207585,-0.7062129 0.426768,-1.8362017 0.196002,-1.0104655 0.363857,-1.8468498 0.37301,-1.8586328 0.0091,-0.011768 0.761961,0.3177195 1.672899,0.7322298 0.910937,0.4145057 1.688776,0.7666957 1.728527,0.7826383 0.04424,0.01772 0.397637,-0.6353656 0.910947,-1.6835068 0.780703,-1.59412936 0.846135,-1.70609924 0.946678,-1.61997117 0.05941,0.0508908 0.677699,0.55935917 1.373987,1.12993907 0.696286,0.5705787 1.309856,1.0751304 1.36349,1.1212303 0.08574,0.073693 0.245032,-0.085801 1.319395,-1.321124 0.672036,-0.77271989 1.240878,-1.41234225 1.26409,-1.42138084 0.02322,-0.009035 0.527178,0.66344367 1.119923,1.49440444 0.592742,0.8309654 1.098958,1.5122637 1.12492,1.513994 0.02596,0.00181 0.748808,-0.4651131 1.606322,-1.0374322 l 1.559112,-1.0405866 0.486538,1.3030423 c 0.267597,0.7166791 0.567958,1.51711 0.667473,1.7787435 l 0.180929,0.4757 1.797683,-0.6138505 c 0.988724,-0.3376207 1.802601,-0.6072639 1.808615,-0.5992124 0.006,0.00802 0.08995,0.8552847 0.186511,1.8827307 l 0.175581,1.8680847 0.311878,-0.00282 c 0.171533,-0.00181 1.020516,-0.053579 1.886628,-0.1154495 0.866112,-0.061869 1.582605,-0.1059491 1.592207,-0.097953 0.0096,0.00802 -0.121321,0.8437716 -0.290944,1.8572695 -0.169621,1.0134989 -0.296406,1.8547213 -0.281741,1.8693843 0.01466,0.01465 0.83304,0.184616 1.818617,0.377672 0.985575,0.193055 1.809101,0.36815 1.830055,0.389107 0.02096,0.02098 -0.310402,0.806981 -0.736348,1.746724 l -0.774453,1.708625 1.694313,0.829761 c 0.931874,0.456372 1.694312,0.844172 1.694312,0.861784 0,0.01759 -0.528003,0.675063 -1.173342,1.461004 -0.645339,0.785941 -1.173342,1.447147 -1.173342,1.469345 0,0.03405 2.36249,2.120462 2.726438,2.407805 0.114555,0.09044 0.04689,0.148092 -1.318281,1.12311 -0.79147,0.565271 -1.491908,1.067 -1.556527,1.114946 -0.111246,0.08254 -0.06138,0.170536 0.938299,1.655859 1.015143,1.508295 1.050574,1.571258 0.920306,1.635407 -0.07452,0.03671 -0.864966,0.340346 -1.756552,0.674785 -0.891586,0.334442 -1.621063,0.637895 -1.621061,0.674342 5e-6,0.03647 0.264709,0.841367 0.588235,1.788703 0.323525,0.947335 0.577424,1.733234 0.56422,1.746436 -0.01321,0.01321 -0.851392,0.1057 -1.862641,0.205549 -1.01125,0.09985 -1.850187,0.193099 -1.864301,0.207212 -0.01413,0.01414 0.03107,0.853564 0.100426,1.865439 0.06935,1.011875 0.112918,1.85294 0.09684,1.869035 -0.01611,0.01613 -0.848124,-0.105961 -1.848961,-0.271259 -1.000832,-0.165302 -1.836544,-0.283705 -1.857133,-0.263116 -0.02059,0.02057 -0.198267,0.853335 -0.39484,1.850549 -0.254859,1.292877 -0.379845,1.808035 -0.435593,1.795405 -0.043,-0.0097 -0.810728,-0.350166 -1.706062,-0.756494 -0.895334,-0.406338 -1.64473,-0.73879 -1.665325,-0.73879 -0.02059,0 -0.411721,0.765566 -0.869178,1.701253 l -0.831737,1.701253 -0.475798,-0.393513 c -0.726768,-0.601072 -2.255126,-1.856558 -2.369265,-1.946255 -0.08917,-0.07007 -0.252142,0.09268 -1.345124,1.343169 -0.684015,0.782591 -1.250739,1.422897 -1.259384,1.422897 -0.0086,0 -0.511548,-0.6929 -1.117563,-1.539778 z m 4.318684,-4.479297 c 2.743968,-0.434239 5.36714,-1.616394 7.442886,-3.354196 0.757597,-0.634258 1.762707,-1.684855 2.325984,-2.431264 1.623173,-2.150879 2.656004,-4.697439 2.989263,-7.370361 0.11128,-0.892566 0.09646,-2.80776 -0.02866,-3.705293 C 46.21712,16.879289 45.36163,14.616961 44.136336,12.793217 43.494774,11.838303 43.092225,11.344601 42.30552,10.547817 40.350485,8.5677387 37.977722,7.1955376 35.344354,6.5220829 33.919343,6.1576491 33.36071,6.093515 31.608183,6.0931423 29.672472,6.092677 28.899131,6.1993398 27.254462,6.6933395 21.863098,8.312702 17.78347,12.904781 16.787863,18.474667 c -0.844302,4.723438 0.638044,9.55105 4.005039,13.043349 2.493831,2.586644 5.666024,4.137517 9.318396,4.55573 0.701552,0.08033 2.962536,0.02544 3.689184,-0.08954 z M 30.527468,32.547902 C 28.61434,32.369091 26.505669,31.584007 24.943594,30.468963 24.267705,29.986495 23.230562,29.016691 22.712627,28.382847 21.546244,26.955432 20.719349,25.221641 20.33066,23.388477 20.114544,22.369201 20.058377,20.571082 20.209962,19.5245 c 0.564599,-3.898144 2.972965,-7.169686 6.512397,-8.846493 3.123224,-1.4796292 6.791871,-1.4501134 9.918845,0.07979 5.196241,2.542321 7.699359,8.519678 5.864555,14.00436 -1.68123,5.025609 -6.688329,8.280162 -11.978291,7.785743 z"
       id="path1013" /></g></svg>
