<?xml version="1.0" encoding="UTF-8" standalone="no"?>
<!-- Created with Inkscape (http://www.inkscape.org/) -->

<svg
   width="80"
   height="80"
   viewBox="0 0 21.166666 21.166666"
   version="1.1"
   id="svg7932"
   inkscape:version="1.2.2 (b0a8486541, 2022-12-01)"
   sodipodi:docname="main-drawing.svg"
   xml:space="preserve"
   inkscape:export-filename="white/cog-m1.svg"
   inkscape:export-xdpi="96"
   inkscape:export-ydpi="96"
   xmlns:inkscape="http://www.inkscape.org/namespaces/inkscape"
   xmlns:sodipodi="http://sodipodi.sourceforge.net/DTD/sodipodi-0.dtd"
   xmlns="http://www.w3.org/2000/svg"
   xmlns:svg="http://www.w3.org/2000/svg"><sodipodi:namedview
     id="namedview7934"
     pagecolor="#ffffff"
     bordercolor="#000000"
     borderopacity="0.25"
     inkscape:showpageshadow="2"
     inkscape:pageopacity="0.0"
     inkscape:pagecheckerboard="0"
     inkscape:deskcolor="#d1d1d1"
     inkscape:document-units="mm"
     showgrid="false"
     inkscape:zoom="2.8177596"
     inkscape:cx="95.465914"
     inkscape:cy="59.976727"
     inkscape:window-width="1920"
     inkscape:window-height="1016"
     inkscape:window-x="0"
     inkscape:window-y="0"
     inkscape:window-maximized="1"
     inkscape:current-layer="layer1" /><defs
     id="defs7929"><linearGradient
       id="linearGradient121619"
       inkscape:swatch="solid"><stop
         style="stop-color:#886e0f;stop-opacity:1;"
         offset="0"
         id="stop121617" /></linearGradient></defs><g
     inkscape:label="Layer 1"
     inkscape:groupmode="layer"
     id="layer1"><path
       style="fill:#886e0f;fill-opacity:1;fill-rule:nonzero;stroke:none;stroke-width:1.489;stroke-linecap:round;stroke-linejoin:bevel;stroke-dasharray:4.46701, 1.489;stroke-dashoffset:0.8934;stroke-opacity:1;paint-order:stroke fill markers"
       d="M 16.149411,-3.6685555 15.404992,10.955339"
       id="path107639" /><path
       style="fill:#000000;stroke-width:0.0474002"
       d="m 8.0482861,20.912654 c -0.6981508,-0.259276 -0.9657606,-0.939927 -0.9791696,-2.49047 -0.00731,-0.843289 0.025634,-0.818367 -0.5711863,-0.432306 -1.0942993,0.707859 -1.5265348,0.905064 -1.9837262,0.905064 -0.6665844,0 -1.1539172,-0.509278 -1.1566201,-1.208704 -0.00167,-0.426481 0.1155676,-0.787696 0.5614314,-1.730107 0.1911771,-0.404088 0.3397549,-0.743156 0.3301728,-0.753485 -0.00958,-0.01033 -0.3810274,0.0088 -0.8254351,0.0425 C 2.1047463,15.345187 1.6377618,15.273836 1.2219199,14.908722 0.97177448,14.689092 0.86673478,14.43828 0.86545768,14.057576 0.86347768,13.462276 1.1825216,13.05294 2.3060195,12.209406 2.6596243,11.943919 2.9388839,11.710434 2.9265982,11.690554 2.9143065,11.670677 2.6425979,11.542746 2.32279,11.406269 1.1030395,10.885746 0.68268838,10.60505 0.44965838,10.155455 0.07848798,9.4393406 0.49884838,8.6696746 1.4206053,8.3776853 1.596998,8.3218093 2.1114336,8.2137596 2.5637936,8.1375751 3.0161544,8.0613911 3.3921829,7.9923405 3.3994132,7.9841293 3.4066482,7.9759193 3.1525364,7.645554 2.8347315,7.2499866 2.5169243,6.8544208 2.1835559,6.3862727 2.0939106,6.2096584 1.9455849,5.9174323 1.9309216,5.8517347 1.9309216,5.479447 c 0,-0.3726304 0.012794,-0.4297749 0.1434532,-0.6411244 0.215817,-0.3490758 0.5006261,-0.5056692 0.9690164,-0.5327841 0.4491819,-0.026 0.7821124,0.046585 1.7464907,0.3807959 0.3732039,0.1293345 0.6873845,0.2263213 0.6981798,0.215526 C 5.4988607,4.8910614 5.4317207,4.4996308 5.3388677,4.0320067 5.1942081,3.30347 5.1726336,3.1105458 5.1881262,2.6840785 5.2083155,2.1282912 5.2822906,1.9262633 5.564732,1.6555264 5.7763976,1.4526318 6.021944,1.3568727 6.330543,1.3568727 c 0.5356126,0 0.8737995,0.2154529 1.7525484,1.1165158 0.367521,0.3768533 0.6837106,0.6690786 0.7026433,0.6493897 0.018933,-0.019687 0.1225207,-0.3418713 0.2301961,-0.7159601 0.3396887,-1.1801572 0.4856459,-1.49139592 0.855227,-1.82368132 0.5025252,-0.4518132 1.1629312,-0.4057069 1.6324252,0.1139675 0.255532,0.282842 0.46027,0.75787092 0.720018,1.67056372 0.123721,0.4347266 0.240588,0.790412 0.259704,0.790412 0.01912,0 0.27625,-0.2566797 0.571409,-0.5703996 0.871996,-0.9268306 1.327655,-1.2294544 1.852525,-1.2303446 0.346512,-5.91e-4 0.64512,0.1352465 0.866899,0.3943473 0.358842,0.419224 0.392651,0.986639 0.135241,2.2696197 -0.09377,0.4673842 -0.158907,0.861382 -0.144738,0.8755511 0.01417,0.014165 0.380064,-0.093557 0.813103,-0.2393876 0.894872,-0.3013596 1.294228,-0.3843708 1.680607,-0.3493355 0.342116,0.031019 0.60903,0.1671716 0.827029,0.4218546 0.210086,0.2454367 0.282778,0.4954131 0.25303,0.8701279 -0.0362,0.4559873 -0.291266,0.8958537 -1.071426,1.8476837 -0.23505,0.2867709 -0.412701,0.5343225 -0.394783,0.5501159 0.01792,0.015795 0.331203,0.075921 0.696184,0.1336115 1.179542,0.1864546 1.610946,0.3273459 1.955518,0.6386455 0.548585,0.4956141 0.507512,1.3368061 -0.09025,1.8484711 -0.233839,0.200158 -0.793374,0.493432 -1.590795,0.833798 l -0.578735,0.247023 0.128434,0.105492 c 0.07063,0.05802 0.352399,0.273292 0.626135,0.478379 0.630428,0.472326 1.087591,0.928143 1.235325,1.231688 0.171184,0.351727 0.163756,0.818644 -0.01794,1.127753 -0.160198,0.272534 -0.436457,0.483115 -0.759745,0.579121 -0.287042,0.08524 -1.019753,0.09218 -1.857301,0.01759 -0.327605,-0.02918 -0.607789,-0.04091 -0.622631,-0.02607 -0.01484,0.01484 0.12429,0.347116 0.309183,0.738386 0.416115,0.880584 0.533154,1.218355 0.564088,1.627946 0.03,0.397223 -0.06665,0.678939 -0.331511,0.966276 -0.247263,0.268249 -0.509093,0.365045 -0.924019,0.3416 -0.409043,-0.02311 -0.867156,-0.2351 -1.767904,-0.81808 -0.519444,-0.336192 -0.640617,-0.397277 -0.64913,-0.327228 -0.0058,0.04737 -0.03227,0.491399 -0.05892,0.986731 -0.05002,0.929564 -0.103477,1.231058 -0.279216,1.574794 -0.32445,0.634608 -0.999966,0.842393 -1.628726,0.500992 -0.330582,-0.179498 -0.64848,-0.577998 -1.123781,-1.408709 -0.215755,-0.377087 -0.417696,-0.720368 -0.448755,-0.762846 -0.04808,-0.06575 -0.101279,0.0026 -0.357852,0.459569 -0.6205434,1.105279 -0.9569215,1.536039 -1.3623063,1.744543 -0.2573697,0.132375 -0.646747,0.16533 -0.8892684,0.07527 z m 0.7394644,-1.071382 c 0.1220958,-0.128554 0.414561,-0.571326 0.6542288,-0.990457 0.7043877,-1.231832 0.9753497,-1.532475 1.2778977,-1.41788 0.265651,0.100621 0.47328,0.3788 1.091224,1.462007 0.447381,0.784222 0.659477,1.065852 0.882963,1.172425 0.143618,0.06849 0.166717,0.06818 0.276284,-0.0036 0.194714,-0.12758 0.265225,-0.467254 0.31643,-1.524321 0.07667,-1.582818 0.163496,-1.882024 0.554409,-1.910554 0.259508,-0.01894 0.590358,0.140366 1.456587,0.701351 1.068035,0.691679 1.424313,0.827694 1.629802,0.622204 0.197733,-0.197734 0.113237,-0.525668 -0.448752,-1.741625 -0.460103,-0.995508 -0.566724,-1.337071 -0.489972,-1.569633 0.104578,-0.316876 0.458221,-0.372462 1.699946,-0.267201 1.269975,0.107656 1.737239,0.05719 1.83525,-0.198227 0.08897,-0.231832 -0.219325,-0.589936 -1.046784,-1.21588 -0.812171,-0.614378 -1.154909,-0.921971 -1.262666,-1.13319 -0.219432,-0.430124 -5.38e-4,-0.615341 1.485106,-1.256466 0.813249,-0.350961 0.987868,-0.445033 1.207736,-0.6506349 0.201338,-0.188274 0.204473,-0.3590044 0.0096,-0.5229774 C 19.722855,9.2332132 19.435484,9.154006 18.428554,8.9863455 17.466484,8.8261545 17.268012,8.7790338 17.017881,8.6514266 16.539109,8.4071749 16.643489,8.100121 17.621472,6.8758407 18.452327,5.8357425 18.630639,5.4786382 18.422871,5.2708711 18.231178,5.0791769 17.880459,5.1293652 16.776164,5.5065155 c -0.84072,0.2871311 -1.40507,0.4192317 -1.604181,0.3755 -0.377908,-0.083003 -0.414409,-0.5041757 -0.153905,-1.7759057 0.09345,-0.4562273 0.180998,-1.0108091 0.194539,-1.2324056 0.02247,-0.3676238 0.01521,-0.4147596 -0.08284,-0.538262 -0.23061,-0.2904722 -0.56788,-0.08461 -1.535512,0.9372435 -1.144241,1.208362 -1.460979,1.306594 -1.79629,0.5570981 C 11.731841,3.6819546 11.55894,3.1557321 11.413753,2.6604005 11.10751,1.615592 10.964702,1.2911324 10.765813,1.1882831 10.42764,1.0134067 10.221269,1.3361451 9.8478347,2.6238847 9.4441734,4.0158606 9.2981635,4.2957066 8.9755638,4.2957066 8.7040654,4.2957066 8.431366,4.0852633 7.7011165,3.3122082 6.7575016,2.3132805 6.412236,2.0832488 6.1472916,2.276981 5.9814589,2.3982405 5.9980032,2.952213 6.196253,3.9165053 6.2900503,4.3727318 6.3794222,4.9175229 6.3948562,5.1271513 6.4588433,5.9961856 6.1459498,6.0595787 4.5102652,5.5089769 3.1503591,5.0512082 2.7597907,5.0424959 2.7608675,5.469954 c 5.369e-4,0.2431421 0.1949263,0.5641814 0.7795802,1.2879895 0.6071134,0.7516153 0.7998296,1.0301689 0.9071646,1.3112197 0.074413,0.1948539 0.076265,0.2344434 0.0161,0.3445071 C 4.3335861,8.651703 3.9554808,8.7847616 2.9026263,8.96303 1.791839,9.1511067 1.4860311,9.2318462 1.3095721,9.3836317 c -0.36893142,0.3173404 0.00274,0.6566103 1.3323533,1.2162993 0.7054847,0.296962 1.1949339,0.562452 1.3276148,0.720135 0.3003535,0.35695 0.085342,0.648569 -1.1909677,1.6153 -0.9202377,0.697027 -1.1194159,0.932782 -1.0435261,1.235153 0.064292,0.25616 0.4987891,0.305795 1.736355,0.198356 1.0886256,-0.09451 1.4528178,-0.07207 1.6600031,0.102262 0.2590893,0.218009 0.1759776,0.561131 -0.4696347,1.938848 -0.3792005,0.809203 -0.5066798,1.221892 -0.4353732,1.409443 0.049967,0.131424 0.1825637,0.223008 0.3202694,0.221207 0.181071,-0.0024 0.6335399,-0.232592 1.3184714,-0.670867 1.109919,-0.710217 1.4539418,-0.850411 1.7275231,-0.703995 0.1952004,0.104468 0.3336242,0.789615 0.335206,1.659146 0.00183,0.985249 0.1320472,1.64313 0.3455672,1.745357 0.1586527,0.07596 0.2730848,0.02501 0.5143168,-0.228982 z M 9.6808512,16.45576 C 8.1016661,16.195607 6.7191817,15.302861 5.8400078,13.975518 4.3606623,11.742061 4.6624521,8.7928533 6.5650512,6.8901042 7.3371177,6.1179767 8.4057681,5.5540322 9.5149515,5.3333907 9.94711,5.2474254 11.119771,5.2472654 11.553159,5.3331043 c 3.41313,0.6760927 5.414217,4.1013661 4.31284,7.3823107 -0.345151,1.028185 -1.079983,2.028463 -1.990231,2.709172 -0.365822,0.273571 -1.122362,0.665239 -1.564206,0.809802 -0.779845,0.255151 -1.869189,0.346814 -2.6307108,0.221362 z m 1.4457058,-0.599576 c 2.314546,-0.28364 4.075794,-2.04529 4.388758,-4.389762 0.06262,-0.469101 0.03447,-1.104153 -0.07118,-1.6056274 C 14.841779,7.0015486 11.941517,5.2614413 9.1342339,6.0749602 8.332243,6.3073686 7.6096184,6.7386225 6.9989941,7.3492467 5.4876976,8.8605432 5.1010109,11.115734 6.0237588,13.036906 c 0.5217695,1.086331 1.3006179,1.859307 2.3951783,2.377121 0.8816619,0.417096 1.7521519,0.559247 2.7076219,0.442157 z m -1.113904,-1.32693 C 9.2523825,14.413931 8.4770023,14.024366 7.9286829,13.482229 6.1329871,11.706781 6.6247896,8.7435317 8.8987487,7.6373032 9.4135278,7.3868759 9.7991734,7.2834295 10.351346,7.2476555 c 1.320584,-0.085557 2.629038,0.5678011 3.35878,1.6771581 1.553653,2.3618714 -0.08958,5.4877844 -2.959529,5.6298914 -0.236414,0.0117 -0.568488,2.33e-4 -0.737944,-0.02545 z m 1.587906,-0.533798 C 13.889912,13.255841 14.652886,10.457773 13.037017,8.7275151 12.647153,8.3100533 12.174366,8.0019736 11.647959,7.8223724 11.342274,7.7180784 11.158482,7.6890161 10.699955,7.672471 10.036524,7.6485348 9.6711069,7.7165659 9.1443263,7.9621062 7.9679625,8.5104225 7.2550875,9.6202898 7.2521524,10.90801 c -0.00122,0.526995 0.094049,0.919922 0.3504565,1.445706 0.1582193,0.324442 0.2758606,0.481893 0.6041097,0.808538 0.4705913,0.468292 0.9469857,0.743709 1.552384,0.897477 0.5283514,0.134198 1.3117534,0.106854 1.8414564,-0.06428 z"
       id="path131358" /><path
       sodipodi:type="star"
       style="opacity:1;fill:#000000;fill-opacity:1;fill-rule:nonzero;stroke:#000000;stroke-width:1.683;stroke-linecap:round;stroke-linejoin:bevel;stroke-dasharray:none;stroke-dashoffset:3.37663;stroke-opacity:1;paint-order:stroke fill markers"
       id="path131602"
       inkscape:flatsided="false"
       sodipodi:sides="4"
       sodipodi:cx="-17.937107"
       sodipodi:cy="26.409582"
       sodipodi:r1="3.0667875"
       sodipodi:r2="0.030667877"
       sodipodi:arg1="0.773962"
       sodipodi:arg2="1.5593602"
       inkscape:rounded="0"
       inkscape:randomized="0"
       d="m -15.743903,28.553187 -2.192853,-2.112939 -2.143956,2.162538 2.112939,-2.192853 -2.162538,-2.143956 2.192853,2.112939 2.143956,-2.162538 -2.112939,2.192853 z"
       transform="matrix(0.62349703,0,0,0.62349703,21.752172,-5.5078378)" /></g></svg>
