<?xml version="1.0" encoding="UTF-8" standalone="no"?>
<!-- Created with Inkscape (http://www.inkscape.org/) -->

<svg
   width="120"
   height="120"
   viewBox="0 0 31.749999 31.749999"
   version="1.1"
   id="svg7932"
   inkscape:version="1.2.2 (b0a8486541, 2022-12-01)"
   sodipodi:docname="main-drawing.svg"
   xml:space="preserve"
   inkscape:export-filename="white/car-cog.svg"
   inkscape:export-xdpi="96"
   inkscape:export-ydpi="96"
   xmlns:inkscape="http://www.inkscape.org/namespaces/inkscape"
   xmlns:sodipodi="http://sodipodi.sourceforge.net/DTD/sodipodi-0.dtd"
   xmlns="http://www.w3.org/2000/svg"
   xmlns:svg="http://www.w3.org/2000/svg"><sodipodi:namedview
     id="namedview7934"
     pagecolor="#ffffff"
     bordercolor="#000000"
     borderopacity="0.25"
     inkscape:showpageshadow="2"
     inkscape:pageopacity="0.0"
     inkscape:pagecheckerboard="0"
     inkscape:deskcolor="#d1d1d1"
     inkscape:document-units="mm"
     showgrid="false"
     inkscape:zoom="1.4088798"
     inkscape:cx="100.78929"
     inkscape:cy="42.587025"
     inkscape:window-width="1920"
     inkscape:window-height="1016"
     inkscape:window-x="0"
     inkscape:window-y="0"
     inkscape:window-maximized="1"
     inkscape:current-layer="layer1" /><defs
     id="defs7929"><linearGradient
       id="linearGradient121619"
       inkscape:swatch="solid"><stop
         style="stop-color:#886e0f;stop-opacity:1;"
         offset="0"
         id="stop121617" /></linearGradient></defs><g
     inkscape:label="Layer 1"
     inkscape:groupmode="layer"
     id="layer1"><path
       style="fill:#000000;stroke-width:0.0497853"
       d="m 12.126207,31.442425 c -0.321974,-0.04296 -0.601163,-0.111862 -0.744195,-0.183651 -0.586382,-0.294325 -0.593331,-0.406398 -0.291635,-4.703611 0.04028,-0.57386 0.04324,-0.844797 0.0089,-0.824357 -0.02806,0.01674 -0.655908,0.50039 -1.3952232,1.074764 -1.798839,1.397519 -2.3043455,1.723707 -2.7921911,1.801717 C 6.496132,28.673771 6.079637,28.455669 5.3426131,27.785505 4.4027665,26.930919 4.4117822,26.714007 5.4539858,25.105899 c 0.896899,-1.383902 1.4372313,-2.336563 1.4372313,-2.533984 0,-0.03516 -0.058066,-0.07849 -0.1290285,-0.0963 -0.1939547,-0.04868 -1.3426605,0.110072 -2.1859948,0.302114 -0.4107302,0.09353 -1.0435725,0.228376 -1.4063179,0.299662 -1.128783,0.221827 -1.1517564,0.20185 -1.8522321,-1.610582 C 1.0362056,20.738609 1.03448,20.688876 1.277252,20.302261 1.6079689,19.775591 2.3048133,19.255574 4.2276971,18.100504 4.8574829,17.722193 5.4018938,17.386182 5.4374999,17.353812 5.4883743,17.307564 5.3923736,17.266588 4.9894308,17.162518 2.0685789,16.408161 1.814294,16.333129 1.2903558,16.071017 0.87737402,15.864413 0.6406316,15.666611 0.48068257,15.394525 0.35830497,15.18635 0.34482672,15.117126 0.34831256,14.714681 0.3514132,14.350001 0.38224074,14.175567 0.51366506,13.777416 0.70284242,13.204291 0.88848147,12.96486 1.2713834,12.80014 1.8268194,12.561199 2.0704822,12.53635 4.1708385,12.504463 L 6.1551818,12.474339 5.0004047,11.254595 C 3.5656491,9.7391231 3.0540299,9.1354113 2.8324473,8.696402 2.6184349,8.2723904 2.6031822,7.9658465 2.7776613,7.595365 3.0304233,7.0586605 3.9193131,6.0865852 4.285053,5.9469084 c 0.2022144,-0.07723 0.2415759,-0.077373 0.553138,-0.00203 0.2098944,0.050767 0.8285942,0.3253314 1.6531565,0.7336252 1.6835014,0.8336137 2.2917199,1.0882767 2.2917199,0.9595499 0,-0.075608 -0.2417154,-0.8443873 -0.7334773,-2.3328376 C 7.3221444,3.1034044 7.3127185,2.880535 7.9279245,2.4284231 8.0850161,2.3129719 8.4945478,2.0754579 8.8379941,1.9006031 9.9819297,1.3182058 10.152217,1.3905164 11.565795,3.0589412 c 1.106527,1.3060169 1.680443,1.8728859 1.89617,1.8728859 0.18793,0 0.396002,-0.8618749 0.522831,-2.1656665 0.118958,-1.2228767 0.204408,-1.5606536 0.464009,-1.83417552 0.258203,-0.27205038 0.609102,-0.39004414 1.428689,-0.48041237 1.422394,-0.15683409 1.726697,-0.001431 1.965412,1.00368389 0.08802,0.3706306 0.648325,3.9725112 0.648325,4.1677443 0,0.038949 0.39766,-0.4984891 0.883692,-1.1942983 1.105506,-1.5826623 1.294723,-1.8307828 1.712384,-2.2454485 0.771497,-0.7659636 1.327785,-0.8069303 2.305274,-0.1697685 0.923842,0.6021901 1.110643,0.9377548 0.953568,1.7129572 -0.045,0.2220668 -0.258761,0.9481801 -0.475032,1.6135851 -0.49946,1.5366845 -0.705857,2.349134 -0.628558,2.4742055 0.0185,0.029921 0.113603,0.019749 0.250083,-0.026749 0.271266,-0.092435 2.384859,-1.1356044 3.55553,-1.7548516 0.475799,-0.2516816 0.871184,-0.4510994 0.878633,-0.4431498 0.04334,0.046247 1.135753,1.7649418 1.306599,2.0556569 0.112637,0.1916734 0.230589,0.4525936 0.262109,0.5798202 0.110168,0.4446858 -0.119208,0.7565174 -1.196549,1.6266305 -1.104629,0.8921544 -1.963321,1.8240694 -1.931643,2.0963564 0.03907,0.335817 1.221799,0.54973 3.051815,0.551969 0.883015,0.0011 1.423587,0.07505 1.654586,0.226405 0.06716,0.04401 0.170425,0.184537 0.229472,0.312292 0.09701,0.209906 0.107365,0.316211 0.107365,1.103527 0,1.013988 -0.05845,1.26266 -0.372933,1.586718 -0.281693,0.290267 -0.784842,0.507103 -2.030403,0.875022 -1.61536,0.477152 -1.85332,0.5788 -1.85332,0.791677 0,0.158897 0.110943,0.249138 1.020603,0.830191 1.005535,0.642292 1.609535,1.0961 1.997015,1.500432 0.378491,0.394953 0.523331,0.672168 0.554281,1.060854 0.02862,0.359435 -0.114044,0.831709 -0.45563,1.508361 -0.446277,0.884031 -0.778711,1.007762 -1.896525,0.705887 -1.806549,-0.487872 -2.304183,-0.601625 -2.670596,-0.610468 -0.318315,-0.0076 -0.398414,0.007 -0.49033,0.09011 -0.234873,0.212277 -0.02515,0.706852 0.903149,2.129804 1.107577,1.697772 1.185974,2.01367 0.671907,2.707448 -0.688478,0.929157 -1.464152,1.411264 -2.107094,1.309628 -0.401411,-0.06346 -0.547089,-0.164812 -1.210902,-0.842505 -1.188464,-1.213314 -2.028038,-1.750493 -2.304231,-1.4743 -0.168883,0.168882 -0.196536,0.439913 -0.234031,2.293811 -0.03037,1.50187 -0.05248,1.889833 -0.119724,2.10073 -0.152461,0.478226 -0.449525,0.658207 -1.265643,0.766813 -0.827156,0.110073 -1.293701,0.0017 -1.662122,-0.386276 -0.283313,-0.29831 -0.645166,-1.008572 -1.33648,-2.623307 l -0.716612,-1.673828 -0.578758,1.754286 c -0.612314,1.856009 -0.737574,2.175201 -0.985837,2.512163 -0.246357,0.33438 -0.483493,0.429893 -1.102152,0.443922 -0.287511,0.0066 -0.754625,-0.01908 -1.038033,-0.0569 z m 4.414158,-6.945827 c 1.356594,-0.12008 2.656676,-0.560932 3.669301,-1.244243 1.427261,-0.963106 2.696084,-2.308617 3.262379,-3.459561 0.450075,-0.914736 0.569309,-1.625796 0.567691,-3.38541 -0.0013,-1.346061 -0.06319,-1.936543 -0.302926,-2.887113 C 23.170637,11.275306 21.835142,9.6685036 19.607837,8.5524857 15.685053,6.5869275 11.702799,7.6375564 9.2715546,11.279483 c -1.3647813,2.044396 -1.8422627,4.29748 -1.3833756,6.527708 0.7382511,3.587961 3.838983,6.397697 7.380951,6.688265 0.673177,0.05523 0.660356,0.05522 1.271235,0.0011 z"
       id="path143996" /></g></svg>
