<?xml version="1.0" encoding="UTF-8" standalone="no"?>
<!-- Created with Inkscape (http://www.inkscape.org/) -->

<svg
   width="80"
   height="80"
   viewBox="0 0 21.166665 21.166667"
   version="1.1"
   id="svg7932"
   inkscape:version="1.2.2 (b0a8486541, 2022-12-01)"
   sodipodi:docname="main-drawing.svg"
   xml:space="preserve"
   inkscape:export-filename="white/cog-m2.svg"
   inkscape:export-xdpi="96"
   inkscape:export-ydpi="96"
   xmlns:inkscape="http://www.inkscape.org/namespaces/inkscape"
   xmlns:sodipodi="http://sodipodi.sourceforge.net/DTD/sodipodi-0.dtd"
   xmlns="http://www.w3.org/2000/svg"
   xmlns:svg="http://www.w3.org/2000/svg"><sodipodi:namedview
     id="namedview7934"
     pagecolor="#ffffff"
     bordercolor="#000000"
     borderopacity="0.25"
     inkscape:showpageshadow="2"
     inkscape:pageopacity="0.0"
     inkscape:pagecheckerboard="0"
     inkscape:deskcolor="#d1d1d1"
     inkscape:document-units="mm"
     showgrid="false"
     inkscape:zoom="2.8177596"
     inkscape:cx="20.583729"
     inkscape:cy="58.557159"
     inkscape:window-width="1920"
     inkscape:window-height="1016"
     inkscape:window-x="0"
     inkscape:window-y="0"
     inkscape:window-maximized="1"
     inkscape:current-layer="layer1" /><defs
     id="defs7929"><marker
       style="overflow:visible"
       id="Arrow5"
       refX="0"
       refY="0"
       orient="auto-start-reverse"
       inkscape:stockid="Arrow5"
       markerWidth="4.8870001"
       markerHeight="5.4863544"
       viewBox="0 0 5.8874262 6.6094758"
       inkscape:isstock="true"
       inkscape:collect="always"
       preserveAspectRatio="xMidYMid"><path
         transform="scale(0.5)"
         style="fill:context-stroke;fill-rule:evenodd;stroke:context-stroke;stroke-width:1pt"
         d="m 6,0 c -3,1 -7,3 -9,5 0,0 0,-4 2,-5 -2,-1 -2,-5 -2,-5 2,2 6,4 9,5 z"
         id="path8893" /></marker></defs><g
     inkscape:label="Layer 1"
     inkscape:groupmode="layer"
     id="layer1"><path
       sodipodi:type="spiral"
       style="fill:none;fill-rule:evenodd;stroke:#000000;stroke-width:0.716859;stroke-linecap:round;stroke-linejoin:bevel;stroke-dasharray:none;marker-end:url(#Arrow5);paint-order:stroke fill markers"
       id="path26289"
       sodipodi:cx="141.36975"
       sodipodi:cy="25.133314"
       sodipodi:expansion="1"
       sodipodi:revolution="2.9904096"
       sodipodi:radius="5.6629281"
       sodipodi:argument="-17.765074"
       sodipodi:t0="0"
       d="m 141.36975,25.133314 c 0.13313,0.251817 -0.27376,0.303689 -0.41854,0.221265 -0.39232,-0.223366 -0.29369,-0.783687 -0.024,-1.058337 0.48244,-0.491283 1.28837,-0.31777 1.69814,0.173279 0.60136,0.720633 0.34481,1.800699 -0.37055,2.337937 -0.95346,0.716054 -2.31586,0.373242 -2.97774,-0.567821 -0.8329,-1.184232 -0.40243,-2.832396 0.76509,-3.617539 1.41403,-0.950914 3.34971,-0.432052 4.25734,0.962365 1.06961,1.643271 0.46196,3.867507 -1.15963,4.897139 -1.87219,1.188752 -4.38563,0.49204 -5.53694,-1.356907 -1.30819,-2.100892 -0.52226,-4.903982 1.55418,-6.176741 2.32944,-1.427844 5.42249,-0.552564 6.81654,1.751451 1.47923,2.444808 0.67099,5.677615 -1.66052,7.271811"
       transform="matrix(-1.8412508,0.15478798,-0.15266669,-1.8342331,275.60184,35.584999)" /></g></svg>
