<?xml version="1.0" encoding="UTF-8" standalone="no"?>
<!-- Created with Inkscape (http://www.inkscape.org/) -->

<svg
   width="120"
   height="120"
   viewBox="0 0 31.749999 31.749999"
   version="1.1"
   id="svg7932"
   inkscape:version="1.2.2 (b0a8486541, 2022-12-01)"
   sodipodi:docname="main-drawing.svg"
   xml:space="preserve"
   inkscape:export-filename="black/cog-m2.svg"
   inkscape:export-xdpi="96"
   inkscape:export-ydpi="96"
   xmlns:inkscape="http://www.inkscape.org/namespaces/inkscape"
   xmlns:sodipodi="http://sodipodi.sourceforge.net/DTD/sodipodi-0.dtd"
   xmlns="http://www.w3.org/2000/svg"
   xmlns:svg="http://www.w3.org/2000/svg"><sodipodi:namedview
     id="namedview7934"
     pagecolor="#ffffff"
     bordercolor="#000000"
     borderopacity="0.25"
     inkscape:showpageshadow="2"
     inkscape:pageopacity="0.0"
     inkscape:pagecheckerboard="0"
     inkscape:deskcolor="#d1d1d1"
     inkscape:document-units="mm"
     showgrid="false"
     inkscape:zoom="1.9924569"
     inkscape:cx="4.5170361"
     inkscape:cy="-9.0340723"
     inkscape:window-width="1920"
     inkscape:window-height="1016"
     inkscape:window-x="0"
     inkscape:window-y="0"
     inkscape:window-maximized="1"
     inkscape:current-layer="layer1" /><defs
     id="defs7929"><linearGradient
       id="linearGradient121619"
       inkscape:swatch="solid"><stop
         style="stop-color:#886e0f;stop-opacity:1;"
         offset="0"
         id="stop121617" /></linearGradient></defs><g
     inkscape:label="Layer 1"
     inkscape:groupmode="layer"
     id="layer1"><path
       style="fill:#d45500;stroke-width:0.0535093"
       d="m 18.456984,31.18155 c -0.463107,-0.05876 -0.743891,-0.353205 -1.181446,-1.238946 -0.416734,-0.843594 -0.891358,-1.23556 -1.496117,-1.23556 -0.349941,0 -0.756082,0.198872 -0.995448,0.48743 -0.08626,0.103997 -0.299138,0.479787 -0.473049,0.835095 -0.232309,0.47462 -0.379576,0.70443 -0.555078,0.866202 -0.406522,0.37472 -0.771174,0.370624 -1.138548,-0.01279 -0.261715,-0.273141 -0.414837,-0.690399 -0.501158,-1.365652 -0.123895,-0.969194 -0.361365,-1.45381 -0.826549,-1.686772 -0.145571,-0.0729 -0.339856,-0.132549 -0.431741,-0.132549 -0.461794,0 -1.0774197,0.325921 -1.6877598,0.893524 C 8.3163096,29.385535 8.0976264,29.460725 7.7361779,29.084565 7.3547749,28.687639 7.2549726,28.046812 7.4062297,26.965979 7.5023765,26.278945 7.4613532,25.693845 7.2963061,25.39827 7.116548,25.076348 6.934232,24.956225 6.5809259,24.926926 c -0.3928491,-0.03259 -0.6889011,0.04742 -1.394282,0.37673 -0.4831435,0.225562 -0.654083,0.278851 -0.9540592,0.297422 L 3.8671289,25.623702 3.580697,25.327978 C 2.9783177,24.706057 3.0469509,24.324268 3.9466258,23.292412 4.4946871,22.663828 4.5943625,22.489608 4.5935503,22.161672 4.5930242,21.953305 4.5463086,21.803981 4.3874003,21.502824 4.0075969,20.783054 3.763042,20.681369 2.8081465,20.84618 2.0242875,20.981471 1.719378,20.982693 1.4308437,20.851708 1.1915449,20.743065 0.98271001,20.469083 0.84784801,20.086845 0.62896423,19.466461 0.87276377,19.132035 1.9174926,18.61959 2.8467952,18.163762 3.200351,17.782597 3.2000001,17.236931 3.1995952,16.597898 2.7106631,16.130191 1.6420639,15.746603 0.68976022,15.404762 0.39754889,15.141553 0.39754889,14.625611 c 0,-0.7389 0.36859945,-1.057194 1.47150981,-1.270679 0.972688,-0.188279 1.4199505,-0.453355 1.5792206,-0.935947 C 3.6121325,11.922452 3.3446721,11.349288 2.5633469,10.522536 2.2667473,10.208691 1.9831763,9.8657212 1.9331892,9.7603824 1.8081266,9.496833 1.8188791,9.1620684 1.9615807,8.8763294 2.2166641,8.3655744 2.5368155,8.2593852 3.3811147,8.4054925 4.3753061,8.5775387 4.5476652,8.5933383 4.8657092,8.5415748 5.5215777,8.4348298 5.839031,8.0310604 5.7878941,7.3686467 5.7553376,6.9469514 5.6622697,6.6641186 5.3110727,5.9196327 5.1653005,5.6106163 5.0324439,5.2456749 5.0158372,5.1086516 4.9868151,4.8691628 4.9954272,4.8490572 5.2385143,4.5891807 5.3775935,4.440494 5.5983167,4.2670762 5.7290096,4.2038087 6.0487752,4.0490129 6.3077407,4.0926837 6.8788769,4.3977168 c 1.3667477,0.7299559 1.8370138,0.822487 2.265968,0.4458604 0.2951217,-0.2591198 0.404302,-0.6351813 0.4579653,-1.5774143 0.051291,-0.900596 0.112401,-1.218698 0.3030552,-1.5775531 0.1519196,-0.285948 0.3569296,-0.424298 0.6287286,-0.424298 0.30022,0 0.577419,0.1754066 0.948001,0.599878 0.883465,1.0119381 1.29573,1.2874945 1.971253,1.3175818 0.351149,0.015639 0.424734,0.00199 0.588604,-0.1090896 0.273106,-0.1851469 0.407222,-0.4743258 0.586767,-1.2651847 0.276944,-1.21987875 0.442586,-1.40507948 1.258731,-1.40735365 0.510732,-0.001414 0.792324,0.0990177 0.905298,0.32291185 0.03884,0.0769607 0.08665,0.360715 0.106261,0.6305567 0.08857,1.2190316 0.540302,1.8478701 1.324741,1.8441182 0.487467,-0.00233 0.894425,-0.2190448 1.393028,-0.7418151 0.802211,-0.8410967 0.965312,-0.988056 1.236945,-1.1145258 0.337321,-0.1570524 0.543913,-0.1639512 0.770597,-0.025737 0.291648,0.1778274 0.362853,0.3800688 0.358717,1.0188452 -0.002,0.3090172 -0.02293,0.840997 -0.04651,1.1821782 -0.0357,0.5166225 -0.02802,0.6650181 0.04592,0.8876421 0.264591,0.7966137 1.008012,0.8694674 2.292395,0.2246502 1.272406,-0.6388037 1.67386,-0.6770326 2.04026,-0.1942816 0.286244,0.3771468 0.235996,0.7221736 -0.266337,1.8287701 -0.559938,1.2335019 -0.557749,1.3725106 0.03021,1.9168733 0.203533,0.1884414 0.476797,0.3992442 0.607254,0.4684516 0.226852,0.1203451 0.245134,0.1220625 0.41931,0.039409 0.267521,-0.1269476 1.080537,-0.3541009 1.500711,-0.4192933 0.319652,-0.049598 0.390968,-0.044421 0.565948,0.041085 0.272725,0.133268 0.458587,0.5106488 0.485603,0.9859851 0.02725,0.4794614 -0.0404,0.5942244 -0.786684,1.3346376 -0.707386,0.701818 -0.873974,0.972575 -0.90675,1.473771 -0.05,0.764478 0.477475,1.16615 1.616028,1.230616 0.711133,0.04026 1.186441,0.178096 1.407166,0.408054 0.162368,0.169161 0.391451,0.72297 0.391451,0.946335 0,0.188945 -0.252589,0.410055 -0.705128,0.61725 -1.128469,0.516672 -1.433747,0.681824 -1.695743,0.917381 -0.351185,0.315745 -0.488639,0.578085 -0.488639,0.932596 0,0.511895 0.316249,0.918351 1.155318,1.484869 1.289468,0.870613 1.54165,1.593256 0.690026,1.977313 -0.186935,0.08431 -0.351239,0.09452 -1.329008,0.08269 -1.385082,-0.01675 -1.488391,0.01334 -1.724496,0.502484 -0.126756,0.262601 -0.15165,0.383341 -0.152932,0.741734 -0.0014,0.370056 0.02118,0.476256 0.165958,0.783556 0.09212,0.195515 0.295336,0.544663 0.451595,0.775887 0.331848,0.491056 0.526656,0.932676 0.527708,1.196293 9.95e-4,0.22716 -0.203541,0.678199 -0.381643,0.84195 -0.214714,0.197418 -0.395138,0.196293 -0.954301,-0.006 -0.279586,-0.101126 -0.713013,-0.25803 -0.96317,-0.348686 -0.798212,-0.289271 -1.238863,-0.205674 -1.80469,0.342371 -0.389875,0.377624 -0.393727,0.578658 -0.03281,1.711163 0.364725,1.144422 0.317957,1.396341 -0.344524,1.855873 -0.503634,0.349348 -0.763707,0.260768 -1.670662,-0.56902 -0.626857,-0.573523 -1.027585,-0.831178 -1.292725,-0.831178 -0.237913,0 -0.704542,0.199634 -0.942278,0.403127 -0.483328,0.413713 -0.650861,1.151924 -0.469191,2.067445 0.08687,0.43778 0.08685,0.47331 -4.05e-4,0.657263 -0.144347,0.304185 -0.456353,0.419703 -0.960755,0.355708 z m -4.125981,-5.410404 c 0.09072,-0.09213 -0.110525,-0.213515 -0.354002,-0.213515 -0.246831,0 -0.617191,0.142496 -0.546001,0.210072 0.02729,0.0259 0.09777,0.06005 0.156625,0.07589 0.165787,0.04461 0.677192,-0.0052 0.743378,-0.07244 z m 3.854059,0.02155 c 0.130501,-0.05007 0.101125,-0.111832 -0.08387,-0.176324 -0.211716,-0.0738 -0.547372,-0.07481 -0.808033,-0.0024 -0.214191,0.05948 -0.260133,0.134326 -0.10702,0.174338 0.144016,0.03763 0.9036,0.04098 0.998927,0.0044 z m -5.530334,-0.343964 c 0.205774,-0.110126 0.05959,-0.319174 -0.223202,-0.319174 -0.121224,0 -0.31541,0.137942 -0.31541,0.224056 0,0.11823 0.372508,0.184014 0.538612,0.09512 z m 7.226364,-0.283242 c 1.3867,-0.711448 3.257969,-2.071444 3.257969,-2.367817 0,-0.19089 -0.407395,-0.0038 -0.943666,0.43335 -0.99341,0.80981 -1.462853,1.13644 -2.402051,1.671307 -0.265627,0.151276 -0.540716,0.336523 -0.611309,0.411664 l -0.128347,0.136621 h 0.135831 c 0.07471,0 0.385915,-0.128306 0.691573,-0.285125 z m -8.296348,-0.174191 c 0.09506,-0.114536 -5.66e-4,-0.263061 -0.16935,-0.263061 -0.131013,0 -0.191876,0.12214 -0.134879,0.270672 0.03939,0.102668 0.216382,0.09823 0.304229,-0.0077 z m 4.986024,-0.209018 c 2.073818,-0.242586 2.954235,-0.645009 3.067787,-1.402226 0.110197,-0.734839 -0.448279,-1.734399 -1.949716,-3.489602 -0.901926,-1.054365 -1.357738,-1.394655 -1.869327,-1.395563 -0.496156,-8.29e-4 -0.955613,0.324129 -1.840475,1.301905 -1.88631,2.084379 -2.353886,3.446837 -1.47927,4.310413 0.301539,0.297732 1.02947,0.604485 1.703218,0.717742 0.329448,0.05538 1.748148,0.02982 2.367783,-0.04267 z m -5.8477,-0.270253 c -0.06673,-0.0804 -2.2789985,-1.900189 -2.4596319,-2.023262 -0.1741861,-0.118681 1.1238886,1.17212 1.5422693,1.533626 0.5815816,0.502522 0.8700556,0.696096 0.9372356,0.628914 0.03406,-0.03406 0.02714,-0.08263 -0.01987,-0.139278 z m 13.446708,-2.94446 c 0.365612,-0.503307 1.045473,-1.832917 1.092577,-2.136765 l 0.03319,-0.214037 -0.12374,0.107018 c -0.193983,0.167775 -0.720151,1.007972 -1.072317,1.712302 -0.526956,1.053905 -0.493414,1.307493 0.07029,0.531482 z m -13.986384,0.07354 c 0.843927,-0.404807 1.723615,-1.577125 2.834242,-3.777065 l 0.643774,-1.27519 -0.811815,-0.50536 c -1.97768,-1.231115 -3.5283345,-1.817423 -4.6322453,-1.75147 -0.9314466,0.05564 -1.2816588,0.517001 -1.3318001,1.754451 -0.057298,1.414148 0.5393315,3.51249 1.3388863,4.70883 0.2152375,0.322051 0.6699239,0.790927 0.8680527,0.895141 0.3948561,0.207692 0.5717369,0.199693 1.0909054,-0.04934 z m 12.173559,0.0078 c 0.706152,-0.362327 1.467772,-1.495609 1.908408,-2.839698 0.333299,-1.016677 0.442671,-1.649162 0.447672,-2.58886 0.0043,-0.792677 -0.0049,-0.877058 -0.122891,-1.138152 -0.154443,-0.341777 -0.619947,-0.786123 -0.916628,-0.875012 -0.255936,-0.07667 -0.707817,0.02035 -1.533349,0.329263 -1.644746,0.615452 -3.903939,1.777761 -4.014261,2.065255 -0.05997,0.156288 0.200969,0.825717 0.726494,1.863773 1.394595,2.754697 2.457806,3.720472 3.504555,3.183386 z M 7.5678137,21.308203 c 0,-0.150591 -0.43764,-0.566397 -0.5961376,-0.566397 -0.1358526,0 -0.1256285,0.05487 0.057264,0.307346 0.2688477,0.371133 0.5388744,0.500942 0.5388736,0.259051 z m 5.0312703,-0.753681 c 0.421023,-0.551378 0.909125,-1.341102 0.906498,-1.466672 -0.0011,-0.0507 -0.138181,0.05743 -0.339197,0.267485 -0.508289,0.531135 -1.367557,1.801562 -1.370356,2.026066 -0.0015,0.11796 0.387098,-0.282135 0.803055,-0.826879 z m 6.954843,0.392271 c 0,-0.17928 -0.843447,-1.427492 -1.344347,-1.989491 -0.434678,-0.487696 -0.573403,-0.361913 -0.23064,0.209123 0.254075,0.423286 0.701486,1.004233 1.129096,1.466089 0.340103,0.367344 0.445891,0.441907 0.445891,0.314279 z M 6.6818741,20.034277 c 0.1146983,-0.163755 0.1042706,-0.327092 -0.028557,-0.447298 -0.1097594,-0.09933 -0.1132622,-0.0993 -0.1872825,0.0019 -0.08903,0.121755 -0.097482,0.316088 -0.020045,0.460789 0.072099,0.13472 0.1335236,0.130703 0.2358764,-0.01543 z M 6.2728853,18.858274 c 0.1401494,-0.14015 0.028101,-0.577902 -0.1479236,-0.577902 -0.066092,0 -0.1089221,0.145488 -0.1089221,0.370024 0,0.271553 0.1067625,0.357961 0.2568457,0.207878 z m 7.7322187,-0.369969 c 0.08026,-0.127454 0.0062,-0.261443 -0.144646,-0.261443 -0.155745,0 -0.235906,0.177609 -0.135022,0.299164 0.08029,0.09674 0.205652,0.07983 0.279668,-0.03772 z m 11.70241,-0.346552 c 0,-0.2583 -0.157989,-0.634457 -0.234389,-0.558057 -0.06902,0.06902 -0.08078,0.726322 -0.01581,0.883959 0.04303,0.104411 0.04662,0.103943 0.14715,-0.01931 0.05668,-0.06948 0.103039,-0.207446 0.103039,-0.306596 z m -9.374886,-0.667108 c 0.774573,-0.387057 1.404663,-1.560883 1.188859,-2.214779 -0.138867,-0.420765 -0.570383,-0.744924 -1.215223,-0.912884 -1.339456,-0.348883 -2.309243,0.469889 -2.10233,1.774962 0.196517,1.239515 1.146781,1.84337 2.128694,1.352701 z M 5.8746763,17.009523 c 0.043549,-0.263467 0.043765,-1.588479 3.236e-4,-1.905494 -0.018718,-0.136544 -0.052518,-0.248262 -0.075118,-0.248262 -0.069942,0 -0.1197096,1.091965 -0.079267,1.73924 0.039136,0.62641 0.094444,0.77521 0.1540614,0.414516 z m 20.1864247,-1.01668 c 0.102551,-0.135096 0.09033,-0.303864 -0.0325,-0.448902 -0.104985,-0.123967 -0.108483,-0.124386 -0.187284,-0.02246 -0.08508,0.11006 -0.09946,0.247266 -0.04658,0.444603 0.03853,0.143759 0.167685,0.156733 0.266353,0.02676 z M 12.673589,14.930307 c 0.120085,-0.04608 0.104815,-0.161361 -0.03429,-0.258788 -0.158858,-0.111267 -0.271719,-0.104953 -0.42362,0.02369 -0.123966,0.104985 -0.124385,0.108481 -0.02246,0.187282 0.106969,0.08269 0.331283,0.105028 0.48036,0.04782 z m 6.934924,-0.182821 c 0.569844,-0.154166 0.98161,-0.307578 1.45301,-0.541348 0.514297,-0.255044 0.58483,-0.343516 0.235713,-0.295664 -0.530326,0.07269 -1.822599,0.578138 -2.117874,0.828367 -0.173067,0.146667 -0.0874,0.148391 0.429151,0.0086 z M 11.51608,14.471231 c 0.09863,-0.09863 -0.07701,-0.257576 -0.284612,-0.257576 -0.190605,0 -0.321506,0.114933 -0.273471,0.240111 0.03803,0.0991 0.463151,0.112397 0.558083,0.01747 z m -1.2436,-0.386517 c 0.101229,-0.07403 0.101265,-0.07752 0.0019,-0.187282 -0.05567,-0.06152 -0.165996,-0.111852 -0.245164,-0.111852 -0.079167,0 -0.1894922,0.05034 -0.2451658,0.111852 -0.099331,0.109759 -0.099294,0.113262 0.00191,0.187282 0.056741,0.04148 0.1661937,0.07543 0.2432348,0.07543 0.07704,0 0.186495,-0.03395 0.243232,-0.07543 z m 4.064084,-0.116697 c 0.350596,-0.378301 0.783122,-2.516852 0.78364,-3.874588 4.04e-4,-1.1371679 -0.191006,-1.8238687 -0.646107,-2.3175947 -0.589763,-0.6398176 -1.52791,-0.6417449 -2.794561,-0.00572 -1.14053,0.5726762 -2.3676412,1.5886167 -3.0647834,2.5373727 -0.3249628,0.442248 -0.4401979,0.669692 -0.5434011,1.072535 -0.079574,0.310601 -0.078322,0.332522 0.031935,0.560283 0.2600748,0.537243 1.5197669,1.224244 2.9026155,1.583007 0.397049,0.103008 2.869493,0.562588 3.105996,0.577344 0.05291,0.0033 0.154008,-0.05638 0.224666,-0.132618 z m 11.315559,-0.01839 c 0.107049,-0.200025 0.0047,-0.796284 -0.145196,-0.846267 -0.08152,-0.02717 -0.141183,0.411095 -0.09651,0.708977 0.0388,0.258781 0.144545,0.318841 0.241708,0.13729 z M 18.7309,13.863956 c 1.091374,-0.188664 2.697644,-0.670711 3.471745,-1.041883 1.446614,-0.693635 1.488183,-1.647007 0.133868,-3.0702175 -1.095607,-1.1513434 -2.575528,-2.1487325 -3.585227,-2.4162534 -0.454217,-0.120346 -1.029733,-0.1198324 -1.325233,0.00116 -0.309407,0.1267112 -0.634309,0.5079193 -0.749296,0.8791487 -0.07735,0.2497396 -0.09235,0.5148264 -0.09109,1.6099477 0.0017,1.3483205 0.06216,2.0933175 0.245135,3.0128595 0.142689,0.71711 0.239543,0.942117 0.443829,1.03105 0.222999,0.09708 0.876069,0.09447 1.456272,-0.0058 z M 6.2728853,13.186269 c 0.1401494,-0.140148 0.028101,-0.577901 -0.1479236,-0.577901 -0.066092,0 -0.1089221,0.145488 -0.1089221,0.370024 0,0.271554 0.1067625,0.357961 0.2568457,0.207877 z M 25.332947,12.273084 c 0,-0.169533 -0.055,-0.322363 -0.213722,-0.593997 -0.224463,-0.384113 -0.746568,-1.071284 -0.78486,-1.032994 -0.05204,0.05204 0.537061,1.377098 0.770948,1.734054 0.130077,0.198523 0.227634,0.15264 0.227634,-0.107063 z m -9.341702,-1.002452 c 0.0045,-0.698641 -0.04581,-1.095139 -0.132173,-1.041763 -0.05737,0.03546 -0.07095,1.729632 -0.01502,1.875369 0.07717,0.201095 0.142939,-0.171374 0.147202,-0.833606 z m -9.189556,0.347812 c 0.1729946,-0.280766 1.0835997,-1.8340972 1.1292717,-1.9263405 0.038937,-0.078636 -0.08666,0.055082 -0.5072847,0.5400875 -0.6314561,0.728107 -1.0292824,1.37773 -1.0318951,1.685013 -0.00249,0.294608 0.082453,0.232687 0.4099081,-0.29876 z M 24.055241,9.9450778 C 23.947402,9.743579 22.867468,8.5998039 22.339346,8.1277457 21.71444,7.5691765 21.096982,7.1265584 20.991654,7.1616662 c -0.142529,0.047507 1.888819,1.9923702 2.781723,2.6632848 0.321157,0.241313 0.354273,0.255427 0.281864,0.1201268 z M 8.8709701,8.6091045 C 9.6423276,8.2054762 11.630579,6.8117061 11.75683,6.5861076 11.934367,6.2688667 10.484632,7.0585907 9.3791508,7.8813174 8.2663839,8.7094661 8.0287269,9.0498252 8.8709701,8.6091045 Z M 20.089024,6.6734898 c 0,-0.1542016 -0.132055,-0.2377108 -0.264128,-0.1670284 -0.134318,0.071883 -0.144293,0.2451149 -0.01818,0.3156911 0.120265,0.067303 0.282308,-0.018029 0.282308,-0.1486627 z M 13.109192,6.3744827 c 0.101934,-0.078802 0.101509,-0.082296 -0.02246,-0.1872825 -0.1519,-0.1286427 -0.264762,-0.1349532 -0.423619,-0.023687 -0.13109,0.09182 -0.155925,0.2139109 -0.05204,0.2558302 0.138539,0.055903 0.397999,0.032532 0.498112,-0.04486 z m 6.075261,-0.00606 c 0.06147,-0.074073 0.05393,-0.1007921 -0.05288,-0.1872833 -0.151524,-0.1226972 -0.26506,-0.1274297 -0.421884,-0.01759 -0.131089,0.091819 -0.155924,0.21391 -0.05204,0.2558293 0.152272,0.061445 0.458072,0.031859 0.526807,-0.050959 z m -1.958184,-0.4965726 0.214036,-0.041708 -0.214036,-0.048851 c -0.2801,-0.063927 -2.170745,-0.063146 -2.514945,0.00107 l -0.267548,0.049889 0.187284,0.036705 c 0.261666,0.051283 2.335036,0.053613 2.595209,0.0029 z"
       id="path147947" /></g></svg>
