<?xml version="1.0" encoding="UTF-8" standalone="no"?>
<!-- Created with Inkscape (http://www.inkscape.org/) -->

<svg
   width="120"
   height="120"
   viewBox="0 0 31.749999 31.749999"
   version="1.1"
   id="svg7932"
   inkscape:version="1.2.2 (b0a8486541, 2022-12-01)"
   sodipodi:docname="main-drawing.svg"
   xml:space="preserve"
   inkscape:export-filename="yellow/car-cog.svg"
   inkscape:export-xdpi="96"
   inkscape:export-ydpi="96"
   xmlns:inkscape="http://www.inkscape.org/namespaces/inkscape"
   xmlns:sodipodi="http://sodipodi.sourceforge.net/DTD/sodipodi-0.dtd"
   xmlns="http://www.w3.org/2000/svg"
   xmlns:svg="http://www.w3.org/2000/svg"><sodipodi:namedview
     id="namedview7934"
     pagecolor="#ffffff"
     bordercolor="#000000"
     borderopacity="0.25"
     inkscape:showpageshadow="2"
     inkscape:pageopacity="0.0"
     inkscape:pagecheckerboard="0"
     inkscape:deskcolor="#d1d1d1"
     inkscape:document-units="mm"
     showgrid="false"
     inkscape:zoom="1.4088798"
     inkscape:cx="100.78929"
     inkscape:cy="42.587025"
     inkscape:window-width="1920"
     inkscape:window-height="1016"
     inkscape:window-x="0"
     inkscape:window-y="0"
     inkscape:window-maximized="1"
     inkscape:current-layer="layer1" /><defs
     id="defs7929"><linearGradient
       id="linearGradient121619"
       inkscape:swatch="solid"><stop
         style="stop-color:#886e0f;stop-opacity:1;"
         offset="0"
         id="stop121617" /></linearGradient></defs><g
     inkscape:label="Layer 1"
     inkscape:groupmode="layer"
     id="layer1"><path
       style="fill:#ffffff;stroke-width:0.0390073"
       d="m 16.107527,31.379307 c -0.008,-0.008 -0.391672,-0.03374 -0.85271,-0.05729 -1.007938,-0.0515 -1.411911,-0.09382 -2.105993,-0.220601 C 9.4656924,30.42862 6.2085898,28.446957 3.8272206,25.430032 2.2367731,23.415118 1.1940258,21.023587 0.74532607,18.361747 0.68247722,17.988909 0.61286399,17.430056 0.59062684,17.119851 0.5397377,16.409945 0.53754972,15.108211 0.58678959,14.82236 0.60732506,14.703073 0.64310624,14.405516 0.66630073,14.161128 0.78428036,12.917988 1.2042068,11.282814 1.7210069,10.054164 3.6460211,5.4775946 7.403848,2.2143591 12.157738,0.99107946 c 1.293549,-0.33285884 1.796729,-0.39685418 3.507089,-0.44604055 1.194274,-0.0343471 1.337442,-0.0285027 2.267713,0.0925738 1.947574,0.25347585 4.105655,1.01574779 5.886072,2.07906339 2.835909,1.6936862 5.175867,4.4562788 6.386041,7.5394669 0.471494,1.201231 0.735413,2.232048 0.963753,3.764216 0.104405,0.700539 0.110149,0.807388 0.10486,1.950373 -0.005,1.098788 -0.01539,1.275736 -0.112781,1.937406 -0.325319,2.210004 -0.924076,3.979125 -1.951686,5.76656 -2.326106,4.046052 -6.513386,6.887214 -11.086505,7.522438 -0.941134,0.130726 -1.972898,0.224015 -2.014745,0.182168 z m 0.7275,-1.542575 c 1.177492,-0.06314 2.203716,-0.260738 3.396528,-0.653966 2.140108,-0.705518 3.911883,-1.795166 5.498021,-3.381306 2.232007,-2.232006 3.57898,-5.007683 3.985061,-8.211918 0.05081,-0.400864 0.06639,-0.819986 0.06531,-1.755336 -0.0016,-1.344982 -0.04338,-1.762771 -0.288853,-2.886548 C 28.332952,7.6456462 24.214916,3.5077114 18.916416,2.32188 17.963361,2.1085816 17.523961,2.0592016 16.379091,2.0367363 14.700118,2.0037913 13.801076,2.0924651 12.548036,2.4146024 11.546981,2.6719578 10.850997,2.9261556 9.9112067,3.3776645 8.408831,4.0994588 7.2239933,4.9464428 6.0644326,6.1275411 5.4806718,6.7221447 5.3585925,6.8593294 4.9766307,7.3499534 3.4136724,9.3575438 2.4564694,11.69955 2.1228212,14.332421 c -0.097244,0.767379 -0.09687,2.475415 7.272e-4,3.237617 0.2150616,1.679833 0.6345834,3.101546 1.3364104,4.528952 1.3421254,2.729676 3.5674374,4.967213 6.3047429,6.339382 1.3820533,0.692802 3.0232023,1.172203 4.7103913,1.375967 0.552929,0.06677 1.38512,0.07468 2.359949,0.0224 z M 15.796283,29.32711 c -0.534538,-0.08148 -0.965175,-0.477247 -1.109589,-1.019733 -0.125226,-0.470407 -0.01511,-0.914727 0.315056,-1.271354 0.490235,-0.529514 1.230979,-0.614289 1.812309,-0.20741 0.408302,0.285774 0.61106,0.720208 0.577827,1.238064 -0.05135,0.800061 -0.789661,1.383287 -1.595603,1.260433 z m 0.738394,-0.349662 c 0.370351,-0.185068 0.576667,-0.487917 0.620283,-0.910513 0.08634,-0.836505 -0.807582,-1.49748 -1.568171,-1.159532 -0.435536,0.193521 -0.699049,0.59951 -0.699437,1.077616 -2.95e-4,0.337376 0.120258,0.595387 0.388427,0.831435 0.224514,0.197626 0.432678,0.27324 0.763117,0.277199 0.212466,0.0026 0.298488,-0.01762 0.495781,-0.1162 z M 8.5531356,26.873161 C 8.3311167,26.826117 8.1677531,26.721259 7.9442611,26.48233 7.6687273,26.187761 7.5563668,25.911111 7.5564818,25.527552 c 7.81e-5,-0.256791 0.019133,-0.354273 0.1075883,-0.550409 0.1343954,-0.297996 0.3988251,-0.562166 0.706344,-0.705649 0.2018327,-0.09417 0.2823647,-0.109202 0.5851115,-0.109202 0.3257428,0 0.3688306,0.0096 0.597305,0.133509 0.3073186,0.166629 0.5628824,0.446625 0.6720404,0.736293 0.121272,0.321812 0.09818,0.853081 -0.04789,1.102001 -0.16724,0.284987 -0.4116398,0.533465 -0.6295867,0.640098 -0.231876,0.113445 -0.7040795,0.160447 -0.9942578,0.09897 z m 0.624764,-0.23777 c 0.4022631,-0.08345 0.6669541,-0.316334 0.8339834,-0.733783 0.08838,-0.220894 0.0607,-0.662652 -0.055768,-0.889868 -0.2520722,-0.491772 -0.8169901,-0.733505 -1.3512175,-0.578201 -0.1818117,0.05285 -0.2702445,0.109927 -0.4454031,0.287425 -0.277184,0.280898 -0.3702237,0.520738 -0.3473929,0.895519 0.019022,0.312228 0.1016393,0.49842 0.3165052,0.713286 0.3155585,0.315559 0.6008363,0.398651 1.0492907,0.305622 z m 13.8727334,0.06887 c -0.390906,-0.146053 -0.711877,-0.428536 -0.866231,-0.762361 -0.06842,-0.147962 -0.08337,-0.253782 -0.08337,-0.589885 0,-0.380829 0.0081,-0.424198 0.115363,-0.617853 0.156212,-0.282014 0.474994,-0.56578 0.752679,-0.670006 0.312825,-0.117418 0.758272,-0.09816 1.068594,0.04619 0.843789,0.392514 1.061227,1.567065 0.411119,2.22076 -0.243459,0.244803 -0.596648,0.396796 -0.960009,0.413136 -0.185758,0.0084 -0.348513,-0.0065 -0.438146,-0.03998 z m 0.912194,-0.311192 c 0.08,-0.03366 0.223494,-0.141493 0.318856,-0.239613 0.232985,-0.239723 0.311401,-0.480002 0.288086,-0.882736 -0.01578,-0.272569 -0.03339,-0.329353 -0.162435,-0.52371 -0.29544,-0.444964 -0.783623,-0.620882 -1.298595,-0.467953 -0.776615,0.23063 -1.054879,1.216822 -0.516058,1.828956 0.199489,0.226631 0.380364,0.336173 0.610418,0.369679 0.230523,0.03358 0.568227,-0.0041 0.759728,-0.08462 z M 15.567285,26.089941 C 11.319983,25.737157 7.9102998,23.055793 6.6428897,19.071822 5.7811264,16.362966 6.1348868,13.365889 7.6087531,10.88895 8.1492845,9.9805485 9.1206897,8.8708194 9.9502159,8.2140723 12.329639,6.3302518 15.356037,5.6354218 18.368919,6.2812228 c 0.914167,0.1959485 2.150031,0.6977385 3.010473,1.222323 0.88135,0.5373315 1.955819,1.4823786 2.575193,2.2650062 0.854212,1.079366 1.566962,2.505307 1.907138,3.815469 0.237946,0.91642 0.254215,1.069763 0.255293,2.406215 0.0014,1.586476 -0.06281,2.034919 -0.465577,3.257121 -0.683629,2.074528 -2.116793,3.951459 -3.959988,5.186163 -0.762342,0.510672 -1.791397,0.98691 -2.708238,1.25335 -1.06732,0.310169 -2.499635,0.479179 -3.415928,0.403071 z m 1.092208,-0.346389 c 1.079795,-0.03688 1.350057,-0.07753 2.232735,-0.335828 1.153648,-0.337589 2.188488,-0.863534 3.166795,-1.609485 0.450184,-0.343261 1.296801,-1.169691 1.660835,-1.62123 1.181396,-1.465385 1.928075,-3.28854 2.110454,-5.153076 0.04997,-0.5109 0.0265,-1.721146 -0.04426,-2.281935 C 25.572883,13.052498 24.80406,11.277501 23.695066,9.9144758 23.188196,9.2915042 22.368242,8.5279072 21.710953,8.0667381 20.762881,7.4015475 19.43924,6.8225529 18.200285,6.5310822 17.299883,6.3192576 15.134041,6.3186215 14.18252,6.529892 13.467033,6.6887633 12.607508,6.9897315 11.959097,7.3084377 10.944562,7.8071018 10.2451,8.2966896 9.4521223,9.063191 c -1.6554075,1.600137 -2.6865602,3.69592 -2.9324347,5.960065 -0.059133,0.544526 -0.050644,1.568795 0.017858,2.154381 0.3790224,3.240157 2.3822711,6.118885 5.2767174,7.582799 0.830798,0.42019 1.528301,0.660396 2.465778,0.849163 0.84624,0.170397 1.022224,0.180303 2.379453,0.133945 z m -5.544304,-5.019075 c -0.05652,-0.01021 -0.175008,-0.08048 -0.263301,-0.156063 l -0.160532,-0.137411 v -0.797081 -0.797079 l -0.174731,-0.262832 c -0.565389,-0.850466 -0.6328356,-1.990337 -0.171858,-2.904473 0.0619,-0.122743 0.112544,-0.232458 0.112544,-0.243796 0,-0.01131 -0.06785,-0.02061 -0.150768,-0.02061 -0.287201,0 -0.3971302,-0.168084 -0.5310304,-0.811955 -0.032641,-0.156944 -0.059345,-0.386807 -0.059345,-0.510802 0,-0.359675 0.1254229,-0.426974 0.8581634,-0.460472 0.268175,-0.0123 0.523397,-0.03549 0.56716,-0.05162 0.05523,-0.02037 0.125495,-0.146904 0.229741,-0.413744 0.292027,-0.747514 0.5157,-1.13651 0.838891,-1.458945 0.332247,-0.331474 0.626736,-0.494405 1.250758,-0.692009 1.23902,-0.39235 3.137786,-0.421079 4.472418,-0.06767 0.827557,0.219138 1.335392,0.494076 1.663079,0.900381 0.195213,0.242047 0.47141,0.779137 0.690839,1.343409 0.07092,0.182359 0.142678,0.347114 0.159473,0.366123 0.01679,0.01902 0.273017,0.04934 0.569382,0.06742 0.640225,0.03905 0.717144,0.05348 0.826134,0.155024 0.110247,0.102708 0.111367,0.412106 0.0034,0.941895 -0.120652,0.592023 -0.197829,0.692954 -0.529897,0.692954 -0.123726,0 -0.134051,0.0082 -0.109436,0.08777 0.01494,0.04827 0.06709,0.167201 0.115868,0.264284 0.209527,0.417075 0.271817,0.721416 0.271234,1.32527 -5.9e-4,0.563107 -0.0012,0.567137 -0.144599,0.911197 -0.07923,0.190072 -0.218644,0.462148 -0.30981,0.604614 l -0.165755,0.259028 -0.01545,0.788966 -0.01545,0.788964 -0.148565,0.134221 c -0.181619,0.16408 -0.381279,0.19696 -1.044886,0.172064 -0.706821,-0.02652 -0.815006,-0.119755 -0.854987,-0.736881 l -0.02252,-0.347683 -1.096185,-3.8e-5 c -0.602902,-2.3e-5 -1.978242,-0.01168 -3.05631,-0.02588 l -1.960122,-0.02584 -0.0017,0.289178 c -0.0021,0.345664 -0.09569,0.644091 -0.234062,0.745964 -0.08443,0.06216 -0.189246,0.07528 -0.702134,0.08794 -0.33159,0.0082 -0.649135,0.0065 -0.705659,-0.0038 z m 1.60436,-2.666748 c 0.422047,-0.215312 0.621219,-0.822064 0.442258,-1.347285 -0.0953,-0.2797 -0.37149,-0.542578 -0.627801,-0.597546 -0.384476,-0.08245 -0.743901,0.106902 -0.932699,0.491382 -0.147953,0.301301 -0.155059,0.753628 -0.01609,1.024269 0.251008,0.488839 0.691047,0.655328 1.134336,0.42918 z m 6.909496,0.02235 c 0.180112,-0.07609 0.403869,-0.318145 0.489509,-0.529542 0.09753,-0.240737 0.08962,-0.66208 -0.0169,-0.901399 -0.09812,-0.220429 -0.323088,-0.445439 -0.505579,-0.505667 -0.234294,-0.07732 -0.553329,-0.0304 -0.759975,0.111773 -0.554722,0.381658 -0.541786,1.374525 0.02285,1.753628 0.158667,0.106533 0.224723,0.126774 0.413688,0.126774 0.123681,0 0.284066,-0.025 0.356411,-0.05557 z m -0.953066,-3.870901 c 0.433263,-0.01403 0.810628,-0.03966 0.838587,-0.05693 0.04093,-0.0253 0.03677,-0.0716 -0.02133,-0.237675 -0.198072,-0.566217 -0.471193,-1.167633 -0.59701,-1.314622 -0.245448,-0.28675 -0.975188,-0.570737 -1.807661,-0.703472 -0.32733,-0.05219 -1.622648,-0.05222 -2.312006,-3.9e-5 -0.650193,0.04921 -1.014382,0.137731 -1.485529,0.361087 -0.408755,0.193777 -0.568695,0.336481 -0.724382,0.646316 -0.168147,0.334632 -0.488612,1.209461 -0.455308,1.242934 0.01622,0.0163 0.287001,0.03933 0.601744,0.05119 0.860979,0.03243 5.064293,0.04034 5.962886,0.01119 z M 4.4148795,21.21211 C 4.1494382,21.16807 4.0142323,21.084349 3.7339019,20.790452 3.440084,20.482416 3.3490429,20.272705 3.3445801,19.893663 3.3295988,18.62182 4.7804918,17.983219 5.6782957,18.866489 c 0.2753989,0.270939 0.4236242,0.609254 0.4215984,0.962263 -0.00231,0.407612 -0.1202524,0.684991 -0.4175779,0.982316 -0.3474815,0.347481 -0.7749788,0.482751 -1.2674367,0.401042 z m 0.8409681,-0.348864 c 0.1989594,-0.09631 0.3850495,-0.299109 0.4966232,-0.541203 0.1177115,-0.255417 0.111706,-0.730748 -0.01249,-0.987714 -0.3228348,-0.668006 -1.306366,-0.825069 -1.837931,-0.293504 -0.3107096,0.31071 -0.4169869,0.857995 -0.2423256,1.247888 0.274125,0.611927 0.9880318,0.868904 1.5961157,0.574533 z M 27.167418,20.597492 c -0.403346,-0.104209 -0.77155,-0.407234 -0.943949,-0.776861 -0.09029,-0.193579 -0.103704,-0.272461 -0.104159,-0.612281 -4.43e-4,-0.33738 0.01236,-0.415274 0.09479,-0.576614 0.118807,-0.232547 0.491703,-0.592893 0.712984,-0.689003 0.534399,-0.232102 1.234606,-0.05661 1.606984,0.402742 0.256614,0.316558 0.314653,0.475565 0.314963,0.862875 2.96e-4,0.306412 -0.0137,0.379544 -0.109657,0.574946 -0.227874,0.464051 -0.707553,0.795099 -1.200665,0.82863 -0.137332,0.0093 -0.304412,0.0028 -0.371292,-0.01443 z m 0.67443,-0.296754 c 0.255624,-0.07591 0.54336,-0.329799 0.661643,-0.583805 0.128933,-0.276883 0.128512,-0.703598 -0.0011,-0.976672 -0.403084,-0.850136 -1.606073,-0.874063 -2.031975,-0.04041 -0.100814,0.197321 -0.117553,0.27279 -0.116544,0.525486 0.0033,0.821495 0.684584,1.313947 1.487834,1.075406 z M 4.0015826,14.019332 C 3.7766743,13.935873 3.4821471,13.698663 3.3323984,13.480378 2.9771134,12.962491 3.0082801,12.29807 3.4108896,11.807085 c 0.2943363,-0.358945 0.8496252,-0.581694 1.245167,-0.499488 0.4635458,0.09634 0.8283574,0.359085 1.0178887,0.733106 0.3669682,0.724178 0.09788,1.552537 -0.6181326,1.902849 -0.1882872,0.09212 -0.2879938,0.113851 -0.563484,0.122805 -0.2242094,0.0073 -0.3862289,-0.0082 -0.4907461,-0.04702 z m 0.9350769,-0.287021 c 0.2492371,-0.110247 0.4279646,-0.291902 0.5460163,-0.554953 0.096491,-0.215013 0.1061456,-0.274391 0.091129,-0.560499 -0.018242,-0.347565 -0.1090224,-0.558965 -0.3302573,-0.76907 -0.2997186,-0.284641 -0.9039526,-0.37933 -1.250632,-0.195984 -0.3853608,0.203802 -0.6275304,0.547277 -0.6631974,0.940626 -0.078371,0.864284 0.8082266,1.493191 1.6069414,1.13988 z M 26.657092,12.876962 C 26.264458,12.73754 26.006805,12.504451 25.829756,12.128502 25.744424,11.947304 25.72872,11.8594 25.72872,11.562894 c 0,-0.297808 0.0156,-0.384324 0.102795,-0.570289 0.13916,-0.296786 0.335341,-0.503745 0.627883,-0.662381 0.231699,-0.125641 0.264954,-0.13259 0.634585,-0.13259 0.369633,0 0.402888,0.0069 0.634587,0.13259 0.292542,0.158636 0.488723,0.365595 0.627882,0.662381 0.0872,0.185965 0.102795,0.272481 0.102795,0.570289 0,0.297808 -0.0156,0.384324 -0.102795,0.570289 -0.144579,0.308347 -0.350886,0.519835 -0.651453,0.667819 -0.325774,0.160396 -0.728012,0.189553 -1.047904,0.07596 z m 0.794682,-0.221679 c 0.598298,-0.177676 0.960892,-0.952534 0.706134,-1.508999 -0.135042,-0.29497 -0.307939,-0.476809 -0.585004,-0.61526 -0.562635,-0.281152 -1.213604,-0.04868 -1.500678,0.535913 -0.153584,0.312755 -0.154809,0.717482 -0.0031,1.007865 0.268319,0.513429 0.823494,0.746519 1.382603,0.580481 z M 8.0943667,8.0422988 C 7.707199,7.9034328 7.3807349,7.6012176 7.2089706,7.222668 7.0833488,6.9458112 7.0922245,6.489357 7.2290301,6.1908668 7.3627384,5.8991394 7.6445088,5.6021638 7.9115601,5.471508 8.3399743,5.2619047 8.9169437,5.3071691 9.3159381,5.5816852 9.9663222,6.0291611 10.074485,7.0406411 9.5359973,7.6395694 9.1836498,8.031465 8.5543199,8.2072729 8.0943655,8.0422993 Z M 8.847138,7.8177952 C 9.1071466,7.7405815 9.4070187,7.4706615 9.5441234,7.1904277 9.6387749,6.9969703 9.6470208,6.9462172 9.628266,6.6725942 9.5800946,5.9697681 9.1038912,5.5359165 8.4334595,5.5840457 7.9972728,5.6153575 7.6881863,5.8205881 7.4950107,6.207166 7.2393518,6.7187861 7.4016461,7.3286967 7.8820297,7.6616031 8.1922407,7.8765795 8.4880071,7.9244461 8.847138,7.8177952 Z M 22.363122,7.4057207 C 22.245029,7.3590038 22.06028,7.234574 21.930176,7.1141203 21.532948,6.746358 21.375753,6.2299738 21.514301,5.7479832 c 0.141424,-0.4919918 0.453968,-0.8145208 0.929178,-0.9588605 0.665184,-0.2020436 1.3406,0.087492 1.651868,0.7081166 0.149832,0.2987474 0.175481,0.781247 0.05805,1.0922079 -0.115856,0.3068049 -0.382062,0.5938744 -0.692396,0.7466517 -0.338944,0.1668611 -0.781168,0.1949044 -1.097887,0.069622 z M 23.211964,7.1869414 C 23.668389,7.0395319 23.966812,6.6097822 23.969668,6.0957933 23.971021,5.852201 23.953975,5.7831056 23.835777,5.5528612 23.673489,5.2367513 23.443925,5.0583815 23.110219,4.9891035 22.50168,4.8627722 21.948544,5.1827777 21.766893,5.7662574 c -0.128561,0.412944 -0.02948,0.8022524 0.287244,1.1286261 0.331631,0.3417374 0.709148,0.4369649 1.157827,0.2920579 z M 15.31777,5.3966869 C 14.648666,5.1823922 14.228474,4.5017544 14.358203,3.8423567 c 0.115117,-0.5850989 0.49636,-0.9722693 1.11644,-1.1337798 0.195583,-0.050942 0.251084,-0.050981 0.469628,-2.942e-4 0.491216,0.113921 0.803544,0.34798 1.014899,0.7605702 0.09993,0.1950771 0.109903,0.2516994 0.109903,0.6241188 0,0.3714733 -0.01,0.4285094 -0.107271,0.613063 -0.14661,0.2781181 -0.346884,0.467594 -0.638467,0.6040421 -0.307235,0.1437731 -0.716911,0.1790594 -1.005567,0.08661 z M 16.267743,5.0783416 C 16.66173,4.8774988 16.883926,4.4431546 16.844427,3.9510637 16.820652,3.6548934 16.698731,3.4273354 16.443406,3.2025885 16.138258,2.9339883 15.785387,2.8621853 15.37274,2.9847282 c -0.276234,0.082032 -0.620383,0.4168441 -0.715268,0.6958628 -0.224374,0.6597938 0.123689,1.3393162 0.773288,1.5096894 0.216901,0.056885 0.608553,0.0045 0.836983,-0.1119388 z"
       id="path143082" /></g></svg>
