<?xml version="1.0" encoding="UTF-8" standalone="no"?>
<!-- Created with Inkscape (http://www.inkscape.org/) -->

<svg
   width="120"
   height="120"
   viewBox="0 0 31.749998 31.750001"
   version="1.1"
   id="svg7932"
   inkscape:version="1.2.2 (b0a8486541, 2022-12-01)"
   sodipodi:docname="main-drawing.svg"
   xml:space="preserve"
   inkscape:export-filename="yellow/money-cog.svg"
   inkscape:export-xdpi="96"
   inkscape:export-ydpi="96"
   xmlns:inkscape="http://www.inkscape.org/namespaces/inkscape"
   xmlns:sodipodi="http://sodipodi.sourceforge.net/DTD/sodipodi-0.dtd"
   xmlns="http://www.w3.org/2000/svg"
   xmlns:svg="http://www.w3.org/2000/svg"><sodipodi:namedview
     id="namedview7934"
     pagecolor="#ffffff"
     bordercolor="#000000"
     borderopacity="0.25"
     inkscape:showpageshadow="2"
     inkscape:pageopacity="0.0"
     inkscape:pagecheckerboard="0"
     inkscape:deskcolor="#d1d1d1"
     inkscape:document-units="mm"
     showgrid="false"
     inkscape:zoom="1.4088798"
     inkscape:cx="247.00475"
     inkscape:cy="342.82555"
     inkscape:window-width="1920"
     inkscape:window-height="1016"
     inkscape:window-x="0"
     inkscape:window-y="0"
     inkscape:window-maximized="1"
     inkscape:current-layer="layer1" /><defs
     id="defs7929"><clipPath
       clipPathUnits="userSpaceOnUse"
       id="clipPath25044"><path
         id="path25046"
         style="opacity:1;vector-effect:none;fill:none;fill-rule:evenodd;stroke:#86c65e;stroke-width:0.273926;stop-color:#000000;stop-opacity:1"
         d="m 50.839087,57.832758 a 19.974438,19.765055 0 0 0 -9.500714,2.2903 c -0.0053,0.167132 -0.07852,0.384561 -0.257865,0.63097 -0.01011,0.01384 -0.0204,0.02803 -0.03049,0.04186 -0.07389,0.08906 -0.14945,0.175734 -0.238747,0.250114 -0.09307,0.08407 -0.183658,0.172476 -0.290936,0.238746 -0.15893,0.100021 -0.31614,0.202915 -0.476459,0.300758 -0.01185,0.0069 -0.02376,0.01281 -0.03565,0.01963 0.09424,-0.0097 0.1802,-0.01471 0.258381,-0.01498 0.817878,-0.0035 0.751489,0.467146 -0.281119,0.60823 -0.152247,0.0208 -0.302972,0.04953 -0.454753,0.07338 -0.116319,0.02262 -0.233262,0.04117 -0.348816,0.0677 -0.128839,0.03834 -0.260927,0.06127 -0.393258,0.0832 -0.182576,0.03422 -0.36507,0.06533 -0.550355,0.0801 -0.0606,0.0027 -0.03238,0.0019 -0.08578,0.0021 -0.01249,2.4e-5 -0.02447,-5.29e-4 -0.03669,-5.29e-4 -0.24978,0.128061 -0.497596,0.260128 -0.733803,0.411345 -0.0307,0.01966 -0.06002,0.04218 -0.08992,0.06305 -0.09153,0.06395 -0.177429,0.117581 -0.257349,0.161748 a 19.974438,19.765055 0 0 0 -6.29212,12.778549 19.974438,19.765055 0 0 0 18.196303,21.370788 19.974438,19.765055 0 0 0 0.180351,0.0088 c 0.06923,-0.0623 0.162896,-0.12668 0.282154,-0.190169 -0.0034,-0.02416 -0.0069,-0.04879 -0.0093,-0.06976 -0.01431,-0.1314 -0.01349,-0.263887 -0.0155,-0.39584 0.0013,-0.150842 0.0047,-0.301684 0.01394,-0.452171 -0.0013,-0.01638 -0.0019,-0.03275 -0.0031,-0.04909 l 5.29e-4,-5.3e-4 c -0.05278,-0.671285 -0.0027,-0.998468 0.117306,-1.009239 0.01802,-0.0016 0.03786,0.004 0.05891,0.01654 0.09839,-0.274272 0.222347,-0.410366 0.331247,-0.409276 0.073,7.94e-4 0.138824,0.06213 0.185518,0.182417 0.04633,0.03709 0.09414,0.08009 0.144177,0.136943 -0.03133,-0.244742 0.03328,-0.380312 0.15658,-0.380857 0.0061,-0.0019 0.01196,-0.0037 0.01963,-0.0036 0.03047,2.65e-4 0.07378,0.01794 0.125574,0.05116 h 5.29e-4 c 0.05403,0.03206 0.113046,0.08079 0.175184,0.146762 0.0071,-0.01514 0.02008,-0.02373 0.03824,-0.02429 0.0088,-2.65e-4 0.01894,0.0019 0.02997,0.0052 -0.01987,-0.07218 -0.01323,-0.120097 0.01447,-0.134358 0.01545,-0.130397 0.05512,-0.198437 0.09612,-0.198437 v 5.29e-4 5.29e-4 5.29e-4 c 0.03846,0 0.0763,0.05781 0.09353,0.172598 0.0364,0.03896 0.07563,0.112676 0.110069,0.221692 0.01326,0.0094 0.02791,0.02162 0.04238,0.03359 0.0056,-0.0044 0.01146,-0.0071 0.0181,-0.0078 0.0379,-0.0033 0.09091,0.05658 0.14056,0.183452 0.01003,0.01577 0.02035,0.03114 0.02945,0.04754 0.02201,0.03822 0.04418,0.07697 0.06408,0.116271 0.02069,0.03931 0.03781,0.08022 0.05581,0.120923 0.0186,0.03902 0.03982,0.07639 0.05529,0.116789 2.62e-4,5.29e-4 -5.8e-5,0.0013 5.29e-4,0.0021 0.0024,0.0034 0.0052,0.0065 0.0078,0.0098 0.0312,0.04353 0.05748,0.08999 0.08578,0.135393 0.0045,0.0079 0.01045,0.01497 0.015,0.02273 0.03299,0.02252 0.0656,0.04539 0.09767,0.06924 0.03578,0.0302 0.07834,0.05155 0.11834,0.07545 0.031,0.01611 0.05795,0.03791 0.08785,0.05581 0.02019,0.01209 0.03698,0.01979 0.05839,0.03049 0.01789,0.0083 0.03585,0.01672 0.05374,0.02479 0.04319,0.0072 0.08651,0.0136 0.129706,0.02119 0.07414,0.015 0.147577,0.03275 0.221176,0.05013 0.0084,0.0019 0.01691,0.0034 0.02532,0.0052 0.0681,-0.01527 0.136123,-0.03082 0.204639,-0.04444 0.06903,-0.01521 0.13824,-0.02886 0.20774,-0.04186 0.07107,-0.01669 0.143574,-0.02983 0.211873,-0.05633 0.06849,-0.0279 0.138854,-0.04586 0.211358,-0.06046 0.119856,-0.0271 0.238955,-0.06 0.359666,-0.0832 0.07647,-0.015 0.152744,-0.02764 0.229444,-0.04134 0.03872,-0.0068 0.07757,-0.01474 0.116271,-0.0217 0.01281,-0.0021 0.02535,-0.0026 0.03824,-0.0047 v -0.0011 c 0.0512,-0.0073 0.09617,-0.01061 0.134876,-0.01085 0.267542,-0.0019 0.234352,0.147029 -0.109037,0.214974 0.05925,-7.93e-4 0.104185,0.0073 0.134358,0.02016 0.06567,-0.01297 0.131511,-0.02506 0.196887,-0.03927 0.124738,-0.0249 0.250505,-0.04337 0.37569,-0.06614 0.0636,-0.01162 0.117948,-0.01648 0.162779,-0.01603 0.242081,0.0024 0.207807,0.157821 -0.135392,0.221692 -0.120597,0.02241 -0.241972,0.03946 -0.362252,0.06356 -0.117179,0.02551 -0.234722,0.05059 -0.352949,0.0708 -0.06397,0.0109 -0.128238,0.0205 -0.192238,0.03101 -0.117012,0.01805 -0.232767,0.04208 -0.348298,0.0677 0.08681,0.06833 0.02961,0.144319 -0.153479,0.135392 0.01299,0.007 0.0227,0.01415 0.03307,0.02119 0.246298,0.01273 0.492289,0.03001 0.737939,0.05168 0.0258,0.003 0.05173,0.0053 0.07751,0.0083 0.594129,0.06177 0.919247,0.22538 0.987536,0.380339 A 19.974438,19.765055 0 0 0 70.545934,79.295573 l 0.0036,-0.04082 A 19.974438,19.765055 0 0 0 52.331033,57.902563 19.974438,19.765055 0 0 0 50.839651,57.832801 Z M 49.56061,69.333865 c 0.511694,0.0069 0.69796,0.433443 0.426331,1.156002 0.12496,0.06071 0.249833,0.121383 0.374655,0.182419 0.527733,-0.133712 0.919417,-0.119218 1.156002,0.0072 0.09505,-0.166307 0.248243,-0.249854 0.447,-0.24288 0.565187,0.01984 1.497148,0.770811 2.497005,2.427758 0.07146,0.118433 0.138319,0.239385 0.203605,0.36122 0.199869,-0.500292 0.463661,-0.750345 0.732256,-0.750342 0.283996,0 0.573315,0.280934 0.799433,0.840258 0.300802,-0.101809 0.560615,-0.151527 0.772565,-0.152445 0.945031,-0.0041 0.959575,0.930992 -0.374139,2.234489 0.01021,0.1662 0.01855,0.336888 0.02222,0.517281 0.01299,0.638807 -0.105622,1.27064 -0.221692,1.89601 -0.09364,0.407506 -0.18465,0.8188 -0.330213,1.21181 -0.05648,0.152508 -0.09373,0.227626 -0.159679,0.371554 -0.04389,0.08298 -0.09004,0.164695 -0.136943,0.245981 -0.195252,0.819867 -0.505465,1.274058 -0.828892,1.362188 -0.06253,0.07574 -0.130673,0.149429 -0.20102,0.223761 2.34931,0.649214 1.589024,2.126353 -2.158526,2.013313 -0.06109,-0.0019 -0.121815,-0.0051 -0.182933,-0.0052 -0.03273,-1.6e-5 -0.06549,0.0011 -0.09819,0.0016 -0.0342,0.107151 -0.06922,0.20842 -0.10542,0.303342 0.563623,0.73292 0.335388,1.070642 -0.568442,0.947229 -0.29292,0.256419 -0.587652,0.196602 -0.815969,-0.182419 -0.213037,-0.06243 -0.45112,-0.143537 -0.701768,-0.234612 -0.317524,0.247685 -0.656309,0.126754 -0.917257,-0.363286 -0.14487,-0.06171 -0.289764,-0.123642 -0.443381,-0.192751 -0.05927,-0.02666 -0.118205,-0.05407 -0.177252,-0.08113 -0.03171,0.0019 -0.06334,0.0043 -0.09508,0.0047 -0.07053,5.29e-4 -0.14089,-0.0034 -0.211357,-0.0057 -0.574064,0.972129 -1.194983,1.035606 -1.487765,0.274402 -0.377166,1.587786 -1.615276,0.803341 -2.292885,-2.479434 -0.09356,-0.453266 -0.263331,-0.886042 -0.410826,-1.323433 -0.220364,-0.640482 -0.346364,-1.306367 -0.453202,-1.973524 -0.0092,-0.06782 -0.01818,-0.135784 -0.02739,-0.203605 -0.05533,-0.409292 -0.08673,-0.783339 -0.09819,-1.123445 -0.221769,-0.186004 -0.122854,-0.600173 0.02894,-0.976169 0.102986,-0.966478 0.427519,-1.463133 0.809768,-1.466578 0.0013,-8e-6 0.0028,0 0.0041,0 0.0741,-0.104362 0.149035,-0.207338 0.235644,-0.325043 0.07652,-0.103997 0.532987,-0.713187 0.593246,-0.791168 0.09082,-0.117525 0.184861,-0.232201 0.277503,-0.348297 0.382143,-0.491281 0.756491,-0.990497 1.182872,-1.444874 -1.343443,-1.013047 -1.306988,-1.849308 -0.134358,-1.862934 0.454464,-0.0053 1.079791,0.112911 1.860868,0.392224 0.496594,-0.308716 0.908685,-0.44949 1.208712,-0.445453 z m -1.874819,5.613612 c -0.0869,0.07277 -0.174442,0.144653 -0.260451,0.218591 -0.553005,0.452998 -1.107627,0.905647 -1.620572,1.404048 0.18243,0.148127 0.369932,0.348769 0.556037,0.603065 0.244359,-0.435438 0.497914,-0.865825 0.75706,-1.292429 0.18985,-0.310017 0.375259,-0.624062 0.567926,-0.933275 z m 5.994466,2.889747 c -0.0011,0.0013 -0.0024,0.0027 -0.0036,0.0041 -0.07127,0.09486 -0.145759,0.187626 -0.213939,0.284736 -0.157141,0.223804 -0.297365,0.458021 -0.428398,0.697633 -0.01733,0.299122 -0.04654,0.597468 -0.09664,0.894003 -0.0043,0.02603 -0.009,0.05201 -0.01344,0.07803 0.04603,-0.04527 0.09114,-0.0918 0.134877,-0.139528 0.03052,-0.03134 0.05734,-0.06697 0.0925,-0.09302 0.0011,-7.94e-4 1.32e-4,0.0019 0,0.0036 0.0222,-0.04345 0.0338,-0.06413 0.08785,-0.161745 0.152366,-0.27467 0.314159,-0.543891 0.478007,-0.811837 -0.02053,-0.23403 -0.03163,-0.489022 -0.03721,-0.756026 z m -4.220932,19.018475 c -0.0414,-0.0078 -0.06197,0.06189 -0.05168,0.2496 0.0593,-0.03132 0.124987,-0.06207 0.196887,-0.0925 -0.05764,-0.08658 -0.109231,-0.150315 -0.145211,-0.157099 z" /></clipPath></defs><g
     inkscape:label="Layer 1"
     inkscape:groupmode="layer"
     id="layer1"><g
       id="g48605"
       transform="matrix(1.209325,0,0,1.2044468,-0.02809595,-0.04865907)"
       style="fill:#ffffff"><path
         style="fill:#ffffff;stroke-width:0.0838549"
         d="m 10.836151,20.711787 c -0.363941,-0.197503 -0.414386,-0.371707 -0.300298,-1.037018 0.122527,-0.714523 0.05036,-0.974587 -0.344229,-1.240502 -0.49292,-0.332179 -0.748601,-0.272364 -1.601915,0.374752 -0.197652,0.149891 -0.429066,0.272529 -0.514253,0.272529 -0.08519,0 -0.305935,-0.136462 -0.490548,-0.30325 -0.458078,-0.413846 -0.444375,-0.623919 0.08361,-1.281805 0.24933,-0.31067 0.419274,-0.6065 0.419274,-0.729849 0,-0.277615 -0.29645,-0.844825 -0.49789,-0.952633 -0.200767,-0.107448 -0.69434,-0.108429 -1.13728,-0.0023 C 5.980524,15.924867 5.700845,15.793881 5.536253,15.382523 5.27756,14.735985 5.4106,14.514697 6.239754,14.212373 c 0.641576,-0.233931 0.84178,-0.471932 0.84178,-1.000706 0,-0.548288 -0.204618,-0.781347 -0.884692,-1.007661 -0.644703,-0.214544 -0.838847,-0.437519 -0.757676,-0.870197 0.02944,-0.156945 0.13393,-0.387563 0.232193,-0.512485 0.178363,-0.226752 0.179968,-0.227031 0.964618,-0.168204 0.906519,0.06797 1.081656,9.88e-4 1.322039,-0.505583 C 8.157841,9.7264377 8.08326,9.4404076 7.62787,8.8813686 7.14025,8.2827642 7.132299,8.053977 7.58491,7.645075 7.769523,7.4782877 7.993432,7.3418254 8.082485,7.3418254 c 0.08905,0 0.397006,0.1886735 0.68434,0.4192744 0.609191,0.488908 0.95543,0.5443156 1.424801,0.2280068 0.394591,-0.2659149 0.466756,-0.525979 0.344229,-1.2405022 -0.119151,-0.6948374 -0.0573,-0.8725434 0.365137,-1.0490481 0.443071,-0.1851266 0.754372,-0.1517638 0.954189,0.1022624 0.09559,0.1215202 0.173796,0.2560299 0.173796,0.2989106 0,0.042881 0.08091,0.2660442 0.179799,0.4959189 0.265693,0.6176207 0.833294,0.8355468 1.405519,0.5396381 0.20807,-0.1075972 0.594909,-0.7809669 0.594909,-1.035557 0,-0.042881 0.07821,-0.1773904 0.173796,-0.2989106 0.203299,-0.2584534 0.610322,-0.2967629 1.001851,-0.094296 0.38068,0.1968577 0.432886,0.3680535 0.317474,1.0410812 -0.122527,0.7145232 -0.05036,0.9745873 0.34423,1.2405022 0.469371,0.3163088 0.815609,0.2609012 1.424801,-0.2280068 0.287333,-0.2306009 0.595286,-0.4192744 0.684339,-0.4192744 0.08905,0 0.312962,0.1364623 0.497576,0.3032496 0.436487,0.3943399 0.439015,0.634113 0.01238,1.1742207 -0.177805,0.2250954 -0.369932,0.4981409 -0.42695,0.6067676 -0.147468,0.2809451 -0.04302,0.7078212 0.24993,1.0214212 l 0.249047,0.266605 0.825895,-0.05911 0.825896,-0.05911 0.178004,0.226295 c 0.0979,0.124462 0.202094,0.354705 0.231537,0.51165 0.08117,0.432678 -0.112973,0.655653 -0.757676,0.870197 -0.680075,0.226314 -0.884692,0.459372 -0.884692,1.007661 0,0.534389 0.199554,0.76777 0.855654,1.000693 0.806935,0.286474 0.947664,0.525264 0.689627,1.170163 -0.164592,0.411355 -0.444271,0.542344 -0.91637,0.429188 -0.18448,-0.04422 -0.49952,-0.0813 -0.700087,-0.0824 -0.299184,-0.0016 -0.407245,0.04358 -0.601783,0.251832 -0.263527,0.282107 -0.376065,0.649851 -0.287423,0.939214 0.03211,0.104808 0.223592,0.393 0.425523,0.64043 0.47472,0.58168 0.480669,0.811661 0.03149,1.217469 -0.184614,0.166788 -0.40536,0.303249 -0.490548,0.303249 -0.08519,0 -0.316601,-0.122637 -0.514253,-0.272528 -0.853314,-0.647116 -1.108995,-0.706931 -1.601915,-0.374752 -0.394591,0.265915 -0.466757,0.525978 -0.34423,1.240501 0.115412,0.673028 0.06321,0.844223 -0.317474,1.041081 -0.391529,0.202467 -0.798552,0.164158 -1.001851,-0.0943 -0.09559,-0.12152 -0.174165,-0.263025 -0.174615,-0.314456 -4.2e-4,-0.05143 -0.09114,-0.287486 -0.201526,-0.524568 -0.163428,-0.350992 -0.257743,-0.449881 -0.507776,-0.532399 -0.372416,-0.122908 -0.792514,-0.05582 -1.028767,0.164279 -0.09627,0.08968 -0.256696,0.381658 -0.356512,0.648831 -0.09982,0.267173 -0.241053,0.551804 -0.313861,0.632514 -0.162681,0.180338 -0.646204,0.188381 -0.96379,0.01603 z m 3.495349,-3.01646 c 2.244355,-0.58458 3.744327,-2.843632 3.408555,-5.133496 -0.267948,-1.82732 -1.643592,-3.35749 -3.4508,-3.8384287 -0.58693,-0.1561949 -1.753403,-0.1561949 -2.340333,0 -2.509084,0.6677236 -4.048226,3.3413427 -3.318801,5.7650377 0.458396,1.523132 1.753087,2.802715 3.240563,3.202748 0.602789,0.16211 1.846293,0.164202 2.460816,0.0041 z m -1.715541,-0.496715 v -0.457401 l -0.314456,-0.05279 c -0.837998,-0.140677 -1.376856,-0.40154 -1.890532,-0.915216 -0.341737,-0.341738 -0.73356,-1.076437 -0.629546,-1.18045 0.02241,-0.02241 0.358036,-0.07771 0.745837,-0.122882 0.3878,-0.04518 0.843272,-0.101383 1.012159,-0.124906 0.294309,-0.04099 0.314514,-0.02738 0.486284,0.327443 0.09857,0.203616 0.273087,0.431718 0.387819,0.506893 l 0.208604,0.136682 -0.02405,-0.812157 -0.02405,-0.812157 -0.438183,-0.111956 c -1.026824,-0.262354 -1.820512,-0.848531 -2.036968,-1.504402 -0.194924,-0.590625 0.04839,-1.502756 0.517615,-1.940428 0.292902,-0.2732057 1.089811,-0.6122738 1.573721,-0.6695858 0.400791,-0.047468 0.425746,-0.064484 0.425746,-0.2903077 0,-0.2319581 0.01385,-0.2398844 0.419275,-0.2398844 0.40426,0 0.419274,0.00849 0.419274,0.2370701 0,0.2260487 0.02584,0.241832 0.555891,0.3394971 0.699027,0.1288009 1.302346,0.4309214 1.567309,0.7848527 0.253521,0.338648 0.501957,0.821104 0.449717,0.873343 -0.04629,0.04629 -1.527942,0.277216 -1.792518,0.27938 -0.11401,9.32e-4 -0.237265,-0.08878 -0.324224,-0.23599 -0.07716,-0.130622 -0.211365,-0.28188 -0.298234,-0.33613 -0.149655,-0.09346 -0.157941,-0.06406 -0.157941,0.560467 v 0.659104 l 0.54135,0.146537 c 1.123095,0.304007 1.866822,0.784403 2.111818,1.364085 0.31502,0.745367 0.02199,1.921053 -0.60887,2.442912 -0.320061,0.264759 -1.205137,0.599521 -1.585071,0.599521 -0.396303,0 -0.459227,0.07591 -0.459227,0.554029 v 0.45223 h -0.419274 -0.419275 z m 1.239758,-1.975232 c 0.596592,-0.363739 0.46706,-1.016119 -0.254463,-1.28158 -0.132863,-0.04888 -0.146746,0.01716 -0.146746,0.69807 0,0.413635 0.0283,0.751922 0.06289,0.751749 0.03459,-1.67e-4 0.186833,-0.07588 0.338318,-0.168239 z m -1.239758,-3.898409 c 0,-0.299781 -0.02934,-0.545056 -0.0652,-0.545056 -0.193049,0 -0.437933,0.282173 -0.437933,0.504617 0,0.225322 0.267648,0.585496 0.435086,0.585496 0.03742,0 0.06804,-0.245275 0.06804,-0.545057 z"
         id="path48037" /><path
         style="fill:#ffffff;stroke-width:0.284813"
         d="m 48.558143,127.30649 c -0.0889,-0.14114 -0.0748,-0.49025 0.0317,-0.77575 0.1845,-0.49492 0.16686,-0.49626 -0.37677,-0.0293 -0.68651,0.58956 -1.48378,0.12343 -0.92322,-0.53954 0.24553,-0.28988 0.17956,-0.37342 -0.29422,-0.37342 -0.41874,0 -0.6103,-0.1772 -0.6103,-0.56416 0,-0.3103 0.16157,-0.56804 0.35948,-0.57277 0.19932,-0.005 0.13546,-0.13653 -0.14394,-0.29612 -0.71225,-0.40707 -0.63076,-1.10575 0.12947,-1.10575 0.49213,0 0.55598,-0.0753 0.28752,-0.33852 -0.59937,-0.58791 -0.4131,-1.15045 0.33443,-1.01025 0.5334,0.0999 0.65193,0.0226 0.55033,-0.35843 -0.19261,-0.7222 0.51294,-1.01134 0.9705,-0.39768 0.36865,0.49452 0.3877,0.48969 0.3877,-0.0979 0,-0.43004 0.17498,-0.61811 0.57503,-0.61811 0.4004,0 0.57538,0.18807 0.57538,0.61811 0,0.58762 0.0176,0.59245 0.3877,0.0979 0.46073,-0.61828 1.1624,-0.32219 0.96767,0.40841 -0.097,0.36396 0.004,0.46189 0.37394,0.36671 0.66005,-0.16937 1.00436,0.39458 0.56057,0.91895 -0.28575,0.33772 -0.23883,0.41081 0.26282,0.41081 0.72178,0 0.81527,0.7058 0.14217,1.0753 -0.32033,0.17576 -0.36583,0.3193 -0.14394,0.45378 0.57962,0.35137 0.38136,1.09005 -0.24906,0.92834 -0.48577,-0.12457 -0.54716,-0.043 -0.4004,0.53128 0.19403,0.75755 -0.36089,0.93585 -1.01353,0.32586 -0.30798,-0.28769 -0.34149,-0.23548 -0.18168,0.28349 0.23389,0.75872 -0.59373,1.23705 -1.04493,0.60389 -0.2159,-0.30318 -0.31397,-0.31263 -0.42615,-0.0411 -0.16969,0.40979 -0.85267,0.47004 -1.08832,0.096 z m 2.64371,-2.06918 c 0.50694,-0.39758 0.44732,-2.06121 -0.0924,-2.59062 -1.03117,-1.01173 -2.99861,-0.19879 -2.99861,1.23906 0,1.66994 1.72473,2.42404 3.09104,1.35156 z m -10.3759,-6.60707 c -0.10548,-0.10343 -0.19191,-0.47794 -0.19191,-0.83224 0,-0.97585 -0.8696,-1.32478 -1.60866,-0.64554 -0.83327,0.76552 -1.6182,0.45653 -1.2506,-0.4922 0.14922,-0.38477 0.27128,-0.80973 0.27128,-0.94431 0,-0.41424 -1.09713,-0.61246 -1.68416,-0.30428 -0.90981,0.47752 -1.33385,-0.28888 -0.63923,-1.15506 0.72531,-0.90463 0.35701,-1.53158 -0.82832,-1.40966 -0.72496,0.0746 -0.87419,-0.0109 -0.87419,-0.50151 0,-0.34915 0.28046,-0.71678 0.68404,-0.89726 0.85337,-0.38146 0.69215,-1.30436 -0.2921,-1.67142 -0.9338,-0.34837 -0.85337,-1.00905 0.14676,-1.20534 1.11477,-0.21869 1.40017,-1.01731 0.58067,-1.62377 -0.86607,-0.64075 -0.55351,-1.47143 0.45967,-1.22198 0.41698,0.10262 0.90875,0.0332 1.14899,-0.16249 0.36478,-0.29711 0.36654,-0.4438 0.0106,-1.11792 -0.53234,-1.01018 -0.0353,-1.66247 0.74401,-0.97233 0.67134,0.59606 1.52788,0.39497 1.64148,-0.38534 0.10407,-0.7171 -0.73378,-1.20961 -1.09185,-0.64153 -0.1651,0.26229 -0.27517,0.26934 -0.42792,0.0275 -0.15487,-0.24628 -0.30339,-0.24589 -0.60748,0.004 -0.31433,0.25573 -0.44203,0.22624 -0.58314,-0.13455 -0.14958,-0.38198 -0.25824,-0.39969 -0.6283,-0.1023 -0.38594,0.31016 -0.42475,0.27287 -0.28222,-0.26998 0.14217,-0.54145 0.0914,-0.59094 -0.36266,-0.35264 -0.7373,0.38707 -0.81985,0.35327 -0.65405,-0.26786 0.11924,-0.44747 0.0318,-0.51584 -0.49107,-0.38185 -0.57326,0.14704 -0.60395,0.10386 -0.30938,-0.43593 0.2727,-0.49957 0.254,-0.571715 -0.11113,-0.4342 -0.30691,0.1155 -0.43815,-0.013 -0.43815,-0.429505 0,-0.32692 -0.14499,-0.59436 -0.32243,-0.59436 -0.23531,0 -0.23707,-0.10132 -0.007,-0.37345 0.22295,-0.26378 0.22613,-0.46151 0.0106,-0.67339 -0.21167,-0.20746 -0.21343,-0.35605 -0.007,-0.48189 0.16474,-0.10005 0.22683,-0.36827 0.13793,-0.59602 -0.0892,-0.22775 -0.0176,-0.41409 0.15628,-0.41409 0.17498,0 0.31821,-0.25389 0.31821,-0.5642 0,-0.31025 0.12947,-0.56414 0.28786,-0.56414 0.15805,0 0.28752,-0.20398 0.28752,-0.45332 0,-0.287059 0.15804,-0.393769 0.43109,-0.290939 0.27094,0.101989 0.43145,-0.004 0.43145,-0.28208 0,-0.27566 0.16087,-0.38389 0.42369,-0.28497 0.23318,0.0877 0.53869,-0.0419 0.67909,-0.28812 0.1838,-0.32208 0.31433,-0.3545 0.46461,-0.11564 0.15275,0.24247 0.31186,0.24853 0.58949,0.0226 0.27588,-0.22461 0.43357,-0.22461 0.57503,0 0.14005,0.22207 0.30939,0.21622 0.60078,-0.0208 0.32244,-0.26271 0.4057,-0.23046 0.4057,0.15752 0,0.32311 0.14922,0.43162 0.44203,0.32138 0.24694,-0.0929 0.51152,0.0106 0.59901,0.2341 0.0903,0.23061 0.35102,0.32752 0.61419,0.22836 0.33972,-0.12788 0.40993,-0.0507 0.2727,0.299929 -0.12101,0.30931 -0.0388,0.47209 0.23777,0.47209 0.23213,0 0.42227,0.25389 0.42227,0.56418 0,0.3103 0.13723,0.56416 0.30445,0.56416 0.16757,0 0.22119,0.1325 0.11924,0.29447 -0.10195,0.16196 -0.0388,0.46799 0.14076,0.68012 0.21343,0.2522 0.22613,0.44626 0.0374,0.56084 -0.15911,0.0964 -0.22119,0.34869 -0.13829,0.56078 0.0829,0.21205 0.0176,0.46595 -0.14393,0.56416 -0.16193,0.0982 -0.22155,0.36495 -0.13265,0.59274 0.0893,0.227755 0.0176,0.414095 -0.15628,0.414095 -0.17498,0 -0.31821,0.19039 -0.31821,0.42312 0,0.23273 -0.19402,0.42316 -0.43144,0.42316 -0.50483,0 -0.54963,0.38449 -0.13371,1.14688 0.1644,0.30081 0.59973,0.54564 0.9705,0.54564 0.51787,0 0.71296,-0.1953 0.8456,-0.84628 0.22049,-1.08165 0.92675,-1.09576 1.14547,-0.0229 0.22084,1.08394 1.03258,1.24163 1.79741,0.34925 0.71931,-0.83908 1.35114,-0.60145 1.0922,0.41063 -0.27341,1.06815 0.58702,1.58681 1.64465,0.99142 0.96978,-0.54593 1.32609,-0.2789 0.88794,0.66488 -0.50835,1.09474 -0.14429,1.64416 0.97225,1.46643 1.14547,-0.18239 1.49084,0.3737 0.6791,1.09414 -0.72813,0.64671 -0.70802,1.42939 0.0423,1.62186 0.43886,0.11257 0.55351,0.0464 0.43145,-0.2492 -0.0917,-0.2214 -0.23848,-0.57591 -0.32632,-0.78782 -0.1009,-0.24321 0.2854,-0.64312 1.0474,-1.08469 l 1.20755,-0.69945 -1.33526,-0.32982 c -1.31621,-0.32508 -1.53247,-0.61746 -1.16064,-1.56802 0.12418,-0.31718 0.55598,-0.4462 1.49437,-0.4462 h 1.31939 l -0.91899,-0.93024 c -1.05269,-1.06546 -1.09255,-1.23501 -0.45367,-1.92765 0.44661,-0.484055 0.51082,-0.481865 1.5815,0.054 0.61419,0.3072 1.11619,0.5085 1.11619,0.44725 0,-0.0612 -0.18274,-0.61951 -0.40605,-1.240685 -0.39617,-1.10127 -0.38805,-1.13887 0.32279,-1.51208 0.68051,-0.35729 0.780348,-0.32212 1.505306,0.52973 0.427214,0.50183 0.856545,0.91243 0.953911,0.91243 0.09772,0 0.217664,-0.47604 0.2667,-1.05784 0.08079,-0.95635 0.175684,-1.06606 0.988837,-1.14367 0.868186,-0.0828 0.906638,-0.0397 1.101372,1.2343 l 0.201789,1.32013 0.741891,-1.02274 c 0.800453,-1.10363 1.129242,-1.21885 1.900061,-0.66594 0.456848,0.3277 0.462492,0.45427 0.06773,1.55152 -0.236361,0.657085 -0.365478,1.194725 -0.287161,1.194725 0.07832,0 0.642408,-0.25027 1.253419,-0.55609 l 1.11125,-0.556085 0.491419,0.735655 c 0.483306,0.72333 0.47625,0.74711 -0.403577,1.42278 -0.492478,0.37793 -0.894998,0.8049 -0.894998,0.9488 0,0.14391 0.582084,0.26166 1.293989,0.26166 1.242131,0 1.293989,0.0335 1.293989,0.83538 0,0.74345 -0.134761,0.87143 -1.222375,1.16255 -1.083028,0.28994 -1.160992,0.36332 -0.684742,0.64558 1.550812,0.91895 1.757539,1.20735 1.406878,1.96197 -0.3048,0.65624 -0.422275,0.69804 -1.281641,0.45625 -1.609725,-0.45286 -1.744134,-0.34491 -0.967317,0.77682 0.672394,0.97049 0.690033,1.0783 0.253647,1.55148 -0.576086,0.6242 -1.056216,0.64597 -1.543403,0.0699 -0.204258,-0.24119 -0.583494,-0.55001 -0.842786,-0.68625 -0.407105,-0.21372 -0.469547,-0.0665 -0.455083,1.07325 0.01411,1.22852 -0.03704,1.32708 -0.75565,1.40847 -0.665339,0.0754 -0.845961,-0.078 -1.303161,-1.10698 l -0.530931,-1.19451 -0.401108,1.19165 c -0.367242,1.09146 -0.475192,1.18456 -1.284464,1.10701 -0.86995,-0.0833 -0.882297,-0.10664 -0.78493,-1.45937 l 0.09913,-1.37467 -0.988831,0.73999 c -1.15923,0.86741 -1.29858,0.88738 -1.97803,0.28406 -0.49107,-0.43589 -0.48295,-0.50024 0.18521,-1.46495 0.38453,-0.55495 0.65864,-1.04888 0.60889,-1.09756 -0.0497,-0.0487 -0.48365,-0.0113 -0.96449,0.083 -0.68263,0.13399 -0.84243,0.28932 -0.73025,0.71015 0.10865,0.40784 -0.0744,0.61312 -0.75353,0.84536 -1.11478,0.38117 -1.1998,1.25677 -0.16687,1.71838 1.03364,0.46192 0.79728,1.21384 -0.38029,1.21017 -1.12995,-0.004 -1.50919,0.76517 -0.77223,1.56411 0.74012,0.80221 0.3623,1.47154 -0.62336,1.10398 -1.20368,-0.44891 -1.6376,-0.14873 -1.42099,0.98294 0.22895,1.19825 -0.23001,1.54037 -1.07703,0.80286 -0.87524,-0.76179 -1.57903,-0.52353 -1.68734,0.57128 -0.11183,1.12974 -0.86995,1.32902 -1.32538,0.34844 -0.4251,-0.91524 -1.30775,-0.92085 -1.73038,-0.0109 -0.32773,0.70538 -0.65052,0.87062 -1.01106,0.51717 z m 0.86254,-3.103 c -0.10548,-0.10343 -0.27798,-0.10343 -0.38346,0 -0.10549,0.10344 -0.0176,0.18807 0.19191,0.18807 0.2106,0 0.29704,-0.0846 0.19155,-0.18807 z m 2.58798,0 c -0.10548,-0.10343 -0.27799,-0.10343 -0.38347,0 -0.10513,0.10344 -0.0176,0.18807 0.19191,0.18807 0.21096,0 0.29704,-0.0846 0.19156,-0.18807 z m -3.64243,-0.23509 c 0,-0.0776 -0.0646,-0.14104 -0.14358,-0.14104 -0.0794,0 -0.14393,0.0635 -0.14393,0.14104 0,0.0776 0.0646,0.14108 0.14393,0.14108 0.079,0 0.14358,-0.0635 0.14358,-0.14108 z m 4.50533,-0.047 c -0.10548,-0.10343 -0.27799,-0.10343 -0.38347,0 -0.10548,0.10344 -0.0176,0.18807 0.19156,0.18807 0.21096,0 0.29739,-0.0846 0.19191,-0.18807 z m -5.08036,-0.23509 c 0,-0.0776 -0.0646,-0.14104 -0.14393,-0.14104 -0.079,0 -0.14358,0.0635 -0.14358,0.14104 0,0.0776 0.0646,0.14104 0.14358,0.14104 0.0794,0 0.14393,-0.0635 0.14393,-0.14104 z m 4.15079,-0.13405 c 1.0354,-0.38619 0.93556,-1.201 -0.31362,-2.55754 l -1.05163,-1.14169 -0.98496,0.92932 c -0.54186,0.51114 -1.12113,1.17472 -1.28728,1.47461 -0.64241,1.15888 1.73425,2.00516 3.63749,1.2953 z m 1.74413,-0.007 c 0.0977,-0.15515 0.11324,-0.28208 0.0353,-0.28208 -0.079,0 -0.22366,0.12693 -0.32138,0.28208 -0.0977,0.15515 -0.11324,0.28208 -0.0353,0.28208 0.079,0 0.22366,-0.12693 0.32138,-0.28208 z m -6.75746,-0.37394 c 0,-0.0506 -0.35595,-0.39963 -0.79093,-0.77576 l -0.79092,-0.6839 0.69709,0.77576 c 0.65158,0.72507 0.88476,0.90512 0.88476,0.6839 z m 7.90787,-0.47234 c 0.0977,-0.15515 0.11289,-0.28208 0.0353,-0.28208 -0.079,0 -0.22402,0.12693 -0.32173,0.28208 -0.0977,0.15515 -0.11289,0.28212 -0.0353,0.28212 0.0794,0 0.22401,-0.12697 0.32173,-0.28212 z m -7.19526,-1.12169 c 0.28293,-0.30663 0.61172,-0.49844 0.73096,-0.42626 0.11889,0.0722 0.39299,-0.0895 0.60854,-0.35927 0.3549,-0.4439 0.34431,-0.45374 -0.11112,-0.1034 -0.61454,0.47269 -0.63571,0.25929 -0.0797,-0.7959 0.34819,-0.65998 0.3563,-0.8588 0.0473,-1.11058 -0.6156,-0.50109 -2.74814,-1.15161 -3.20781,-0.97854 -1.08903,0.41004 0.10195,4.29624 1.32644,4.32714 0.0942,0.004 0.40252,-0.24655 0.68545,-0.55319 z m 7.31767,-0.32201 c 0.80292,-1.29526 1.02235,-2.77273 0.48966,-3.29537 -0.38912,-0.38185 -0.56797,-0.37726 -1.67429,0.0428 -2.11384,0.80272 -2.15088,0.84978 -1.58714,2.00929 0.61207,1.25952 0.62794,1.5501 0.0455,0.83678 -0.42863,-0.52454 -0.43392,-0.52055 -0.12947,0.095 0.17462,0.35345 0.42615,0.577 0.55844,0.49678 0.1323,-0.0802 0.40041,0.0432 0.59585,0.27418 0.55104,0.65119 1.1056,0.50137 1.70144,-0.45949 z m 0.59655,0.45638 c 0,-0.0776 -0.0649,-0.14104 -0.14393,-0.14104 -0.079,0 -0.14394,0.0635 -0.14394,0.14104 0,0.0776 0.0649,0.14104 0.14394,0.14104 0.079,0 0.14393,-0.0635 0.14393,-0.14104 z m -10.06475,-0.28208 c 0,-0.0776 -0.0649,-0.14104 -0.14393,-0.14104 -0.079,0 -0.14358,0.0635 -0.14358,0.14104 0,0.0776 0.0646,0.14104 0.14358,0.14104 0.079,0 0.14393,-0.0635 0.14393,-0.14104 z m -0.28751,-0.56416 c 0,-0.0776 -0.0649,-0.14108 -0.14394,-0.14108 -0.079,0 -0.14358,0.0635 -0.14358,0.14108 0,0.0775 0.0646,0.14104 0.14358,0.14104 0.079,0 0.14394,-0.0635 0.14394,-0.14104 z m 10.92729,-0.28212 c 0,-0.0776 -0.0649,-0.14104 -0.14394,-0.14104 -0.079,0 -0.14358,0.0635 -0.14358,0.14104 0,0.0776 0.0646,0.14104 0.14358,0.14104 0.079,0 0.14394,-0.0635 0.14394,-0.14104 z m -11.31076,-0.61118 c -0.10548,-0.10344 -0.19191,-0.0187 -0.19191,0.18806 0,0.20687 0.0864,0.2915 0.19191,0.18807 0.10548,-0.10344 0.10548,-0.2727 0,-0.37613 z m 11.50725,-0.7111 c -0.0921,-0.22503 -0.16016,-0.15818 -0.17391,0.17043 -0.0106,0.29736 0.0554,0.46397 0.15098,0.37024 0.0956,-0.0937 0.10584,-0.33704 0.0212,-0.54067 z m -4.93112,-0.26066 c 0.25682,-0.79351 -0.4632,-1.4998 -1.27212,-1.24792 -0.58843,0.18313 -0.85055,1.22862 -0.41557,1.65548 0.43533,0.42686 1.50107,0.16947 1.68769,-0.40756 z m -6.76804,-0.39169 c 0,-0.0776 -0.0646,-0.14104 -0.14358,-0.14104 -0.079,0 -0.14394,0.0635 -0.14394,0.14104 0,0.0776 0.0649,0.14104 0.14394,0.14104 0.079,0 0.14358,-0.0635 0.14358,-0.14104 z m 4.0259,-0.56417 c 0,-0.0776 -0.0646,-0.14104 -0.14358,-0.14104 -0.079,0 -0.14394,0.0635 -0.14394,0.14104 0,0.0776 0.0649,0.14104 0.14394,0.14104 0.079,0 0.14358,-0.0635 0.14358,-0.14104 z m 7.67326,-0.47603 c -0.0921,-0.22504 -0.16016,-0.15819 -0.17391,0.17042 -0.0106,0.29736 0.0554,0.46398 0.15098,0.37024 0.0956,-0.0937 0.10584,-0.33704 0.0212,-0.54066 z m -8.34425,0.14693 c -0.10548,-0.10344 -0.27799,-0.10344 -0.38347,0 -0.10512,0.10343 -0.0176,0.18806 0.19191,0.18806 0.21097,0 0.29704,-0.0846 0.19156,-0.18806 z m 5.48182,0.0176 c -0.0956,-0.0937 -0.34361,-0.10379 -0.55104,-0.0222 -0.22966,0.09 -0.16158,0.15688 0.17356,0.17043 0.30304,0.0123 0.47308,-0.0544 0.37748,-0.14817 z M 59.70768,108.8424 c 0.516467,-0.21163 1.288697,-0.79262 1.716264,-1.29106 0.625828,-0.72986 0.777169,-1.19035 0.776111,-2.36562 0,-1.94042 -0.774347,-3.16203 -2.464858,-3.89567 -2.083859,-0.90417 -4.157839,-0.19897 -5.305074,1.80386 -1.93816,3.3828 1.612901,7.25062 5.277557,5.74849 z m -17.474497,-1.18361 c 0.4191,-2.74083 -0.51858,-3.36959 -2.70615,-1.81493 -1.34303,0.95426 -1.63125,2.08054 -0.61419,2.3973 0.31856,0.0992 0.52634,0.26642 0.46179,0.37162 -0.0646,0.10519 0.50941,0.21378 1.27529,0.24126 l 1.39312,0.0501 z m 4.04636,0.70792 c 1.06292,-0.39648 1.14653,-1.042 0.2533,-1.95678 -0.91934,-0.94125 -2.24931,-1.5493 -2.87408,-1.31407 -0.45614,0.1717 -0.62583,2.47305 -0.25259,3.42703 0.19191,0.49054 1.30104,0.43025 2.87337,-0.15618 z m -9.19197,-0.17388 c -0.10548,-0.10344 -0.19191,-0.0187 -0.19191,0.18806 0,0.20687 0.0864,0.2915 0.19191,0.18807 0.10548,-0.10343 0.10548,-0.2727 0,-0.37613 z m 5.75768,-1.43397 c -0.0723,-0.2715 -0.13158,-0.0494 -0.13158,0.49367 0,0.54304 0.0593,0.76518 0.13158,0.49365 0.0723,-0.2715 0.0723,-0.71579 0,-0.98732 z m 5.55308,1.19891 c 0,-0.0776 -0.0649,-0.14107 -0.14394,-0.14107 -0.079,0 -0.14358,0.0635 -0.14358,0.14107 0,0.0776 0.0646,0.14104 0.14358,0.14104 0.079,0 0.14394,-0.0635 0.14394,-0.14104 z m -10.92729,-0.28211 c 0,-0.0776 -0.0649,-0.14104 -0.14394,-0.14104 -0.079,0 -0.14358,0.0635 -0.14358,0.14104 0,0.0776 0.0646,0.14104 0.14358,0.14104 0.079,0 0.14394,-0.0635 0.14394,-0.14104 z m 10.63977,-0.28208 c 0,-0.0776 -0.0649,-0.14105 -0.14393,-0.14105 -0.079,0 -0.14358,0.0635 -0.14358,0.14105 0,0.0776 0.0646,0.14104 0.14358,0.14104 0.079,0 0.14393,-0.0635 0.14393,-0.14104 z m -10.35226,-0.28209 c 0,-0.0776 -0.0649,-0.14104 -0.14393,-0.14104 -0.079,0 -0.14358,0.0635 -0.14358,0.14104 0,0.0776 0.0646,0.14104 0.14358,0.14104 0.079,0 0.14393,-0.0635 0.14393,-0.14104 z m 10.06475,-0.28211 c 0,-0.0775 -0.0649,-0.14104 -0.14393,-0.14104 -0.079,0 -0.14394,0.0635 -0.14394,0.14104 0,0.0776 0.0649,0.14107 0.14394,0.14107 0.079,0 0.14393,-0.0635 0.14393,-0.14107 z m -9.20221,-0.84625 c 0.37148,-0.38787 0.61066,-0.70523 0.53164,-0.70523 -0.079,0 -0.44768,0.31736 -0.81915,0.70523 -0.37148,0.38788 -0.61066,0.70521 -0.53164,0.70521 0.079,0 0.44768,-0.31733 0.81915,-0.70521 z m 8.62683,0.0166 c 0,-0.0684 -0.14923,-0.21499 -0.33196,-0.32569 -0.20567,-0.12471 -0.254,-0.0774 -0.12665,0.12439 0.20496,0.32519 0.45861,0.4366 0.45861,0.2013 z m -1.56457,-1.15401 c -0.30692,-0.22779 -0.69533,-0.40965 -0.86254,-0.40414 -0.16757,0.006 0.0176,0.19138 0.41416,0.41313 0.93169,0.52236 1.15852,0.51781 0.44838,-0.009 z m -5.62434,0.009 c 0,-0.0776 -0.0646,-0.14104 -0.14393,-0.14104 -0.079,0 -0.14358,0.0635 -0.14358,0.14104 0,0.0776 0.0646,0.14104 0.14358,0.14104 0.0794,0 0.14393,-0.0635 0.14393,-0.14104 z m 0.57503,-0.28208 c 0,-0.0776 -0.0646,-0.14104 -0.14358,-0.14104 -0.0794,0 -0.14393,0.0635 -0.14393,0.14104 0,0.0776 0.0646,0.14104 0.14393,0.14104 0.079,0 0.14358,-0.0635 0.14358,-0.14104 z m 1.05445,-0.32911 c -0.10548,-0.10343 -0.27798,-0.10343 -0.38346,0 -0.10549,0.10343 -0.0176,0.18807 0.19191,0.18807 0.2106,0 0.29704,-0.0846 0.19155,-0.18807 z m 2.60597,0.0176 c -0.0956,-0.0937 -0.3436,-0.10375 -0.55104,-0.0222 -0.2293,0.0901 -0.16121,0.15688 0.17357,0.17043 0.30339,0.0123 0.47308,-0.0544 0.37747,-0.14817 z m -7.11094,-2.79154 c 0,-0.0776 -0.0649,-0.14104 -0.14393,-0.14104 -0.079,0 -0.14393,0.0635 -0.14393,0.14104 0,0.0776 0.0649,0.14107 0.14393,0.14107 0.079,0 0.14393,-0.0635 0.14393,-0.14107 z m -2.01295,-0.28208 c 0,-0.0776 -0.0649,-0.14104 -0.14393,-0.14104 -0.079,0 -0.14393,0.0635 -0.14393,0.14104 0,0.0776 0.0649,0.14104 0.14393,0.14104 0.079,0 0.14393,-0.0635 0.14393,-0.14104 z m 3.67595,-0.58131 c 1.71697,-1.179865 1.87078,-3.479695 0.31785,-4.761415 -1.53776,-1.269379 -3.45264,-0.8469 -4.72793,1.04306 -0.41557,0.61616 -0.61454,1.03481 -0.44203,0.93028 0.19332,-0.1172 0.31327,0.0721 0.31327,0.49378 0,0.80825 0.97896,2.117945 1.83691,2.458095 0.95568,0.37874 2.00484,0.31513 2.70193,-0.1638 z m 34.633601,9.87433 c -1.184628,-0.81389 -0.524228,-2.94598 0.912283,-2.94598 1.033639,0 1.611842,0.55447 1.611842,1.54545 0,0.92954 -0.782461,1.83967 -1.581503,1.83967 -0.166864,0 -0.591255,-0.19763 -0.942622,-0.43914 z m 1.373717,-0.54818 c 0,-0.23273 0.204963,-0.42316 0.455436,-0.42316 0.250472,0 0.396169,-0.15868 0.323497,-0.3526 -0.07232,-0.19396 -0.277283,-0.32089 -0.455436,-0.28208 -0.1778,0.0388 -0.323497,-0.11991 -0.323497,-0.35264 0,-0.56236 -0.174625,-0.53378 -0.862542,0.14104 -0.687917,0.67487 -0.717197,0.84628 -0.143933,0.84628 0.237419,0 0.431447,0.19043 0.431447,0.42316 0,0.23273 0.129469,0.42312 0.287514,0.42312 0.158397,0 0.287514,-0.19039 0.287514,-0.42312 z M 43.232253,99.936655 c -0.70697,-1.2961 -0.0212,-2.55735 1.39065,-2.55735 1.02482,0 1.47496,0.47342 1.47496,1.55148 0,1.119225 -0.45402,1.551515 -1.62912,1.551515 -0.63395,0 -1.03541,-0.17723 -1.23649,-0.545645 z m 1.88313,-0.58271 c 0.22401,0 0.40746,-0.12697 0.40746,-0.28209 0,-0.15515 -0.19438,-0.28211 -0.43145,-0.28211 -0.23742,0 -0.44627,-0.22215 -0.46461,-0.49364 -0.0317,-0.47015 -0.0399,-0.47015 -0.1651,0 -0.0723,0.27149 -0.33867,0.49364 -0.59196,0.49364 -0.38911,0 -0.37465,0.0814 0.0928,0.52331 0.30445,0.28783 0.5969,0.41476 0.64946,0.28208 0.0529,-0.13265 0.2794,-0.24119 0.50342,-0.24119 z m 6.04943,-0.71847 c -0.0938,-0.24 -0.39899,-0.39868 -0.67769,-0.3526 -0.35983,0.0594 -0.48013,-0.0714 -0.41345,-0.45039 0.0519,-0.2938 -0.0776,-0.64531 -0.28751,-0.78113 -0.3108,-0.20125 -0.29951,-0.31122 0.0603,-0.59421 0.24306,-0.191 0.39299,-0.58166 0.33302,-0.86814 -0.0868,-0.41607 0.0106,-0.4832 0.49283,-0.33359 0.3309,0.10301 0.60148,0.10894 0.60148,0.0134 0,-0.24582 -0.85442,-1.838609 -0.98636,-1.838609 -0.06,0 -0.45509,0.57912 -0.87807,1.28697 -0.67169,1.124179 -0.86607,1.268079 -1.53705,1.137979 -0.42227,-0.0819 -1.24107,-0.22863 -1.81963,-0.32606 -0.93733,-0.15794 -1.07138,-0.28886 -1.23719,-1.208509 -0.38558,-2.13572 -0.369,-2.12362 -1.58432,-1.17937 -0.60396,0.46926 -1.21603,0.85319 -1.35996,0.85319 -0.14393,0 -0.87842,-0.38361 -1.63195,-0.85245 l -1.37019,-0.85246 0.19438,-1.52678 0.19438,-1.52683 -1.39665,0.41635 -1.39664,0.41639 -0.9324,-1.06959 c -1.30457,-1.49701 -1.36101,-1.868557 -0.50411,-3.303087 l 0.75388,-1.26193 -1.52788,-0.0859 -1.52788,-0.0859 -0.55104,-1.66511 -0.55104,-1.66515 1.2185,-1.01928 1.21849,-1.01928 -1.31445,-0.6265 c -1.25695,-0.599016 -1.31445,-0.679167 -1.31057,-1.829011 0.007,-2.064032 0.21237,-2.403369 1.76107,-2.908089 l 1.41746,-0.461821 -1.01177,-1.09862 c -1.10031,-1.194612 -1.09114,-1.367085 0.18168,-3.488302 0.45932,-0.765316 0.61207,-0.824407 1.94875,-0.754804 0.79763,0.04152 1.45027,0.01799 1.45027,-0.05203 0,-0.0701 -0.19438,-0.583213 -0.43145,-1.140213 -0.63147,-1.482725 -0.56303,-1.703211 0.89182,-2.87274 l 1.32327,-1.063625 1.27247,0.606495 c 0.69991,0.333587 1.33385,0.606496 1.40864,0.606496 0.0748,0 0.13618,-0.680544 0.13618,-1.512323 v -1.512473 l 1.63159,-0.612563 1.63195,-0.612528 1.09467,1.048703 c 0.60219,0.576827 1.14088,0.993528 1.19733,0.926041 0.0564,-0.06752 0.30339,-0.630484 0.54857,-1.251091 l 0.44556,-1.12836 h 1.93322 1.93322 l 0.44591,1.12836 c 0.24518,0.620607 0.49177,1.18357 0.54822,1.251091 0.0564,0.06749 0.59796,-0.351825 1.20368,-0.931792 l 1.100663,-1.054488 1.625247,0.649676 1.625247,0.649711 v 1.480961 c 0,0.814528 0.06174,1.480961 0.136525,1.480961 0.07479,0 0.708731,-0.272909 1.408642,-0.606496 l 1.272822,-0.606495 1.322917,1.063625 c 1.464028,1.176831 1.512711,1.32842 0.891822,2.785745 -0.237067,0.556965 -0.431094,1.08966 -0.431094,1.18371 0,0.09405 0.668866,0.136172 1.486958,0.09359 l 1.486958,-0.0774 0.845256,1.634701 0.845255,1.634737 -1.074561,1.079606 -1.074914,1.079606 1.258712,0.350379 c 1.650294,0.459457 1.977319,0.908297 1.977319,2.713249 v 1.501246 l -1.31445,0.626462 -1.31445,0.626503 1.218494,1.01928 1.218495,1.01928 -0.551039,1.66515 c -0.540808,1.63452 -0.572206,1.66677 -1.701094,1.7545 -1.590323,0.12354 -1.762478,0.40316 -0.997303,1.61809 0.644878,1.02323 0.6477,1.06175 0.143228,1.980207 -0.282575,0.5152 -0.797631,1.1981 -1.144412,1.51765 -0.594077,0.5473 -0.709436,0.55764 -1.993899,0.17843 l -1.363487,-0.40252 0.193323,1.51582 0.192969,1.51582 -1.38183,0.85964 c -0.759884,0.47276 -1.494367,0.85962 -1.632303,0.85962 -0.137584,0 -0.688975,-0.32826 -1.225197,-0.72944 -0.536223,-0.40118 -1.095023,-0.65659 -1.241778,-0.56762 -0.146403,0.0889 -0.352778,0.72443 -0.457906,1.41217 -0.182033,1.192739 -0.243416,1.259129 -1.327145,1.438729 -1.20897,0.20038 -1.49543,0.75892 -0.63289,1.23404 0.47943,0.26395 0.47943,0.28621 0,0.46736 -0.27658,0.1046 -0.50306,0.44528 -0.50306,0.7571 0,0.42171 -0.14252,0.53033 -0.55668,0.42411 -0.32174,-0.0825 -0.62124,0.0226 -0.70979,0.2492 -0.20391,0.52084 -0.64347,0.49802 -0.85584,-0.0444 z m 1.50248,-1.52245 c 0.12771,-0.88985 -0.67663,-1.52049 -1.43298,-1.12331 -0.52635,0.27633 -0.73237,1.38451 -0.33055,1.77867 0.11253,0.11056 0.53304,0.16344 0.9345,0.11751 0.52458,-0.06 0.75742,-0.27732 0.82903,-0.77287 z m 3.584576,-7.291339 c 3.127728,-1.52033 5.030964,-3.383767 6.571897,-6.434277 1.036461,-2.05158 1.189214,-2.61337 1.319036,-4.846739 0.262819,-4.520424 -0.890764,-7.538191 -4.075289,-10.662285 -2.977797,-2.920859 -5.71676,-4.054087 -9.80017,-4.054087 -3.9056,0 -7.21007,1.32147 -9.89788,3.958061 -2.68605,2.634897 -4.02802,5.862884 -4.04178,9.720827 -0.0176,5.186823 2.9644,9.99352 7.58649,12.22572 2.53012,1.22185 3.63925,1.43394 6.99982,1.33858 2.794,-0.0793 3.07163,-0.14407 5.337876,-1.2458 z m -7.994646,-7.164837 c -1.15711,-0.43142 -2.84586,-2.14761 -3.26038,-3.31343 -0.48718,-1.371251 -0.4385,-2.838806 0.0945,-2.838806 0.23707,0 0.42934,0.222144 0.42687,0.493642 -0.004,0.421887 -0.0448,0.432152 -0.28328,0.07052 -0.16722,-0.254247 -0.28046,-0.289031 -0.28293,-0.08717 -0.003,0.184785 0.10936,0.405059 0.24871,0.489514 0.34607,0.209726 0.59019,1.57229 0.28187,1.57229 -0.13618,0 -0.24765,0.13445 -0.24765,0.29874 0,0.16432 0.13193,0.21882 0.29315,0.12118 0.16087,-0.0977 0.46073,0.21427 0.66605,0.69327 0.20531,0.47897 0.44697,0.79859 0.53693,0.71025 0.0903,-0.0883 0.40498,0.13536 0.69991,0.4971 0.29457,0.36174 0.74683,0.61595 1.00436,0.56494 0.25752,-0.051 0.67803,0.11306 0.9345,0.36463 0.28858,0.28325 0.46638,0.33013 0.46638,0.12312 0,-0.21093 0.3182,-0.28843 0.86254,-0.21004 0.47448,0.0683 0.86254,0.0396 0.86254,-0.0637 0,-0.1034 0.3235,-0.33256 0.71896,-0.50927 0.43744,-0.19547 0.71896,-0.21322 0.71896,-0.0453 0,0.15184 0.11501,0.27605 0.25577,0.27605 0.1404,0 0.23741,-0.21473 0.21554,-0.47717 -0.0212,-0.26243 0.25047,-0.62283 0.60537,-0.80091 0.35489,-0.17808 0.55986,-0.40767 0.45544,-0.51015 -0.10478,-0.10252 -0.0512,-0.18641 0.11853,-0.18641 0.16968,0 0.24483,-0.23872 0.16686,-0.53054 -0.0776,-0.29178 0.0462,-0.702273 0.275169,-0.912141 0.239536,-0.219533 0.328788,-0.563245 0.210255,-0.809378 -1.181104,-2.449618 -1.240714,-5.074391 -0.06279,-2.768988 0.929569,1.819522 0.658989,4.709127 -0.576794,6.159777 -1.33879,1.57135 -4.44182,2.3603 -6.40538,1.62843 z m 2.34562,-0.13431 c -0.10548,-0.10343 -0.27799,-0.10343 -0.38347,0 -0.10513,0.10344 -0.0176,0.18807 0.19191,0.18807 0.21096,0 0.29704,-0.0846 0.19156,-0.18807 z m -1.917,-0.23509 c 0,-0.0776 -0.0646,-0.14104 -0.14393,-0.14104 -0.079,0 -0.14358,0.0635 -0.14358,0.14104 0,0.0776 0.0646,0.14104 0.14358,0.14104 0.0794,0 0.14393,-0.0635 0.14393,-0.14104 z m 3.73839,0 c 0,-0.0776 -0.0649,-0.14104 -0.14394,-0.14104 -0.079,0 -0.14358,0.0635 -0.14358,0.14104 0,0.0776 0.0646,0.14104 0.14358,0.14104 0.079,0 0.14394,-0.0635 0.14394,-0.14104 z m -5.27191,-0.89327 c -0.10548,-0.10343 -0.27799,-0.10343 -0.38347,0 -0.10548,0.10344 -0.0176,0.18807 0.19156,0.18807 0.21096,0 0.29703,-0.0846 0.19191,-0.18807 z m 6.90139,-0.28208 c -0.10548,-0.10343 -0.27799,-0.10343 -0.38347,0 -0.10548,0.10344 -0.0176,0.18803 0.19156,0.18803 0.21096,0 0.29739,-0.0846 0.19191,-0.18803 z m -8.33932,-1.41047 c -0.10548,-0.10344 -0.19155,-0.0187 -0.19155,0.18806 0,0.20687 0.0861,0.2915 0.19155,0.18807 0.10548,-0.10344 0.10548,-0.2727 0,-0.37613 z m 9.585329,-0.51718 c 0,-0.0776 -0.06456,-0.14104 -0.143581,-0.14104 -0.07937,0 -0.143928,0.0635 -0.143928,0.14104 0,0.0776 0.0646,0.14108 0.143928,0.14108 0.07902,0 0.143581,-0.0635 0.143581,-0.14108 z M 45.139373,78.009104 c -0.10548,-0.103434 -0.19191,-0.0187 -0.19191,0.188031 0,0.206869 0.0864,0.2915 0.19191,0.188065 0.10548,-0.103434 0.10548,-0.272697 0,-0.376096 z m 10.35226,-0.846278 c -0.105481,-0.103435 -0.191911,-0.0187 -0.191911,0.188065 0,0.206869 0.08643,0.291465 0.191911,0.188031 0.105128,-0.103399 0.105128,-0.272662 0,-0.376096 z m 0.0956,-1.08137 c 0,-0.07758 -0.06456,-0.141041 -0.143581,-0.141041 -0.07902,0 -0.143933,0.06346 -0.143933,0.141041 0,0.07758 0.06491,0.14104 0.143933,0.14104 0.07902,0 0.143581,-0.06346 0.143581,-0.14104 z m -0.67098,-1.457466 c -0.10548,-0.103435 -0.19156,-0.0187 -0.19156,0.188066 0,0.206868 0.0861,0.2915 0.19156,0.188065 0.10548,-0.103434 0.10548,-0.272697 0,-0.376131 z m -6.6227,4.804089 c -0.57997,-0.56896 -0.75812,-1.023864 -0.75812,-1.936182 0,-0.912284 0.17815,-1.367191 0.75812,-1.936151 0.58032,-0.56896 1.04387,-0.74369 1.97379,-0.74369 2.51601,0 3.70734,2.778548 1.95933,4.568503 -1.0668,1.09227 -2.84586,1.11376 -3.93312,0.0475 z m 3.71228,-0.23082 c 1.55081,-1.521212 0.45685,-4.103122 -1.73849,-4.103122 -1.40229,0 -2.44404,1.022138 -2.44404,2.39776 0,2.153492 2.63172,3.226612 4.18253,1.705362 z m -3.31999,-0.15385 c -0.35595,-0.349246 -0.57503,-0.940325 -0.57503,-1.551512 0,-0.611188 0.21908,-1.202232 0.57503,-1.551482 0.35595,-0.34925 0.9585,-0.564197 1.5815,-0.564197 0.62301,0 1.22555,0.214947 1.58186,0.564197 0.35595,0.34925 0.57502,0.940294 0.57502,1.551482 0,0.611187 -0.21907,1.202266 -0.57502,1.551512 -0.35631,0.34925 -0.95885,0.56417 -1.58186,0.56417 -0.623,0 -1.22555,-0.21492 -1.5815,-0.56417 z m 2.54353,-1.394667 c 0.12805,-0.889812 -0.67663,-1.520473 -1.43299,-1.123315 -0.52634,0.276366 -0.73236,1.384547 -0.33055,1.77867 0.11289,0.11056 0.5334,0.163477 0.93451,0.117545 0.52458,-0.06001 0.75777,-0.277318 0.82903,-0.7729 z m -6.56943,-1.581291 c 0,-0.472088 1.05974,-2.06622 1.8228,-2.742248 1.06645,-0.944633 3.10727,-1.635337 3.28507,-1.111779 0.0639,0.188031 0.23071,0.341877 0.37077,0.341877 0.14005,0 0.18379,-0.181151 0.097,-0.402555 -0.11501,-0.293934 0.004,-0.361174 0.44062,-0.249167 0.32879,0.08435 0.58737,0.360716 0.57502,0.614116 -0.0141,0.276225 -0.0794,0.323603 -0.16439,0.118321 -0.11042,-0.267511 -0.26282,-0.268075 -0.69603,-0.0035 -0.43744,0.267934 -0.68263,0.261373 -1.15993,-0.03105 -0.33303,-0.203941 -0.51859,-0.233398 -0.41275,-0.06548 0.21978,0.349038 -0.9518,0.860354 -1.50143,0.655179 -0.23107,-0.08618 -0.30127,0.02187 -0.19332,0.297532 0.1778,0.45459 -0.79657,1.17087 -1.13771,0.836295 -0.10336,-0.101317 -0.16439,0.06184 -0.13617,0.36255 0.1083,1.144129 -0.0476,1.533948 -0.61454,1.533948 -0.31609,0 -0.57503,-0.06978 -0.57503,-0.155046 z m 1.15041,-0.973314 c 0,-0.155152 -0.0571,-0.282081 -0.127,-0.282081 -0.0699,0 -0.20673,0.126929 -0.30445,0.282081 -0.0977,0.155151 -0.0406,0.282081 0.12665,0.282081 0.16757,0 0.3048,-0.12693 0.3048,-0.282081 z m 1.00647,-1.410441 c 0.0977,-0.155152 0.11289,-0.282117 0.0353,-0.282117 -0.0794,0 -0.22401,0.126965 -0.32173,0.282117 -0.0977,0.155152 -0.11289,0.282081 -0.0353,0.282081 0.079,0 0.22401,-0.126929 0.32173,-0.282081 z m 1.5815,-0.987319 c 0,-0.07758 -0.0649,-0.141076 -0.14393,-0.141076 -0.079,0 -0.14358,0.0635 -0.14358,0.141076 0,0.07758 0.0646,0.14104 0.14358,0.14104 0.079,0 0.14393,-0.06346 0.14393,-0.14104 z m 4.38539,0.797066 c -0.57433,-0.392924 -0.90594,-1.220223 -0.48895,-1.220223 0.5087,0 1.8549,0.926359 1.8549,1.276667 0,0.530649 -0.54081,0.508282 -1.36595,-0.05644 z m 1.07808,0.04918 c 0,-0.07758 -0.0646,-0.141041 -0.14358,-0.141041 -0.079,0 -0.14393,0.06347 -0.14393,0.141041 0,0.07758 0.0649,0.141076 0.14393,0.141076 0.079,0 0.14358,-0.0635 0.14358,-0.141076 z m -1.24601,-0.893269 c -0.10548,-0.103434 -0.19156,-0.0187 -0.19156,0.188066 0,0.206869 0.0861,0.291465 0.19156,0.188066 0.10548,-0.103434 0.10548,-0.272697 0,-0.376132 z m -25.77465,22.209681 c -0.65722,-1.205019 0.048,-2.557359 1.33386,-2.557359 1.21108,0 2.03905,1.92846 1.18674,2.764509 -0.56197,0.55122 -2.17911,0.41833 -2.5206,-0.20715 z m 1.90006,-0.441679 c 0.38347,-0.37609 0.37571,-0.47769 -0.0691,-0.91426 -0.35983,-0.35316 -0.5341,-0.39278 -0.61947,-0.14104 -0.0656,0.19255 -0.32491,0.3501 -0.5768,0.3501 -0.38558,0 -0.37041,0.0862 0.096,0.54741 0.68298,0.675639 0.64665,0.670729 1.16946,0.15779 z m -12.77019,-7.663777 c -1.74237,-0.6048 -4.16208,-2.87309 -4.9844,-4.67201 -1.0036496,-2.19562 -0.95321,-5.44198 0.11606,-7.471652 1.73038,-3.284926 4.36951,-4.869956 8.10825,-4.869956 2.74037,0 4.62738,0.725875 6.3955,2.460343 1.85949,1.824178 2.51954,3.471615 2.5146,6.27895 -0.003,2.049745 -0.11571,2.606885 -0.7747,3.838575 -0.9779,1.82735 -3.28789,3.87642 -5.02532,4.45713 -1.66264,0.555727 -4.71734,0.545427 -6.34999,-0.0215 z m 7.03368,-0.89087 c 2.95063,-1.48896 4.53001,-4.06488 4.53954,-7.403387 0.007,-2.782217 -1.03717,-4.951271 -3.13408,-6.505928 -4.37021,-3.240263 -10.65776,-1.724624 -12.92401,3.115557 -0.84843,1.811973 -0.82056,5.024298 0.0593,6.813478 0.8502,1.72917 2.78836,3.54016 4.52085,4.22458 1.89689,0.74948 5.19959,0.63317 6.93843,-0.2443 z m 55.722302,-6.26505 c -0.516114,-0.55936 -0.513645,-0.59002 0.09913,-1.191042 l 0.629003,-0.616902 0.62865,0.616902 c 0.612775,0.601022 0.615245,0.631682 0.09913,1.191042 -0.291042,0.31577 -0.618773,0.57415 -0.727781,0.57415 -0.109361,0 -0.437092,-0.25838 -0.728132,-0.57415 z m -1.629831,-1.834213 c -0.274108,-0.59062 -0.246944,-0.799253 0.155575,-1.194117 0.376061,-0.369112 0.601486,-0.408164 0.985661,-0.170921 0.704145,0.435081 0.795514,1.27254 0.186267,1.70942 -0.732014,0.525145 -0.949678,0.468665 -1.327503,-0.344382 z m 3.220156,0.15053 c -0.246945,-0.452261 -0.243064,-0.698711 0.01764,-1.004429 0.764469,-0.903851 2.432403,-0.0194 1.807633,0.958498 -0.458258,0.71762 -1.443566,0.74242 -1.823508,0.04593 z m -6.528153,-0.251848 c -0.279753,-0.439384 -0.242711,-0.621735 0.207786,-1.021538 0.932039,-0.827405 2.2225,0.199143 1.429103,1.136861 -0.488597,0.577709 -1.229078,0.525569 -1.636889,-0.115323 z m 1.774472,-1.449705 c -0.516113,-0.559364 -0.513291,-0.590056 0.09913,-1.191083 l 0.629003,-0.616903 0.629003,0.616903 c 0.612422,0.601027 0.615244,0.631719 0.09913,1.191083 -0.291394,0.315772 -0.619125,0.574111 -0.728133,0.574111 -0.109009,0 -0.436739,-0.258339 -0.728135,-0.574111 z m 3.329517,0.166688 c -0.776817,-0.917963 0.508706,-2.022405 1.370189,-1.177361 0.366183,0.359269 0.403578,0.579685 0.162278,0.955393 -0.419806,0.65405 -1.085498,0.750464 -1.532467,0.221968 z M 73.18626,75.601765 c -0.521406,-0.511246 -0.415572,-1.175314 0.252589,-1.584466 0.461433,-0.282681 0.690739,-0.290266 1.006475,-0.03316 0.724958,0.590444 0.307975,1.956294 -0.597958,1.956294 -0.17392,0 -0.471312,-0.15233 -0.661106,-0.338526 z m 4.156428,-0.741539 c -0.627592,-0.680614 -0.600428,-0.964706 0.13723,-1.416473 0.535164,-0.327942 0.687917,-0.302084 1.204031,0.204258 0.575028,0.564303 0.576791,0.595172 0.06138,1.153936 -0.650169,0.704674 -0.800453,0.710918 -1.402644,0.05828 z m -2.460272,-1.005805 -0.612423,-0.639692 0.596195,-0.529484 c 0.456141,-0.404953 0.710847,-0.45914 1.083028,-0.230434 0.693208,0.426261 0.743655,1.31191 0.09737,1.704552 -0.461081,0.279893 -0.651934,0.229905 -1.164167,-0.304942 z m 4.054827,-0.509375 c -0.488244,-0.479037 -0.42933,-0.909744 0.201436,-1.469708 0.519642,-0.461116 0.576439,-0.453743 1.147939,0.148132 0.56127,0.590691 0.569736,0.667843 0.128059,1.146668 -0.550687,0.597006 -0.993423,0.649429 -1.477434,0.174908 z m -6.536619,-0.517737 c -0.516114,-0.559188 -0.513645,-0.589915 0.0889,-1.181065 0.602544,-0.591185 0.633942,-0.593478 1.20403,-0.08738 0.703792,0.624875 0.722489,0.821302 0.13335,1.399293 -0.589138,0.578027 -0.789516,0.559647 -1.42628,-0.130845 z m 3.910542,-0.518724 c -0.221545,-0.406365 -0.160162,-0.642691 0.2667,-1.021504 0.93733,-0.832273 2.233788,0.188137 1.436158,1.130653 -0.491067,0.580531 -1.356784,0.525074 -1.702858,-0.109149 z m -2.175934,-0.881769 c -0.502355,-0.544441 -0.502355,-0.583917 0,-1.128359 0.663928,-0.719914 1.060803,-0.712894 1.531761,0.02716 0.320675,0.503237 0.302684,0.671124 -0.118886,1.128359 -0.621594,0.673665 -0.769055,0.670843 -1.412875,-0.02716 z m -2.53365,-1.069128 C 71.143677,69.8614 71.15426,69.797089 71.786438,69.214477 l 0.669925,-0.617326 0.53975,0.585082 c 0.413808,0.448486 0.468136,0.696454 0.233186,1.062214 -0.436033,0.679485 -1.065036,0.723229 -1.627717,0.113241 z M 25.514343,69.886942 c -0.16545,-0.646536 -0.22084,-0.665622 -0.81915,-0.281094 -0.70767,0.454837 -1.02729,0.304659 -1.02729,-0.482776 0,-0.596442 -0.11712,-0.626392 -0.88159,-0.225143 -0.4953,0.259997 -0.55633,0.194522 -0.55633,-0.597076 0,-0.801617 -0.0723,-0.875489 -0.73554,-0.751135 -0.54398,0.102024 -0.69356,0.03715 -0.57503,-0.249202 0.0882,-0.212937 0.23919,-0.577568 0.33514,-0.810295 0.12841,-0.311679 -0.0247,-0.423122 -0.57538,-0.423122 -0.87348,0 -0.89852,-0.0786 -0.30727,-0.964 0.42333,-0.633801 0.40781,-0.67049 -0.35948,-0.860143 l -0.80151,-0.198085 0.68615,-0.546206 c 0.63994,-0.509587 0.6544,-0.580425 0.21555,-1.056252 -0.6156,-0.667385 -0.59373,-0.888753 0.0875,-0.888753 0.75036,0 0.9712,-0.420793 0.44521,-0.848854 -0.63924,-0.520453 -0.51894,-0.843703 0.31361,-0.843703 0.67698,0 0.72496,-0.07511 0.54963,-0.85792 -0.18168,-0.812306 -0.1524,-0.848184 0.55245,-0.674652 0.66393,0.163477 0.74436,0.100471 0.74436,-0.582719 0,-0.568924 0.11077,-0.721924 0.4311,-0.594748 0.23741,0.09416 0.6096,0.242253 0.82726,0.329107 0.25753,0.102587 0.4639,-0.107386 0.58984,-0.599899 l 0.19403,-0.757767 0.66746,0.61521 c 0.58914,0.542925 0.68862,0.560952 0.84807,0.15367 0.25083,-0.641703 0.23354,-0.697477 -0.2159,-0.697477 -0.21801,0 -0.55738,-0.380824 -0.75388,-0.846244 -0.5013,-1.187132 -1.64642,-1.18117 -2.10503,0.01094 -0.48577,1.261569 -1.45873,1.055018 -1.57691,-0.334715 -0.11677,-1.372447 -1.01953,-1.650153 -2.09091,-0.643185 -0.647,0.608119 -0.80081,0.649147 -1.10138,0.294041 -0.21484,-0.254177 -0.27869,-0.780062 -0.16615,-1.36899 0.2547,-1.33223 -0.35525,-1.826718 -1.52295,-1.234369 -0.63288,0.321098 -0.92216,0.346357 -1.17087,0.102376 -0.47201,-0.462844 -0.41275,-0.794279 0.26917,-1.506361 0.49954,-0.52137 0.54434,-0.728274 0.26776,-1.235181 -0.27164,-0.498052 -0.49212,-0.574428 -1.21073,-0.419594 -0.60113,0.12947 -0.95709,0.0683 -1.12607,-0.193463 -0.43144,-0.667914 -0.2801,-1.009791 0.60678,-1.370083 1.27282,-0.517278 1.18992,-1.542803 -0.16016,-1.97993 -0.80469,-0.260491 -1.00401,-0.460798 -0.93451,-0.938671 0.066,-0.455683 0.33973,-0.642797 1.09467,-0.748595 1.27953,-0.179281 1.47355,-1.014024 0.45438,-1.953365 -0.54857,-0.505672 -0.65546,-0.781333 -0.44874,-1.16004 0.22049,-0.404142 0.46073,-0.454801 1.28835,-0.271674 1.33315,0.294958 1.82704,-0.408587 1.16664,-1.661618 -0.38665,-0.733072 -0.38559,-0.858802 0.0106,-1.180818 0.36336,-0.295592 0.58984,-0.275167 1.26047,0.113594 1.17228,0.679133 1.73249,0.362938 1.73249,-0.97737 0,-1.440921 0.71191,-1.777965 1.50319,-0.711976 0.32526,0.437903 0.83431,0.751028 1.22061,0.751028 0.53022,0 0.70097,-0.198049 0.85195,-0.987319 0.15487,-0.809942 0.31574,-0.987319 0.89465,-0.987319 0.50412,0 0.70591,0.154622 0.70591,0.54109 0,1.575012 1.15146,1.93601 2.1717,0.680826 0.86889,-1.068705 1.70003,-0.738434 1.4485,0.575557 -0.26776,1.400598 0.38488,1.839242 1.7018,1.143565 0.77682,-0.410316 1.06998,-0.450639 1.34126,-0.184397 0.27164,0.266206 0.24518,0.551144 -0.12029,1.303196 -0.4378,0.90043 -0.43533,0.991552 0.0406,1.413863 0.2794,0.248285 0.56268,0.405553 0.62865,0.349461 0.0663,-0.05609 0.46778,-0.183585 0.89182,-0.28328 0.623,-0.146438 0.80857,-0.06583 0.96555,0.41917 0.14429,0.446053 0,0.754521 -0.55456,1.199445 -1.06645,0.853263 -0.77012,1.868381 0.5461,1.868381 0.59372,0 1.00647,0.164959 1.11654,0.446229 0.2607,0.666256 0.25117,0.679556 -0.79552,1.108498 -1.38782,0.568854 -1.51377,1.391038 -0.32385,2.112469 1.33491,0.809307 1.10667,1.602705 -0.4198,1.4599 -0.93627,-0.0876 -1.13665,-0.0081 -1.3074,0.519959 -0.13652,0.42224 -0.0176,0.869209 0.37254,1.385288 0.41239,0.547017 0.49812,0.895456 0.30409,1.235498 -0.23989,0.420653 -0.37535,0.43053 -1.21038,0.08834 -0.77929,-0.319405 -1.02835,-0.321733 -1.45803,-0.01376 -0.44662,0.320392 -0.47237,0.499815 -0.18768,1.301009 0.28187,0.793291 0.25753,0.981463 -0.1658,1.28524 -0.41981,0.301131 -0.61595,0.243416 -1.27388,-0.375144 -0.65405,-0.614539 -0.87419,-0.680438 -1.38219,-0.413703 -0.72848,0.382341 -0.78669,1.390015 -0.15063,2.596692 l 0.45367,0.860777 0.69638,-0.641879 c 0.69462,-0.64015 0.69674,-0.640256 0.69674,-0.04516 0,0.729932 0.51082,1.087755 0.94509,0.661846 0.51752,-0.507506 0.78034,-0.364596 0.78034,0.42418 0,0.642867 0.0963,0.720019 0.74789,0.597853 0.69215,-0.129823 0.73554,-0.07973 0.58244,0.672359 -0.15311,0.750852 -0.10019,0.812588 0.69638,0.812588 0.85196,0 0.85655,0.0081 0.3937,0.700934 -0.45508,0.681426 -0.4452,0.709436 0.34961,1.005911 l 0.81773,0.304976 -0.68121,0.503908 -0.68086,0.503943 0.68439,0.472757 c 0.68545,0.473428 0.57467,0.7384 -0.46602,1.11626 -0.15805,0.05743 -0.061,0.355106 0.2159,0.661529 0.68227,0.755367 0.63465,0.935778 -0.24659,0.935778 -0.5521,0 -0.70379,0.111442 -0.57503,0.423122 0.096,0.232727 0.25859,0.627838 0.36124,0.877993 0.15734,0.382235 0.043,0.423792 -0.71614,0.260279 -0.89217,-0.192263 -0.90064,-0.18362 -0.71649,0.720866 0.19721,0.965765 0.26,0.946433 -1.19838,0.367419 -0.31786,-0.126119 -0.43145,0.02258 -0.43145,0.564197 0,0.834178 -0.32879,0.943116 -0.88018,0.2915 -0.33302,-0.393594 -0.42263,-0.355423 -0.79269,0.336833 l -0.41699,0.780732 -0.52387,-0.634894 -0.52423,-0.634894 -0.36936,0.580143 c -0.48612,0.763799 -0.756,0.732331 -0.97261,-0.113454 z m 3.56482,-1.8814 0.6664,-0.246415 -0.61419,-0.845996 c -0.54892,-0.756321 -0.77435,-0.846032 -2.12584,-0.846032 -1.24319,0 -1.63265,0.126083 -2.19075,0.708942 -0.79234,0.827088 -0.57079,1.203925 0.91123,1.55194 0.98213,0.230576 2.16499,0.11684 3.35315,-0.322439 z m -4.76427,-1.680986 c 0.45156,-0.778369 0.45897,-0.929322 0.072,-1.471436 -0.23741,-0.332246 -0.43144,-0.931192 -0.43144,-1.330924 0,-0.567161 -0.20955,-0.801265 -0.95497,-1.065601 -1.33491,-0.473534 -1.3455,-0.467466 -1.3455,0.771243 0,1.355619 0.41558,2.490787 1.21956,3.332903 0.77575,0.812377 0.83784,0.802181 1.44039,-0.236185 z m 7.04074,-0.42044 c 0.41275,-0.7112 0.64382,-1.585031 0.647,-2.446373 0,-0.736953 -0.0409,-1.33992 -0.0963,-1.33992 -0.0554,0 -0.4759,0.130069 -0.93451,0.288995 -0.66463,0.230399 -0.93027,0.587128 -1.30916,1.759232 -0.42192,1.304184 -0.42792,1.560336 -0.055,2.267832 0.52635,0.998432 0.93204,0.875453 1.74802,-0.529766 z m -3.51684,-1.812784 c 1.05869,-1.147904 -0.69603,-2.730641 -1.81292,-1.634984 -0.50836,0.498828 -0.41946,1.565557 0.15839,1.895616 0.73872,0.42224 1.0728,0.369641 1.65453,-0.260632 z m -1.38112,-0.177165 c -0.11078,-0.108797 -0.20179,-0.439385 -0.20179,-0.734625 0,-0.395287 0.17074,-0.513009 0.64699,-0.446616 0.42298,0.05891 0.647,0.284162 0.647,0.650451 0,0.559541 -0.71085,0.904981 -1.0922,0.53079 z m -0.37395,-3.488866 c 0.34467,0 0.46002,-0.28247 0.46002,-1.128395 0,-0.88833 -0.10724,-1.127372 -0.50341,-1.123703 -0.87559,0.0081 -2.76119,1.236203 -3.46392,2.256366 l -0.67698,0.983051 1.09925,0.30741 c 1.02764,0.287267 1.1497,0.254918 1.86267,-0.493677 0.41945,-0.440584 0.96978,-0.801052 1.22237,-0.801052 z m 5.55943,1.015541 c 0.26035,-0.255623 -0.85655,-1.757327 -1.75825,-2.363364 -0.50482,-0.339231 -1.35184,-0.701922 -1.88207,-0.805992 l -0.96449,-0.189265 0.20779,1.10102 c 0.11465,0.605543 0.3429,1.148538 0.50729,1.206641 0.16439,0.05814 0.69709,0.454554 1.18357,0.880956 0.74154,0.649817 1.02129,0.736847 1.72896,0.537775 0.46426,-0.130669 0.90417,-0.296157 0.9772,-0.367771 z m -8.34073,-9.084521 c -0.0956,-0.09373 -0.3436,-0.103752 -0.55104,-0.02223 -0.2293,0.09003 -0.16122,0.15688 0.17357,0.170426 0.30339,0.01235 0.47308,-0.05443 0.37747,-0.148166 z m 2.73791,-0.01623 c -0.19755,-0.07828 -0.52105,-0.07828 -0.71896,0 -0.19756,0.07825 -0.036,0.142275 0.35948,0.142275 0.39546,0 0.55704,-0.06403 0.35948,-0.142275 z m -3.90595,-0.283349 c -0.10549,-0.103435 -0.27799,-0.103435 -0.38347,0 -0.10548,0.103434 -0.0176,0.188065 0.19155,0.188065 0.21097,0 0.2974,-0.08463 0.19192,-0.188065 z m 6.24169,-0.692926 c 0.74577,-0.484541 1.28482,-0.95049 1.19839,-1.035438 -0.0868,-0.08495 -0.44803,0.105656 -0.80328,0.423544 -0.35524,0.317924 -1.03434,0.778793 -1.50883,1.02415 -0.47448,0.245392 -0.72284,0.451238 -0.55245,0.457447 0.17075,0.0064 0.9204,-0.385163 1.66617,-0.869703 z m -7.00863,0.45787 c 0,-0.07758 -0.0646,-0.141041 -0.14393,-0.141041 -0.079,0 -0.14358,0.06346 -0.14358,0.141041 0,0.07758 0.0646,0.14104 0.14358,0.14104 0.0794,0 0.14393,-0.06346 0.14393,-0.14104 z m 5.24792,-0.465843 c 0.75212,-0.38735 0.61207,-1.175597 -0.4311,-2.432191 -1.65805,-1.996476 -1.88277,-2.030554 -3.296,-0.499357 -1.69509,1.836773 -1.62418,2.993037 0.20461,3.337807 0.889,0.167569 2.84727,-0.05824 3.52249,-0.406259 z m -5.98135,0.111019 c -0.14993,-0.117546 -0.6671,-0.530119 -1.14899,-0.916764 -0.83115,-0.667102 -0.82762,-0.656166 0.0677,0.213748 0.51893,0.504226 1.03611,0.916799 1.14899,0.916799 0.11325,0 0.0825,-0.0962 -0.0677,-0.213783 z m 10.1025,-2.651231 c 0.67345,-1.277479 0.35313,-1.218706 -0.36477,0.06696 -0.34149,0.611611 -0.5006,1.039037 -0.35349,0.949819 0.14746,-0.08918 0.47061,-0.54677 0.71826,-1.016776 z m -9.73913,0.255658 c 0.32596,-0.349073 0.86888,-1.174432 1.20649,-1.834091 l 0.61348,-1.199374 -0.9405,-0.568043 c -1.55645,-0.939835 -2.9972,-1.274128 -3.55035,-0.823807 -1.02624,0.835449 0.28998,5.060033 1.57656,5.060033 0.27587,0 0.76835,-0.285609 1.09432,-0.634718 z m 8.66069,-0.0738 c 0.81103,-1.011484 1.3342,-3.311913 0.92427,-4.063541 -0.17638,-0.323215 -0.52634,-0.587657 -0.77787,-0.587657 -0.66604,0 -3.83611,1.442085 -3.83611,1.74505 0,0.141676 0.21167,0.663857 0.4699,1.160392 1.32504,2.544762 2.19887,3.018719 3.21981,1.745756 z m -11.16612,0.302013 c 0,-0.0684 -0.14958,-0.214947 -0.33197,-0.325649 -0.20567,-0.124707 -0.254,-0.0774 -0.127,0.124389 0.20497,0.325191 0.45897,0.436563 0.45897,0.20126 z m 3.73803,-0.721854 c 0.33796,-0.465455 0.54963,-0.846278 0.4706,-0.846278 -0.079,0 -0.42015,0.380823 -0.75812,0.846278 -0.3376,0.465455 -0.54962,0.846279 -0.47025,0.846279 0.079,0 0.42016,-0.380824 0.75777,-0.846279 z m 4.31376,-0.282116 c -0.33796,-0.46542 -0.67803,-0.846243 -0.75565,-0.846243 -0.18273,0 0.15135,0.572205 0.69992,1.19888 0.69109,0.78941 0.72566,0.570476 0.0557,-0.352637 z m -8.72278,-0.188031 c -0.10548,-0.103434 -0.19191,-0.0187 -0.19191,0.188031 0,0.206869 0.0864,0.2915 0.19191,0.188066 0.10549,-0.103435 0.10549,-0.272662 0,-0.376097 z m -0.28751,-0.846278 c -0.10548,-0.103435 -0.19191,-0.0187 -0.19191,0.188066 0,0.206868 0.0864,0.2915 0.19191,0.18803 0.10513,-0.103399 0.10513,-0.272662 0,-0.376096 z m 5.55942,0.04703 c 0,-0.07758 -0.0649,-0.141076 -0.14393,-0.141076 -0.079,0 -0.14358,0.0635 -0.14358,0.141076 0,0.07754 0.0646,0.141041 0.14358,0.141041 0.079,0 0.14393,-0.0635 0.14393,-0.141041 z m 8.2483,-0.476038 c -0.0921,-0.225037 -0.16016,-0.158186 -0.17392,0.170427 -0.0106,0.297356 0.0554,0.463973 0.15099,0.37024 0.0956,-0.09373 0.10583,-0.337044 0.0212,-0.540667 z m -14.08077,-1.847356 c -0.066,-0.428802 -0.12206,-0.144921 -0.12418,0.630837 0,0.775758 0.0519,1.126596 0.1203,0.779639 0.0681,-0.346957 0.0699,-0.981675 0.004,-1.410476 z m 8.04545,1.150161 c 0.55174,-0.826029 0.32385,-1.437711 -0.62301,-1.670791 -0.94297,-0.232163 -1.62701,0.318135 -1.5053,1.210592 0.17039,1.24767 1.42169,1.51825 2.12831,0.460199 z m 6.31789,-0.848431 c -0.10548,-0.103434 -0.19155,-0.0187 -0.19155,0.188066 0,0.206869 0.0861,0.291501 0.19155,0.188066 0.10549,-0.103434 0.10549,-0.272697 0,-0.376132 z m -9.48936,-0.564203 c -0.10549,-0.103434 -0.27799,-0.103434 -0.38347,0 -0.10548,0.103434 -0.0176,0.188066 0.19155,0.188066 0.21097,0 0.2974,-0.08463 0.19192,-0.188066 z m 6.13445,-0.423686 c 0.29986,-0.181716 0.21202,-0.203906 -0.28752,-0.07281 -0.39546,0.103751 -0.91298,0.306281 -1.15005,0.450073 -0.29986,0.181681 -0.21202,0.203906 0.28751,0.07281 0.39547,-0.103752 0.91299,-0.306282 1.15006,-0.450073 z m -6.99735,0.141605 c -0.10548,-0.103435 -0.27798,-0.103435 -0.38311,0 -0.10548,0.103434 -0.0212,0.188066 0.19156,0.188066 0.21096,0 0.29703,-0.08463 0.19155,-0.188066 z m -0.86254,-0.282081 c -0.10548,-0.103435 -0.27799,-0.103435 -0.38347,0 -0.10548,0.103434 -0.0176,0.188066 0.19191,0.188066 0.21061,0 0.29704,-0.08463 0.19156,-0.188066 z m 3.07481,-0.305612 c 0.75001,-2.603852 0.38841,-4.301878 -0.91581,-4.301878 -1.33985,0 -3.78848,1.98942 -3.78848,3.077951 0,0.501368 1.33703,1.184452 2.78553,1.423176 0.7613,0.125448 1.4725,0.242994 1.58045,0.261232 0.10795,0.01834 0.25999,-0.188948 0.33831,-0.460481 z m 5.00098,-0.25534 c 1.53105,-0.533718 1.6189,-1.310746 0.28751,-2.546879 -1.83338,-1.702294 -3.51719,-2.040114 -3.8421,-0.770855 -0.19262,0.753604 0.0212,3.313077 0.31785,3.78213 0.19967,0.317218 1.55011,0.123473 3.23674,-0.464396 z m 2.85644,0.131939 c -0.0921,-0.225037 -0.16016,-0.158186 -0.17392,0.170427 -0.0106,0.297356 0.0554,0.463973 0.15099,0.37024 0.0956,-0.09373 0.10583,-0.337044 0.0212,-0.540667 z m -13.80772,-0.417266 c -0.10548,-0.103434 -0.19191,-0.0187 -0.19191,0.188066 0,0.206869 0.0864,0.2915 0.19191,0.188066 0.10513,-0.103435 0.10513,-0.272697 0,-0.376132 z m 6.91303,-1.571695 c -0.0688,-0.350908 -0.1277,-0.130246 -0.13088,0.490361 0,0.620571 0.0529,0.907697 0.12488,0.637998 0.0723,-0.269734 0.0748,-0.777487 0.007,-1.128359 z m 6.69819,1.249503 c 0,-0.125518 -0.19614,-0.474592 -0.43603,-0.775758 -0.40428,-0.507753 -0.41134,-0.491173 -0.0977,0.228177 0.33867,0.776181 0.53375,0.976312 0.53375,0.547581 z m -12.83617,-1.041259 0.50518,-0.846243 -0.59231,0.665939 c -0.32562,0.366289 -0.59232,0.799994 -0.59232,0.963824 0,0.346886 0.0141,0.330306 0.67945,-0.78352 z m 11.23633,-1.293671 c -0.46461,-0.47879 -1.10349,-1.004746 -1.41958,-1.168788 -0.31644,-0.164042 0.007,0.222497 0.71896,0.858979 1.53705,1.374633 1.88136,1.526928 0.70062,0.309809 z m -8.06027,-1.629939 c -0.1277,-0.151201 -2.0066,1.027571 -2.42393,1.520578 -0.19721,0.233045 0.28716,0.0095 1.07597,-0.497064 0.78916,-0.506448 1.39559,-0.966999 1.34796,-1.023514 z m 5.92173,0.102729 c 0,-0.07758 -0.0646,-0.141041 -0.14394,-0.141041 -0.079,0 -0.14358,0.06347 -0.14358,0.141041 0,0.07758 0.0646,0.14104 0.14358,0.14104 0.0794,0 0.14394,-0.06346 0.14394,-0.14104 z m -4.9844,-0.329107 c -0.10548,-0.103434 -0.27799,-0.103434 -0.38347,0 -0.10548,0.103435 -0.0176,0.188066 0.19156,0.188066 0.21096,0 0.29739,-0.08463 0.19191,-0.188066 z m 4.31341,0 c -0.10548,-0.103434 -0.27799,-0.103434 -0.38347,0 -0.10548,0.103435 -0.0176,0.188066 0.19191,0.188066 0.21061,0 0.29704,-0.08463 0.19156,-0.188066 z m -1.40864,-0.295592 c -0.43215,-0.06438 -1.20862,-0.06569 -1.72543,-0.0035 -0.51682,0.06276 -0.16334,0.115429 0.78563,0.117016 0.94897,0.0035 1.37195,-0.04978 0.9398,-0.114158 z m 10.24643,22.938069 c -1.98296,-1.94504 -0.7433,-4.943404 2.04964,-4.958538 1.42064,-0.0078 2.36538,0.604872 2.91218,1.888384 0.83079,1.95079 -0.63606,4.029251 -2.84409,4.029251 -0.91299,0 -1.33456,-0.190853 -2.11773,-0.959097 z m 3.89114,-0.09874 c 1.86126,-1.694533 0.78564,-4.583959 -1.70603,-4.583959 -2.15195,0 -3.44735,2.046075 -2.46945,3.900981 0.88195,1.672907 2.75202,1.978836 4.17548,0.682978 z M 70.057827,58.11549 c -0.799747,-0.379342 -1.32962,-1.624894 -1.089731,-2.562507 0.464256,-1.813913 2.814108,-2.365234 4.054122,-0.951089 1.815042,2.070206 -0.420511,4.720096 -2.964391,3.513596 z m 1.633008,-1.075125 c 0,-0.376132 0.191558,-0.564198 0.575028,-0.564198 0.316441,0 0.575028,-0.126929 0.575028,-0.282081 0,-0.155152 -0.258587,-0.282081 -0.575028,-0.282081 -0.38347,0 -0.575028,-0.188066 -0.575028,-0.564198 0,-0.310303 -0.1143,-0.564162 -0.254,-0.564162 -0.1397,0 -0.321733,0.253859 -0.404636,0.564162 -0.08255,0.310304 -0.356306,0.564198 -0.608542,0.564198 -0.652991,0 -0.567972,0.470253 0.11677,0.645901 0.316441,0.08117 0.57538,0.349849 0.57538,0.597111 0,0.247227 0.129117,0.44951 0.287514,0.44951 0.158045,0 0.287514,-0.253859 0.287514,-0.564162 z M 43.509893,56.79116 c 0,-1.432313 -0.91193,-1.771403 -2.00731,-0.746477 -0.55457,0.518795 -0.84243,0.61288 -1.22625,0.400649 -0.45297,-0.250542 -0.46214,-0.36957 -0.096,-1.22936 0.36124,-0.848465 0.35348,-0.99822 -0.0737,-1.37742 -0.29669,-0.263455 -0.64347,-0.338632 -0.91052,-0.19745 -1.64465,0.869844 -2.44405,0.296827 -1.4919,-1.06927 0.79304,-1.137567 0.51752,-1.737465 -0.79869,-1.737465 -0.73625,0 -1.15605,-0.147073 -1.27282,-0.446194 -0.25012,-0.638845 -0.25859,-0.625122 0.68791,-1.105323 1.22661,-0.622159 1.18957,-1.660031 -0.072,-2.01489 -1.32468,-0.37271 -1.29963,-1.317378 0.0406,-1.51123 1.4344,-0.207574 1.72897,-1.190695 0.59373,-1.983563 -0.68474,-0.478296 -0.79481,-0.693455 -0.56727,-1.109945 0.23107,-0.423686 0.46214,-0.476708 1.28517,-0.294675 1.41535,0.313161 1.85702,-0.241794 1.22626,-1.53991 -0.40182,-0.826206 -0.40817,-0.99628 -0.0483,-1.289227 0.32667,-0.265959 0.57009,-0.23756 1.14794,0.133915 1.12959,0.726052 1.80939,0.352636 1.91382,-1.051031 0.10865,-1.464063 0.75494,-1.685361 1.46755,-0.502356 0.41522,0.689575 0.62054,0.800806 1.13418,0.614328 0.3683,-0.133633 0.72425,-0.594502 0.86219,-1.116048 0.33479,-1.26813 1.27811,-1.22421 1.52576,0.07105 0.25506,1.333147 1.29929,1.537547 1.99073,0.389608 0.70097,-1.164167 1.4411,-0.937154 1.46614,0.449792 0.0247,1.408394 0.66711,1.8034 1.83233,1.128183 0.68263,-0.395534 0.92428,-0.421181 1.27529,-0.135326 0.38312,0.311856 0.36971,0.454907 -0.115,1.237121 -0.49566,0.799007 -0.50553,0.930875 -0.10584,1.364227 0.3489,0.37839 0.63218,0.426262 1.34127,0.226801 0.641345,-0.18041 0.963784,-0.152823 1.125003,0.0961 0.353131,0.545571 0.285045,0.754486 -0.46355,1.420389 -0.959203,0.853264 -0.581023,1.890571 0.688975,1.890571 0.730956,0 0.872067,0.110596 0.872067,0.682802 0,0.529343 -0.194028,0.724605 -0.862895,0.868715 -1.1744,0.253048 -1.1945,1.327256 -0.03739,1.997851 1.205442,0.698465 0.905933,1.528269 -0.551744,1.528269 -1.430866,0 -1.800576,0.839611 -0.819856,1.863407 0.59761,0.624205 0.616656,0.727534 0.20638,1.129736 -0.40676,0.399238 -0.53482,0.400226 -1.30422,0.0099 -0.76871,-0.389995 -0.89712,-0.389149 -1.30246,0.0085 -0.35384,0.347098 -0.38805,0.615844 -0.1591,1.259487 0.21308,0.600322 0.19403,0.932251 -0.0716,1.246435 -0.31821,0.376131 -0.45367,0.3423 -1.11443,-0.278554 -1.07138,-1.006968 -1.97414,-0.729262 -2.09091,0.643185 -0.11818,1.389733 -1.09114,1.596284 -1.57656,0.334715 -0.45685,-1.187379 -1.56246,-1.193376 -2.01719,-0.01094 -0.21872,0.567902 -0.52317,0.846244 -0.92569,0.846244 -0.50553,0 -0.60007,-0.172862 -0.60007,-1.095446 z m 5.92278,-2.795905 c 2.64936,-1.325844 4.36069,-4.384181 4.05871,-7.253781 -0.19226,-1.82633 -0.96943,-3.346026 -2.40877,-4.708666 -1.46755,-1.38945 -2.86244,-1.917876 -5.06306,-1.917876 -4.21746,0 -7.38576,3.085782 -7.38576,7.193315 0,3.344333 2.12055,6.157348 5.44936,7.228734 1.1878,0.382411 4.09046,0.08851 5.34952,-0.541726 z m 3.54683,-16.481883 c -0.70238,-1.412593 -0.55069,-1.362392 -2.74849,-0.910272 -0.66957,0.137759 -0.73801,0.08184 -0.60537,-0.493677 0.56303,-2.442034 0.58632,-2.302334 -0.49565,-2.978856 -0.56057,-0.350485 -1.01918,-0.743797 -1.01918,-0.873936 0,-0.130175 0.51647,-0.465138 1.14759,-0.744361 l 1.14794,-0.507753 -0.18098,-1.510983 -0.18132,-1.510982 1.22625,0.424356 c 0.67451,0.233433 1.32221,0.424392 1.43933,0.424392 0.11713,0 0.57186,-0.531425 1.01001,-1.180924 l 0.79657,-1.180924 0.684741,1.321965 c 0.376767,0.727075 0.779639,1.316425 0.894997,1.309687 0.115711,-0.0067 0.760236,-0.116664 1.432278,-0.244228 1.376539,-0.261197 1.380419,-0.254564 0.800453,1.358653 l -0.421923,1.173092 1.129948,0.76648 c 0.621241,0.421605 1.134533,0.836401 1.140883,0.921879 0.0071,0.08544 -0.556683,0.425697 -1.249892,0.756144 l -1.260475,0.600816 0.254353,1.335793 c 0.1397,0.73466 0.20955,1.379537 0.155222,1.433054 -0.05468,0.05348 -0.669572,-0.10033 -1.366308,-0.341842 -1.390297,-0.481789 -1.390297,-0.481753 -2.598917,1.294659 l -0.46954,0.689892 z m 2.566105,-2.313869 c 2.325864,-1.179971 1.670403,-4.914547 -0.947205,-5.396265 -2.13431,-0.392818 -3.99662,1.685043 -3.31788,3.702332 0.62124,1.846474 2.49626,2.591188 4.265085,1.693933 z m -20.950415,1.248233 c 0,-0.155151 -0.32738,-0.282081 -0.72778,-0.282081 -0.83467,0 -1.27811,-0.76835 -0.6798,-1.178313 0.30903,-0.211843 0.31856,-0.30801 0.0416,-0.418182 -0.44662,-0.1778 -0.47802,-1.224422 -0.0367,-1.224422 0.22013,0 0.20602,-0.138042 -0.043,-0.432752 -0.29704,-0.350908 -0.29457,-0.564056 0.0141,-1.127019 0.34995,-0.641632 0.27128,-0.846808 -1.03505,-2.70577 -1.25765,-1.789325 -1.41393,-2.176604 -1.41393,-3.506788 0,-2.436142 1.93322,-4.357581 4.38432,-4.357581 2.6804,0 4.39808,1.535535 4.61715,4.127394 0.11042,1.308735 0.0141,1.67079 -0.75706,2.850197 -0.48613,0.743056 -1.08585,1.825484 -1.33279,2.405415 -0.39864,0.935355 -0.40005,1.054347 -0.0141,1.054347 0.52281,0 0.58596,1.021292 0.0759,1.224457 -0.27058,0.107597 -0.25259,0.216182 0.0716,0.438008 0.34925,0.238655 0.36512,0.399733 0.085,0.843704 -0.27905,0.441748 -0.26459,0.615738 0.0751,0.892316 0.51893,0.422275 0.0508,1.114989 -0.75354,1.114989 -0.28751,0 -0.60289,0.12693 -0.70061,0.282081 -0.0977,0.155152 -0.5581,0.282082 -1.02341,0.282082 -0.46496,0 -0.84561,-0.12693 -0.84561,-0.282082 z m 1.91735,-1.034344 c -0.10548,-0.103434 -0.27799,-0.103434 -0.38347,0 -0.10548,0.103434 -0.0176,0.188066 0.19156,0.188066 0.21096,0 0.29704,-0.08463 0.19191,-0.188066 z m -0.19191,-0.658213 c 0.55492,-0.174343 0.35842,-0.231246 -0.86254,-0.249625 -1.11937,-0.01693 -1.45556,0.05613 -1.15041,0.249625 0.49918,0.316371 1.00612,0.316371 2.01295,0 z m 0.28751,-1.692522 c 0.31785,-0.201506 0.12877,-0.273473 -0.71896,-0.273473 -0.63253,0 -1.34408,0.123084 -1.5815,0.273473 -0.31785,0.201472 -0.12841,0.273438 0.71896,0.273438 0.63253,0 1.34444,-0.123049 1.5815,-0.273438 z m -2.30046,-0.705238 c 0,-0.07758 -0.0646,-0.14104 -0.14358,-0.14104 -0.0794,0 -0.14394,0.06346 -0.14394,0.14104 0,0.07758 0.0646,0.141041 0.14394,0.141041 0.079,0 0.14358,-0.06347 0.14358,-0.141041 z m 0.86007,-1.057839 c 0,-0.193922 -0.32526,-1.031663 -0.71896,-1.861608 -0.39405,-0.829945 -0.70309,-1.845451 -0.68686,-2.25672 0.0282,-0.734413 0.0318,-0.732649 0.23989,0.09853 0.11571,0.465455 0.47378,1.346412 0.79587,1.957705 l 0.5849,1.111426 0.61278,-1.358864 c 0.73624,-1.632656 0.83749,-2.532698 0.19085,-1.693651 -0.39582,0.51315 -0.42298,0.481048 -0.43145,-0.510258 -0.0106,-1.169247 0.16757,-1.304713 0.74084,-0.564197 0.53657,0.693737 0.49,1.507419 -0.16863,2.93116 -0.31292,0.67631 -0.5715,1.515286 -0.57503,1.864395 -0.0106,0.901806 0.75494,0.792444 0.98531,-0.141041 0.10548,-0.426685 0.66816,-1.473941 1.25095,-2.327275 0.8823,-1.292577 1.05939,-1.797861 1.06151,-3.02775 0.004,-1.32454 -0.10513,-1.582244 -1.04811,-2.507121 -2.03552,-1.996864 -5.09763,-1.465439 -6.38351,1.107934 -0.71402,1.428714 -0.46567,2.54829 0.98743,4.452302 0.64064,0.839399 1.23719,1.875225 1.32573,2.30191 0.10654,0.51435 0.34255,0.775723 0.69992,0.775723 0.29668,0 0.53798,-0.158644 0.53657,-0.3526 z m -0.35666,-3.50901 c -0.75565,-0.19371 -0.69709,-1.946804 0.0716,-2.144007 0.51118,-0.131057 0.57538,-0.0085 0.57538,1.095446 0,0.683648 -0.0318,1.228301 -0.072,1.210274 -0.0395,-0.01799 -0.29845,-0.09077 -0.57503,-0.161713 z m 32.869012,4.487474 c -0.02117,-0.871255 -0.765175,-1.092588 -1.508831,-0.448486 -0.60078,0.520135 -0.60713,0.518724 -0.450497,-0.09645 0.200025,-0.78299 -0.500592,-1.462687 -1.001183,-0.971655 -0.546453,0.536116 -0.815623,0.372604 -0.623359,-0.378672 0.183445,-0.717762 0.01058,-0.830933 -1.100666,-0.720584 -0.409575,0.04068 -0.467784,-0.105692 -0.323497,-0.813788 0.163336,-0.800135 0.116769,-0.863388 -0.636059,-0.863388 -0.631825,0 -0.735894,-0.07521 -0.46743,-0.338525 0.598664,-0.587093 0.391936,-1.280795 -0.445559,-1.496449 -0.788458,-0.202988 -0.789164,-0.20447 -0.143933,-0.496816 0.355953,-0.16129 0.646994,-0.508318 0.646994,-0.771208 0,-0.26289 -0.291041,-0.605543 -0.646994,-0.761506 l -0.646994,-0.283492 0.646994,-0.201754 c 0.773642,-0.241159 0.85725,-1.143952 0.143933,-1.551552 -0.433916,-0.247826 -0.398286,-0.288713 0.256823,-0.296121 0.967669,-0.01094 1.283052,-0.762706 0.621241,-1.480256 -0.485775,-0.526309 -0.474133,-0.540879 0.352425,-0.452861 0.796925,0.08484 0.851253,0.02999 0.812447,-0.819926 -0.03739,-0.814775 0.01764,-0.880392 0.509059,-0.621665 0.729544,0.38294 1.114425,0.112007 1.114425,-0.784542 0,-0.724994 0.0071,-0.726969 0.601133,-0.198685 0.589844,0.523664 0.608542,0.523487 1.006122,-0.01023 0.222956,-0.299085 0.405695,-0.738223 0.405695,-0.975819 0,-0.304412 0.131939,-0.246839 0.447322,0.19498 0.573969,0.80384 1.161697,0.800559 1.389944,-0.0078 l 0.179211,-0.634718 0.551392,0.697971 c 0.540103,0.683966 0.563033,0.687458 1.142294,0.173179 0.576439,-0.511845 0.596195,-0.511669 0.791986,0.0074 0.306211,0.812589 0.75177,0.973279 1.314098,0.474063 0.475897,-0.422204 0.510116,-0.403437 0.510116,0.279718 0,0.896549 0.384528,1.167482 1.114072,0.784542 0.492831,-0.258727 0.546453,-0.193111 0.509059,0.621665 -0.03845,0.840705 0.02117,0.904311 0.776111,0.825535 0.792339,-0.08269 0.803628,-0.066 0.367594,0.544971 -0.532341,0.745243 -0.17533,1.36899 0.790928,1.382536 0.553508,0.0078 0.564092,0.03588 0.108656,0.296122 -0.702734,0.401461 -0.627945,1.242131 0.14358,1.611277 l 0.646995,0.309633 -0.646995,0.189513 c -0.815975,0.238971 -0.828675,0.813046 -0.03175,1.361545 l 0.616656,0.423581 -0.760236,0.187183 c -0.80645,0.198579 -1.045281,1.048385 -0.403931,1.437252 0.2413,0.146227 0.124883,0.272168 -0.35948,0.38915 -0.568678,0.137371 -0.704145,0.33348 -0.658284,0.953628 0.0448,0.606813 -0.04339,0.742668 -0.395816,0.609988 -0.630414,-0.237313 -1.213556,0.312844 -1.036462,0.977759 0.162278,0.608366 -0.197908,0.731873 -0.699558,0.239854 -0.464255,-0.455366 -0.945092,-0.04953 -0.945092,0.797454 0,0.709789 -0.01764,0.71688 -0.564444,0.231211 -0.700617,-0.621912 -1.443567,-0.380648 -1.463675,0.475297 l -0.01411,0.643573 -0.451203,-0.634718 c -0.248355,-0.349074 -0.613833,-0.634683 -0.8128,-0.634683 -0.198614,0 -0.564091,0.285609 -0.812447,0.634683 l -0.451203,0.634718 -0.01411,-0.643573 z m 0.176389,-1.378091 c -0.105128,-0.103434 -0.277989,-0.103434 -0.383117,0 -0.105481,0.103435 -0.01764,0.188066 0.191558,0.188066 0.210961,0 0.297039,-0.08463 0.191559,-0.188066 z m 2.58833,0 c -0.105481,-0.103434 -0.277989,-0.103434 -0.383469,0 -0.105481,0.103435 -0.01764,0.188066 0.191558,0.188066 0.210961,0 0.297392,-0.08463 0.191911,-0.188066 z m -3.64243,-0.235091 c 0,-0.07754 -0.06491,-0.14104 -0.143934,-0.14104 -0.07902,0 -0.143933,0.0635 -0.143933,0.14104 0,0.07761 0.06491,0.141076 0.143933,0.141076 0.07902,0 0.143934,-0.06347 0.143934,-0.141076 z m 4.600927,0 c 0,-0.07754 -0.06491,-0.14104 -0.143933,-0.14104 -0.07902,0 -0.143581,0.0635 -0.143581,0.14104 0,0.07761 0.06456,0.141076 0.143581,0.141076 0.07902,0 0.143933,-0.06347 0.143933,-0.141076 z m -0.06279,-0.57912 c 3.357386,-1.375798 4.835172,-5.433483 3.137606,-8.614974 -0.779639,-1.461276 -2.797528,-2.913063 -4.404078,-3.168826 -4.873625,-0.775829 -8.770056,3.987094 -6.884106,8.415337 1.328914,3.121448 5.025672,4.649046 8.150578,3.368463 z m 1.931811,-0.408164 c 0.09772,-0.155151 0.113242,-0.282116 0.03528,-0.282116 -0.07902,0 -0.223661,0.126965 -0.32138,0.282116 -0.09772,0.155152 -0.113242,0.282081 -0.03528,0.282081 0.07902,0 0.223661,-0.126929 0.32138,-0.282081 z m -8.482894,-0.0919 c 0,-0.05052 -0.355953,-0.399592 -0.790928,-0.775759 l -0.790928,-0.683859 0.697442,0.775758 c 0.65158,0.725064 0.884414,0.905122 0.884414,0.68386 z m 9.633303,-1.036497 c 0.09772,-0.155151 0.112888,-0.282081 0.03528,-0.282081 -0.07902,0 -0.224014,0.12693 -0.321734,0.282081 -0.09772,0.155152 -0.112889,0.282117 -0.03528,0.282117 0.07902,0 0.224014,-0.126965 0.321734,-0.282117 z M 63.064008,27.561899 c 0,-0.07757 -0.06491,-0.141075 -0.143934,-0.141075 -0.07902,0 -0.14358,0.0635 -0.14358,0.141075 0,0.07754 0.06456,0.141041 0.14358,0.141041 0.07902,0 0.143934,-0.0635 0.143934,-0.141041 z M 62.48898,25.869342 c 0,-0.07758 -0.06491,-0.14104 -0.143933,-0.14104 -0.07902,0 -0.143934,0.06346 -0.143934,0.14104 0,0.07758 0.06491,0.141041 0.143934,0.141041 0.07902,0 0.143933,-0.06346 0.143933,-0.141041 z m 0,-3.102998 c 0,-0.07758 -0.06491,-0.14104 -0.143933,-0.14104 -0.07902,0 -0.143934,0.06346 -0.143934,0.14104 0,0.07758 0.06491,0.141041 0.143934,0.141041 0.07902,0 0.143933,-0.06347 0.143933,-0.141041 z m 13.227755,0 c 0,-0.07758 -0.06491,-0.14104 -0.143933,-0.14104 -0.07902,0 -0.143581,0.06346 -0.143581,0.14104 0,0.07758 0.06456,0.141041 0.143581,0.141041 0.07902,0 0.143933,-0.06347 0.143933,-0.141041 z M 62.776494,21.920066 c 0,-0.07758 -0.06491,-0.141041 -0.143934,-0.141041 -0.07902,0 -0.14358,0.06347 -0.14358,0.141041 0,0.07758 0.06456,0.14104 0.14358,0.14104 0.07902,0 0.143934,-0.06347 0.143934,-0.14104 z m 0.575027,-1.12836 c 0,-0.07758 -0.06456,-0.141041 -0.143933,-0.141041 -0.07902,0 -0.14358,0.06346 -0.14358,0.141041 0,0.07758 0.06456,0.14104 0.14358,0.14104 0.07937,0 0.143933,-0.06346 0.143933,-0.14104 z m 6.326364,-3.102998 c 0,-0.07758 -0.06456,-0.141041 -0.143933,-0.141041 -0.07902,0 -0.143581,0.06347 -0.143581,0.141041 0,0.07758 0.06456,0.14104 0.143581,0.14104 0.07937,0 0.143933,-0.06346 0.143933,-0.14104 z M 47.517443,25.28359 c -0.27023,-0.319123 -0.64558,-0.395146 -1.32962,-0.269275 -0.83079,0.152964 -0.99695,0.08139 -1.29399,-0.558377 -0.27587,-0.594184 -0.50835,-0.717374 -1.22202,-0.647524 -0.73554,0.07204 -0.89676,-0.02222 -0.97613,-0.572311 -0.0632,-0.438926 -0.42299,-0.793044 -1.07845,-1.061614 -0.79022,-0.323991 -0.98319,-0.559364 -0.98319,-1.200256 0,-0.574957 -0.19896,-0.886072 -0.71331,-1.116083 -0.58456,-0.261161 -0.68439,-0.461962 -0.55245,-1.109592 0.11747,-0.576121 0,-0.93225 -0.42581,-1.312157 -0.53728,-0.476849 -0.55209,-0.588398 -0.17427,-1.305066 0.36054,-0.684283 0.35913,-0.827405 -0.0106,-1.128642 -0.55668,-0.453107 -0.53693,-1.096292 0.0529,-1.735843 0.3877,-0.420229 0.41593,-0.648476 0.15099,-1.219164 -0.28787,-0.619903 -0.23989,-0.757592 0.41099,-1.17595 0.56797,-0.364984 0.71014,-0.654685 0.61947,-1.2612859 -0.0974,-0.649464 0.0176,-0.833614 0.65158,-1.050643 0.53905,-0.184362 0.82303,-0.525321 0.94792,-1.138414 0.15099,-0.73974 0.30903,-0.875277 1.02023,-0.875277 0.66887,0 0.901,-0.166793 1.1303,-0.812235 0.24236,-0.681532 0.41134,-0.78927 1.04951,-0.669572 0.53129,0.09962 0.96485,-0.04554 1.43757,-0.4813659 0.55775,-0.513785 0.78317,-0.568395 1.27635,-0.309315 0.47061,0.246944 0.75495,0.214806 1.32151,-0.149331 0.66463,-0.42739 0.77752,-0.428131 1.4291,-0.0092 0.57609,0.37031 0.84455,0.393312 1.4471,0.123966 0.64981,-0.290407 0.79586,-0.25266 1.19732,0.309915 0.35031,0.4906429 0.66076,0.6113289 1.3261,0.5155139 0.74083,-0.106645 0.913337,-0.0088 1.172629,0.664704 0.227542,0.59122 0.523875,0.810895 1.179336,0.873901 0.718256,0.06904 0.9017,0.233751 1.021292,0.917857 0.104069,0.595913 0.350308,0.882403 0.863952,1.004464 0.597606,0.142099 0.703792,0.315066 0.633589,1.029724 -0.06526,0.6593759 0.08326,0.9670689 0.639234,1.3243269 0.627239,0.403295 0.685447,0.564479 0.436033,1.208511 -0.221192,0.570618 -0.186267,0.853722 0.151342,1.219553 0.529166,0.573546 0.551744,0.968692 0.09596,1.684337 -0.258586,0.406224 -0.263172,0.712082 -0.01764,1.238497 0.273756,0.588822 0.233892,0.779745 -0.251883,1.21091 -0.437797,0.388832 -0.535517,0.726652 -0.405694,1.40529 0.14993,0.783378 0.08149,0.915353 -0.55492,1.072057 -0.595489,0.146649 -0.725664,0.348438 -0.725664,1.125361 0,0.824335 -0.110419,0.968375 -0.855133,1.11446 -0.602897,0.118286 -0.908756,0.378213 -1.037519,0.881521 -0.148167,0.579402 -0.357364,0.713775 -1.111603,0.713775 -0.719671,0 -1.005421,0.164077 -1.266821,0.726828 -0.29069,0.625687 -0.45967,0.700476 -1.21568,0.537598 -0.63641,-0.137124 -1.03152,-0.05309 -1.4351,0.305259 -0.46249,0.410422 -0.68192,0.438679 -1.29116,0.166335 -0.50589,-0.226131 -0.90206,-0.24003 -1.27388,-0.04477 -0.73978,0.388303 -1.01988,0.357293 -1.45874,-0.16129 z m 6.13445,-2.05292 c 3.037068,-1.463816 5.071537,-4.402067 5.31707,-7.678772 0.255411,-3.403494 -1.100666,-6.2947899 -3.884436,-8.2830109 -6.423374,-4.587733 -15.587134,0.42665 -14.952834,8.1819749 0.29598,3.614208 2.77248,6.905378 6.13586,8.154494 1.75719,0.652533 5.66455,0.454272 7.38434,-0.374686 z m -4.55153,-0.737446 c -0.30727,-0.227789 -0.84949,-0.418218 -1.20545,-0.423157 -0.71084,-0.0099 -0.92886,-0.961249 -0.28751,-1.254866 0.28751,-0.131621 0.28751,-0.19745 0,-0.329106 -0.43815,-0.20066 -0.48119,-1.245906 -0.0511,-1.245906 0.16933,0 0.0984,-0.205493 -0.15769,-0.456635 -0.42898,-0.420829 -0.42863,-0.496464 0.004,-0.96386 0.54504,-0.590797 0.39334,-0.979311 -1.24989,-3.199235 -1.35714,-1.833316 -1.57692,-3.805732 -0.58209,-5.2274969 1.14336,-1.634207 2.08633,-2.141608 3.97969,-2.141608 1.2573,0 1.88842,0.149261 2.4952,0.590127 2.27294,1.652305 2.75942,4.1281339 1.24953,6.3639349 -0.47095,0.697371 -1.04951,1.722366 -1.28622,2.277815 -0.37818,0.887942 -0.37889,1.029159 -0.007,1.169353 0.51682,0.194592 0.55738,0.915176 0.0642,1.140989 -0.28752,0.131621 -0.28752,0.197449 0,0.329106 0.44661,0.204541 0.4773,1.245905 0.0367,1.245905 -0.22437,0 -0.21449,0.128059 0.0318,0.419524 0.46566,0.550474 0.16615,1.272998 -0.52776,1.272998 -0.30198,0 -0.71014,0.19043 -0.90699,0.423157 -0.45085,0.532871 -0.889,0.53534 -1.59844,0.0088 z m 1.88595,-1.842559 c 0.31785,-0.201506 0.12876,-0.273473 -0.71897,-0.273473 -0.63253,0 -1.34443,0.123084 -1.5815,0.273473 -0.31785,0.201472 -0.12876,0.273438 0.71896,0.273438 0.63253,0 1.34444,-0.123048 1.58151,-0.273438 z m -0.15805,-1.665993 c -0.15346,-0.143474 -0.77752,-0.157727 -1.42346,-0.03246 l -1.15041,0.223096 1.42346,0.03246 c 0.85866,0.0194 1.31516,-0.06893 1.15041,-0.223096 z m -0.20743,-0.761188 c -0.0956,-0.0937 -0.34361,-0.103752 -0.55104,-0.02222 -0.22931,0.09006 -0.16122,0.156915 0.17357,0.170427 0.30338,0.01235 0.47307,-0.0544 0.37747,-0.148132 z m -1.2252,-1.310534 c -0.10548,-0.349074 -0.50729,-1.303655 -0.89323,-2.121253 -0.52176,-1.105676 -0.62724,-1.611595 -0.41169,-1.974638 0.26458,-0.444924 0.29068,-0.438186 0.29703,0.07609 0.004,0.310303 0.29563,1.207311 0.64806,1.993335 l 0.64064,1.429103 0.65511,-1.386593 c 0.77188,-1.634278 0.9017,-2.605052 0.23248,-1.737148 -0.39441,0.511669 -0.42263,0.474662 -0.43109,-0.563457 l -0.0106,-1.111004 0.57502,0.605579 c 0.72214,0.760519 0.72355,1.374881 0.007,2.925586 -0.31291,0.676346 -0.57185,1.515322 -0.57502,1.864396 -0.007,0.901805 0.75494,0.792444 0.9853,-0.141041 0.10549,-0.426649 0.65582,-1.46812 1.22344,-2.314363 1.34549,-2.005965 1.52999,-3.466289 0.60819,-4.8084319 -1.82034,-2.650454 -5.43843,-2.492833 -6.93632,0.302154 -0.75918,1.4171779 -0.48472,2.8098399 0.9017,4.5756339 0.63465,0.808073 1.24248,1.818358 1.35079,2.245007 0.13158,0.516431 0.38558,0.775758 0.76059,0.775758 0.44943,0 0.52458,-0.128552 0.37182,-0.634717 z m -0.20673,-3.226929 c -0.76376,-0.195827 -0.70097,-1.927579 0.072,-1.984694 0.48507,-0.03584 0.57538,0.131375 0.57538,1.068318 0,0.610976 -0.0318,1.096116 -0.072,1.078124 -0.0395,-0.01799 -0.29845,-0.09077 -0.57538,-0.161748 z"
         id="path24902"
         clip-path="url(#clipPath25044)"
         transform="matrix(0.68964297,0,0,0.70735083,-21.495372,-41.575808)" /></g></g></svg>
