<?xml version="1.0" encoding="UTF-8" standalone="no"?>
<!-- Created with Inkscape (http://www.inkscape.org/) -->

<svg
   width="80"
   height="80"
   viewBox="0 0 21.166665 21.166667"
   version="1.1"
   id="svg7932"
   inkscape:version="1.2.2 (b0a8486541, 2022-12-01)"
   sodipodi:docname="main-drawing.svg"
   xml:space="preserve"
   inkscape:export-filename="yellow/spiral.svg"
   inkscape:export-xdpi="96"
   inkscape:export-ydpi="96"
   xmlns:inkscape="http://www.inkscape.org/namespaces/inkscape"
   xmlns:sodipodi="http://sodipodi.sourceforge.net/DTD/sodipodi-0.dtd"
   xmlns="http://www.w3.org/2000/svg"
   xmlns:svg="http://www.w3.org/2000/svg"><sodipodi:namedview
     id="namedview7934"
     pagecolor="#ffffff"
     bordercolor="#000000"
     borderopacity="0.25"
     inkscape:showpageshadow="2"
     inkscape:pageopacity="0.0"
     inkscape:pagecheckerboard="0"
     inkscape:deskcolor="#d1d1d1"
     inkscape:document-units="mm"
     showgrid="false"
     inkscape:zoom="2.8177596"
     inkscape:cx="20.583729"
     inkscape:cy="58.557159"
     inkscape:window-width="1920"
     inkscape:window-height="1016"
     inkscape:window-x="0"
     inkscape:window-y="0"
     inkscape:window-maximized="1"
     inkscape:current-layer="layer1" /><defs
     id="defs7929" /><g
     inkscape:label="Layer 1"
     inkscape:groupmode="layer"
     id="layer1"><path
       style="fill:#ffffff;stroke-width:0.035483"
       d="M 9.7222083,20.896775 C 6.4598392,20.519474 3.6647936,18.695356 2.0573415,15.894484 1.465059,14.862473 1.0383788,13.626153 0.84583717,12.384104 0.75279885,11.783932 0.71737128,10.423295 0.77901925,9.8176578 1.0066412,7.5813006 1.9033854,5.4387431 3.2938294,3.809108 3.4020641,3.6822562 3.5124797,3.5522302 3.5391985,3.5201616 3.5823673,3.4683552 3.5647995,3.4487753 3.3816828,3.3445353 2.9180875,3.0806381 2.3674873,2.6369459 2.0382881,2.2619838 1.7706139,1.9570986 1.308386,1.388376 1.320417,1.3787193 1.325957,1.3743093 1.5380406,1.3923743 1.7917441,1.4189323 3.5567288,1.6036469 5.5351141,1.2591762 7.9603728,0.34486609 8.2913815,0.22007708 8.5677443,0.12351396 8.5745114,0.13028021 8.5812871,0.13703708 8.4649522,0.33284825 8.3160107,0.56539333 7.4331931,1.9437468 6.8934011,3.0053727 6.4384096,4.2581273 6.265812,4.7333497 6.0535572,5.5087582 6.012543,5.8139022 L 5.9886969,5.9913175 6.2262355,5.7339256 C 7.1933055,4.686028 8.7232387,3.8409776 10.189265,3.5449675 10.79518,3.4226252 11.179041,3.3839416 11.790501,3.383602 c 0.932339,-5.068e-4 1.716855,0.1269728 2.62644,0.4268176 1.757419,0.5793334 3.256837,1.7231861 4.300722,3.2808733 0.49397,0.7371022 0.995143,1.9179595 1.182257,2.7856227 0.194112,0.9001034 0.256207,2.0938264 0.152268,2.9271534 -0.136024,1.090552 -0.435022,2.087326 -0.913582,3.045619 -1.357953,2.719231 -3.869162,4.524691 -6.96806,5.009758 -0.506466,0.07928 -1.901691,0.100549 -2.4483325,0.03733 z M 11.9399,19.547739 c 2.045182,-0.293569 3.855722,-1.308732 5.097721,-2.858273 0.847014,-1.056752 1.41649,-2.333919 1.64544,-3.69024 0.0904,-0.535554 0.108208,-1.559043 0.03685,-2.118673 -0.30926,-2.4256499 -1.712,-4.4094093 -3.859906,-5.4586946 C 12.955556,4.4915043 10.768286,4.4663285 8.9593224,5.3539407 7.103396,6.2645969 5.8562351,7.9991227 5.5884211,10.042124 c -0.3888821,2.966561 1.4798383,5.562225 4.3644281,6.062212 0.4259068,0.07382 1.1987278,0.07259 1.6406808,-0.0026 1.225903,-0.208629 2.31048,-0.899587 2.972147,-1.893488 C 16.114538,11.881632 15.153466,8.9214757 12.63223,8.2530684 12.172292,8.1311344 11.478484,8.1255967 11.052824,8.2404634 9.8616202,8.5619153 9.0733782,9.4859689 8.9911785,10.657324 c -0.082248,1.172047 0.8082607,2.154807 1.8896505,2.085407 0.470529,-0.0302 0.87031,-0.315975 0.98573,-0.704637 0.05574,-0.187665 0.07183,-0.359184 0.03698,-0.394027 -0.01023,-0.01024 -0.07868,0.04145 -0.15209,0.114867 -0.445167,0.445167 -1.120149,0.119254 -1.16907,-0.564482 -0.02209,-0.308699 0.07533,-0.550994 0.301616,-0.75018 0.242399,-0.213367 0.492176,-0.296594 0.898075,-0.299242 0.317293,-0.0021 0.35411,0.0055 0.576358,0.118295 0.544749,0.276499 0.877281,0.849381 0.876071,1.509285 -0.0018,0.976796 -0.624742,1.822595 -1.592035,2.161548 -0.264693,0.09275 -0.368209,0.109185 -0.770319,0.122291 -0.492266,0.01605 -0.762926,-0.02875 -1.2239658,-0.202614 C 8.7827507,13.527483 8.0263944,12.662534 7.7683196,11.704078 7.6604453,11.303444 7.6348302,10.54017 7.7149591,10.11401 8.0072959,8.5592113 9.1646966,7.3593037 10.771776,6.9449284 c 0.351656,-0.090672 0.444928,-0.1000111 1.008449,-0.100973 0.688921,-0.00119 1.021615,0.049626 1.561255,0.2384029 0.738888,0.2584765 1.294528,0.6074343 1.847167,1.1600736 0.713191,0.7131913 1.164798,1.5637251 1.371352,2.5827331 0.09665,0.47679 0.08715,1.570495 -0.01785,2.055097 -0.235818,1.088356 -0.734558,2.035682 -1.479736,2.81066 -0.979921,1.019108 -2.21959,1.617741 -3.679973,1.777052 C 9.7263142,17.648638 7.900513,17.077064 6.5642159,15.959607 5.8426942,15.356247 5.3064063,14.65906 4.8775386,13.766881 4.4943426,12.969715 4.2962819,12.224155 4.2223534,11.300562 4.1056144,9.8421196 4.5276174,8.1738116 5.3398284,6.8828429 L 5.5379379,6.5679582 5.3927366,6.38608 C 4.9911797,5.8830927 4.5864462,5.1933558 4.4399451,4.7623563 L 4.3762054,4.5748419 4.1380521,4.8750168 c -1.1686452,1.472995 -1.8745323,3.2619256 -2.0435985,5.1790992 -0.2295767,2.603339 0.6972158,5.190534 2.5130187,7.015247 1.4383033,1.44536 3.3780638,2.340204 5.4872837,2.531375 0.424651,0.03849 1.403637,0.01036 1.845143,-0.05301 z"
       id="path92416" /></g></svg>
