<?xml version="1.0" encoding="UTF-8" standalone="no"?>
<!-- Created with Inkscape (http://www.inkscape.org/) -->

<svg
   width="120"
   height="120"
   viewBox="0 0 31.749999 31.749999"
   version="1.1"
   id="svg7932"
   inkscape:version="1.2.2 (b0a8486541, 2022-12-01)"
   sodipodi:docname="main-drawing.svg"
   xml:space="preserve"
   inkscape:export-filename="black/car-cog.svg"
   inkscape:export-xdpi="96"
   inkscape:export-ydpi="96"
   xmlns:inkscape="http://www.inkscape.org/namespaces/inkscape"
   xmlns:sodipodi="http://sodipodi.sourceforge.net/DTD/sodipodi-0.dtd"
   xmlns="http://www.w3.org/2000/svg"
   xmlns:svg="http://www.w3.org/2000/svg"><sodipodi:namedview
     id="namedview7934"
     pagecolor="#ffffff"
     bordercolor="#000000"
     borderopacity="0.25"
     inkscape:showpageshadow="2"
     inkscape:pageopacity="0.0"
     inkscape:pagecheckerboard="0"
     inkscape:deskcolor="#d1d1d1"
     inkscape:document-units="mm"
     showgrid="false"
     inkscape:zoom="1.4088798"
     inkscape:cx="100.78929"
     inkscape:cy="42.587025"
     inkscape:window-width="1920"
     inkscape:window-height="1016"
     inkscape:window-x="0"
     inkscape:window-y="0"
     inkscape:window-maximized="1"
     inkscape:current-layer="layer1" /><defs
     id="defs7929"><linearGradient
       id="linearGradient121619"
       inkscape:swatch="solid"><stop
         style="stop-color:#886e0f;stop-opacity:1;"
         offset="0"
         id="stop121617" /></linearGradient></defs><g
     inkscape:label="Layer 1"
     inkscape:groupmode="layer"
     id="layer1"><path
       style="fill:#000000;stroke-width:0.0495676"
       d="m 14.625774,31.390861 c -0.189523,-0.08949 -0.298523,-0.183806 -0.403247,-0.348939 -0.149096,-0.235102 -0.372186,-0.887011 -0.551891,-1.612724 -0.21375,-0.863195 -0.158378,-0.771123 -0.518104,-0.861483 -0.175822,-0.04417 -0.349017,-0.0803 -0.384878,-0.0803 -0.03586,0 -0.343552,0.337512 -0.68376,0.750027 -0.883149,1.070853 -1.238512,1.334489 -1.69945,1.260782 -0.4440798,-0.07102 -0.6843295,-0.35941 -0.7756586,-0.931115 -0.04885,-0.305781 0.00338,-1.841386 0.073275,-2.155374 0.020452,-0.09184 -0.0307,-0.141787 -0.3229998,-0.315439 L 9.0117639,26.889967 8.4045464,27.28503 C 7.1910395,28.074552 6.9013034,28.210609 6.4959378,28.181286 6.1177263,28.153927 5.9153594,28.011777 5.7545333,27.660487 5.5779131,27.274696 5.6286621,27.034757 6.1919119,25.592651 6.3505682,25.186438 6.4644154,24.82647 6.4449057,24.792721 6.425397,24.758971 6.3122099,24.626356 6.1933764,24.498017 6.0315186,24.323208 5.9506934,24.270798 5.8711875,24.289095 5.812817,24.302527 5.3656239,24.416986 4.8774288,24.543443 3.5204295,24.894947 3.1729932,24.871982 2.7962539,24.405874 2.6646125,24.243003 2.6422966,24.17475 2.6422966,23.934982 c 0,-0.443484 0.2295616,-0.816508 1.250876,-2.032597 L 4.1991173,21.538096 4.075056,21.208496 C 4.0068183,21.027217 3.9353564,20.864892 3.9162422,20.847775 3.8971228,20.830664 3.4688365,20.792071 2.9644856,20.762019 1.5604589,20.678367 1.2241327,20.589043 0.94747717,20.226327 0.8271644,20.06859 0.80829514,19.999121 0.80829514,19.713943 c 0,-0.285791 0.0187561,-0.354499 0.14027957,-0.513823 C 1.1449062,18.942717 1.5869379,18.60353 2.3879439,18.095645 L 3.0753754,17.65977 3.0510283,17.319436 C 3.0371284,17.125118 2.997383,16.950784 2.9584076,16.9131 2.9208609,16.876797 2.6113203,16.741863 2.2705435,16.613244 0.80294255,16.059319 0.44967881,15.82071 0.33158351,15.303591 0.23031401,14.86014 0.55776784,14.42434 1.1593083,14.201994 c 0.1886146,-0.06972 0.7109761,-0.220482 1.1608018,-0.335031 0.4498258,-0.114551 0.8368578,-0.22658 0.8600694,-0.248955 0.023214,-0.02238 0.07395,-0.192098 0.1127386,-0.377165 0.05709,-0.272342 0.058491,-0.347462 0.00735,-0.394069 C 3.2655284,12.815105 2.9582824,12.566268 2.6175047,12.293807 1.8929668,11.714519 1.4125727,11.219251 1.3286907,10.965089 1.1973952,10.567257 1.3865594,10.117716 1.7767731,9.9002183 1.9837264,9.7848694 2.0440117,9.7769204 2.7166409,9.7762999 3.1119422,9.7759527 3.6919918,9.7929434 4.005638,9.814106 L 4.5759036,9.852581 4.7367592,9.5599831 c 0.088471,-0.1609283 0.1608556,-0.314078 0.1608556,-0.340332 0,-0.026252 -0.1941445,-0.3468528 -0.4314317,-0.7124415 C 3.8345075,7.5339778 3.6088633,7.0775881 3.6088633,6.7731779 c 0,-0.1360722 0.030683,-0.3208482 0.068195,-0.4106142 C 3.7655393,6.1507956 4.0795697,5.8938757 4.301512,5.8516729 4.5828604,5.798175 5.1528795,5.9454973 6.1120286,6.3196088 6.7220086,6.5575287 7.0277665,6.6538647 7.0785977,6.6241497 7.1194937,6.600244 7.248118,6.4965535 7.3644365,6.3937269 L 7.5759259,6.2067689 7.3794558,5.5220951 C 6.9049411,3.8684563 6.9011674,3.3247836 7.3617732,2.9734648 7.5628028,2.8201323 7.9620405,2.7680842 8.2381602,2.8592124 c 0.2293279,0.075682 0.7979525,0.482732 1.4993595,1.0733107 0.3037613,0.2557652 0.5797903,0.4650276 0.6133953,0.4650276 0.03361,0 0.192148,-0.058812 0.352315,-0.1306878 0.277292,-0.1244412 0.291223,-0.1392503 0.291442,-0.309798 7.5e-4,-0.5129006 0.113541,-1.8588879 0.1813,-2.1618146 0.06776,-0.3029327 0.107424,-0.3759828 0.312487,-0.5755315 0.154935,-0.1507653 0.296162,-0.24005517 0.414939,-0.26233801 0.214561,-0.0402551 0.547021,0.0407146 0.744452,0.18129311 0.185491,0.1320813 0.607377,0.7039879 1.111714,1.5070298 L 14.163477,3.288843 14.47492,3.2673 c 0.171295,-0.011849 0.33782,-0.042688 0.370056,-0.068533 0.03223,-0.025845 0.186034,-0.3745133 0.341773,-0.7748207 0.500436,-1.2863077 0.737486,-1.69146377 1.080891,-1.84741019 0.260505,-0.11829944 0.496332,-0.11746515 0.761037,0.002681 0.374213,0.16986735 0.598491,0.66225169 0.96099,2.10975519 0.08608,0.3437515 0.184979,0.653463 0.219764,0.6882475 0.06211,0.06211 0.652241,0.2103643 0.685896,0.1723091 0.0094,-0.010681 0.239865,-0.2982434 0.512038,-0.6390211 0.542722,-0.6795266 1.16433,-1.3071573 1.373298,-1.386607 0.192494,-0.073188 0.555678,-0.062569 0.717218,0.020963 0.247248,0.1278565 0.438054,0.3955548 0.503133,0.7058877 0.05879,0.2803643 0.04332,1.3002254 -0.03295,2.1715665 l -0.03037,0.3469732 0.282682,0.1610943 c 0.155472,0.088603 0.298062,0.1610954 0.316866,0.1610954 0.0188,0 0.441656,-0.2553056 0.939676,-0.5673463 1.015382,-0.6362003 1.361871,-0.7920462 1.682383,-0.7567104 0.29724,0.032768 0.571762,0.2300653 0.706018,0.5074046 0.186891,0.3860618 0.107012,0.7577801 -0.488692,2.2741446 -0.282278,0.7185331 -0.284682,0.6893987 0.08603,1.0415823 l 0.152218,0.1446132 0.75692,-0.2080516 c 1.673374,-0.4599525 2.029741,-0.4655948 2.405102,-0.038083 0.192792,0.2195769 0.22945,0.3485752 0.199995,0.7037587 -0.01905,0.2297017 -0.06537,0.334024 -0.301629,0.6792652 -0.153518,0.2243364 -0.502844,0.6755495 -0.77628,1.0026954 -0.273436,0.3271474 -0.497265,0.6120304 -0.4974,0.6330764 -1.49e-4,0.02104 0.06527,0.182759 0.145349,0.359365 l 0.145595,0.3211 0.461608,1.5e-4 c 0.613992,2.43e-4 1.531475,0.08585 1.896268,0.17695 0.606723,0.151535 0.909022,0.590941 0.770445,1.119882 -0.08486,0.323912 -0.575185,0.763338 -1.505727,1.34943 l -0.77836,0.490241 0.033,0.35241 c 0.01816,0.193824 0.04707,0.367462 0.06428,0.385862 0.0172,0.01841 0.343553,0.149236 0.725223,0.290747 1.636166,0.606635 2.036209,0.938892 1.935889,1.607862 -0.07263,0.484286 -0.463609,0.736631 -1.619393,1.045166 -0.364908,0.09741 -0.796986,0.215182 -0.960173,0.26171 l -0.296703,0.0846 -0.07003,0.30315 c -0.03852,0.166734 -0.05719,0.336621 -0.04149,0.377528 0.0157,0.04091 0.292257,0.291789 0.614577,0.557513 0.762754,0.628824 1.190375,1.044777 1.308592,1.272884 0.151245,0.291838 0.129708,0.670735 -0.05242,0.922152 -0.08124,0.112161 -0.215181,0.238812 -0.297625,0.281446 -0.239274,0.123732 -0.772744,0.165728 -1.541711,0.121364 -0.392904,-0.02266 -0.83793,-0.04243 -0.988942,-0.04391 l -0.274569,-0.0027 -0.159147,0.277082 c -0.08754,0.152393 -0.159148,0.312534 -0.159148,0.355865 0,0.04333 0.198746,0.381482 0.441657,0.751447 0.781337,1.190004 0.936347,1.58951 0.777808,2.004635 -0.09677,0.253377 -0.283008,0.443152 -0.540441,0.550687 -0.308613,0.128916 -0.810895,0.01119 -2.033469,-0.476614 l -0.734848,-0.293204 -0.182152,0.144984 c -0.100183,0.07974 -0.231796,0.198251 -0.292473,0.263355 l -0.110321,0.118371 0.152129,0.543332 c 0.243668,0.870255 0.389771,1.5638 0.390254,1.852521 5.61e-4,0.347943 -0.169034,0.648202 -0.463725,0.820904 -0.495241,0.290228 -0.860561,0.132885 -2.148782,-0.925486 l -0.655052,-0.538167 -0.311535,0.130455 c -0.171343,0.07175 -0.335915,0.150257 -0.365718,0.174459 -0.03216,0.02612 -0.06707,0.351424 -0.08589,0.8003 -0.06244,1.489559 -0.177015,1.924905 -0.572622,2.175793 -0.312411,0.198124 -0.643257,0.196979 -0.959096,-0.0032 -0.244255,-0.154902 -0.73615,-0.804535 -1.269541,-1.676652 l -0.280575,-0.458781 -0.322187,0.029 c -0.177206,0.01596 -0.358126,0.03889 -0.402049,0.05096 -0.05064,0.01391 -0.184467,0.298097 -0.365782,0.776707 -0.462349,1.220456 -0.698283,1.630109 -1.02842,1.785645 -0.303733,0.143095 -0.487502,0.146389 -0.768372,0.01377 z m 2.081847,-4.563058 c 2.402655,-0.254987 4.500357,-1.148541 6.257402,-2.665454 1.977457,-1.707199 3.275353,-4.113294 3.667641,-6.799214 0.09093,-0.622602 0.10529,-2.023461 0.02696,-2.630734 C 26.175555,10.979449 23.962038,7.8476742 20.617855,6.1842516 19.615469,5.685658 18.633961,5.3710234 17.41345,5.1570403 16.701888,5.0322875 14.836072,5.0331937 14.141988,5.1585983 12.041169,5.5382596 10.285757,6.3381856 8.7623109,7.6100711 6.0614171,9.8649776 4.5533686,13.509765 4.8998267,16.945268 c 0.2487286,2.466418 1.31881,4.785637 3.0257874,6.557882 1.8451244,1.915672 4.2997229,3.082651 7.0342409,3.344254 0.654394,0.0626 1.010587,0.0586 1.747767,-0.01963 z m -1.747767,-0.549495 c -0.06815,-0.01164 -0.324668,-0.0462 -0.570028,-0.07678 -0.245361,-0.03057 -0.702622,-0.118205 -1.016137,-0.194721 C 9.8139886,25.138028 6.9210658,22.372154 5.9151283,18.875803 5.6244445,17.865468 5.5243234,17.143314 5.5227906,16.04594 5.5204582,14.367982 5.8054017,13.067997 6.4886673,11.639558 6.8465841,10.891296 7.1336207,10.412123 7.5755138,9.825203 9.2021121,7.664763 11.615702,6.2315476 14.341949,5.8072227 15.06946,5.69399 16.568057,5.6919706 17.309642,5.8032416 c 2.976079,0.4464778 5.501262,2.0394409 7.161438,4.5176544 0.827494,1.235238 1.388477,2.689192 1.62403,4.209159 0.113143,0.73008 0.113354,2.231797 3.75e-4,2.946595 -0.346533,2.193218 -1.267197,4.072157 -2.754689,5.621911 -1.568145,1.633784 -3.509396,2.668388 -5.753899,3.066582 -0.542318,0.09621 -2.286546,0.171356 -2.627085,0.113179 z m 2.166044,-0.345346 c 2.262102,-0.294173 4.23563,-1.263772 5.842094,-2.870234 1.560535,-1.560536 2.538871,-3.524612 2.853214,-5.728027 0.09473,-0.663999 0.08131,-2.219885 -0.02457,-2.850138 C 25.429548,12.299545 24.437965,10.377757 22.89872,8.8681195 18.767598,4.8164609 12.005701,5.0933111 8.2401587,9.4682795 5.3138778,12.868159 4.9827204,17.713808 7.4206901,21.459114 c 1.5947575,2.449929 4.1859219,4.078262 7.1178339,4.472974 0.683758,0.09205 1.883132,0.09246 2.587369,8.65e-4 z M 14.687232,22.166104 C 12.167286,21.69788 10.256219,19.788759 9.7268557,17.210782 9.6026913,16.606099 9.5993962,15.399159 9.7202776,14.79772 10.229261,12.265109 12.056493,10.366607 14.488971,9.8430319 c 0.648613,-0.1396107 1.666565,-0.1376624 2.354459,0.00452 1.820664,0.3762791 3.398183,1.6098991 4.214072,3.2954081 0.465395,0.961435 0.649951,1.752407 0.654225,2.803862 0.0072,1.779333 -0.600141,3.267411 -1.842679,4.5146 -0.868256,0.871506 -1.74275,1.358682 -2.976049,1.657938 -0.467832,0.11352 -1.705281,0.139752 -2.205759,0.04676 z m 2.280109,-0.367525 c 1.759394,-0.462083 3.086335,-1.556547 3.868544,-3.190781 0.40925,-0.855027 0.581952,-1.647602 0.579828,-2.660991 -0.0032,-1.57109 -0.562409,-2.98754 -1.617972,-4.098936 -0.527805,-0.555723 -0.947256,-0.880409 -1.524647,-1.180189 -0.859149,-0.446067 -1.675983,-0.63985 -2.668861,-0.633152 -1.490164,0.01005 -2.84882,0.582113 -3.91655,1.649062 -0.859065,0.858436 -1.402156,1.875123 -1.668323,3.123159 -0.1221162,0.572608 -0.1224067,1.792211 -5.62e-4,2.367618 0.262606,1.240144 0.847899,2.313865 1.719107,3.153713 0.864099,0.832994 1.806115,1.320629 2.985751,1.545574 0.528611,0.100801 1.726663,0.06071 2.243685,-0.07508 z m -2.20576,-1.41348 c -0.177201,-0.03805 -0.450525,-0.114233 -0.607383,-0.169292 -0.361427,-0.126863 -0.978779,-0.44965 -0.978779,-0.511758 0,-0.02595 0.1169,-0.218363 0.25978,-0.427578 0.142878,-0.209215 0.263806,-0.387933 0.26873,-0.397152 0.005,-0.0091 0.107862,0.04121 0.228751,0.11205 0.120891,0.07085 0.38473,0.187657 0.586311,0.259578 0.317498,0.11328 0.459312,0.132745 1.060458,0.145555 l 0.693945,0.01478 0.09305,0.475484 c 0.05117,0.261516 0.07892,0.489606 0.06166,0.506868 -0.06702,0.06702 -1.345129,0.06048 -1.666508,-0.0085 z m 2.574301,-0.789984 c -0.107278,-0.228931 -0.195055,-0.437661 -0.195055,-0.463847 0,-0.02618 0.136139,-0.131638 0.302527,-0.23434 0.528601,-0.326271 1.003311,-0.866201 1.265947,-1.439877 0.06824,-0.149079 0.142497,-0.271054 0.164987,-0.271054 0.127306,0 0.893624,0.320947 0.893624,0.374265 0,0.24686 -0.495432,1.049047 -0.944133,1.528711 -0.274468,0.293406 -1.126002,0.922378 -1.248763,0.922378 -0.02424,0 -0.131852,-0.187305 -0.239134,-0.416236 z m -5.248116,-0.874846 c -0.560055,-0.70852 -0.944619,-1.832053 -0.944619,-2.75977 v -0.162395 h 0.290486 c 0.15977,0 0.390987,0.01378 0.513821,0.03061 l 0.223332,0.03061 0.03241,0.388706 c 0.05359,0.642615 0.289996,1.284841 0.659655,1.792049 0.09399,0.128968 0.158388,0.254724 0.143101,0.279458 -0.01528,0.02473 -0.182788,0.182384 -0.372225,0.350333 l -0.34443,0.305362 z m 7.246431,-2.661459 -0.309799,-0.0176 -9.53e-4,-0.208298 c -0.0023,-0.572985 -0.29212,-1.360362 -0.699486,-1.900797 l -0.229605,-0.304605 0.336871,-0.33429 c 0.2216,-0.219902 0.362792,-0.324344 0.412623,-0.305222 0.136561,0.0524 0.524639,0.595529 0.750575,1.050453 0.260507,0.52453 0.414093,1.080092 0.455626,1.648123 l 0.0299,0.408934 -0.218026,-0.0096 c -0.119911,-0.0052 -0.357431,-0.01746 -0.52782,-0.02716 z m -7.518812,-1.246714 c -0.216405,-0.07458 -0.402429,-0.162481 -0.413381,-0.195347 -0.03285,-0.09849 0.408436,-0.951374 0.671679,-1.298205 0.356337,-0.469488 1.079199,-1.092254 1.407627,-1.212716 0.04291,-0.01573 0.149282,0.132722 0.30513,0.425827 0.131593,0.247491 0.231969,0.454372 0.223053,0.459732 -0.757044,0.455294 -1.33328,1.09237 -1.561106,1.725924 -0.054,0.150147 -0.114069,0.236709 -0.162585,0.234258 -0.04232,-0.0022 -0.254011,-0.0649 -0.470417,-0.139473 z m 5.251092,-1.889424 c -0.478551,-0.226409 -0.925609,-0.319303 -1.487028,-0.308986 -0.272622,0.005 -0.551167,0.01536 -0.618987,0.02299 -0.116403,0.0131 -0.129506,-0.0111 -0.233986,-0.432226 -0.06087,-0.24536 -0.101953,-0.471199 -0.09128,-0.501865 0.05814,-0.167177 1.407655,-0.166704 2.067679,7.3e-4 0.366636,0.093 1.107031,0.397996 1.224285,0.504322 0.02319,0.02102 -0.505581,0.865455 -0.538484,0.859916 -0.01364,-0.0023 -0.158617,-0.0675 -0.322189,-0.144877 z"
       id="path140274" /></g></svg>
