<?xml version="1.0" encoding="UTF-8" standalone="no"?>
<!-- Created with Inkscape (http://www.inkscape.org/) -->

<svg
   width="120"
   height="120"
   viewBox="0 0 31.749999 31.749999"
   version="1.1"
   id="svg7932"
   inkscape:version="1.2.2 (b0a8486541, 2022-12-01)"
   sodipodi:docname="main-drawing.svg"
   xml:space="preserve"
   inkscape:export-filename="white/cog-s1.svg"
   inkscape:export-xdpi="96"
   inkscape:export-ydpi="96"
   xmlns:inkscape="http://www.inkscape.org/namespaces/inkscape"
   xmlns:sodipodi="http://sodipodi.sourceforge.net/DTD/sodipodi-0.dtd"
   xmlns="http://www.w3.org/2000/svg"
   xmlns:svg="http://www.w3.org/2000/svg"><sodipodi:namedview
     id="namedview7934"
     pagecolor="#ffffff"
     bordercolor="#000000"
     borderopacity="0.25"
     inkscape:showpageshadow="2"
     inkscape:pageopacity="0.0"
     inkscape:pagecheckerboard="0"
     inkscape:deskcolor="#d1d1d1"
     inkscape:document-units="mm"
     showgrid="false"
     inkscape:zoom="1.9924569"
     inkscape:cx="4.5170361"
     inkscape:cy="31.11736"
     inkscape:window-width="1920"
     inkscape:window-height="1016"
     inkscape:window-x="0"
     inkscape:window-y="0"
     inkscape:window-maximized="1"
     inkscape:current-layer="layer1" /><defs
     id="defs7929"><linearGradient
       id="linearGradient121619"
       inkscape:swatch="solid"><stop
         style="stop-color:#886e0f;stop-opacity:1;"
         offset="0"
         id="stop121617" /></linearGradient></defs><g
     inkscape:label="Layer 1"
     inkscape:groupmode="layer"
     id="layer1"><path
       style="fill:#000000;stroke-width:0.0565717"
       d="M 14.766832,31.334459 C 14.339819,31.207746 14.08463,30.706042 13.779948,29.39424 l -0.132711,-0.571378 -0.637091,-0.138598 -0.637092,-0.138598 -0.343441,0.443069 c -0.813216,1.04912 -1.300207,1.440687 -1.698605,1.365771 -0.277027,-0.05209 -0.5402029,-0.269084 -0.6252771,-0.515551 -0.083518,-0.241951 -0.098132,-1.04117 -0.033037,-1.806615 l 0.044134,-0.518985 -0.5359942,-0.315449 c -0.2947993,-0.173498 -0.5540305,-0.31545 -0.5760723,-0.31545 -0.022044,0 -0.311357,0.17531 -0.6429212,0.389577 C 7.1891555,27.771367 6.8307738,27.951384 6.5262914,27.993119 6.2435922,28.031867 5.9990035,27.930231 5.8164421,27.698138 5.5552079,27.366033 5.6107526,26.980465 6.0980895,25.743049 L 6.3842632,25.016414 5.9457655,24.541135 5.5072661,24.065855 5.2484696,24.141462 C 3.65619,24.606635 3.1426629,24.637272 2.7933264,24.287934 2.6572782,24.151887 2.6189518,24.058521 2.600134,23.817326 2.579009,23.54665 2.5984382,23.481316 2.7931573,23.166731 2.9122329,22.974394 3.2133158,22.571487 3.4622325,22.271383 3.7111468,21.97128 3.922996,21.703121 3.9330069,21.675477 3.9430183,21.647833 3.8619056,21.427034 3.7527552,21.184815 3.643605,20.942597 3.5278506,20.674411 3.4955236,20.588846 3.4375773,20.43547 3.4297375,20.433267 2.9403436,20.43281 2.2426346,20.432166 1.4759365,20.335158 1.1985117,20.21244 0.75478633,20.016159 0.58902631,19.496398 0.84042975,19.089623 0.97853076,18.866171 1.6174812,18.378594 2.2674349,18.000687 L 2.7052715,17.746114 2.6726977,17.378398 C 2.5999425,16.557127 2.5679885,16.360037 2.5073482,16.358544 2.3805884,16.355479 0.96664907,15.756277 0.73059371,15.605664 0.38527225,15.385333 0.25392893,15.153377 0.28306719,14.815326 0.32799585,14.29409 0.71545199,14.058958 2.0817865,13.723754 L 2.7379255,13.562783 2.883403,12.910718 3.0288806,12.258652 2.8552074,12.117569 C 1.5322577,11.042867 1.258058,10.727533 1.2748056,10.300085 c 0.010604,-0.270446 0.1736711,-0.5238941 0.418563,-0.6505331 0.2342399,-0.1211304 0.894814,-0.1555353 1.684006,-0.087712 0.4844716,0.041639 0.6615916,0.039177 0.6937175,-0.0096 0.023728,-0.03606 0.1826017,-0.2999645 0.3530525,-0.5864589 L 4.7340561,8.4448416 4.3362881,7.8343047 C 3.6359898,6.7594127 3.4897342,6.3205331 3.7131873,5.9645291 3.8649508,5.7227427 4.1472892,5.5553754 4.4038515,5.5551121 4.6568136,5.5548343 5.150526,5.704456 5.8900318,6.0054512 c 0.3085109,0.1255711 0.5885418,0.2272036 0.6222904,0.22585 0.033743,-0.00135 0.275273,-0.2010715 0.5367255,-0.443818 L 7.5244175,5.346126 7.3115503,4.5140935 C 7.1394017,3.8412198 7.1029099,3.6072434 7.1207829,3.2909406 7.1396206,2.9575587 7.1659057,2.8757916 7.2988238,2.7370523 7.7529661,2.2630311 8.2192125,2.4140534 9.420457,3.4242719 9.8264076,3.7656668 9.909002,3.813023 10.02038,3.7682449 10.09142,3.7396839 10.378506,3.6188232 10.658356,3.4996622 l 0.508816,-0.2166557 0.03611,-0.7530442 c 0.05659,-1.1798299 0.192615,-1.62883805 0.549363,-1.81331999 0.344637,-0.17821804 0.72404,-0.0825735 1.052248,0.2652616 0.167747,0.17777819 0.718634,0.98036899 0.95788,1.39554129 l 0.108661,0.1885642 0.367717,-0.035399 c 0.202244,-0.019469 0.511427,-0.05003 0.687075,-0.067914 l 0.319359,-0.032516 0.309319,-0.774208 c 0.476305,-1.1921667 0.706709,-1.474967 1.201691,-1.474967 0.522945,0 0.786998,0.39804877 1.10679,1.6684443 0.10182,0.4044882 0.187206,0.7396455 0.189745,0.7447948 0.02245,0.045538 1.357421,0.2993016 1.387477,0.2637452 0.02177,-0.025753 0.259109,-0.3170556 0.527425,-0.6473428 0.74536,-0.9175127 1.027979,-1.1141813 1.461229,-1.0168368 0.569768,0.1280182 0.708845,0.5086685 0.649724,1.7782796 -0.02174,0.4668882 -0.04441,0.872152 -0.05037,0.9005863 -0.0059,0.028432 0.254432,0.212649 0.578657,0.4093661 l 0.589499,0.3576666 0.492262,-0.3309956 c 0.627508,-0.4219357 1.185755,-0.7181109 1.445311,-0.7668039 0.459049,-0.086118 0.861826,0.2177229 0.915094,0.6903167 0.03134,0.2780326 -0.148266,0.9159267 -0.468618,1.6643814 -0.108364,0.2531786 -0.197026,0.48743 -0.197026,0.5205597 0,0.03313 0.12111,0.1899818 0.269132,0.3485608 0.148023,0.1585785 0.340919,0.3753495 0.428656,0.4817137 l 0.159524,0.1933889 0.858352,-0.2164287 c 1.074647,-0.2709662 1.407525,-0.2842946 1.718471,-0.068808 0.153443,0.1063356 0.246387,0.2244505 0.288836,0.3670544 0.125382,0.4212133 -0.05274,0.7826492 -0.864185,1.7535842 l -0.438784,0.5250268 0.287504,0.6346949 0.287504,0.634695 0.73263,0.03679 c 1.130723,0.05678 1.523774,0.169146 1.762039,0.503756 0.102055,0.143331 0.119699,0.229781 0.09865,0.483529 -0.03362,0.405407 -0.192586,0.57253 -1.135845,1.194119 -0.5449,0.359078 -0.716794,0.500471 -0.695366,0.571978 0.01566,0.05224 0.05765,0.375021 0.09331,0.717281 0.03566,0.342258 0.06855,0.623557 0.07307,0.625107 0.30641,0.104963 1.224001,0.480947 1.45081,0.594472 0.624425,0.312543 0.834105,0.722277 0.606279,1.18472 -0.180865,0.367119 -0.558788,0.538044 -1.992796,0.90129 l -0.226798,0.05745 -0.126461,0.609637 c -0.06956,0.335301 -0.140982,0.661866 -0.158727,0.725701 -0.02563,0.09222 0.04102,0.173572 0.324446,0.396002 0.65126,0.511099 1.109687,0.980703 1.207575,1.237017 0.15364,0.402303 -0.0061,0.780266 -0.42041,0.994403 -0.186519,0.09642 -0.937824,0.130426 -1.603437,0.07258 l -0.551746,-0.04795 -0.353402,0.593718 c -0.194371,0.326545 -0.362057,0.614321 -0.372633,0.639501 -0.01057,0.02518 0.136273,0.285832 0.326334,0.579225 0.428798,0.661925 0.6828,1.191492 0.682858,1.423686 1.14e-4,0.407221 -0.282273,0.744137 -0.666631,0.795388 -0.27195,0.03626 -0.75302,-0.09091 -1.539278,-0.406896 l -0.63162,-0.253843 -0.377367,0.333633 c -0.207552,0.183497 -0.446161,0.393325 -0.530241,0.466282 l -0.152874,0.132651 0.200186,0.763719 c 0.116212,0.44336 0.20407,0.919746 0.209445,1.13568 0.0081,0.323902 -0.0113,0.401705 -0.149861,0.602167 -0.114124,0.165106 -0.21811,0.24486 -0.367717,0.28203 -0.423409,0.105197 -0.808452,-0.08553 -1.734477,-0.859155 l -0.564162,-0.471316 -0.199557,0.09946 c -0.109756,0.0547 -0.381262,0.169792 -0.603347,0.255745 -0.381719,0.147737 -0.405647,0.167522 -0.437808,0.361979 -0.0187,0.113135 -0.03429,0.359113 -0.03464,0.546615 -9.37e-4,0.521826 -0.107923,1.260977 -0.215332,1.487938 -0.199952,0.422502 -0.735067,0.589894 -1.125235,0.351992 -0.209116,-0.1275 -0.668935,-0.728211 -1.086876,-1.419898 l -0.292233,-0.483643 -0.323482,0.04043 c -0.177915,0.02224 -0.467755,0.04259 -0.644091,0.04521 l -0.320608,0.0048 -0.09921,0.268715 c -0.580666,1.572933 -0.825233,1.976428 -1.26788,2.091788 -0.121059,0.03155 -0.267745,0.0309 -0.377476,-0.0017 z m 2.289002,-5.643793 c 2.392299,-0.262831 4.634464,-1.352474 6.236287,-3.030699 0.545101,-0.571099 0.765237,-0.861096 0.70023,-0.922452 -0.06745,-0.06366 -3.416649,-2.265961 -3.446018,-2.265961 -0.01248,0 0.01868,0.108193 0.06926,0.240429 0.05946,0.155458 0.09267,0.420374 0.09397,0.749577 0.0018,0.47274 -0.01283,0.539911 -0.205791,0.939401 -0.452766,0.937361 -1.616238,1.664401 -2.983433,1.864312 -0.553308,0.08091 -0.993537,0.01522 -1.50633,-0.224742 -0.368912,-0.172635 -0.80642,-0.567057 -0.961366,-0.86669 -0.04751,-0.09189 -0.09518,-0.158289 -0.105914,-0.147555 -0.05641,0.05641 -0.993624,3.40853 -0.970114,3.469799 0.02457,0.06403 0.481593,0.149023 1.16769,0.217164 0.452776,0.04497 1.398362,0.03379 1.911527,-0.02259 z m -4.378719,-0.604364 c 0.01627,-0.05445 0.197479,-0.709975 0.402676,-1.456724 0.205197,-0.746746 0.407913,-1.476286 0.450478,-1.621199 l 0.07739,-0.263478 -0.307105,0.140596 c -0.634037,0.290272 -1.418234,0.228972 -2.11062,-0.164985 -0.717944,-0.408501 -1.6074142,-1.490589 -1.8782913,-2.285043 -0.1985828,-0.582418 -0.1810713,-1.223343 0.047088,-1.723572 0.18378,-0.402925 0.4754166,-0.76203 0.8355423,-1.028837 l 0.226288,-0.167649 -0.8202906,0.03465 c -0.4511594,0.01906 -1.4535053,0.05179 -2.2274324,0.07275 l -1.4071418,0.03809 0.037195,0.410451 c 0.049416,0.545299 0.3249038,1.658188 0.5632515,2.275349 0.9653516,2.499611 2.9306563,4.523326 5.4295193,5.590888 0.316047,0.13502 0.592007,0.245991 0.613245,0.246603 0.02124,6.44e-4 0.05194,-0.04344 0.06821,-0.09789 z m 5.109002,-3.604471 c 0.754929,-0.238528 1.261642,-0.645595 1.261642,-1.013536 0,-0.276542 -0.281084,-0.666531 -0.691468,-0.959375 -0.452163,-0.322657 -1.332792,-0.75169 -1.400342,-0.682234 -0.02722,0.02797 -0.128832,0.251566 -0.225831,0.496868 -0.457964,1.158141 -0.454023,2.01079 0.01023,2.212496 0.270613,0.117575 0.547487,0.103221 1.045775,-0.05421 z m 7.2893,-1.362451 c 0.262305,-0.546523 0.704384,-1.804537 0.704384,-2.004451 0,-0.05979 0.03747,-0.252573 0.08327,-0.428394 0.155823,-0.598247 0.219532,-1.709217 0.145148,-2.531155 -0.156004,-1.723865 -0.640711,-3.160714 -1.528599,-4.531324 l -0.348618,-0.538147 -0.833821,0.662085 c -1.845095,1.465067 -2.318608,1.848034 -2.303566,1.863075 0.0087,0.0087 0.165237,0.04338 0.34796,0.07715 0.928524,0.171646 1.647959,0.899799 1.923141,1.946447 0.04909,0.186687 0.103033,0.63219 0.119886,0.990006 0.03469,0.736638 -0.0516,1.272887 -0.287888,1.789012 -0.175676,0.383728 -0.726808,0.946214 -1.08034,1.102598 l -0.260801,0.115365 1.488826,1.011132 c 0.818853,0.556123 1.507485,1.012403 1.530291,1.013956 0.0228,0.0015 0.158134,-0.240257 0.300728,-0.537356 z m -12.196004,0.04518 c 0.32045,-0.322258 0.606033,-1.213024 0.639333,-1.994155 l 0.01326,-0.311145 -0.424288,-0.04317 c -0.518369,-0.05275 -1.229511,-0.0079 -1.620432,0.102283 -0.36517,0.102889 -0.64244,0.391734 -0.64244,0.669258 0,0.272548 0.290909,0.81103 0.656255,1.21475 0.36627,0.404741 0.637541,0.568274 0.948554,0.571827 0.17934,0.002 0.256846,-0.03575 0.429754,-0.209643 z m 4.244906,-1.726706 c 0.337362,-0.700996 1.394771,-2.30284 1.672066,-2.532974 0.07062,-0.05862 0.121421,-0.04005 0.295612,0.108066 1.29381,1.100086 2.155209,1.325024 2.501492,0.653219 0.129868,-0.251947 0.11781,-1.436951 -0.0182,-1.789457 -0.326459,-0.846065 -1.037848,-0.717221 -2.18164,0.395129 l -0.538836,0.524024 -0.305033,-0.297737 c -0.640655,-0.625333 -1.924316,-2.298516 -1.852528,-2.414672 0.01841,-0.02978 0.172141,-0.133486 0.341636,-0.230461 0.81809,-0.468064 1.426023,-1.093439 1.484137,-1.526719 0.06853,-0.510897 -0.533883,-0.928601 -1.546969,-1.07265 -0.887758,-0.12623 -1.276502,0.250482 -1.09802,1.064034 0.08922,0.406705 0.342741,1.020252 0.592277,1.433408 l 0.194901,0.322694 -0.180589,0.111084 c -0.477243,0.293563 -2.141175,0.94523 -2.769587,1.084687 -0.321875,0.07143 -0.325736,0.07466 -0.296087,0.247044 0.11855,0.689306 0.152981,1.109228 0.176669,2.154681 l 0.02692,1.188006 0.407313,0.0642 c 0.783027,0.123419 2.444451,0.582017 2.755045,0.760467 0.150026,0.0862 0.195328,0.05336 0.33943,-0.246073 z M 8.3415507,15.248987 c 0.5367237,-0.02069 0.9758626,-0.04499 0.9758626,-0.05401 0,-0.009 -0.050779,-0.102474 -0.1128492,-0.207669 -0.4005837,-0.67894 -0.3757941,-1.674106 0.063403,-2.545181 0.5967988,-1.183655 1.4573999,-1.962431 2.3440399,-2.121171 0.58384,-0.104528 1.414785,0.09269 1.792718,0.425482 0.05445,0.04795 0.099,0.06371 0.099,0.03503 0,-0.05969 -1.344368,-3.7984444 -1.404407,-3.9057307 -0.02903,-0.051868 -0.173856,-0.0066 -0.54796,0.1712623 C 9.3783224,8.0801293 7.5278619,10.030153 6.667611,12.193514 6.2836582,13.159082 6.0769161,14.009201 5.9584374,15.109631 l -0.026776,0.248664 0.7170123,-0.03585 c 0.3943555,-0.01972 1.1561494,-0.05277 1.6928748,-0.07345 z m 4.6671713,-0.814964 c 0.386236,-0.08257 0.3869,-0.08535 0.191019,-0.797316 -0.297752,-1.082235 -0.716836,-1.689196 -1.166327,-1.689196 -0.368218,0 -0.92197,0.543096 -1.240158,1.216293 -0.208596,0.441336 -0.248147,0.670389 -0.154458,0.894524 0.166166,0.397519 0.46946,0.501806 1.365774,0.46962 0.373374,-0.01341 0.825241,-0.05568 1.00415,-0.09392 z m 8.825197,-4.233706 c 0.770083,-0.5976051 1.400152,-1.1083976 1.400152,-1.1350938 0,-0.026695 -0.222751,-0.2435146 -0.495003,-0.4818185 -2.065895,-1.808294 -4.771205,-2.7229425 -7.451967,-2.519462 -0.604503,0.045883 -1.878136,0.2457213 -1.936212,0.3037986 -0.0068,0.00681 0.257399,0.730944 0.587128,1.6091913 l 0.599507,1.5968126 0.188829,-0.2206032 c 0.707992,-0.8271295 2.032061,-1.0281248 3.474101,-0.5273734 1.079015,0.3746896 1.780508,1.0787784 1.971655,1.9789484 0.03501,0.164883 0.06365,0.378851 0.06365,0.475485 0,0.161813 0.0079,0.16902 0.099,0.09119 0.05445,-0.04648 0.729069,-0.573464 1.499152,-1.17107 z"
       id="path145663" /></g></svg>
