<?xml version="1.0" encoding="UTF-8" standalone="no"?>
<!-- Created with Inkscape (http://www.inkscape.org/) -->

<svg
   width="120"
   height="120"
   viewBox="0 0 31.749999 31.749999"
   version="1.1"
   id="svg7932"
   inkscape:version="1.2.2 (b0a8486541, 2022-12-01)"
   sodipodi:docname="main-drawing.svg"
   xml:space="preserve"
   inkscape:export-filename="white/rando4.svg"
   inkscape:export-xdpi="96"
   inkscape:export-ydpi="96"
   xmlns:inkscape="http://www.inkscape.org/namespaces/inkscape"
   xmlns:sodipodi="http://sodipodi.sourceforge.net/DTD/sodipodi-0.dtd"
   xmlns="http://www.w3.org/2000/svg"
   xmlns:svg="http://www.w3.org/2000/svg"><sodipodi:namedview
     id="namedview7934"
     pagecolor="#ffffff"
     bordercolor="#000000"
     borderopacity="0.25"
     inkscape:showpageshadow="2"
     inkscape:pageopacity="0.0"
     inkscape:pagecheckerboard="0"
     inkscape:deskcolor="#d1d1d1"
     inkscape:document-units="mm"
     showgrid="false"
     inkscape:zoom="1.9924569"
     inkscape:cx="4.5170361"
     inkscape:cy="-9.0340723"
     inkscape:window-width="1920"
     inkscape:window-height="1016"
     inkscape:window-x="0"
     inkscape:window-y="0"
     inkscape:window-maximized="1"
     inkscape:current-layer="layer1" /><defs
     id="defs7929"><linearGradient
       id="linearGradient121619"
       inkscape:swatch="solid"><stop
         style="stop-color:#886e0f;stop-opacity:1;"
         offset="0"
         id="stop121617" /></linearGradient></defs><g
     inkscape:label="Layer 1"
     inkscape:groupmode="layer"
     id="layer1"><path
       style="fill:#000000;stroke-width:0.0615089"
       d="M 13.234502,28.472308 C 11.896343,25.858558 11.582781,25.319105 11.222329,25.010571 10.575119,24.456584 9.9726893,24.469312 6.7145567,25.105814 4.8876641,25.462711 4.430307,25.501132 4.2234229,25.315088 4.1001207,25.204207 4.0896269,25.149592 4.1170594,24.761508 4.1337964,24.524698 4.2908221,23.735846 4.4660038,23.008503 5.2247751,19.85814 5.3254742,18.978098 4.9993447,18.347433 4.8444237,18.047848 4.2841479,17.590353 3.4792089,17.106158 1.9105277,16.162551 0.73211372,15.280411 0.4667993,14.851127 L 0.33201528,14.63304 0.45386275,14.469015 C 0.60789326,14.261665 1.3898869,13.738 2.0728251,13.384868 2.361587,13.235557 3.3857125,12.77729 4.3486573,12.366499 5.3116021,11.955709 6.1209998,11.598883 6.1473161,11.573554 6.1736358,11.548222 5.9891984,9.8827555 5.737459,7.8725125 5.485719,5.8622693 5.2892101,4.2079748 5.3007711,4.1963025 c 0.011556,-0.011671 1.0678889,0.3261596 2.34739,0.7507387 2.6049249,0.8643947 3.9925339,1.2691265 4.3519699,1.2693638 0.223313,1.229e-4 0.282796,-0.041743 0.776352,-0.546704 0.609874,-0.6239698 1.583075,-1.9023093 2.918378,-3.8334 0.507448,-0.7338651 0.936472,-1.33544086 0.953388,-1.33683555 0.01692,-0.001373 0.51219,0.88995645 1.100614,1.98077895 0.588424,1.0908242 1.238878,2.2550841 1.44546,2.5872449 0.484082,0.7783595 1.114124,1.6184337 1.310102,1.7468436 0.190502,0.1248203 0.464291,0.090777 3.155842,-0.3924046 1.207908,-0.2168421 2.131479,-0.3491649 2.59333,-0.371555 0.710509,-0.034449 0.718813,-0.033268 0.876501,0.1244215 0.353722,0.3537229 0.250768,0.7465215 -1.250075,4.7693692 -0.307459,0.82411 -0.559015,1.520159 -0.559015,1.546777 0,0.02661 0.26987,0.222705 0.599712,0.43575 2.844789,1.83745 4.465374,2.975542 4.934597,3.465428 0.171336,0.178882 0.201067,0.244202 0.149742,0.328969 -0.19839,0.327647 -2.206404,1.394569 -5.007452,2.660623 -0.693515,0.313462 -1.271806,0.57893 -1.285097,0.589928 -0.0133,0.011 0.0082,0.17981 0.04774,0.375137 0.676981,3.343456 0.988743,5.222133 0.990354,5.967832 l 9.08e-4,0.44594 h -0.275089 c -0.372737,0 -1.887141,-0.395276 -3.407012,-0.889266 -1.545157,-0.502209 -1.890191,-0.584886 -2.44568,-0.586039 -1.128524,-0.0024 -1.581558,0.425139 -3.868989,3.65074 -0.709563,1.00059 -1.303957,1.8192 -1.320871,1.819138 -0.01692,-6.3e-5 -0.556657,-1.027328 -1.199426,-2.282813 z m 3.352239,-5.800207 c 0.751102,-0.115223 1.152184,-0.223131 1.957917,-0.52676 1.943056,-0.732212 3.290517,-2.047454 3.941907,-3.847653 0.64127,-1.772241 0.496675,-3.955762 -0.37845,-5.714948 C 21.35992,11.078714 20.028626,9.7977775 18.55206,9.1611956 17.46447,8.6923096 16.49785,8.5214844 15.210367,8.5706369 c -1.689179,0.06449 -3.117523,0.6041899 -4.464786,1.6870261 -1.6638017,1.337245 -2.6480718,3.314973 -2.6466093,5.317921 7.263e-4,0.81552 0.077692,1.28193 0.3436764,2.07915 1.1739203,3.518521 4.5113849,5.574647 8.1440929,5.017367 z"
       id="path153134" /></g></svg>
