<?xml version="1.0" encoding="UTF-8" standalone="no"?>
<!-- Created with Inkscape (http://www.inkscape.org/) -->

<svg
   width="120"
   height="120"
   viewBox="0 0 31.749999 31.749999"
   version="1.1"
   id="svg7932"
   inkscape:version="1.2.2 (b0a8486541, 2022-12-01)"
   sodipodi:docname="main-drawing.svg"
   xml:space="preserve"
   inkscape:export-filename="white/cog-m3.svg"
   inkscape:export-xdpi="96"
   inkscape:export-ydpi="96"
   xmlns:inkscape="http://www.inkscape.org/namespaces/inkscape"
   xmlns:sodipodi="http://sodipodi.sourceforge.net/DTD/sodipodi-0.dtd"
   xmlns="http://www.w3.org/2000/svg"
   xmlns:svg="http://www.w3.org/2000/svg"><sodipodi:namedview
     id="namedview7934"
     pagecolor="#ffffff"
     bordercolor="#000000"
     borderopacity="0.25"
     inkscape:showpageshadow="2"
     inkscape:pageopacity="0.0"
     inkscape:pagecheckerboard="0"
     inkscape:deskcolor="#d1d1d1"
     inkscape:document-units="mm"
     showgrid="false"
     inkscape:zoom="1.4088798"
     inkscape:cx="100.78929"
     inkscape:cy="42.587025"
     inkscape:window-width="1920"
     inkscape:window-height="1016"
     inkscape:window-x="0"
     inkscape:window-y="0"
     inkscape:window-maximized="1"
     inkscape:current-layer="layer1" /><defs
     id="defs7929"><linearGradient
       id="linearGradient121619"
       inkscape:swatch="solid"><stop
         style="stop-color:#886e0f;stop-opacity:1;"
         offset="0"
         id="stop121617" /></linearGradient></defs><g
     inkscape:label="Layer 1"
     inkscape:groupmode="layer"
     id="layer1"><g
       id="g139510"
       transform="matrix(1.2106815,0,0,1.2106815,-4.2268907,-2.7351741)"><path
         sodipodi:type="star"
         style="opacity:1;fill:none;fill-opacity:1;fill-rule:nonzero;stroke:#000000;stroke-width:1.265;stroke-linecap:round;stroke-linejoin:bevel;stroke-dasharray:none;stroke-dashoffset:3.37663;stroke-opacity:1;paint-order:stroke fill markers"
         id="path138758"
         inkscape:flatsided="false"
         sodipodi:sides="20"
         sodipodi:cx="9.2973232"
         sodipodi:cy="10.900214"
         sodipodi:r1="12.268195"
         sodipodi:r2="8.8331003"
         sodipodi:arg1="0.68476368"
         sodipodi:arg2="0.84184331"
         inkscape:rounded="0.09"
         inkscape:randomized="0"
         d="m 18.799881,18.659725 c -0.216523,0.265161 -3.363589,-1.399172 -3.618926,-1.171147 -0.255337,0.228025 1.043882,3.542547 0.756017,3.727821 -0.287864,0.185274 -2.766595,-2.370097 -3.079899,-2.232136 -0.313304,0.137961 -0.101916,3.69174 -0.432945,3.778991 -0.331028,0.08725 -1.898788,-3.109022 -2.23939,-3.074629 -0.3406018,0.03439 -1.2377385,3.479559 -1.5795272,3.460246 -0.3417887,-0.01931 -0.8451145,-3.543613 -1.179674,-3.616156 -0.3345596,-0.07254 -2.2524023,2.926776 -2.5714947,2.80279 -0.3190924,-0.123987 0.291285,-3.631331 -0.00448,-3.803708 -0.2957682,-0.172377 -3.0465852,2.087498 -3.3117463,1.870975 -0.2651611,-0.216523 1.3991715,-3.363589 1.1711466,-3.618926 -0.2280249,-0.255337 -3.54254709,1.043882 -3.727821,0.756017 -0.185274,-0.287864 2.3700973,-2.766595 2.2321363,-3.079899 -0.137961,-0.313304 -3.6917398,-0.101916 -3.7789907,-0.432945 -0.087251,-0.331028 3.10902148,-1.898788 3.074629,-2.23939 C 0.47452042,11.447027 -2.9706464,10.54989 -2.9513335,10.208102 -2.9320207,9.866313 0.59227944,9.3629873 0.66482204,9.0284278 0.73736463,8.6938682 -2.2619532,6.7760254 -2.1379671,6.456933 -2.013981,6.1378406 1.4933638,6.7482181 1.6657405,6.4524499 1.8381172,6.1566818 -0.42175754,3.4058647 -0.20523477,3.1407037 0.01128801,2.8755426 3.1583542,4.5398752 3.4136915,4.3118503 3.6690289,4.0838254 2.3698095,0.76930318 2.6576742,0.58402922 2.9455388,0.39875526 5.4242695,2.9541265 5.7375734,2.8161656 6.0508772,2.6782046 5.8394898,-0.87557422 6.1705182,-0.96282515 6.5015466,-1.0500761 8.0693064,2.1461963 8.4099083,2.1118039 c 0.340602,-0.034393 1.2377387,-3.4795593 1.5795274,-3.4602465 0.3417883,0.019313 0.8451143,3.543613 1.1796743,3.6161556 0.334559,0.072543 2.252402,-2.92677525 2.571494,-2.80278913 0.319093,0.12398611 -0.291285,3.63133093 0.0045,3.80370763 0.295769,0.1723767 3.046586,-2.0874981 3.311747,-1.8709753 0.265161,0.2165228 -1.399172,3.3635889 -1.171147,3.6189263 0.228025,0.2553373 3.542547,-1.0438821 3.727821,-0.7560174 0.185274,0.2878647 -2.370097,2.7665954 -2.232136,3.0798992 0.137961,0.3133039 3.69174,0.1019165 3.778991,0.4329449 0.08725,0.3310283 -3.109022,1.8987882 -3.074629,2.2393898 0.03439,0.340602 3.479559,1.237739 3.460246,1.579528 -0.01931,0.341788 -3.543613,0.845114 -3.616156,1.179674 -0.07254,0.334559 2.926776,2.252402 2.80279,2.571494 -0.123987,0.319093 -3.631331,-0.291285 -3.803708,0.0045 -0.172377,0.295769 2.087498,3.046586 1.870975,3.311747 z"
         transform="translate(7.2736069,4.3659221)" /><path
         style="font-variation-settings:normal;opacity:1;fill:none;fill-opacity:1;fill-rule:evenodd;stroke:#000000;stroke-width:3.865;stroke-linecap:butt;stroke-linejoin:miter;stroke-miterlimit:4;stroke-dasharray:none;stroke-dashoffset:0;stroke-opacity:1;stop-color:#000000;stop-opacity:1"
         id="path138760"
         sodipodi:type="arc"
         sodipodi:cx="16.564392"
         sodipodi:cy="15.297498"
         sodipodi:rx="8.6966019"
         sodipodi:ry="8.6966019"
         sodipodi:start="0.086039185"
         sodipodi:end="0.083959649"
         sodipodi:open="true"
         sodipodi:arc-type="arc"
         d="M 25.228824,16.044823 A 8.6966019,8.6966019 0 0 1 15.821571,23.962317 8.6966019,8.6966019 0 0 1 7.8991874,14.559181 8.6966019,8.6966019 0 0 1 17.298203,6.6319103 8.6966019,8.6966019 0 0 1 25.23036,16.026804" /></g></g></svg>
