<?xml version="1.0" encoding="UTF-8" standalone="no"?>
<!-- Created with Inkscape (http://www.inkscape.org/) -->

<svg
   width="120"
   height="120"
   viewBox="0 0 31.749999 31.749999"
   version="1.1"
   id="svg7932"
   inkscape:version="1.2.2 (b0a8486541, 2022-12-01)"
   sodipodi:docname="main-drawing.svg"
   xml:space="preserve"
   inkscape:export-filename="white/cog-m1.svg"
   inkscape:export-xdpi="96"
   inkscape:export-ydpi="96"
   xmlns:inkscape="http://www.inkscape.org/namespaces/inkscape"
   xmlns:sodipodi="http://sodipodi.sourceforge.net/DTD/sodipodi-0.dtd"
   xmlns="http://www.w3.org/2000/svg"
   xmlns:svg="http://www.w3.org/2000/svg"><sodipodi:namedview
     id="namedview7934"
     pagecolor="#ffffff"
     bordercolor="#000000"
     borderopacity="0.25"
     inkscape:showpageshadow="2"
     inkscape:pageopacity="0.0"
     inkscape:pagecheckerboard="0"
     inkscape:deskcolor="#d1d1d1"
     inkscape:document-units="mm"
     showgrid="false"
     inkscape:zoom="1.9924569"
     inkscape:cx="4.5170361"
     inkscape:cy="-9.0340723"
     inkscape:window-width="1920"
     inkscape:window-height="1016"
     inkscape:window-x="0"
     inkscape:window-y="0"
     inkscape:window-maximized="1"
     inkscape:current-layer="layer1" /><defs
     id="defs7929"><linearGradient
       id="linearGradient121619"
       inkscape:swatch="solid"><stop
         style="stop-color:#886e0f;stop-opacity:1;"
         offset="0"
         id="stop121617" /></linearGradient></defs><g
     inkscape:label="Layer 1"
     inkscape:groupmode="layer"
     id="layer1"><path
       style="fill:#000000;stroke-width:0.0554166"
       d="m 13.639445,31.114321 c -0.09144,-0.05031 -0.34164,-0.2602 -0.556007,-0.466414 -0.54205,-0.521433 -0.882935,-0.595406 -1.910032,-0.414484 -1.092332,0.192413 -1.3341686,0.08283 -1.7733307,-0.803541 C 8.9720327,28.565955 8.8704524,28.510558 7.7514262,28.530784 6.6023181,28.55155 6.5454979,28.520792 6.3762207,27.785039 6.2000464,27.019358 5.8901551,26.706069 4.778016,26.169313 3.7127334,25.655171 3.5726427,25.466437 3.496184,24.44239 3.4569135,23.91643 3.3196623,23.533486 3.0923772,23.315733 3.0107502,23.237526 2.7195445,23.051924 2.4452536,22.903277 2.1184211,22.726157 1.9015413,22.567602 1.8159698,22.443222 1.6921493,22.263248 1.687661,22.226209 1.7291756,21.726976 1.7532542,21.437424 1.7734725,21.013488 1.7741049,20.784893 1.7755696,20.258399 1.6646684,20.033727 1.1506161,19.521712 0.44174976,18.815652 0.42909901,18.71843 0.91242406,17.691146 1.4147084,16.623564 1.4146584,16.622063 0.85703873,16.036198 0.46813784,15.627599 0.36715441,15.410219 0.36721345,14.981785 0.36726795,14.580456 0.56453989,14.144858 0.97661905,13.636153 1.4990928,12.991166 1.5271005,12.77955 1.1984192,11.960308 0.94416901,11.326587 0.91513315,11.014024 1.0898739,10.791877 1.1520944,10.712784 1.4007857,10.508679 1.6425299,10.338318 2.2022702,9.9438581 2.4086317,9.7359019 2.5439963,9.4298883 2.6411715,9.210209 2.6483984,9.1110502 2.6133812,8.4779031 2.556915,7.4569163 2.6328876,7.3390266 3.5931553,6.9575467 4.3129477,6.6715992 4.6145874,6.27073 4.8550638,5.280511 4.9856751,4.7426874 5.1163874,4.4933455 5.363766,4.3101345 5.4813722,4.2230372 5.6461663,4.1921858 6.173765,4.1585084 7.251406,4.0897252 7.4244183,3.9648357 7.8254279,2.966293 8.19762,2.0395072 8.3426613,1.9433743 9.2090163,2.049257 10.135014,2.1624234 10.531572,2.0249138 11.339655,1.3104157 c 0.733064,-0.64816742 0.985403,-0.70261377 1.70206,-0.36724978 0.681984,0.31913788 1.01883,0.28156828 1.79419,-0.20011841 0.984743,-0.61176271 1.072087,-0.60948394 2.149828,0.0560666 0.486306,0.30031499 0.888489,0.40365899 1.22172,0.31392979 0.12393,-0.03337 0.448869,-0.14700624 0.722086,-0.25252337 0.815829,-0.31507307 1.008415,-0.27134613 1.473673,0.33460897 0.653208,0.8507394 0.968112,0.9884375 1.964346,0.8589575 0.97816,-0.1271319 1.215431,0.0067 1.584901,0.8940406 0.370779,0.8904754 0.759874,1.1799404 1.740094,1.2945408 0.491053,0.057406 0.80986,0.1830453 0.992583,0.3911581 0.167542,0.1908171 0.203181,0.287872 0.363282,0.9892959 0.112883,0.4945656 0.324731,0.8787727 0.583373,1.058012 0.113416,0.078593 0.405719,0.2041741 0.649556,0.2790578 0.243839,0.07488 0.508636,0.1875109 0.588438,0.2502832 0.212136,0.1668656 0.277493,0.482671 0.234566,1.1333936 -0.06423,0.9736692 0.101483,1.3618094 0.787192,1.843755 0.205084,0.144141 0.476714,0.362631 0.603626,0.48553 0.340581,0.32982 0.352939,0.489135 0.101051,1.302775 -0.305592,0.987107 -0.284804,1.092349 0.386315,1.955747 0.327244,0.420998 0.449227,0.820523 0.367245,1.202798 -0.03262,0.1521 -0.199554,0.543963 -0.370963,0.87081 -0.308955,0.589116 -0.311425,0.597634 -0.284988,0.982878 0.01902,0.277132 0.08445,0.526813 0.228111,0.87037 0.206235,0.493226 0.248164,0.801255 0.14574,1.070656 -0.03063,0.08058 -0.253127,0.352653 -0.494422,0.604611 -0.241296,0.251959 -0.481135,0.555482 -0.532977,0.674497 -0.110555,0.2538 -0.12495,0.880122 -0.03163,1.376464 0.03401,0.180852 0.06182,0.475786 0.06182,0.655406 0,0.447015 -0.141825,0.585693 -0.806228,0.788349 -0.893638,0.272576 -0.967961,0.382856 -1.027563,1.524709 -0.0673,1.289099 -0.139731,1.384854 -1.255464,1.659498 -0.828809,0.204018 -1.166034,0.504749 -1.377164,1.228135 -0.132077,0.45253 -0.321209,0.741281 -0.559647,0.854428 -0.144278,0.06846 -0.424751,0.112099 -0.909568,0.141522 -0.385529,0.02339 -0.803917,0.07338 -0.929748,0.111077 -0.364761,0.109283 -0.614605,0.370662 -0.943412,0.986959 -0.433559,0.812633 -0.619168,0.892143 -1.630757,0.698572 -0.910482,-0.174227 -1.357592,-0.08407 -1.94856,0.392952 -0.73997,0.59728 -0.942135,0.625977 -1.857434,0.263648 -0.449903,-0.178096 -0.589768,-0.208391 -0.972476,-0.210637 -0.414777,-0.0024 -0.48326,0.0146 -0.950136,0.236304 -0.588324,0.279378 -0.998803,0.343944 -1.262864,0.198639 z m 4.128537,-2.486855 c 0.993699,-0.118803 2.232618,-0.37147 2.881662,-0.587692 2.194442,-0.731056 4.599568,-2.677199 6.123715,-4.955091 0.738837,-1.104219 1.463752,-2.763195 1.803487,-4.127298 0.50929,-2.044911 0.486237,-4.496785 -0.0624,-6.636868 C 27.608884,8.7882109 25.07245,5.7519268 21.582378,4.0223647 18.575027,2.5320223 15.090153,2.3153984 11.8107,3.4149449 9.2286805,4.2806547 6.9241946,5.9349572 5.3305677,8.0667863 4.7290616,8.8714331 4.4370711,9.3532526 4.0040253,10.255741 c -0.6048805,1.260598 -0.9825083,2.590731 -1.1467248,4.03915 -0.040368,0.356061 -0.054546,1.011315 -0.03717,1.717915 0.031289,1.272369 0.1411155,2.039599 0.4560086,3.185601 1.0132659,3.687611 3.6479887,6.912106 6.9828969,8.545989 1.193363,0.584669 2.065034,0.821166 3.559479,0.965739 0.72216,0.06986 3.087832,0.02035 3.94947,-0.08267 z m -4.468877,-0.330588 c -0.234313,-0.10196 -0.289704,-0.294509 -0.345106,-1.19964 -0.05129,-0.83788 -0.149408,-1.14604 -0.443792,-1.393746 C 12.060933,25.325452 11.404408,25.4885 10.634775,26.169259 9.9322866,26.790626 9.6227997,26.888897 9.135248,26.6454 8.6451124,26.400616 8.6320275,26.221544 9.0307494,25.215323 9.4330397,24.200094 9.4266133,24.006797 8.9774577,23.612434 8.5327807,23.222003 8.2436273,23.194068 7.6096914,23.480298 6.8215499,23.836154 6.2246767,23.927442 5.9082478,23.740523 5.476665,23.48558 5.5488429,22.970746 6.1491227,22.022403 6.627573,21.266529 6.7348068,20.842154 6.5334767,20.50133 6.3688424,20.222626 6.0462623,20.112368 5.2258196,20.054375 4.3889231,19.99522 4.1710994,19.94852 3.9093632,19.772135 3.705494,19.634747 3.5340456,19.274226 3.5289299,18.972159 c -0.00393,-0.232121 0.099788,-0.32355 0.7800786,-0.687642 0.8536416,-0.456869 1.211905,-0.8601 1.211905,-1.364016 0,-0.486221 -0.3515995,-0.809755 -1.2160412,-1.118974 C 3.8935639,15.654399 3.7320533,15.563122 3.5180781,15.356877 3.2937551,15.140659 3.248833,15.064008 3.248833,14.897466 c 0,-0.418979 0.3876928,-0.690058 1.2559474,-0.878172 0.6394908,-0.13855 0.9882458,-0.30134 1.2262008,-0.572356 C 6.1717758,12.944902 5.9617515,12.327449 5.1365084,11.699245 4.5821853,11.277275 4.357165,11.019301 4.357165,10.805771 c 0,-0.225312 0.1780852,-0.558923 0.3964348,-0.742652 0.1649686,-0.1388116 0.209263,-0.1490519 0.5427418,-0.1254785 0.1997125,0.014113 0.6000193,0.069101 0.8895711,0.1221805 1.0830194,0.19854 1.5689459,-0.03234 1.558974,-0.7407034 C 7.740118,8.9803758 7.6454985,8.6859024 7.2712611,7.84512 7.0229388,7.2872235 7.0185675,7.1069498 7.2470542,6.8467182 7.6433786,6.3953299 7.9380116,6.3888683 8.6769919,6.8153581 c 0.5894387,0.340185 0.8789219,0.4478855 1.2038447,0.4478855 0.6436624,0 0.9614884,-0.4652482 1.1089834,-1.623383 0.102232,-0.80274 0.236708,-1.1998657 0.473878,-1.3994301 0.341267,-0.2871578 0.696353,-0.068306 1.271751,0.7838024 0.20382,0.3018422 0.450649,0.6049139 0.548505,0.6734927 0.332869,0.2332725 0.828794,0.1249066 1.222529,-0.2671371 0.294082,-0.292819 0.395823,-0.4703405 0.58012,-1.0121903 0.176089,-0.5177257 0.369806,-0.83462 0.595453,-0.9740768 0.241218,-0.1490806 0.41714,-0.1461921 0.649908,0.010673 0.250556,0.1688492 0.399554,0.4504072 0.57582,1.0881151 0.27796,1.0056106 0.606126,1.3287031 1.307884,1.2876625 0.280097,-0.016384 0.65015,-0.3330999 1.05292,-0.9011698 0.430671,-0.6074209 0.693322,-0.8251018 0.995556,-0.8251018 0.368891,0 0.583601,0.3226735 0.664926,0.9992784 0.02919,0.2428541 0.0773,0.6426061 0.10691,0.8883362 0.09405,0.780503 0.441621,1.215715 0.970911,1.215715 0.277788,0 0.748132,-0.1690786 1.326928,-0.4770042 0.629245,-0.3347645 0.910778,-0.3580768 1.227728,-0.1016647 0.333752,0.2700097 0.430178,0.4291693 0.389947,0.6436269 -0.01917,0.1021642 -0.209768,0.4847022 -0.423562,0.8500842 -0.45964,0.7855481 -0.522743,0.9685809 -0.41929,1.2161799 0.105662,0.2528787 0.402999,0.5731803 0.648229,0.6982869 0.27532,0.140457 0.507514,0.134527 1.212765,-0.03097 0.677927,-0.1590883 0.887696,-0.1695125 1.10893,-0.055113 0.219167,0.113337 0.442734,0.50818 0.442734,0.781915 0,0.274102 -0.06509,0.369814 -0.692966,1.018815 -0.583059,0.602685 -0.723494,0.87657 -0.680245,1.326662 0.05746,0.597982 0.478514,0.87749 1.427679,0.94773 0.880196,0.06514 0.998581,0.159974 0.998241,0.799706 -4.19e-4,0.627164 -0.169754,0.825972 -0.867889,1.018431 -0.53565,0.147665 -0.762932,0.262616 -0.95758,0.48431 -0.447353,0.509506 -0.20966,1.208173 0.598868,1.760289 1.047395,0.715233 1.290079,1.147343 0.876596,1.560825 -0.236949,0.236948 -0.599046,0.338371 -1.458905,0.408637 -0.718497,0.05871 -1.009716,0.146726 -1.251368,0.378187 -0.220888,0.211573 -0.290075,0.465106 -0.211779,0.776045 0.09192,0.365084 0.185111,0.522019 0.572426,0.964077 0.707359,0.807333 0.732194,0.903354 0.341618,1.320911 -0.311831,0.333371 -0.574488,0.467172 -0.816978,0.416178 -0.09763,-0.02053 -0.472744,-0.175136 -0.833592,-0.343565 -0.791552,-0.369467 -0.989288,-0.391926 -1.293488,-0.146915 -0.564701,0.454824 -0.6448,0.800723 -0.382475,1.651683 0.245446,0.796205 0.203383,1.163392 -0.180328,1.574158 -0.170448,0.182464 -0.367666,0.225219 -0.561172,0.121657 -0.05581,-0.02987 -0.334719,-0.254836 -0.619794,-0.499926 -0.897937,-0.771991 -1.510314,-0.94084 -2.003951,-0.552546 -0.209732,0.164976 -0.406674,0.631153 -0.479279,1.134488 -0.09955,0.69016 -0.20735,1.006411 -0.425248,1.247599 -0.483059,0.534689 -1.020101,0.263324 -1.486697,-0.751228 -0.217833,-0.473649 -0.480861,-0.784644 -0.777662,-0.919477 -0.619532,-0.281448 -1.120137,0.0249 -1.596938,0.977273 -0.137336,0.274312 -0.334678,0.580213 -0.438543,0.679778 -0.291219,0.27917 -0.678542,0.358825 -1.020746,0.209923 z m 4.089563,-3.855746 c 2.154476,-0.314757 3.401013,-0.917956 4.768285,-2.307371 0.934841,-0.949982 1.54481,-1.877809 2.011554,-3.059792 1.072455,-2.715885 0.709147,-5.60298 -1.0063,-7.996711 C 22.472896,10.115394 21.327459,9.0477806 20.335829,8.4429075 18.442339,7.2879229 15.385053,7.0529576 12.934218,7.8740628 10.35465,8.7382971 8.3678118,10.764324 7.6083921,13.304936 7.3137797,14.290552 7.2681463,14.637377 7.269508,15.880525 c 0.00109,0.999261 0.019068,1.245992 0.1271632,1.745623 0.2669819,1.234032 0.7532702,2.359397 1.4367844,3.324996 0.4769586,0.673799 1.3896964,1.586423 2.0628674,2.062613 1.082035,0.765413 2.615021,1.432923 3.534164,1.538888 0.620276,0.07151 2.08278,0.01637 2.958181,-0.111509 z m -5.093666,-3.858665 -0.180692,-0.08907 0.01445,-2.355395 0.01445,-2.355395 1.884164,-1.23707 c 1.036291,-0.680388 1.937449,-1.265792 2.002573,-1.300896 0.10573,-0.05699 0.332697,0.07482 2.119018,1.230612 l 2.00061,1.29444 0.001,1.884164 c 6.28e-4,1.036291 0.0149,2.083664 0.03186,2.327497 0.04541,0.65218 0.102142,0.629552 -1.691263,0.674397 l -1.443593,0.03609 v -1.20035 -1.200351 h -0.886665 -0.886665 v 1.191457 1.191457 l -1.39927,-0.0012 c -1.171621,-0.0011 -1.428667,-0.01575 -1.579963,-0.09033 z m -1.293635,-4.713305 c -0.242784,-0.161875 -0.492961,-0.424806 -0.492961,-0.518093 0,-0.05996 0.910726,-0.697875 2.610689,-1.828637 3.287462,-2.186715 2.858604,-2.081728 4.399263,-1.076963 0.647253,0.422116 0.813723,0.508863 0.84085,0.43817 0.0186,-0.04848 0.01803,-0.274986 -0.0012,-0.50335 -0.05408,-0.639775 -0.06996,-0.6283 0.869453,-0.6283 0.540951,0 0.811503,0.02099 0.857009,0.0665 0.04743,0.04743 0.0665,0.394551 0.0665,1.21023 v 1.143731 l 0.776747,0.505535 c 0.427209,0.278044 0.792181,0.545758 0.811045,0.594918 0.04097,0.10674 -0.38818,0.568747 -0.570927,0.614647 -0.08466,0.02126 -0.277304,-0.07322 -0.664999,-0.32612 -0.300203,-0.195829 -1.318885,-0.862124 -2.26374,-1.480656 -0.944899,-0.61853 -1.808383,-1.181934 -1.918896,-1.252006 l -0.200934,-0.127403 -2.292813,1.525815 c -1.261048,0.839199 -2.382699,1.571869 -2.49256,1.628155 -0.184588,0.09457 -0.209824,0.09562 -0.332499,0.01383 z"
       id="path146953" /></g></svg>
