<?xml version="1.0" encoding="UTF-8" standalone="no"?>
<!-- Created with Inkscape (http://www.inkscape.org/) -->

<svg
   width="40"
   height="40"
   viewBox="0 0 10.583333 10.583333"
   version="1.1"
   id="svg7932"
   inkscape:version="1.2.2 (b0a8486541, 2022-12-01)"
   sodipodi:docname="main-drawing.svg"
   xml:space="preserve"
   inkscape:export-filename="orange/cog-vs2.svg"
   inkscape:export-xdpi="96"
   inkscape:export-ydpi="96"
   xmlns:inkscape="http://www.inkscape.org/namespaces/inkscape"
   xmlns:sodipodi="http://sodipodi.sourceforge.net/DTD/sodipodi-0.dtd"
   xmlns="http://www.w3.org/2000/svg"
   xmlns:svg="http://www.w3.org/2000/svg"><sodipodi:namedview
     id="namedview7934"
     pagecolor="#ffffff"
     bordercolor="#000000"
     borderopacity="0.25"
     inkscape:showpageshadow="2"
     inkscape:pageopacity="0.0"
     inkscape:pagecheckerboard="0"
     inkscape:deskcolor="#d1d1d1"
     inkscape:document-units="mm"
     showgrid="false"
     inkscape:zoom="2.8177596"
     inkscape:cx="20.583729"
     inkscape:cy="58.557159"
     inkscape:window-width="1920"
     inkscape:window-height="1016"
     inkscape:window-x="0"
     inkscape:window-y="0"
     inkscape:window-maximized="1"
     inkscape:current-layer="layer1" /><defs
     id="defs7929"><linearGradient
       id="linearGradient121619"
       inkscape:swatch="solid"><stop
         style="stop-color:#886e0f;stop-opacity:1;"
         offset="0"
         id="stop121617" /></linearGradient></defs><g
     inkscape:label="Layer 1"
     inkscape:groupmode="layer"
     id="layer1"><path
       style="fill:#ffd42a;stroke-width:0.0137585"
       d="M 5.0541654,10.470501 C 4.3701328,10.439916 3.674722,10.261353 3.0523006,9.9564794 2.8481141,9.8564653 2.5913904,9.7102988 2.5913904,9.6940591 c 0,-0.010113 0.7104219,-1.1665951 0.7284106,-1.1857659 0.00562,-0.00603 0.059198,0.01821 0.1190261,0.053808 0.3778667,0.2248387 0.8457733,0.3889653 1.314638,0.4611342 0.285127,0.043885 0.7732339,0.043994 1.0554331,2.076e-4 C 6.0642459,8.983845 6.3301404,8.915231 6.5547093,8.8309906 l 0.1792143,-0.067224 0.017963,0.042817 c 0.00988,0.023551 0.1338784,0.3145931 0.2755523,0.6467669 0.1982106,0.4647365 0.2533941,0.6065635 0.2393985,0.6152835 -0.045481,0.02834 -0.3948452,0.152891 -0.5687973,0.202784 -0.3900761,0.111881 -0.7292715,0.170254 -1.1279305,0.194106 -0.2221863,0.01329 -0.3105615,0.01414 -0.5159452,0.0049 z M 8.3896589,8.8865522 C 8.2464044,8.7224785 8.0378739,8.4881217 7.9262579,8.3657605 7.8146418,8.2433993 7.7233198,8.1409382 7.7233198,8.1380694 c 0,-0.00288 0.069653,-0.076177 0.1547832,-0.1629061 C 8.1941555,7.6531745 8.4077223,7.3484863 8.6032771,6.9405842 8.8192944,6.4900007 8.9302947,6.0463643 8.9642246,5.4979782 l 0.015827,-0.2557698 0.5721489,-0.00899 c 0.3146822,-0.00493 0.6303075,-0.013122 0.7013895,-0.018168 l 0.12924,-0.00917 -0.0084,0.3014543 C 10.342876,6.6411515 9.9324221,7.7282828 9.1994141,8.619503 9.0703605,8.7764106 8.7807759,9.0813933 8.7003936,9.1450579 L 8.650126,9.184875 Z M 1.2199623,8.4399806 C 0.72675541,7.782187 0.38758046,7.0005712 0.25305978,6.2117907 0.13898737,5.5429135 0.15949733,4.7843313 0.30885417,4.1481542 c 0.0194149,-0.082704 0.0346802,-0.1211005 0.0481383,-0.1211005 0.0182648,0 1.34303983,0.3285654 1.34906513,0.3345907 0.0015,0.0015 -0.01204,0.070767 -0.030072,0.1539455 -0.060123,0.2773739 -0.079921,0.474097 -0.080307,0.7978855 -2.081e-4,0.1664783 0.00744,0.3646005 0.016977,0.4402725 0.085456,0.6782547 0.3349748,1.3028963 0.7301133,1.8277555 l 0.108709,0.1443975 -0.5353468,0.434895 C 1.6216896,8.3999891 1.3730121,8.5985516 1.3635127,8.6020477 1.3535254,8.6057514 1.2929541,8.5373302 1.2199623,8.4399806 Z M 4.9348176,8.2362309 C 4.2754536,8.1854908 3.6578207,7.8942975 3.1963995,7.4166312 3.0500194,7.2650959 2.9748741,7.1708853 2.8632005,6.9988947 2.266491,6.0798868 2.282152,4.8077462 2.9018669,3.8579251 3.3960114,3.1005639 4.1934866,2.6141255 5.1062096,2.5133347 c 0.2264427,-0.025004 0.6788218,-0.0111 0.8972919,0.027579 0.6433118,0.1138958 1.2154628,0.4030573 1.6979751,0.8581442 0.091815,0.086597 0.095324,0.09233 0.1014032,0.1656339 0.00589,0.070753 0.00336,0.078903 -0.037228,0.119459 -0.040453,0.040453 -0.048823,0.043084 -0.1186898,0.03729 C 7.5751169,3.7154781 7.5670939,3.7106622 7.4652575,3.6123733 6.9330669,3.0986937 6.2113026,2.8117498 5.4531617,2.8124442 4.7636584,2.8130756 4.1388968,3.0435424 3.6329115,3.48391 3.2394084,3.8263825 2.935931,4.3345354 2.8104593,4.8610518 2.7422213,5.1474073 2.7227622,5.55466 2.7635953,5.8419613 2.8798944,6.6602319 3.3802702,7.3479076 4.1117044,7.6946946 4.6203497,7.9358524 5.1768308,7.992611 5.7149471,7.8582164 6.6992266,7.6123933 7.3775019,6.7084108 7.3343011,5.6999958 7.312571,5.1926845 7.1199166,4.7450287 6.7740206,4.3980993 6.5136678,4.1369686 6.2000541,3.9688611 5.8203536,3.8869023 5.6341053,3.8467019 5.2837659,3.8435721 5.1123869,3.8806016 4.4312182,4.0276872 3.9431559,4.5071581 3.8095728,5.1604831 3.7229005,5.5843768 3.8174158,6.0234179 4.0665094,6.3539885 4.2465141,6.5928733 4.4775507,6.7497454 4.785872,6.8424308 4.8970343,6.875844 4.9322131,6.8797758 5.1298347,6.8808158 5.3857448,6.8821803 5.4695609,6.8652834 5.6664176,6.7727736 6.0551572,6.5900861 6.2936162,6.22 6.2963974,5.7950516 6.2975616,5.6138012 6.2744344,5.5126208 6.1944328,5.3494216 6.0344811,5.0231162 5.6537719,4.8281368 5.3159002,4.8994832 5.0520541,4.9551954 4.8701209,5.1283988 4.8195471,5.3720126 4.7663958,5.62805 4.9255266,5.8707234 5.1465764,5.8707234 c 0.05717,0 0.125967,-0.026045 0.1404939,-0.053185 0.01806,-0.033742 0.00171,-0.096079 -0.027688,-0.1054026 -0.035599,-0.011294 -0.081392,-0.072874 -0.081392,-0.1094412 0,-0.05035 0.039193,-0.113006 0.081705,-0.1306136 0.057801,-0.023942 0.1522459,-0.021901 0.2030833,0.00438 0.087852,0.045432 0.1554851,0.1779097 0.1554851,0.3045648 0,0.2597481 -0.2830847,0.4513102 -0.5807334,0.3929805 C 4.9129449,6.1495944 4.816427,6.0991939 4.7180833,6.0071987 4.4762289,5.7809554 4.425171,5.419423 4.5880545,5.086487 4.6342953,4.9919702 4.667989,4.9470882 4.7637255,4.8524816 4.9340992,4.6841193 5.0926633,4.6076865 5.3337062,4.5777335 c 0.1523602,-0.018936 0.3152464,-2.74e-5 0.4840559,0.056178 0.2918068,0.097157 0.5248527,0.3050655 0.6724463,0.5999111 0.21072,0.4209517 0.1468829,0.9887909 -0.1564083,1.39129 C 5.8925703,7.2106679 5.0587622,7.3757396 4.3710361,7.0136879 3.9088266,6.7703578 3.5868639,6.3253893 3.4892783,5.7950536 3.4588095,5.6294608 3.4596108,5.3150588 3.4909219,5.1438935 3.5629944,4.7501199 3.747356,4.3981027 4.0290416,4.1164164 4.6355403,3.5099184 5.5715864,3.3631055 6.3875701,3.746496 7.0494056,4.0574602 7.494685,4.6615626 7.6288023,5.4304524 7.6561618,5.5872901 7.6519501,6.0110509 7.6213648,6.1797372 7.4739855,6.9924769 6.9883579,7.6400714 6.2608834,7.9939664 6.0939113,8.0751938 5.8417954,8.1588798 5.6564873,8.1945862 c -0.1355979,0.026127 -0.4658082,0.058931 -0.5473034,0.05437 -0.018915,-0.00103 -0.09739,-0.00678 -0.174382,-0.012697 z M 8.7640856,4.0711755 C 8.7609353,4.0658337 8.7318362,3.9935113 8.6994842,3.910476 8.3105292,2.9122994 7.4311116,2.0803025 6.4231403,1.7568769 6.3701675,1.7398791 6.3218968,1.7214979 6.3158668,1.716026 6.3098401,1.7105472 6.3903232,1.404857 6.4947271,1.0366988 6.6453464,0.50557202 6.6891745,0.36731758 6.7069332,0.36730387 6.7430111,0.36727648 7.0690655,0.4826626 7.2555309,0.56144442 8.3604263,1.0282663 9.2853046,1.8973338 9.8261288,2.9769227 9.9688696,3.2618606 10.112254,3.6121877 10.093047,3.6290793 10.072488,3.6471592 8.7696588,4.0805641 8.7640869,4.0711762 Z M 1.6007765,2.9179733 C 1.2867381,2.7177048 1.0207169,2.5484432 1.009619,2.5418366 0.98317031,2.526092 0.9919842,2.5100667 1.1437993,2.2979208 1.7328099,1.4748338 2.5662861,0.83274986 3.4982511,0.48412748 3.9606167,0.31116782 4.4526237,0.20485455 4.9600096,0.16826876 l 0.1191007,-0.008588 0.00791,0.11412194 c 0.00438,0.0627661 0.014745,0.36855206 0.023093,0.67952304 0.00836,0.31097166 0.016203,0.57700516 0.01745,0.59118556 0.00205,0.023114 -0.014813,0.027414 -0.1628356,0.041584 C 4.2607835,1.653463 3.6389407,1.8930997 3.0821461,2.3115825 2.7899248,2.5312129 2.4672717,2.8664589 2.2554095,3.1705856 2.211922,3.2330156 2.1753052,3.2836444 2.1740427,3.2830963 2.1728104,3.2825477 1.914808,3.1182425 1.6007703,2.917974 Z"
       id="path124157" /></g></svg>
