<?xml version="1.0" encoding="UTF-8" standalone="no"?>
<!-- Created with Inkscape (http://www.inkscape.org/) -->

<svg
   version="1.1"
   id="svg382"
   width="200"
   height="200"
   viewBox="0 0 200 200"
   sodipodi:docname="gabber.png"
   inkscape:export-filename="../../parler.svg"
   inkscape:export-xdpi="34.560001"
   inkscape:export-ydpi="34.560001"
   xml:space="preserve"
   xmlns:inkscape="http://www.inkscape.org/namespaces/inkscape"
   xmlns:sodipodi="http://sodipodi.sourceforge.net/DTD/sodipodi-0.dtd"
   xmlns="http://www.w3.org/2000/svg"
   xmlns:svg="http://www.w3.org/2000/svg"><defs
     id="defs386" /><sodipodi:namedview
     id="namedview384"
     pagecolor="#ffffff"
     bordercolor="#000000"
     borderopacity="0.25"
     inkscape:showpageshadow="2"
     inkscape:pageopacity="0.0"
     inkscape:pagecheckerboard="0"
     inkscape:deskcolor="#d1d1d1"
     showgrid="false"
     showguides="true"><sodipodi:guide
       position="168.73488,155.25682"
       orientation="0,-1"
       id="guide1662"
       inkscape:locked="false" /><sodipodi:guide
       position="157.35949,39.986252"
       orientation="0,-1"
       id="guide1664"
       inkscape:locked="false" /></sodipodi:namedview><g
     inkscape:groupmode="layer"
     inkscape:label="Image"
     id="g388"><rect
       style="fill:none;stroke:#d4aa00;stroke-width:10;stroke-dasharray:none"
       id="rect470"
       width="191.74123"
       height="189.19156"
       x="4.5230589"
       y="5.8685374"
       rx="29.131887"
       ry="24.946558" /><g
       id="g7587"
       transform="matrix(0.776567,0,0,0.776567,23.156455,22.183948)"><path
         style="fill:#00aa00;stroke-width:0.128276"
         d="m 94.061712,156.96749 c -7.9909,-0.43524 -16.02472,-1.63732 -23.2938,-3.48536 -14.11011,-3.58724 -24.71775,-9.18818 -32.34079,-17.07624 -5.75418,-5.95424 -9.09288,-12.48848 -10.16405,-19.89234 -1.28158,-8.85821 1.52561,-18.502946 7.60602,-26.132176 0.57204,-0.71775 1.08987,-1.37237 1.15073,-1.4547 0.0716,-0.0969 -0.22639,-0.64918 -0.84441,-1.5651 -1.74709,-2.58919 -2.73282,-4.4331 -3.69371,-6.90941 -3.28558,-8.46731 -2.04476,-17.14309 3.43951,-24.04882 1.03471,-1.30288 3.17163,-3.37748 4.53218,-4.40001 4.16975,-3.13379 8.93788,-4.94698 13.88763,-5.2811 7.02534,-0.47421 13.41034,2.01533 18.52889,7.22449 1.22416,1.24584 3.16761,3.65672 3.81839,4.73679 0.14052,0.23321 0.28383,0.27134 1.00406,0.26709 1.47153,-0.009 2.83677,0.85957 4.56884,2.90562 0.93628,1.10599 1.57847,1.99138 4.1632,5.73978 2.31984,3.36426 4.78829,5.51007 7.77098,6.75528 2.77739,1.1595 6.114798,1.40797 8.860628,0.65968 4.34237,-1.18339 7.41067,-3.88028 11.75244,-10.32986 2.8645,-4.25512 4.26388,-5.50981 6.31114,-5.65858 l 0.89025,-0.0647 0.91847,-1.24272 c 1.09958,-1.48776 3.35347,-3.88219 4.67393,-4.96537 2.91813,-2.39375 6.33427,-4.04341 9.98331,-4.82094 2.08715,-0.44473 5.44477,-0.55951 7.66078,-0.26189 8.67151,1.16463 16.4344,6.76245 20.09899,14.4934 1.07943,2.27718 1.74501,4.51597 2.10147,7.06855 0.19552,1.39997 0.16001,4.87828 -0.065,6.37563 -0.57368,3.81638 -2.05107,7.6332 -4.39186,11.34647 l -1.04085,1.65114 1.12925,1.516 c 5.32932,7.1545 7.95367,14.034396 8.14746,21.359076 0.10514,3.97368 -0.48443,7.66714 -1.80689,11.31963 -1.09843,3.0338 -3.34927,7.08886 -5.50855,9.92416 -2.91125,3.82265 -6.8351,7.4809 -11.10489,10.35315 -2.41675,1.62573 -3.43717,2.21779 -6.47579,3.75734 -11.85767,6.00774 -25.02946,9.3346 -40.17546,10.14727 -2.76655,0.14844 -9.271738,0.14239 -12.092408,-0.0112 z M 144.21279,91.049114 c 5.86277,-0.4932 10.90921,-3.659 13.95433,-8.754 2.6698,-4.46707 3.26097,-10.13552 1.58563,-15.20403 -1.72003,-5.20369 -6.0456,-9.5686 -11.21154,-11.31353 -2.11178,-0.7133 -3.0728,-0.85662 -5.72799,-0.85422 -2.71016,0.002 -3.6483,0.15127 -5.84216,0.92679 -6.06055,2.1424 -10.59113,7.54791 -11.7355,14.00182 -0.28888,1.62928 -0.29271,4.56906 -0.008,6.17775 0.67945,3.83948 2.45951,7.23239 5.21167,9.93379 1.47348,1.4463 2.69392,2.33934 4.35483,3.18659 2.15875,1.1012 4.24474,1.70128 6.59518,1.89724 0.64318,0.0536 1.19806,0.10486 1.23307,0.11387 0.035,0.009 0.75074,-0.0414 1.59051,-0.11207 z m -3.48558,-9.18078 c -4.60944,-1.22595 -7.65261,-5.75646 -7.01794,-10.44794 0.41447,-3.06377 2.30658,-5.84751 4.90343,-7.21409 4.82921,-2.54134 10.41387,-0.69369 12.87306,4.25898 1.29228,2.60254 1.23184,5.92676 -0.1568,8.62775 -1.19946,2.33299 -3.44683,4.12575 -6.00489,4.79018 -1.28728,0.33436 -3.30836,0.32781 -4.59686,-0.0149 z m 0.46303,-9.88578 c 0.77455,-0.23361 1.6324,-1.12388 1.76271,-1.82937 0.2508,-1.3577 -0.26061,-2.50555 -1.36542,-3.06468 -1.03367,-0.52312 -2.03151,-0.40302 -2.871,0.34555 -1.56502,1.39551 -1.03858,3.94709 0.94356,4.57324 0.64791,0.20468 0.77634,0.2026 1.53015,-0.0248 z m -83.469398,17.84482 c 7.71944,-1.07306 13.75608,-6.94701 15.21461,-14.80459 0.30831,-1.66098 0.31041,-4.53485 0.005,-6.26964 -1.30763,-7.41753 -6.7556,-13.09003 -14.11327,-14.69495 -1.72025,-0.37523 -5.04563,-0.40117 -6.7668,-0.0528 -5.61614,1.13678 -10.25658,4.74204 -12.83467,9.97152 -0.47929,0.9722 -1.16676,3.07006 -1.43808,4.3884 -0.33804,1.6425 -0.33804,5.33813 0,6.98063 0.78295,3.80431 2.53277,7.00482 5.28249,9.66193 3.92787,3.79561 9.30121,5.56317 14.65112,4.81949 z m -3.75501,-8.66414 c -1.95919,-0.44448 -3.20925,-1.16108 -4.71247,-2.70145 -1.26275,-1.29396 -1.85985,-2.28974 -2.37218,-3.95609 -0.25402,-0.82621 -0.29757,-1.23706 -0.29454,-2.77932 0.003,-1.69067 0.0296,-1.88434 0.39901,-2.94237 0.55729,-1.596 1.09125,-2.44786 2.33446,-3.72431 0.90566,-0.92985 1.27958,-1.20963 2.2912,-1.71429 0.6649,-0.3317 1.58124,-0.70218 2.0363,-0.82328 1.13154,-0.30115 3.46792,-0.29548 4.58238,0.0111 3.06631,0.84356 5.5595,3.1817 6.55165,6.14419 1.27919,3.81953 0.11882,7.99275 -2.927,10.52689 -0.98322,0.81803 -2.78983,1.69116 -4.03298,1.94913 -1.17432,0.24369 -2.80654,0.24783 -3.85583,0.01 z m -0.0283,-10.02636 c 0.26445,-0.0746 0.68872,-0.32098 0.94282,-0.54757 1.23642,-1.10249 1.22406,-3.02039 -0.0262,-4.06701 -1.34585,-1.12664 -3.24802,-0.66362 -4.06979,0.99067 -0.3134,0.63089 -0.2201,1.89822 0.18384,2.49689 0.68692,1.01814 1.82449,1.4499 2.96934,1.12702 z m 44.25301,0.52224 c -1.79133,-0.13875 -3.32132,-0.61859 -5.23676,-1.64238 -2.43074,-1.29922 -4.6942,-3.38976 -7.94638,-7.33933 -2.79268,-3.39153 -4.02196,-4.48315 -5.3861,-4.78295 l -0.43872,-0.0964 0.43872,-0.23846 c 2.05401,-1.11642 5.77281,-2.0119 10.64892,-2.56425 11.114388,-1.25899 23.315258,-0.19644 29.296458,2.55139 l 0.5564,0.25561 -0.4291,0.0943 c -1.31468,0.28883 -2.7555,1.55092 -5.31023,4.65153 -3.97106,4.81957 -5.96056,6.56998 -9.0147,7.93133 -1.71283,0.76347 -4.39025,1.36836 -5.706598,1.28924 -0.14002,-0.008 -0.80238,-0.0577 -1.47191,-0.10959 z"
         id="path414" /><path
         style="fill:#005500;stroke-width:0.12926"
         d="m 97.116472,134.75633 c -9.96237,-1.63911 -18.70843,-4.4393 -26.87135,-8.60322 -2.87368,-1.4659 -3.21065,-1.67116 -3.24561,-1.97727 -0.0256,-0.22456 0.0341,-0.3701 0.17438,-0.42478 0.11794,-0.0459 0.96752,0.18368 1.89883,0.51314 5.24839,1.8568 12.1203,3.63017 17.33369,4.47316 5.10777,0.8259 9.25429,1.10639 15.057598,1.01855 6.00016,-0.0908 10.0729,-0.53714 15.85406,-1.73739 3.99974,-0.83043 9.60072,-2.4042 13.12569,-3.6881 1.65712,-0.60358 2.07361,-0.65785 2.07361,-0.27021 0,0.40231 -0.99523,1.068 -3.39899,2.27351 -6.37074,3.19498 -17.27158,6.67302 -26.1659,8.34852 -2.61555,0.49272 -3.243298,0.50069 -5.836008,0.0742 z m -14.66048,-30.87588 -0.87208,-0.0747 1.89819,-3.11628 c 1.04401,-1.713956 2.05106,-3.230356 2.23788,-3.369776 0.4423,-0.3301 1.27202,-0.31964 1.81276,0.0228 0.29973,0.18984 0.91929,1.111 2.26145,3.362336 1.01674,1.70548 1.87148,3.14483 1.89946,3.19856 0.0578,0.11102 -7.90455,0.0913 -9.23766,-0.023 z m 25.306398,0.0421 c 0,-0.20084 3.54613,-5.898886 3.90907,-6.281246 0.78384,-0.82574 1.93374,-0.63203 2.64842,0.44612 0.18515,0.27934 1.06302,1.7242 1.95081,3.210806 l 1.6142,2.70293 h -5.06123 c -2.7837,0 -5.06127,-0.0355 -5.06127,-0.0786 z m 34.18392,-21.805736 c -3.07222,-0.56279 -5.5847,-2.47737 -6.92268,-5.27526 -0.68055,-1.42309 -0.96781,-2.67178 -0.96485,-4.1941 0.004,-2.15016 0.66368,-4.10343 1.98412,-5.87634 2.45554,-3.297 7.11128,-4.55759 10.96264,-2.96827 2.6629,1.09888 4.87108,3.69408 5.60788,6.59075 0.32396,1.27356 0.29189,3.43945 -0.0702,4.74868 -0.91206,3.29679 -3.53179,5.9304 -6.75039,6.78612 -0.93526,0.24866 -2.97276,0.34846 -3.8464,0.18842 z m 0.008,-10.14612 c 0.89448,-0.41259 1.59279,-1.50379 1.59279,-2.48894 0,-1.46852 -1.24642,-2.73549 -2.69112,-2.73549 -1.62029,0 -2.72019,1.11386 -2.72019,2.75473 0,2.0031 2.01073,3.30357 3.81852,2.4697 z m -87.609558,9.35645 c -4.28321,-0.66896 -7.48636,-4.02058 -8.04534,-8.41823 -0.48752,-3.8355 1.70806,-7.89271 5.20326,-9.61506 1.65231,-0.81422 2.61291,-1.01519 4.50556,-0.94264 1.18761,0.0455 1.76705,0.13477 2.53681,0.39069 2.81905,0.93722 5.07562,3.22205 6.07757,6.15368 0.32662,0.95564 0.35592,1.19878 0.35328,2.93088 -0.002,1.69544 -0.0379,1.99549 -0.34546,2.93089 -0.49855,1.51649 -1.16871,2.59024 -2.40138,3.84751 -1.22158,1.24596 -2.47725,2.00349 -4.05866,2.44855 -1.11333,0.31333 -2.79957,0.43398 -3.82564,0.27373 z m -0.35442,-10.22329 c 2.5424,-1.07883 1.94016,-5.01112 -0.80284,-5.24214 -1.91046,-0.16089 -3.3272,1.49654 -2.8838,3.37369 0.38063,1.61129 2.16336,2.51482 3.68664,1.86845 z m 43.42999,0.45517 c -1.81504,-0.24037 -4.37204,-1.37503 -6.38423,-2.8329 -1.4685,-1.06394 -3.98301,-3.63907 -6.1409,-6.28888 -2.59017,-3.18067 -3.69588,-4.17306 -5.13745,-4.61088 l -0.49208,-0.14946 0.88533,-0.41443 c 6.30585,-2.95182 23.326268,-3.74493 33.701108,-1.57037 1.74604,0.36597 4.10408,1.064 5.29448,1.56728 l 0.98288,0.41555 -0.57192,0.19238 c -1.34957,0.45394 -2.40984,1.43454 -5.16374,4.77572 -3.42663,4.15734 -5.43977,6.00143 -7.99409,7.32281 -2.42245,1.25316 -4.27779,1.73545 -6.589598,1.71295 -0.88182,-0.008 -1.95733,-0.0625 -2.39002,-0.11979 z"
         id="path416" /></g></g></svg>
