<?xml version="1.0" encoding="UTF-8" standalone="no"?>
<!-- Created with Inkscape (http://www.inkscape.org/) -->

<svg
   version="1.1"
   id="svg382"
   width="200"
   height="200"
   viewBox="0 0 200 200"
   sodipodi:docname="gabber.png"
   inkscape:export-filename="../../twitter.svg"
   inkscape:export-xdpi="34.560001"
   inkscape:export-ydpi="34.560001"
   xml:space="preserve"
   xmlns:inkscape="http://www.inkscape.org/namespaces/inkscape"
   xmlns:sodipodi="http://sodipodi.sourceforge.net/DTD/sodipodi-0.dtd"
   xmlns="http://www.w3.org/2000/svg"
   xmlns:svg="http://www.w3.org/2000/svg"><defs
     id="defs386" /><sodipodi:namedview
     id="namedview384"
     pagecolor="#ffffff"
     bordercolor="#000000"
     borderopacity="0.25"
     inkscape:showpageshadow="2"
     inkscape:pageopacity="0.0"
     inkscape:pagecheckerboard="0"
     inkscape:deskcolor="#d1d1d1"
     showgrid="false"
     showguides="true"><sodipodi:guide
       position="168.73488,155.25682"
       orientation="0,-1"
       id="guide1662"
       inkscape:locked="false" /><sodipodi:guide
       position="157.35949,39.986252"
       orientation="0,-1"
       id="guide1664"
       inkscape:locked="false" /></sodipodi:namedview><g
     inkscape:groupmode="layer"
     inkscape:label="Image"
     id="g388"><rect
       style="fill:none;stroke:#d4aa00;stroke-width:10;stroke-dasharray:none"
       id="rect470"
       width="191.74123"
       height="189.19156"
       x="4.5230589"
       y="5.8685374"
       rx="29.131887"
       ry="24.946558" /><path
       style="fill:#aa0044;stroke-width:0.071067"
       d="m 72.937918,149.56231 c -6.770102,-0.34896 -12.632853,-5.20223 -14.318823,-11.85336 -0.458209,-1.80761 -0.422532,-0.2641 -0.447731,-19.37028 -0.0165,-12.50397 -4.54e-4,-17.564 0.05729,-18.14226 0.567082,-5.673116 4.304412,-10.590414 9.645939,-12.691396 1.27677,-0.502194 2.643948,-0.825337 4.103919,-0.969975 0.550106,-0.0545 6.99363,-0.07104 21.746471,-0.05591 l 20.964727,0.0216 0.56855,0.161488 c 1.647,0.467823 2.80999,1.145289 3.85541,2.245854 0.62185,0.654634 1.01438,1.229302 1.40961,2.063644 0.48278,1.019161 0.67283,1.813457 0.71986,3.008554 0.0456,1.160467 -0.0326,1.792204 -0.34108,2.754087 -0.41181,1.283962 -0.93879,2.127203 -1.97905,3.166853 -1.08562,1.084991 -2.02641,1.624681 -3.62704,2.080691 l -0.53519,0.15247 -17.020522,0.0393 -17.020517,0.0393 -0.649581,0.15279 c -1.492994,0.35121 -2.646081,0.96706 -3.720393,1.98704 -1.211804,1.15049 -1.908262,2.37504 -2.320881,4.08064 -0.119799,0.49523 -0.128988,1.65748 -0.164755,20.8496 l -0.03788,20.32513 z m 16.771786,-20.08633 c 0,-4.76296 0.02141,-5.06748 0.440723,-6.26923 0.894546,-2.56375 3.142493,-4.49937 5.813938,-5.00613 0.506807,-0.0961 1.672509,-0.11099 8.872665,-0.11302 8.74228,-0.002 10.28491,-0.0388 11.94916,-0.28122 7.12476,-1.03796 13.34683,-5.1995 17.02636,-11.38784 2.75967,-4.64128 3.82687,-10.067224 3.04393,-15.476165 -0.3423,-2.364745 -1.03632,-4.568201 -2.16006,-6.857956 -0.73831,-1.504405 -1.37983,-2.554273 -2.34163,-3.832187 -3.87119,-5.143566 -9.57046,-8.456161 -15.96867,-9.281506 -2.17451,-0.280512 -4.28104,-0.302413 -31.828766,-0.330994 l -26.436884,-0.02742 0.04738,-0.939168 c 0.245028,-4.856715 2.840823,-9.374443 6.98824,-12.162345 1.528662,-1.027577 3.638862,-1.915043 5.424607,-2.28138 1.743612,-0.35768 0.939284,-0.341977 19.057936,-0.372178 14.462827,-0.02409 17.714607,-0.01097 21.142407,0.08555 2.22794,0.06273 4.56248,0.146043 5.18788,0.185167 7.71129,0.482337 15.13394,3.26218 21.36614,8.001798 1.37733,1.047458 2.58474,2.114001 4.0061,3.53873 1.99834,2.003068 3.30621,3.591197 4.83212,5.867575 3.85589,5.752289 6.04856,12.093901 6.57252,19.008984 0.10159,1.340708 0.10251,4.450705 0.002,5.757831 -0.5864,7.603604 -3.26085,14.695134 -7.83207,20.767254 -2.8627,3.80266 -6.53578,7.17183 -10.57572,9.70069 -4.62038,2.89222 -9.83033,4.81513 -15.16705,5.59794 -2.70204,0.39635 -2.08222,0.38084 -16.29781,0.40772 l -13.165146,0.0249 v -4.32539 z"
       id="path1660" /></g></svg>
