<?xml version="1.0" encoding="UTF-8" standalone="no"?>
<!-- Created with Inkscape (http://www.inkscape.org/) -->

<svg
   version="1.1"
   id="svg382"
   width="200"
   height="200"
   viewBox="0 0 200 200"
   sodipodi:docname="gabber.png"
   inkscape:export-filename="../../telegram.svg"
   inkscape:export-xdpi="34.560001"
   inkscape:export-ydpi="34.560001"
   xml:space="preserve"
   xmlns:inkscape="http://www.inkscape.org/namespaces/inkscape"
   xmlns:sodipodi="http://sodipodi.sourceforge.net/DTD/sodipodi-0.dtd"
   xmlns="http://www.w3.org/2000/svg"
   xmlns:svg="http://www.w3.org/2000/svg"><defs
     id="defs386" /><sodipodi:namedview
     id="namedview384"
     pagecolor="#ffffff"
     bordercolor="#000000"
     borderopacity="0.25"
     inkscape:showpageshadow="2"
     inkscape:pageopacity="0.0"
     inkscape:pagecheckerboard="0"
     inkscape:deskcolor="#d1d1d1"
     showgrid="false"
     showguides="true"><sodipodi:guide
       position="168.73488,155.25682"
       orientation="0,-1"
       id="guide1662"
       inkscape:locked="false" /><sodipodi:guide
       position="157.35949,39.986252"
       orientation="0,-1"
       id="guide1664"
       inkscape:locked="false" /></sodipodi:namedview><g
     inkscape:groupmode="layer"
     inkscape:label="Image"
     id="g388"><rect
       style="fill:none;stroke:#d4aa00;stroke-width:10;stroke-dasharray:none"
       id="rect470"
       width="191.74123"
       height="189.19156"
       x="4.5230589"
       y="5.8685374"
       rx="29.131887"
       ry="24.946558" /><g
       style="fill:#0055d4"
       id="g6690"
       transform="matrix(6.3981805,0,0,6.3981805,50.405666,47.620189)"><path
         d="m 5.026,15 c 6.038,0 9.341,-5.003 9.341,-9.334 0,-0.14 0,-0.282 -0.006,-0.422 A 6.685,6.685 0 0 0 16,3.542 6.658,6.658 0 0 1 14.111,4.06 3.301,3.301 0 0 0 15.558,2.243 6.533,6.533 0 0 1 13.471,3.036 3.286,3.286 0 0 0 7.875,6.03 9.325,9.325 0 0 1 1.108,2.601 3.289,3.289 0 0 0 2.126,6.983 3.323,3.323 0 0 1 0.64,6.575 V 6.62 A 3.288,3.288 0 0 0 3.272,9.838 3.203,3.203 0 0 1 2.407,9.953 3.23,3.23 0 0 1 1.793,9.896 3.283,3.283 0 0 0 4.86,12.173 6.588,6.588 0 0 1 0.78,13.58 6.32,6.32 0 0 1 0,13.535 9.344,9.344 0 0 0 5.026,15 Z"
         id="path6681"
         style="fill:#0055d4" /></g></g></svg>
