<?xml version="1.0" encoding="UTF-8" standalone="no"?>
<!-- Created with Inkscape (http://www.inkscape.org/) -->

<svg
   version="1.1"
   id="svg382"
   width="200"
   height="200"
   viewBox="0 0 200 200"
   sodipodi:docname="twitter.svg"
   inkscape:export-filename="insta-white.svg"
   inkscape:export-xdpi="34.560001"
   inkscape:export-ydpi="34.560001"
   xml:space="preserve"
   xmlns:inkscape="http://www.inkscape.org/namespaces/inkscape"
   xmlns:sodipodi="http://sodipodi.sourceforge.net/DTD/sodipodi-0.dtd"
   xmlns="http://www.w3.org/2000/svg"
   xmlns:svg="http://www.w3.org/2000/svg"><defs
     id="defs386" /><sodipodi:namedview
     id="namedview384"
     pagecolor="#ffffff"
     bordercolor="#000000"
     borderopacity="0.25"
     inkscape:showpageshadow="2"
     inkscape:pageopacity="0.0"
     inkscape:pagecheckerboard="0"
     inkscape:deskcolor="#d1d1d1"
     showgrid="false"
     showguides="true"><sodipodi:guide
       position="168.73488,155.25682"
       orientation="0,-1"
       id="guide1662"
       inkscape:locked="false" /><sodipodi:guide
       position="157.35949,39.986252"
       orientation="0,-1"
       id="guide1664"
       inkscape:locked="false" /></sodipodi:namedview><g
     inkscape:groupmode="layer"
     inkscape:label="Image"
     id="g388"><g
       style="fill:#ffffff"
       id="g597"
       transform="matrix(11.662414,0,0,11.647657,7.0407764,6.6292715)"><path
         d="M 16,8.049 C 16,3.603 12.418,-0.001 8,-0.001 3.58,0 -0.002,3.603 -0.002,8.05 c 0,4.017 2.926,7.347 6.75,7.951 V 10.376 H 4.718 V 8.05 H 6.75 V 6.275 c 0,-2.017 1.195,-3.131 3.022,-3.131 0.876,0 1.791,0.157 1.791,0.157 v 1.98 h -1.009 c -0.993,0 -1.303,0.621 -1.303,1.258 v 1.51 h 2.218 l -0.354,2.326 H 9.25 V 16 C 13.074,15.396 16,12.066 16,8.049 Z"
         id="path588"
         style="fill:#ffffff" /></g></g></svg>
