<?xml version="1.0" encoding="UTF-8" standalone="no"?>
<!-- Created with Inkscape (http://www.inkscape.org/) -->

<svg
   version="1.1"
   id="svg382"
   width="200"
   height="200"
   viewBox="0 0 200 200"
   sodipodi:docname="gabber.png"
   inkscape:export-filename="../../instagram.svg"
   inkscape:export-xdpi="34.560001"
   inkscape:export-ydpi="34.560001"
   xml:space="preserve"
   xmlns:inkscape="http://www.inkscape.org/namespaces/inkscape"
   xmlns:sodipodi="http://sodipodi.sourceforge.net/DTD/sodipodi-0.dtd"
   xmlns="http://www.w3.org/2000/svg"
   xmlns:svg="http://www.w3.org/2000/svg"><defs
     id="defs386" /><sodipodi:namedview
     id="namedview384"
     pagecolor="#ffffff"
     bordercolor="#000000"
     borderopacity="0.25"
     inkscape:showpageshadow="2"
     inkscape:pageopacity="0.0"
     inkscape:pagecheckerboard="0"
     inkscape:deskcolor="#d1d1d1"
     showgrid="false"
     showguides="true"><sodipodi:guide
       position="168.73488,155.25682"
       orientation="0,-1"
       id="guide1662"
       inkscape:locked="false" /><sodipodi:guide
       position="157.35949,39.986252"
       orientation="0,-1"
       id="guide1664"
       inkscape:locked="false" /></sodipodi:namedview><g
     inkscape:groupmode="layer"
     inkscape:label="Image"
     id="g388"><rect
       style="fill:none;stroke:#d4aa00;stroke-width:10;stroke-dasharray:none"
       id="rect470"
       width="191.74123"
       height="189.19156"
       x="4.5230589"
       y="5.8685374"
       rx="29.131887"
       ry="24.946558" /><g
       id="g2629"
       transform="translate(1.4266183,-2.726008)"><path
         style="fill:#fff6d5;stroke-width:0.424565"
         d="m 99.55808,159.32176 c -0.355819,-0.20845 -1.884255,-0.80116 -3.396524,-1.31713 -1.512271,-0.51597 -2.940637,-1.07093 -3.174149,-1.23323 -0.23351,-0.16233 -1.379837,-0.63999 -2.547392,-1.06149 -1.167555,-0.4215 -3.125864,-1.21603 -4.351796,-1.76562 l -2.228969,-0.99925 v -10.1387 c 0,-8.82476 -0.101569,-10.40741 -0.78371,-12.21201 -1.372737,-3.63158 -2.612994,-7.56964 -2.612905,-8.29647 1.18e-4,-0.92982 -2.015158,-4.78567 -3.141874,-6.01138 -0.490275,-0.53334 -2.323023,-3.15723 -4.072776,-5.83086 -1.749754,-2.67363 -3.299294,-4.95666 -3.443425,-5.07342 -0.144132,-0.11675 -0.595628,-0.86304 -1.003325,-1.6584 -0.407698,-0.79537 -0.909114,-1.65512 -1.114256,-1.91055 -0.205141,-0.25543 -0.881343,-1.09825 -1.502668,-1.872934 l -1.12968,-1.408508 0.263354,-5.809105 c 0.144849,-3.195003 0.455007,-8.865971 0.689248,-12.602148 0.234241,-3.736176 0.51254,-8.56717 0.618443,-10.735545 l 0.192553,-3.942502 4.168716,-4.16976 c 2.292789,-2.293367 6.802069,-6.871804 10.020619,-10.174304 l 5.851916,-6.004541 h 13.91883 13.91883 l 4.42949,4.520527 c 2.43621,2.486294 6.8688,7.004032 9.8502,10.039416 2.98139,3.035384 5.50248,5.920799 5.60242,6.41203 0.0999,0.49123 0.37526,4.714239 0.61185,9.384459 0.23658,4.67022 0.52007,9.542109 0.62999,10.82642 0.10991,1.284311 0.32612,4.737175 0.48047,7.673036 l 0.28062,5.337922 -2.0366,2.941107 c -1.12012,1.6176 -2.14045,3.03663 -2.26737,3.15338 -0.42026,0.38658 -1.31292,1.89885 -1.56632,2.65354 -0.13721,0.40864 -0.41825,0.74299 -0.62453,0.74299 -0.20627,0 -0.37504,0.1819 -0.37504,0.40422 0,0.48589 -3.86669,6.11645 -4.33881,6.31806 -0.18228,0.0779 -0.33224,0.36443 -0.33324,0.63686 -7.9e-4,0.27242 -0.74936,1.48127 -1.663,2.68631 -2.02641,2.67271 -2.58037,3.67671 -2.58237,4.68029 -7.8e-4,0.424 -0.61272,2.29934 -1.35971,4.16742 l -1.35818,3.39652 -0.23241,11.03558 -0.2324,11.03556 -2.22876,0.88785 c -1.22582,0.48832 -2.1494,0.96737 -2.05239,1.06455 0.097,0.0972 -0.23805,0.20131 -0.74454,0.2314 -0.5065,0.0301 -1.78005,0.44389 -2.8301,0.91957 -1.05008,0.47568 -2.6155,1.10669 -3.47873,1.40225 -0.86324,0.29556 -1.45464,0.72326 -1.31424,0.95043 0.1404,0.22718 0.0431,0.28193 -0.2162,0.12167 -0.25931,-0.16027 -1.1719,0.002 -2.02799,0.35896 -1.77307,0.74084 -2.25218,0.77805 -3.16117,0.24553 z"
         id="path2056" /><path
         style="fill:#ffe680;stroke-width:0.428925"
         d="m 98.738605,159.71949 c -1.297497,-0.56727 -5.061309,-2.08293 -8.364029,-3.36812 l -6.004943,-2.3367 v -10.41743 -10.41743 l 1.072311,-0.29827 1.072311,-0.29828 -1.086255,-0.0428 c -0.997404,-0.0393 -1.2199,-0.44883 -2.720236,-5.0074 l -1.633987,-4.96465 2.934701,-3.07233 c 1.614087,-1.68978 5.347763,-5.5494 8.297057,-8.57693 l 5.362354,-5.5046 3.430601,2.43392 c 1.88683,1.33865 3.62806,2.65521 3.86941,2.92569 0.47124,0.52814 1.74657,1.38835 2.75913,1.86103 0.66148,0.3088 1.84372,1.21239 2.97871,2.27662 0.3774,0.35388 1.58931,1.21477 2.69314,1.91311 1.10383,0.69833 1.89319,1.47039 1.75414,1.71568 -0.13905,0.24529 -0.0973,0.30536 0.0927,0.13348 0.30319,-0.27421 3.77724,1.95965 5.2608,3.38278 0.76834,0.73703 0.69928,1.21359 -0.91136,6.28887 l -1.44751,4.56127 -0.0503,10.38635 c -0.0277,5.71251 -0.19661,10.52605 -0.37541,10.69677 -0.24903,0.23775 -13.97818,5.84284 -16.19534,6.61195 -0.23591,0.0818 -1.49052,-0.31535 -2.788014,-0.88262 z m 23.220545,-40.99048 c -0.0409,-1.1558 0.079,-2.10147 0.26654,-2.10147 0.18749,0 0.26866,-0.75745 0.18038,-1.68323 -0.0883,-0.92577 0.14968,-6.37848 0.52881,-12.11712 0.37914,-5.738635 0.70866,-11.92976 0.73228,-13.758048 0.0237,-1.828288 0.22892,-3.324169 0.45622,-3.324169 0.48351,0 4.63122,4.339426 4.63642,4.850721 0.002,0.190857 0.19655,0.227715 0.43246,0.08191 0.2359,-0.145795 0.42892,-0.07556 0.42892,0.156157 0,0.533666 2.50621,3.060779 3.03546,3.060779 0.21777,0 0.39594,0.381586 0.39594,0.847962 0,0.466377 0.4924,1.170599 1.09423,1.564929 0.60183,0.394331 1.36877,1.24785 1.7043,1.896704 0.55073,1.064989 0.52774,1.284381 -0.23638,2.255805 -0.46555,0.59185 -0.84645,1.20711 -0.84645,1.36724 0,0.16013 -0.55639,1.09477 -1.23644,2.07696 -0.68003,0.98221 -1.97558,2.94392 -2.87897,4.35937 -0.90339,1.41545 -2.37367,3.55616 -3.26727,4.75715 -0.89361,1.20098 -1.62475,2.31028 -1.62475,2.46511 0,0.15483 -0.83864,1.42074 -1.86366,2.81312 l -1.86365,2.5316 z M 97.650733,104.0815 C 97.338909,103.25833 95.75519,97.86667 94.910449,94.752394 94.010798,91.435661 89.580642,76.121458 88.66113,73.14968 87.80253,70.374766 87.806417,70.35241 89.393901,68.935106 90.6606,67.8042 96.461702,62.427909 100.71486,58.443174 c 0.96899,-0.907831 3.28519,-2.999598 5.1471,-4.648367 1.86192,-1.648769 4.25387,-3.842769 5.31546,-4.875551 4.02813,-3.918835 2.62918,-4.611205 13.781,6.820449 5.39542,5.530798 9.80986,10.212831 9.80986,10.404517 0,0.191687 -0.49322,1.231967 -1.09605,2.311733 -0.60282,1.079762 -1.01557,2.178494 -0.91721,2.441627 0.0984,0.263132 0.009,0.864454 -0.19953,1.336271 -0.32171,0.729391 -0.34751,0.697277 -0.17224,-0.214462 l 0.20613,-1.072311 -0.85256,1.072311 c -0.4689,0.589771 -1.12501,1.69508 -1.458,2.456241 -0.33299,0.761156 -1.00322,1.810889 -1.48939,2.332732 -0.48618,0.521842 -0.88395,1.28885 -0.88395,1.70446 0,0.415611 -0.25292,0.910011 -0.56204,1.098664 -0.93992,0.573617 -1.9608,2.33516 -1.71879,2.965793 0.12539,0.326785 0.005,0.59415 -0.26731,0.59415 -0.27241,0 -0.92036,0.437953 -1.43989,0.973233 -0.51953,0.535281 -1.71667,1.534315 -2.6603,2.220076 -0.94364,0.685769 -2.00522,1.507467 -2.35909,1.826001 -0.57118,0.514157 -6.61543,5.356251 -10.07972,8.074949 -0.70773,0.555404 -3.38053,2.66181 -5.93954,4.68089 -2.55903,2.01909 -4.736516,3.67107 -4.83887,3.67107 -0.102354,0 -0.277493,-0.24127 -0.389197,-0.53615 z M 65.862829,96.894196 c 0.132791,-0.591312 0.54455,-6.960845 0.915021,-14.154506 0.607696,-11.799983 0.895363,-16.081856 1.08043,-16.081856 0.03487,0 0.128283,-0.339335 0.207592,-0.75408 0.07931,-0.414744 4.499912,-5.143637 9.823565,-10.508651 l 9.67936,-9.754572 0.0089,12.228403 c 0.0085,11.768897 -0.02333,12.248537 -0.848965,12.764143 -0.471818,0.294654 -0.85785,0.73742 -0.85785,0.983923 0,0.246503 -1.061589,1.77869 -2.359085,3.404863 -1.297496,1.626173 -2.359085,3.061281 -2.359085,3.189136 0,0.127849 -0.274208,0.572438 -0.609348,0.987976 -0.335144,0.415538 -1.550776,1.913614 -2.701409,3.32907 -1.150633,1.415448 -2.984993,3.828148 -4.076353,5.361552 -1.09136,1.533411 -2.384932,3.214225 -2.874609,3.735162 -0.489674,0.520929 -0.890319,1.053395 -0.890319,1.183247 0,0.221815 -0.352409,0.644265 -3.232136,3.874545 -1.132262,1.270093 -1.144001,1.272835 -0.905695,0.211645 z m 65.127341,-22.70244 c 0.28512,-0.456556 0.67427,-0.733773 0.86477,-0.616038 0.1905,0.117735 0.0692,0.491281 -0.26968,0.830106 -0.87848,0.878485 -1.20422,0.761311 -0.59509,-0.214068 z"
         id="path2052" /><path
         style="fill:#ffcc00;stroke-width:0.436751"
         d="m 92.054265,157.56646 -8.196745,-3.27835 0.116849,-10.5456 0.116848,-10.54561 16.159793,-0.22648 16.15979,-0.22646 -14.41279,-0.13558 c -7.92703,-0.0746 -14.117977,-0.23269 -13.757657,-0.3514 0.360319,-0.11871 1.048203,-0.38806 1.528628,-0.59857 0.480427,-0.21052 2.445807,-0.79431 4.367512,-1.29731 1.921705,-0.50301 4.280161,-1.18125 5.241014,-1.50723 0.960853,-0.32596 3.712383,-1.11708 6.114513,-1.75803 2.40214,-0.64095 6.23463,-1.73547 8.51665,-2.43228 2.28203,-0.69682 4.54221,-1.32775 5.02263,-1.40207 0.48043,-0.0744 1.13226,-0.29653 1.4485,-0.4938 1.04179,-0.64981 1.01096,0.0212 -0.17076,3.71784 -1.78795,5.59305 -2.03373,6.08309 -2.91127,5.80457 -0.42272,-0.13416 -0.76859,-0.0342 -0.76859,0.22224 0,0.25641 0.39651,0.46618 0.88113,0.46618 0.86296,0 0.87872,0.22156 0.76431,10.74309 l -0.11681,10.74306 -8.06836,3.23296 c -4.4376,1.77813 -8.46663,3.21366 -8.95341,3.19007 -0.48676,-0.0236 -4.573564,-1.51815 -9.081775,-3.32124 z m -9.537488,-30.32785 -1.535765,-4.7491 8.021812,-8.18558 c 4.411999,-4.50208 7.956986,-7.98906 7.87775,-7.74885 -0.07923,0.24021 -1.876833,3.97444 -3.994661,8.29827 -2.117828,4.32384 -4.760404,9.72864 -5.872394,12.01066 -1.111987,2.28202 -2.233113,4.36842 -2.491386,4.63642 -0.338421,0.35117 -0.898571,-0.83927 -2.005356,-4.26182 z M 96.582976,99.021125 c -0.77622,-2.58229 -1.691842,-5.677765 -2.034723,-6.87883 -0.342875,-1.201065 -1.131609,-3.952598 -1.752738,-6.114516 -0.621135,-2.161918 -1.391848,-4.91345 -1.712703,-6.114515 -0.32085,-1.201067 -1.091664,-3.839829 -1.712912,-5.863922 -1.3794,-4.494204 -1.416664,-5.020874 -0.31347,-4.430465 0.448841,0.240214 0.940187,0.312644 1.091879,0.160952 0.151689,-0.151693 0.275799,-0.0465 0.275799,0.233741 0,0.28025 0.288139,0.509544 0.640308,0.509544 0.646689,0 1.45098,0.315343 6.032088,2.365043 1.38779,0.620933 2.690671,1.128966 2.895289,1.128966 0.338057,0 2.071887,0.731121 7.351657,3.100059 1.0183,0.456885 2.00099,0.830137 2.18376,0.829448 0.61624,-0.0022 6.00873,2.382084 6.15568,2.721868 0.08,0.185151 0.50396,0.336643 0.94198,0.336643 1.02717,0 6.55557,2.474222 6.55557,2.933933 0,0.192476 -0.42234,0.613713 -0.93853,0.936083 -1.19344,0.745312 -11.36308,8.746772 -11.94563,9.398802 -0.2402,0.268864 -1.9993,1.668071 -3.9091,3.10935 -1.9098,1.441278 -4.45305,3.455791 -5.65166,4.476691 -1.19862,1.02092 -2.305742,1.8562 -2.460272,1.8562 -0.154532,0 -0.916056,-2.11278 -1.692272,-4.695075 z M 123.76977,82.111008 c 0.13531,-0.352629 0.0862,-0.739953 -0.10926,-0.860719 -0.30946,-0.191266 -0.59792,-1.397376 -1.52094,-6.359664 -0.11171,-0.600533 -0.50358,-2.369374 -0.87082,-3.93076 -0.36724,-1.561385 -1.17025,-5.09907 -1.78448,-7.86152 -0.61421,-2.762452 -1.62597,-7.184557 -2.24835,-9.8269 -2.25405,-9.569781 -2.89812,-9.685005 8.10447,1.449868 5.29778,5.361478 9.63234,9.941187 9.63234,10.177124 0,0.419342 -1.75124,3.878258 -2.18376,4.313201 -0.30953,0.311268 -1.16144,1.709478 -2.14661,3.523175 -0.46502,0.856115 -1.84286,3.062621 -3.06184,4.903348 -1.21897,1.840723 -2.21632,3.463624 -2.21632,3.606446 0,0.356354 -1.17915,1.507538 -1.54416,1.507538 -0.16296,0 -0.18559,-0.288513 -0.0502,-0.641137 z M 81.689086,67.642916 c -5.321341,-1.210819 -8.616261,-1.877292 -10.53224,-2.130394 -4.229638,-0.558727 -4.324902,-0.388665 6.184068,-11.040012 5.273294,-5.344742 9.637255,-9.717644 9.697687,-9.717559 0.06043,8.5e-5 0.109875,5.257478 0.109875,11.683096 v 11.682936 l -1.52863,0.03424 C 84.7791,68.174053 83.010258,67.943517 81.689086,67.6429 Z"
         id="path2050" /><path
         style="fill:#000000;stroke-width:0.44985"
         d="m 92.44952,157.81617 -8.434684,-3.38741 v -10.70189 -10.70188 l 1.012162,-0.27125 c 1.326796,-0.35557 32.439802,-0.36534 33.364552,-0.0105 0.62126,0.2384 0.71157,1.63089 0.71157,10.97139 v 10.69834 l -8.68877,3.4238 c -4.77882,1.88309 -8.87807,3.41097 -9.10945,3.3953 -0.23139,-0.0157 -4.216302,-1.55284 -8.85538,-3.41592 z"
         id="path2048" /></g></g></svg>
