<?xml version="1.0" encoding="UTF-8" standalone="no"?>
<!-- Created with Inkscape (http://www.inkscape.org/) -->

<svg
   width="50"
   height="50"
   viewBox="0 0 13.229167 13.229167"
   version="1.1"
   id="svg5"
   xml:space="preserve"
   xmlns:inkscape="http://www.inkscape.org/namespaces/inkscape"
   xmlns:sodipodi="http://sodipodi.sourceforge.net/DTD/sodipodi-0.dtd"
   xmlns="http://www.w3.org/2000/svg"
   xmlns:svg="http://www.w3.org/2000/svg"><sodipodi:namedview
     id="namedview7"
     pagecolor="#ffffff"
     bordercolor="#000000"
     borderopacity="0.25"
     inkscape:showpageshadow="2"
     inkscape:pageopacity="0.0"
     inkscape:pagecheckerboard="0"
     inkscape:deskcolor="#d1d1d1"
     inkscape:document-units="mm"
     showgrid="false" /><defs
     id="defs2" /><g
     inkscape:label="Layer 1"
     inkscape:groupmode="layer"
     id="layer1"><path
       style="fill:#000000;stroke-width:0.0303965"
       d="M 6.0093942,13.12659 C 4.6891358,12.974721 3.5307083,12.50647 2.5373047,11.723131 2.2597024,11.504231 1.7268113,10.971339 1.5079109,10.693738 0.68318769,9.6478505 0.21929483,8.4476016 0.08474347,7.0115136 -0.00788057,6.0229253 0.27240964,4.6734037 0.77609091,3.6828628 1.436436,2.3842285 2.3960024,1.4235581 3.6893526,0.76625189 4.421067,0.39438008 5.2086578,0.17642847 6.1435366,0.08710059 c 0.4262468,-0.04072971 0.531244,-0.04072971 0.9574899,0 1.665486,0.15913771 3.0221645,0.78205186 4.1414475,1.90153021 1.118608,1.1188061 1.742497,2.4776282 1.901469,4.1413843 0.04073,0.4262459 0.04073,0.5312432 0,0.9574891 -0.08847,0.9259823 -0.290642,1.6660654 -0.657404,2.4066192 -0.648517,1.3094716 -1.625626,2.2949806 -2.9313284,2.9565306 -0.7195808,0.364584 -1.4596369,0.577253 -2.3579788,0.677608 -0.4808485,0.05371 -0.7091314,0.0534 -1.1878376,-0.0017 z m 1.327205,-1.628465 c 1.00333,-0.145638 1.9514036,-0.610696 2.6864478,-1.317778 0.817974,-0.7868578 1.294548,-1.6951938 1.483166,-2.8268734 0.05968,-0.3580065 0.05962,-1.1316179 -9e-5,-1.490408 C 11.147337,3.7075158 9.5235258,2.0837058 7.367976,1.7249293 7.0091859,1.6652137 6.2355753,1.6651631 5.8775679,1.7248289 4.3923934,1.9723658 3.186147,2.7804243 2.3931245,4.0590396 1.7683803,5.0663363 1.5327788,6.398887 1.7738576,7.5615866 2.0494869,8.890917 2.7940318,9.9966344 3.9095047,10.73322 c 1.010495,0.667262 2.2278874,0.938977 3.4270945,0.764905 z M 4.3577441,9.3031585 C 4.162497,9.2118358 4.0197668,9.0667725 3.9250239,8.863361 3.8622636,8.728613 3.8516785,8.6674071 3.8619684,8.4986035 3.8688003,8.3870418 3.9000244,8.2410507 3.9314341,8.1741786 3.9666899,8.0991125 4.2623839,7.7761518 4.7042554,7.3300944 L 5.4199731,6.6075971 4.7162929,5.9014607 C 4.2751149,5.4587416 3.9862755,5.144298 3.9420067,5.0585395 3.8854119,4.9488991 3.8714022,4.8735005 3.8714022,4.6785832 c 0,-0.2103901 0.011236,-0.2622911 0.083375,-0.3850024 C 4.189886,3.893635 4.64595,3.7372343 5.0416641,3.920847 5.175367,3.9828819 5.3503665,4.1393933 5.9155632,4.702402 L 6.6222807,5.4063842 7.3289989,4.7022004 C 8.1412814,3.8928313 8.2389661,3.826025 8.5777717,3.8481745 9.0218352,3.8772058 9.3549518,4.2098609 9.383132,4.6524223 9.404783,4.9924425 9.3383453,5.0896236 8.5288404,5.9020419 L 7.8246566,6.6087601 8.5286396,7.3154775 C 9.0916467,7.8806742 9.2481555,8.0556745 9.3101937,8.1893766 9.4528431,8.4968071 9.396837,8.8318611 9.1584843,9.0969669 8.9706923,9.3058364 8.7731495,9.3863149 8.492887,9.3681303 8.374808,9.360455 8.2312039,9.3300659 8.1725013,9.3003094 8.1139919,9.2706456 7.7413728,8.9235564 7.3444659,8.5290054 L 6.6228188,7.8116396 5.8854348,8.5432325 C 5.2451795,9.17846 5.1283209,9.2814121 4.998254,9.3248332 4.7817573,9.3971075 4.5411999,9.3889685 4.3577432,9.3031652 Z"
       id="path302" /></g></svg>
