<?xml version="1.0" encoding="UTF-8" standalone="no"?>
<!-- Created with Inkscape (http://www.inkscape.org/) -->

<svg
   width="210mm"
   height="297mm"
   viewBox="0 0 210 297"
   version="1.1"
   id="svg3698"
   xml:space="preserve"
   xmlns:inkscape="http://www.inkscape.org/namespaces/inkscape"
   xmlns:sodipodi="http://sodipodi.sourceforge.net/DTD/sodipodi-0.dtd"
   xmlns="http://www.w3.org/2000/svg"
   xmlns:svg="http://www.w3.org/2000/svg"><sodipodi:namedview
     id="namedview3700"
     pagecolor="#ffffff"
     bordercolor="#000000"
     borderopacity="0.25"
     inkscape:showpageshadow="2"
     inkscape:pageopacity="0.0"
     inkscape:pagecheckerboard="0"
     inkscape:deskcolor="#d1d1d1"
     inkscape:document-units="mm"
     showgrid="false" /><defs
     id="defs3695" /><g
     id="g3718"
     transform="matrix(0.35277776,0,0,-0.35277778,-15.328952,207.8802)"><path
       style="fill:#ffffff;stroke-width:0.75"
       d="m 178.27559,117.31826 c -1.98867,1.98867 0.10706,4.02042 17.91475,17.3679 10.08439,7.55859 18.33525,14.05588 18.33525,14.43842 0,0.64849 -30.43936,25.2313 -34.69522,28.01985 -1.06085,0.69509 -2.13174,1.79259 -2.37974,2.43888 -1.29468,3.37389 -7.98047,3.23494 155.66332,3.23494 h 154.40469 l 17.81599,-14.66536 c 22.86176,-18.81884 21.94099,-18.00719 21.94099,-19.3409 0,-0.62787 -1.09687,-1.91631 -2.4375,-2.86318 -1.34062,-0.94687 -10.2935,-7.8886 -19.89528,-15.42607 L 487.48505,116.81825 H 333.13032 c -84.8951,0 -154.57973,0.225 -154.85473,0.50001 z m 311.98822,7.32935 c 14.89723,11.30619 29.90304,23.51896 30.04603,24.45357 0.14479,0.94638 -7.22897,7.26211 -29.5145,25.27957 l -4.87024,3.9375 H 336.25852 c -134.43014,0 -149.56938,-0.11712 -148.71171,-1.15056 0.52519,-0.63282 8.07589,-6.77833 16.77934,-13.65671 16.00806,-12.65125 16.91735,-13.44829 16.93796,-14.84722 0.006,-0.42873 -7.58227,-6.46431 -16.86352,-13.4124 -9.28125,-6.9481 -16.875,-12.92545 -16.875,-13.28301 0,-0.36462 65.50736,-0.6501 149.1757,-0.6501 h 149.1757 z"
       id="path6515" /><path
       style="font-variation-settings:normal;opacity:1;vector-effect:none;fill:#ffffff;fill-opacity:1;fill-rule:evenodd;stroke-width:0.749999;stroke-linecap:butt;stroke-linejoin:miter;stroke-miterlimit:4;stroke-dasharray:none;stroke-dashoffset:0;stroke-opacity:1;-inkscape-stroke:none;stop-color:#000000;stop-opacity:1"
       id="path6569"
       transform="scale(1,-1)"
       sodipodi:type="arc"
       sodipodi:cx="349.94946"
       sodipodi:cy="-350.24997"
       sodipodi:rx="62.313473"
       sodipodi:ry="62.313469"
       sodipodi:start="0.086039185"
       sodipodi:end="0.083959649"
       sodipodi:open="true"
       sodipodi:arc-type="arc"
       d="m 412.03243,-344.89518 a 62.313473,62.313469 0 0 1 -67.40548,56.73095 62.313473,62.313469 0 0 1 -56.76599,-67.37597 62.313473,62.313469 0 0 1 67.34646,-56.80101 62.313473,62.313469 0 0 1 56.83601,67.31691" /><path
       style="fill:#ffffff;fill-rule:evenodd;stroke:#ffffff;stroke-width:19.1074px;stroke-linecap:butt;stroke-linejoin:miter;stroke-opacity:1"
       d="m 348.69088,288.32105 0.57771,-108.09152"
       id="path6620"
       inkscape:connector-type="polyline"
       inkscape:connector-curvature="0" /></g></svg>
